<?xml version="1.0" encoding="utf-8"?>
<!-- Generator: Adobe Illustrator 24.1.0, SVG Export Plug-In . SVG Version: 6.00 Build 0)  -->
<svg version="1.1" xmlns="http://www.w3.org/2000/svg" xmlns:xlink="http://www.w3.org/1999/xlink" x="0px" y="0px"
	 viewBox="0 0 300 300" style="enable-background:new 0 0 300 300;" xml:space="preserve">
<style type="text/css">
	.st0{fill:#E42F38;}
	.st1{fill:#B62E32;}
	.st2{fill:none;stroke:#E42F38;stroke-width:10;stroke-miterlimit:10;}
	.st3{fill:#F6F6F8;}
	.st4{fill:#B3B3B3;}
</style>
<g id="Capa_1">
</g>
<g id="color_circle">
	<g>
		<path class="st0" d="M12.5,150c0,75.94,61.56,137.5,137.5,137.5v-275C74.06,12.5,12.5,74.06,12.5,150z"/>
		<path class="st1" d="M150,12.5v275c75.94,0,137.5-61.56,137.5-137.5S225.94,12.5,150,12.5z"/>
	</g>
</g>
<g id="circle">
	<circle class="st2" cx="150" cy="150" r="140"/>
</g>
<g id="A">
	<polygon class="st3" points="150,41.8 66.39,228.07 97.25,228.07 114.13,187.89 150,187.89 150,160.61 125.59,160.61 150,102.5 	
		"/>
	<polygon class="st4" points="150,41.8 233.61,228.07 202.75,228.07 185.87,187.89 150,187.89 150,160.61 174.41,160.61 150,102.5 	
		"/>
</g>
</svg>
