<?xml version="1.0" encoding="utf-8"?>
<!-- Generator: Adobe Illustrator 24.1.0, SVG Export Plug-In . SVG Version: 6.00 Build 0)  -->
<svg version="1.1" xmlns="http://www.w3.org/2000/svg" xmlns:xlink="http://www.w3.org/1999/xlink" x="0px" y="0px"
	 viewBox="0 0 300 300" style="enable-background:new 0 0 300 300;" xml:space="preserve">
<style type="text/css">
	.st0{fill:#F4F4F4;}
	.st1{fill:none;stroke:#BABABA;stroke-width:10;stroke-miterlimit:10;}
	.st2{fill:#EC2025;}
	.st3{fill:#0D8AC7;}
</style>
<g id="Capa_1">
</g>
<g id="color_circle">
	<circle class="st0" cx="150" cy="150" r="137.5"/>
</g>
<g id="circle">
	<circle class="st1" cx="150" cy="150" r="140"/>
</g>
<g id="JAVA">
	<g>
		<path class="st2" d="M170.34,44.53c5.45,7.31,5.74,15.15,2.66,23.27c-3.71,9.8-10.7,17.14-18.35,23.94
			c-4.48,3.98-9.33,7.55-13.32,12.08c-8.38,9.55-9.3,18.63-2.76,29.54c2.07,3.46,4.51,6.7,6.72,10.07c1.17,1.77,2.22,3.62,3.34,5.46
			c-0.55,0.25-0.7,0.36-0.74,0.33c-9.1-7.86-17.94-15.96-22.57-27.45c-2.96-7.34-0.46-13.69,4.35-19.33
			c5.69-6.66,12.78-11.75,19.64-17.08c4.36-3.39,8.49-7.03,12.24-11.08C169.42,65.8,172.56,55.96,170.34,44.53z"/>
		<path class="st3" d="M211.12,212.2c3.5,3.32,3.6,4.61,0.85,6.85c-3.49,2.84-7.71,4.23-11.96,5.44
			c-14.94,4.26-30.28,5.85-45.73,6.55c-22,1-43.85-0.63-65.61-3.77c-3.15-0.45-6.3-1.1-9.16-2.57c-2.52-1.3-2.84-3.06-0.96-5.32
			c2.49-2.99,6.01-4.16,9.41-5.49c6.08-2.38,12.32-3.98,19-3.29c-0.23,1.63-1.48,1.18-2.31,1.28c-4.45,0.52-8.57,2.01-12.53,4.02
			c-1.12,0.57-2.38,1.21-2.23,2.6c0.15,1.37,1.53,1.77,2.69,2.17c7.47,2.57,15.23,3.79,23.04,4.37c21.19,1.57,42.39,1.36,63.55-0.73
			c8.04-0.79,16.05-1.96,23.91-3.9c1.77-0.44,3.46-1.23,5.13-1.99C210.49,217.39,212.13,215.87,211.12,212.2z"/>
		<path class="st2" d="M158.51,157.22c0.96-1.58,1.42-2.36,1.89-3.14c3.42-5.67,3.18-10.74-0.95-15.95
			c-2.21-2.78-4.49-5.49-6.15-8.67c-4.61-8.82-3.77-17.26,2.6-24.92c6.64-7.99,15.72-12.29,24.95-16.29
			c2.96-1.28,5.94-2.67,9.49-2.38c-3.42,2.27-6.84,4.54-10.27,6.8c-4.82,3.17-9.37,6.7-13.37,10.87
			c-6.18,6.44-6.77,12.36-1.99,19.87c1.51,2.37,3.26,4.58,4.91,6.86c3.98,5.53,4.06,11.49,0.08,17.04
			C166.92,151.19,163.5,154.38,158.51,157.22z"/>
		<path class="st3" d="M123.19,196.14c-2.06,3.25-0.72,4.3,1.69,4.92c5.99,1.54,12.13,1.85,18.23,1.96c7.72,0.14,15.46-0.42,23-2.18
			c3.17-0.74,5.67-0.01,8.27,1.5c1.89,1.09,3.91,1.96,6.41,3.19c-7.81,3.34-15.47,5.41-23.42,6.19c-9.91,0.98-19.82,1-29.62-1.24
			c-3.37-0.77-6.64-1.79-9.6-3.56c-4.84-2.89-4.77-5.96,0.12-8.59C119.64,197.6,121.1,197.06,123.19,196.14z"/>
		<path class="st3" d="M190.06,159.76c-6.36,5.49-14.16,6.21-21.74,7.19c-18.63,2.4-37.33,3.18-56.08,1.57
			c-5.26-0.45-10.45-1.28-15.45-2.98c-1.45-0.49-3.31-0.9-3.42-2.85c-0.1-1.76,1.54-2.46,2.81-3.06c8.92-4.18,18.15-7.22,28.27-6.96
			c-3.47,1.17-7.01,2.17-10.38,3.58c-2.47,1.03-6.71,1.51-6.36,4.45c0.34,2.85,4.59,2.62,7.23,2.93c7.67,0.89,15.41,0.69,23.13,0.69
			C155.47,164.29,172.7,162.14,190.06,159.76z"/>
		<path class="st3" d="M118.24,174.77c-2.24,4.45-1.65,6.13,2.67,6.7c10.3,1.36,20.66,2.29,31.08,1.42
			c7.68-0.64,15.33-1.52,22.88-3.09c1.04-0.22,1.83-0.05,2.71,0.59c1.96,1.43,4.03,2.71,6.26,4.19c-8.52,2.83-17.21,4.05-25.92,5.07
			c-12.46,1.45-24.9,1.04-37.25-1.26c-3.26-0.61-6.44-1.48-9.3-3.22c-3.41-2.08-3.52-4.55-0.35-6.87c0.88-0.65,1.86-1.18,2.85-1.66
			C115.06,176.07,116.29,175.6,118.24,174.77z"/>
		<path class="st3" d="M111.04,236.1c14.66,1.48,29.36,2.1,44.07,1.44c18.98-0.85,37.87-2.48,56.07-8.59
			c3.74-1.26,7.21-3.01,11.07-5.6c-0.74,4.07-3.33,5.84-6.01,7.33c-6.94,3.85-14.56,5.74-22.31,6.97
			c-24.72,3.92-49.54,4.02-74.38,1.44c-3.63-0.38-7.29-0.94-10.77-2.18C109,235.11,110.18,236.05,111.04,236.1z"/>
		<path class="st3" d="M192.63,188.18c5.93-3.92,12.07-7.46,16.81-12.91c1.47-1.69,2.67-3.5,3.61-5.48
			c2.03-4.27,2.42-8.58-0.84-12.38c-3.41-3.97-7.73-5.91-13.1-4.45c-0.8,0.22-1.61,0.36-2.68,0.6c5.65-5.12,16.43-4.44,22.23,1.19
			c5.24,5.09,5.31,13.22,0.19,19.23C211.94,182.11,202.49,185.52,192.63,188.18z"/>
	</g>
</g>
</svg>
