<?xml version="1.0" encoding="utf-8"?>
<!-- Generator: Adobe Illustrator 24.1.0, SVG Export Plug-In . SVG Version: 6.00 Build 0)  -->
<svg version="1.1" xmlns="http://www.w3.org/2000/svg" xmlns:xlink="http://www.w3.org/1999/xlink" x="0px" y="0px"
	 viewBox="0 0 300 300" style="enable-background:new 0 0 300 300;" xml:space="preserve">
<style type="text/css">
	.st0{fill:#F7DF1E;}
	.st1{fill:none;stroke:#EDC915;stroke-width:10;stroke-miterlimit:10;}
</style>
<g id="Capa_1">
</g>
<g id="color_circle">
	<circle class="st0" cx="150" cy="150" r="137.5"/>
</g>
<g id="circle">
	<circle class="st1" cx="150" cy="150" r="140"/>
</g>
<g id="JS_1_">
	<g>
		<path d="M217.14,237.23c-13.56-0.25-25.7-4.1-35.33-14.03c-2.36-2.43-4.08-5.47-6.12-8.21c-1.25-1.67-0.84-2.73,0.94-3.72
			c5.29-2.96,10.55-5.97,15.75-9.1c1.91-1.15,2.78-0.31,3.76,1.18c3.49,5.32,8.05,9.33,14.33,11.01c5.33,1.42,10.68,1.43,15.85-0.66
			c8.35-3.38,9.99-13.31,2.6-18.44c-5.23-3.63-11.46-5.82-17.14-8.84c-6.02-3.21-12.38-6.03-17.77-10.11
			c-11.3-8.55-14.15-20.67-11.17-33.91c2.82-12.53,11.44-19.96,23.82-22.82c9.68-2.24,19.26-1.72,28.39,2.55
			c6.44,3.01,11.05,7.99,14.42,14.14c0.35,0.64,0.07,2.27-0.47,2.64c-5.09,3.48-10.29,6.79-15.46,10.13
			c-1.67,1.08-2.41,0.01-3.19-1.31c-2.82-4.77-6.88-7.65-12.54-8.04c-4.9-0.34-9.4,1.87-11.14,5.58c-2.22,4.73-1.3,9.85,3.23,12.72
			c4.76,3.01,10,5.28,15.14,7.65c7.55,3.49,15.16,6.83,21.59,12.29c9.48,8.05,11.17,15.55,9.88,27.4
			c-2.61,17.62-15.87,29.54-30.58,31.36C223.02,237.03,220.07,237.05,217.14,237.23z"/>
		<path d="M162.86,162.95c0,12.73,0.05,25.47-0.02,38.2c-0.04,6.12-1.17,12.07-3.84,17.62c-3.84,8-10.28,13.07-18.77,15.17
			c-14.14,3.51-27.75,2.68-39.32-7.28c-3.4-2.92-5.81-7.04-8.54-10.69c-1.03-1.37-0.83-2.67,0.93-3.59
			c5.19-2.74,10.34-5.55,15.47-8.38c1.55-0.85,2.55-0.36,3.43,0.99c1.17,1.8,2.28,3.66,3.63,5.32c3.78,4.64,10.06,6.34,15.68,4.33
			c3.41-1.22,5.59-3.65,6.24-7.18c0.54-2.97,0.94-6.01,0.94-9.03c0.07-25.07,0.04-50.15,0.04-75.22c0-4.45,0.01-4.46,4.58-4.46
			c5.19,0,10.38-0.02,15.57,0.01c3.9,0.02,3.98,0.1,3.99,3.93C162.87,136.12,162.87,149.53,162.86,162.95
			C162.86,162.95,162.86,162.95,162.86,162.95z"/>
	</g>
</g>
</svg>
