<?xml version="1.0" encoding="utf-8"?>
<!-- Generator: Adobe Illustrator 24.1.0, SVG Export Plug-In . SVG Version: 6.00 Build 0)  -->
<svg version="1.1" xmlns="http://www.w3.org/2000/svg" xmlns:xlink="http://www.w3.org/1999/xlink" x="0px" y="0px"
	 viewBox="0 0 300 300" style="enable-background:new 0 0 300 300;" xml:space="preserve">
<style type="text/css">
	.st0{fill:#263742;}
	.st1{fill:none;stroke:#1B252B;stroke-width:10;stroke-miterlimit:10;}
	.st2{fill:#10A950;}
	.st3{fill:#12914F;}
	.st4{fill:#B7C3C1;}
</style>
<g id="Capa_1">
</g>
<g id="color_circle">
	<circle class="st0" cx="150" cy="150" r="137.5"/>
</g>
<g id="circle">
	<circle class="st1" cx="150" cy="150" r="140"/>
</g>
<g id="MONGO">
	<g>
		<path class="st2" d="M146.22,229.52c-6.17-4.09-11.38-9.25-16.27-14.75c-12.24-13.78-20.98-29.43-25.04-47.54
			c-2.35-10.44-2.63-20.98-1.6-31.6c1.26-12.95,4.15-25.51,9.17-37.54c6.83-16.34,16.91-30.33,30.31-41.89
			c3.28-2.83,5.8-5.92,6.03-10.43c0.01-0.21-0.15-0.72,0.39-0.53c0.16,0.06,0.23,0.39,0.34,0.59c1.54,3.87,1.84,7.96,1.9,12.03
			c0.07,4.52,0.36,9.02,0.48,13.54c0.38,13.67,0.01,27.35,0.41,41.01c0.35,11.99-0.04,23.97,0.32,35.95
			c0.18,6.08,0.4,12.16,0.29,18.24c-0.21,11.25-0.39,22.51-1.35,33.73c-0.08,0.9-0.07,1.81-0.08,2.71c-0.17,1.8,0.27,3.61-0.94,5.38
			c-0.58,0.84-0.13,2.41-0.17,3.65c-0.17,5.37-1.01,10.64-2.65,15.76C147.51,228.57,147.39,229.55,146.22,229.52z"/>
		<path class="st3" d="M150.55,203.29c0.49-9.37,1.03-18.73,1.27-28.11c0.17-6.5,0.43-13.01,0.17-19.49
			c-0.5-12.64,0.11-25.29-0.36-37.91c-0.42-11.26,0.07-22.52-0.34-33.76c-0.46-12.73-0.25-25.51-1.75-38.19
			c1.25,2.46,2.58,4.89,3.74,7.39c2.29,4.92,6.11,8.64,9.84,12.37c15.41,15.39,24.82,34.06,30.53,54.86
			c3.27,11.93,4.33,24.04,3.15,36.28c-2.5,25.93-12.95,48.08-32.22,65.84c-2.07,1.91-4.42,3.52-6.64,5.27
			c-1.24,0.62-1.91-0.36-2.59-1.03c-1.3-1.28-2.14-2.88-2.8-4.58c-1.86-4.77-2.4-9.73-2.15-14.8
			C150.47,206.05,150.27,204.66,150.55,203.29z"/>
		<path class="st4" d="M150.55,203.29c0.26,6.01,0.68,12,2.59,17.77c0.91,2.75,2.28,5.17,4.8,6.78c-1.87,8.56-3.44,17.18-4.39,25.89
			c-0.1,0.9-0.47,1.13-1.25,1.06c-0.48-0.04-0.97-0.15-1.43-0.08c-1.54,0.22-1.87-0.6-1.98-1.93c-0.65-7.78-1.63-15.52-2.67-23.26
			c2.27-6.28,3.02-12.85,3.67-19.44C150.11,207.82,150.33,205.56,150.55,203.29z"/>
	</g>
</g>
</svg>
