<?xml version="1.0" encoding="utf-8"?>
<!-- Generator: Adobe Illustrator 24.1.0, SVG Export Plug-In . SVG Version: 6.00 Build 0)  -->
<svg version="1.1" xmlns="http://www.w3.org/2000/svg" xmlns:xlink="http://www.w3.org/1999/xlink" x="0px" y="0px"
	 viewBox="0 0 300 300" style="enable-background:new 0 0 300 300;" xml:space="preserve">
<style type="text/css">
	.st0{fill:#004D5F;}
	.st1{fill:none;stroke:#107999;stroke-width:10;stroke-miterlimit:10;}
	.st2{fill:#FFFFFF;}
	.st3{fill:#E38D00;}
	.st4{fill:#3E5965;}
	.st5{fill:#346579;}
	.st6{fill:#8E6F3D;}
	.st7{fill:#81683F;}
	.st8{fill:#6C5B3E;}
	.st9{fill:#64563E;}
	.st10{fill:#97743A;}
	.st11{fill:#866B3E;}
</style>
<g id="Capa_1">
</g>
<g id="color_circle">
	<circle class="st0" cx="150" cy="150" r="137.5"/>
</g>
<g id="circle">
	<circle class="st1" cx="150" cy="150" r="140"/>
</g>
<g id="JAVA">
	<g>
		<path class="st2" d="M107.13,228.93c0.01-1.05,0.05-2.09,0.01-3.14c-0.02-0.61,0.17-0.78,0.78-0.78
			c5.81,0.02,11.62,0.01,17.43,0.01c0.87,0,1.71-0.16,2.49-0.55c0.8-0.39,1.25-1.01,1.19-1.94c-0.03-0.42-0.04-0.84,0-1.25
			c0.06-0.58-0.2-0.69-0.72-0.69c-4.3,0-8.6,0.05-12.9-0.06c-2.45-0.06-4.77-0.71-6.71-2.33c-1.14-0.95-1.71-2.16-1.67-3.66
			c0.11-4.02,0.11-8.04,0.06-12.06c-0.01-0.5,0.15-0.63,0.63-0.63c1.53,0.02,3.07,0.03,4.6,0c0.54-0.01,0.66,0.18,0.66,0.68
			c-0.02,3.93-0.01,7.86-0.01,11.78c0,1.58,0.62,2.34,2.2,2.59c0.55,0.09,1.11,0.14,1.66,0.14c3.81,0.01,7.62-0.01,11.44,0.02
			c0.67,0.01,0.81-0.22,0.81-0.83c-0.02-4.53,0-9.06-0.03-13.6c0-0.71,0.19-0.93,0.9-0.9c1.46,0.05,2.93,0.03,4.39,0.01
			c0.5-0.01,0.69,0.12,0.69,0.66c-0.02,6.81,0,13.62-0.03,20.43c-0.01,2.07-1.12,3.54-2.86,4.55c-1.26,0.73-2.63,1.13-4.06,1.4
			c-0.16,0.03-0.3,0.09-0.46,0.14C120.8,228.93,113.97,228.93,107.13,228.93z"/>
		<path class="st2" d="M155.16,173.37c-1.08-0.37-2.01-0.9-2.72-1.65c-3.55-3.76-7.86-6.68-11.49-10.35
			c-2.26-2.29-4.42-4.65-6.16-7.36c-1.2-1.88-2.03-3.96-3.07-5.93c-0.42-0.8-0.81-1.62-1.22-2.42c-0.08-0.15-0.08-0.42-0.34-0.37
			c-0.22,0.04-0.23,0.28-0.25,0.46c-0.32,2.18-0.82,4.33-1.08,6.53c-0.23,2.02-0.43,4.07-1.48,5.9c-1.34,2.35-4.67,3.45-7.18,2.44
			c-2.05-0.82-3.52-2.31-4.82-3.99c-2.43-3.15-3.98-6.72-5.04-10.53c-1.55-5.56-1.84-11.21-1.4-16.92c0.26-3.37,0.99-6.65,1.97-9.89
			c0.45-1.49,0.7-3.03,1.04-4.55c0.16-0.73,0.41-1.44,0.8-2.07c0.37-0.6,0.31-1.14-0.01-1.7c-0.16-0.28-0.34-0.57-0.58-0.78
			c-2.29-1.98-3.56-4.66-4.97-7.25c-2.05-3.79-3.33-7.89-4.83-11.9c-0.95-2.55-1.53-5.21-2.47-7.75c-0.65-1.76-1.78-3.25-2.83-4.77
			c-2.08-3.02-4.49-5.8-6.62-8.79c-1.36-1.91-2.46-3.98-2.88-6.28c-0.38-2.1-0.08-4.18,1.05-6.11c1.3-2.22,3.16-3.48,5.69-4.05
			c2.3-0.52,4.44,0,6.58,0.53c4.67,1.15,8.86,3.42,12.87,6c1.01,0.65,1.89,1.5,2.8,2.29c0.86,0.74,1.8,1.12,2.97,1.14
			c2.09,0.04,4.19,0.1,6.26,0.38c1.76,0.24,3.48,0.8,5.21,1.22c2.69,0.64,5.33,1.48,7.74,2.86c2.56,1.46,5.05,3.03,7.51,4.65
			c4.56,3.01,8.92,6.28,12.98,9.94c3.82,3.44,7.37,7.15,10.59,11.17c3.43,4.28,6.53,8.79,9.32,13.51c1.36,2.31,2.29,4.81,3.26,7.29
			c1.46,3.74,3.13,7.38,4.79,11.03c2.45,5.4,5.25,10.64,7.74,16.02c0.27,0.59,0.63,1.13,0.96,1.69c0.58,0.96,1.36,1.66,2.46,2.03
			c3,1.01,5.78,2.52,8.68,3.76c4.14,1.76,7.7,4.45,11.3,7.07c3.31,2.4,6.45,5.02,9.59,7.64c1.39,1.16,2.41,2.63,3.53,4.03
			c0.52,0.65,1.03,1.32,1.56,1.96c0.62,0.75,0.49,1.3-0.44,1.58c-2.2,0.67-4.39,1.36-6.67,1.72c-1.67,0.26-3.36,0.42-5.05,0.61
			c-2.18,0.24-4.25,0.97-6.37,1.49c-0.88,0.22-1.75,0.46-2.66,0.52c-0.5,0.03-0.57,0.17-0.35,0.64c0.8,1.62,2.14,2.72,3.55,3.75
			c2.57,1.88,5.45,3.27,8.04,5.11c3.97,2.81,7.46,6.12,10.47,9.95c0.74,0.95,1.64,1.77,2.52,2.6c0.71,0.67,1.21,1.45,1.55,2.36
			c0.19,0.5,0.38,1,0.69,1.44c0.11,0.16,0.33,0.35,0.11,0.54c-0.19,0.16-0.4,0-0.56-0.13c-0.42-0.33-0.85-0.64-1.25-1
			c-4.23-3.73-8.75-7.04-13.98-9.27c-4.62-1.97-8.85-4.57-12.77-7.69c-2.61-2.07-4.66-4.57-6.25-7.48
			c-0.43-0.79-0.66-1.68-1.16-2.44c-0.27-0.41,0.01-0.8,0.28-1.13c0.62-0.75,1.51-0.97,2.38-1.21c1.86-0.51,3.6-1.37,5.47-1.84
			c2.14-0.54,4.31-0.94,6.5-1.17c2.85-0.31,5.7-0.34,8.56-0.31c0.72,0.01,0.81-0.15,0.39-0.75c-0.81-1.16-1.93-2.02-3.12-2.74
			c-3.63-2.21-7.03-4.76-10.52-7.18c-2.71-1.88-5.64-3.25-8.74-4.37c-3.01-1.08-6.09-1.95-9.09-3.09c-1.88-0.71-3.17-1.97-4.22-3.63
			c-2.26-3.58-3.99-7.43-5.68-11.29c-1.76-4.01-3.7-7.94-5.58-11.9c-1.37-2.89-2.57-5.86-3.68-8.86c-0.85-2.29-2.11-4.38-3.34-6.48
			c-4.69-8.05-10.46-15.22-17.33-21.51c-4.03-3.69-8.38-6.98-13.03-9.87c-3.08-1.91-6.25-3.64-9.61-5c-2.11-0.85-4.23-1.68-6.5-2.04
			c-1.59-0.25-3.2-0.19-4.8-0.32c-1.76-0.14-3.48-0.54-5.26-0.48c-0.76,0.03-1.42-0.5-1.95-1c-3.04-2.82-6.62-4.76-10.35-6.46
			c-1.92-0.88-3.85-1.75-5.92-2.23c-1.08-0.25-2.19-0.46-3.27,0.08c-1.4,0.7-2.03,2.13-1.62,3.65c0.46,1.7,1.28,3.23,2.28,4.66
			c1.6,2.31,3.44,4.44,5.11,6.7c2.74,3.69,4.82,7.68,6.2,12.07c1.12,3.54,2.14,7.1,3.48,10.57c1.16,3,2.64,5.83,4.55,8.42
			c0.55,0.74,1.26,1.36,1.92,2.02c0.6,0.62,1.11,1.29,1.53,2.05c0.82,1.49,0.47,2.98,0.1,4.47c-0.61,2.46-1.64,4.78-2.44,7.17
			c-0.86,2.54-1.3,5.17-1.56,7.83c-0.31,3.23-0.26,6.46,0.09,9.68c0.43,3.94,1.37,7.76,3.01,11.39c0.56,1.25,1.12,2.49,1.98,3.58
			c0.62,0.78,1.38,1.38,2.31,1.73c0.74,0.28,1.03,0.1,1.11-0.7c0.32-2.96,0.63-5.91,1.1-8.85c0.6-3.75,1.75-7.25,4.36-10.15
			c0.67-0.74,1.26-1.55,1.83-2.37c0.36-0.52,0.64-0.44,0.97-0.02c0.32,0.41,0.48,0.89,0.61,1.39c0.68,2.64,1.91,5.07,3.02,7.54
			c2.95,6.6,6.58,12.83,10.55,18.86c2.31,3.5,4.8,6.84,7.79,9.8c0.76,0.76,1.68,1.33,2.43,2.09
			C154.92,172.79,155.19,172.94,155.16,173.37z"/>
		<path class="st2" d="M96.36,220.68c-0.02-0.3-0.05-0.6-0.05-0.9c0-6.93,0-13.86,0-20.78c0-0.28,0-0.55,0-0.92
			c-0.33,0.2-0.38,0.49-0.48,0.71c-2.84,6.33-5.7,12.65-8.5,19c-1.01,2.29-2.66,3.43-5.17,3.33c-0.58-0.02-1.16,0-1.74-0.07
			c-1.85-0.24-3.07-1.32-3.82-2.98c-1.29-2.88-2.59-5.76-3.88-8.64c-1.62-3.62-3.24-7.24-4.86-10.86c-0.08-0.19-0.15-0.39-0.22-0.58
			c-0.4,0.14-0.18,0.47-0.18,0.7c-0.02,5.81-0.01,11.62-0.01,17.43c0,1.37-0.02,2.74,0.01,4.11c0.01,0.43-0.13,0.55-0.56,0.55
			c-1.56-0.02-3.12-0.03-4.67,0c-0.54,0.01-0.65-0.16-0.65-0.67c0.02-6.14,0-12.27,0.02-18.41c0-1.67-0.08-3.34,0.05-5.01
			c0.07-1.16,0.6-2.09,1.63-2.58c1.95-0.93,4.01-1.33,6.16-0.83c1.86,0.43,3.06,1.65,3.8,3.38c1.61,3.78,3.25,7.54,4.88,11.31
			c1.08,2.51,2.16,5.03,3.25,7.54c0.1,0.23,0.22,0.46,0.34,0.72c0.31-0.15,0.34-0.45,0.45-0.69c2.8-6.27,5.6-12.55,8.4-18.82
			c1.27-2.84,3.71-4.1,6.8-3.55c0.96,0.17,1.92,0.36,2.81,0.75c1.15,0.5,1.86,1.36,1.96,2.65c0.12,0.22,0.07,0.46,0.07,0.68
			c0,7.59,0,15.19,0,22.78c0,0.74,0,0.74-0.76,0.74c-1.46,0-2.93,0-4.39,0C96.81,220.76,96.56,220.84,96.36,220.68z"/>
		<path class="st3" d="M159.6,211.07c-0.32-1.3-1.34-1.7-2.48-1.94c-0.47-0.1-0.96-0.12-1.43-0.18c-1.82-0.11-3.65-0.01-5.47-0.05
			c-0.69-0.01-1.38,0.05-2.07-0.04c-2.36-0.06-4.58-0.64-6.53-1.98c-1.03-0.71-1.88-1.62-2.01-2.98c-0.07-1.56-0.07-3.13,0-4.69
			c0.12-2.04,1.23-3.41,2.97-4.31c1.41-0.73,2.9-1.1,4.51-1.17c6.17-0.27,12.35-0.04,18.52-0.11c0.05,0,0.09,0.02,0.14,0.03
			c0.07,1.29,0.08,2.57,0,3.86c-0.28,0.01-0.55,0.04-0.83,0.04c-5.05,0-10.1,0-15.16,0c-0.83,0-1.64,0.16-2.46,0.24
			c-1.1,0.1-1.63,0.69-1.82,1.7c-0.09,1.11-0.08,2.22,0,3.33c0.19,1.76,1.45,2.35,3.09,2.47c2.82-0.03,5.65-0.06,8.47,0.01
			c2.41,0.21,4.72,0.72,6.74,2.16c1.04,0.74,1.7,1.73,1.77,2.96c0.09,1.67,0.09,3.35-0.03,5.01c-0.11,1.51-1.06,2.6-2.29,3.4
			c-1.72,1.12-3.61,1.76-5.68,1.86c-0.16,0.05-0.32,0.04-0.48,0.04c-5.67,0-11.34,0-17,0c-0.18,0-0.37,0.04-0.54-0.06
			c0-1.26,0-2.52,0-3.78c0.24-0.12,0.5-0.06,0.75-0.06c4.98,0,9.96,0,14.94-0.01c0.25,0,0.51,0.04,0.76-0.04
			c0.76-0.02,1.51-0.12,2.21-0.46c0.71-0.35,1.23-0.87,1.43-1.66C159.68,213.49,159.68,212.28,159.6,211.07z"/>
		<path class="st3" d="M202.11,204.37c0-3.35,0.02-6.69-0.02-10.04c-0.01-0.6,0.17-0.73,0.73-0.71c1.46,0.04,2.93,0.04,4.39,0
			c0.59-0.02,0.77,0.11,0.77,0.75c-0.03,6.3,0.02,12.59-0.04,18.89c-0.02,2.31,0.72,3.28,3.36,3.53c0.53,0.05,1.07,0.04,1.6,0.04
			c4.81,0,9.62,0.01,14.43-0.01c0.56,0,0.78,0.12,0.75,0.72c-0.05,0.93-0.03,1.86-0.01,2.79c0.01,0.36-0.12,0.48-0.48,0.48
			c-5.67-0.08-11.34,0.18-17-0.15c-2.14-0.12-4.23-0.61-6.05-1.85c-1.57-1.07-2.4-2.58-2.42-4.47
			C202.09,211.02,202.12,207.69,202.11,204.37C202.12,204.37,202.12,204.37,202.11,204.37z"/>
		<path class="st2" d="M125.83,84.05c-0.06,1.69-0.61,3.06-1.84,4.14c-0.44,0.38-0.65,0.28-0.88-0.2c-0.58-1.26-1.2-2.51-1.78-3.77
			c-0.35-0.78-0.91-1.4-1.47-2.02c-0.77-0.84-1.46-1.74-2.1-2.67c-0.18-0.26-0.14-0.4,0.11-0.47c1.29-0.32,2.72-0.8,3.89-0.32
			c1.36,0.55,2.7,1.49,3.34,3C125.43,82.51,126.14,83.18,125.83,84.05z"/>
		<path class="st4" d="M61.64,196.69c0,7.62,0.01,15.24,0.01,22.86c0,1.15,0,1.15,1.13,1.15c1.23,0,2.46-0.04,3.69,0.01
			c0.7,0.03,0.91-0.2,0.91-0.91c-0.02-7.06-0.01-14.13-0.01-21.19c0-0.23-0.02-0.48,0.04-0.69c0.05-0.17,0.17-0.06,0.22,0.05
			c-0.23,0.26-0.13,0.58-0.13,0.87c-0.01,7.02,0,14.03-0.01,21.05c0,0.94,0,0.94-0.96,0.94c-1.46,0-2.93-0.01-4.39,0.01
			c-0.47,0.01-0.66-0.12-0.65-0.63c0.01-7.62,0.01-15.24,0.01-22.86C61.52,197.13,61.5,196.89,61.64,196.69z"/>
		<path class="st5" d="M96.36,220.68c1.58,0,3.16,0.01,4.74,0.01c1.01,0,1.01,0,1.01-0.99c0-7.53,0-15.05,0-22.58
			c0-0.19,0-0.37,0.01-0.56c0.19,0.27,0.13,0.58,0.13,0.88c0,7.55,0,15.1,0.01,22.65c0,0.56-0.13,0.77-0.73,0.76
			c-1.51-0.04-3.02-0.01-4.53-0.02C96.78,220.83,96.53,220.91,96.36,220.68z"/>
		<path class="st6" d="M139.51,220.7c5.76,0,11.51,0.01,17.27,0.01c0.26,0,0.51,0.01,0.77,0.01c-0.31,0.14-0.64,0.11-0.96,0.11
			c-5.48,0-10.95,0-16.43,0C139.94,220.83,139.69,220.94,139.51,220.7z"/>
		<path class="st7" d="M155.96,216.82c-0.31,0.14-0.64,0.09-0.96,0.09c-5.16,0.01-10.32,0.01-15.48,0.02
			c0.08-0.15,0.23-0.13,0.37-0.13C145.24,216.8,150.6,216.81,155.96,216.82z"/>
		<path class="st3" d="M148.14,208.87c2.38,0,4.76,0,7.14,0c0.13,0,0.27,0.05,0.4,0.08c-2.31,0-4.62,0.01-6.93,0.01
			C148.55,208.96,148.35,208.9,148.14,208.87z"/>
		<path class="st8" d="M139.6,199.22c0,1.56,0,3.13,0,4.69C139.41,202.35,139.43,200.78,139.6,199.22z"/>
		<path class="st9" d="M165.74,197.52c0-1.29,0-2.57,0-3.86C165.93,194.95,165.93,196.23,165.74,197.52z"/>
		<path class="st10" d="M159.6,211.07c0.16,1.21,0.16,2.42,0,3.63C159.6,213.49,159.6,212.28,159.6,211.07z"/>
		<path class="st11" d="M145.47,202.83c-0.16-1.11-0.16-2.22,0-3.33C145.47,200.61,145.47,201.72,145.47,202.83z"/>
		<path class="st3" d="M195.04,219.66c0.04-0.06,0.05-0.09,0.07-0.1c0.08-0.05,0.16-0.1,0.24-0.14c1.91-0.87,2.98-2.35,3.04-4.46
			c0.13-5.11,0.13-10.22,0-15.33c-0.06-2.27-1.38-3.79-3.37-4.73c-1.88-0.89-3.89-1.23-5.95-1.24c-3.49-0.02-6.97-0.02-10.46,0
			c-1.78,0.01-3.51,0.3-5.18,0.93c-2.84,1.07-4.12,2.9-4.15,5.92c-0.01,0.84,0,1.67,0,2.51c0,3.67,0.02,7.34,0,11.02
			c-0.02,2.78,1.28,4.68,3.8,5.76c1.35,0.58,2.76,0.98,4.23,1.04c3.79,0.14,7.57,0.12,11.35-0.2c0.41-0.03,0.7,0.06,0.99,0.33
			c1.26,1.17,2.55,2.31,3.81,3.48c0.31,0.29,0.62,0.42,1.05,0.41c1.81-0.02,3.63-0.01,5.44-0.01c0.19,0,0.42,0.09,0.62-0.15
			C198.73,223.01,196.88,221.34,195.04,219.66z M191.94,216.04c-0.32,0.28-0.56,0.35-0.93,0c-1.14-1.09-2.33-2.13-3.5-3.2
			c-0.17-0.15-0.31-0.34-0.58-0.34c-2.13,0-4.26,0-6.39,0c-0.02,0.05-0.04,0.1-0.06,0.15c1.52,1.38,3.04,2.77,4.7,4.29
			c-1.42,0-2.67,0.01-3.91,0c-0.97-0.01-1.95,0.07-2.92-0.14c-1.81-0.4-2.74-1.55-2.74-3.41c0-4,0-8,0-11.99
			c0-2.44,1.09-3.64,3.56-3.72c2.44-0.08,4.88-0.05,7.32-0.04c1.27,0.01,2.56-0.13,3.82,0.15c1.87,0.42,2.61,1.36,2.61,3.28
			c0,4.25-0.01,8.51,0,12.76C192.94,214.74,192.61,215.46,191.94,216.04z"/>
	</g>
</g>
</svg>
