<?xml version="1.0" encoding="utf-8"?>
<!-- Generator: Adobe Illustrator 24.1.0, SVG Export Plug-In . SVG Version: 6.00 Build 0)  -->
<svg version="1.1" xmlns="http://www.w3.org/2000/svg" xmlns:xlink="http://www.w3.org/1999/xlink" x="0px" y="0px"
	 viewBox="0 0 300 300" style="enable-background:new 0 0 300 300;" xml:space="preserve">
<style type="text/css">
	.st0{fill:#333333;}
	.st1{fill:none;stroke:#4C4C4C;stroke-width:10;stroke-miterlimit:10;}
	.st2{fill:#539D43;}
</style>
<g id="Capa_1">
</g>
<g id="color_circle">
	<circle class="st0" cx="150" cy="150" r="137.5"/>
</g>
<g id="circle">
	<circle class="st1" cx="150" cy="150" r="140"/>
</g>
<g id="NODE">
	<g>
		<path class="st2" d="M62.8,149.97c0-13.16,0.12-26.32-0.05-39.48c-0.1-7.35,2.77-12.51,9.23-16.19
			c23.25-13.27,46.39-26.73,69.53-40.17c5.66-3.29,11.2-3.35,16.85-0.08c23.75,13.74,47.54,27.4,71.25,41.2
			c5.1,2.97,7.59,7.67,7.59,13.65c-0.02,11.24,0,22.48,0,33.71c0,15.75-0.13,31.51,0.06,47.26c0.09,7.41-2.95,12.55-9.32,16.19
			c-22.96,13.17-45.85,26.48-68.78,39.71c-5.87,3.39-11.82,3.52-17.72,0.01c-7.56-4.49-15.11-9.01-22.66-13.52
			c-0.95-0.57-2.42-0.98-2.23-2.25c0.16-1.05,1.59-1.12,2.57-1.5c2.49-0.97,5.02-1.94,7.32-3.27c1.99-1.15,3.54-1.25,5.53,0.03
			c4.67,2.98,9.56,5.63,14.22,8.61c2.45,1.57,4.38,1.71,7.05,0.15c22.43-13.15,44.93-26.17,67.48-39.1
			c2.51-1.44,3.39-3.02,3.38-5.89c-0.11-26.22-0.09-52.44-0.03-78.67c0.01-2.36-0.63-3.74-2.83-5.01
			c-22.98-13.15-45.88-26.43-68.76-39.75c-1.89-1.1-3.4-1.14-5.27-0.06c-23.06,13.39-46.14,26.74-69.26,40.04
			c-1.65,0.95-2.24,2.07-2.24,3.91c0.04,26.99,0.04,53.98,0.01,80.97c0,1.69,0.4,2.88,1.98,3.77c6.09,3.41,12.13,6.89,18.16,10.4
			c2.11,1.23,4.39,1.93,6.74,2.35c5.69,1.01,11.11-3.6,11.17-9.57c0.08-7.97,0.02-15.94,0.02-23.92c0-18.63,0-37.27,0-55.9
			c0-3.98,0.26-4.22,4.28-4.24c1.92-0.01,3.84,0.07,5.76-0.01c2.49-0.11,3.4,1.07,3.4,3.48c-0.04,27.28,0.06,54.56-0.09,81.84
			c-0.06,10.63-5.2,18.29-13.1,20.52c-7.09,2-14.05,1.61-20.76-1.5c-8.34-3.87-16.18-8.68-23.99-13.47
			c-4.77-2.93-6.55-7.76-6.53-13.33C62.83,177.25,62.8,163.61,62.8,149.97z"/>
		<path class="st2" d="M139.41,123.21c4.09-6.25,10.2-9.61,17.22-11.02c11.25-2.26,22.52-2.17,33.47,1.88
			c8.92,3.3,14.76,11.55,15.13,20.84c0.1,2.54-0.65,3.83-3.38,3.65c-2.1-0.13-4.23-0.12-6.34,0c-1.94,0.12-3.16-0.56-3.59-2.48
			c-1.71-7.63-6.91-11.19-14.29-11.96c-7.17-0.74-14.37-1.16-21.28,1.66c-2.02,0.82-3.71,2.11-4.58,4.14
			c-1.68,3.89-1.16,8.21,3.65,9.8c7.26,2.4,14.83,2.95,22.3,4.07c6.35,0.95,12.71,1.89,18.72,4.29
			c10.35,4.14,13.43,12.4,11.34,22.91c-2.2,11.04-10.41,16.04-20.5,18.42c-10.52,2.49-21.2,2.34-31.68-0.08
			c-12.74-2.95-20.89-10.3-21.51-23.72c-0.11-2.29,0.75-3.35,3.07-3.5c2.69-0.17,5.37-0.1,8.06,0.04c1.44,0.08,2.44,0.76,2.58,2.2
			c0.73,8,5.72,11.94,13.07,13c8.37,1.21,16.84,1.56,25.13-0.73c4.02-1.11,6.96-3.48,7.92-7.84c1.12-5.06-1.86-8.4-8.79-10.07
			c-7.3-1.76-14.79-2.15-22.19-3.21c-5.99-0.86-11.87-2.04-17.29-4.98c-7.13-3.86-9.31-10.62-8.96-17.9
			c0.04-0.86,0.23-1.71,0.36-2.56C137.4,127.65,138.13,125.33,139.41,123.21z"/>
	</g>
</g>
</svg>
