<?xml version="1.0" encoding="utf-8"?>
<!-- Generator: Adobe Illustrator 24.1.0, SVG Export Plug-In . SVG Version: 6.00 Build 0)  -->
<svg version="1.1" xmlns="http://www.w3.org/2000/svg" xmlns:xlink="http://www.w3.org/1999/xlink" x="0px" y="0px"
	 viewBox="0 0 1000 1000" style="enable-background:new 0 0 1000 1000;" xml:space="preserve">
<style type="text/css">
	.st0{display:none;}
	.st1{display:inline;}
	.st2{fill:#FFFFFF;stroke:#FFFFFF;stroke-miterlimit:10;}
	.st3{fill:#72482A;}
	.st4{fill:#56341D;}
	.st5{fill:#7A5135;}
	.st6{fill:#77661E;}
	.st7{fill:#48484F;}
	.st8{fill:#C6C6C6;}
	.st9{fill:#A3A3A3;}
	.st10{fill:#AA7752;}
	.st11{fill:#1C1C1C;}
	.st12{fill:#CC996E;}
	.st13{fill:#191919;}
	.st14{opacity:0.57;fill:#232323;}
	.st15{opacity:0.15;fill:#BCE8E8;}
	.st16{opacity:0.13;fill:#BCE8E8;}
	.st17{fill:#D8A988;}
	.st18{fill:#DDAE8C;}
	.st19{fill:#724729;}
	.st20{fill:#A5744C;}
	.st21{fill:#FCEDF0;}
	.st22{fill:#3D1B04;}
	.st23{fill:none;}
	.st24{opacity:0.4;fill:#BCE8E8;}
	.st25{opacity:0.5;fill:#BCE8E8;}
	.st26{opacity:0.35;fill:#BCE8E8;}
	.st27{fill:#84573E;}
	.st28{fill:#3A241A;}
	.st29{display:inline;fill:#FFFFFF;stroke:#000000;stroke-miterlimit:10;}
</style>
<g id="Background" class="st0">
	<rect class="st1" width="1000" height="1000"/>
</g>
<g id="Border">
	<path class="st2" d="M383.49,245.23c0,0-3.57-24.37,2.4-40.23s58.22-49.86,64.45-52l-7.98,11.78c0,0,46.25-9.74,52.3-9.87
		c6.05-0.13,50.14,2.48,66.88,5.21c16.74,2.74,51.84,29.57,54.22,32.14c2.38,2.57,14.5,42.72,17.01,45.01c0,0-9.22,21.23-7.64,24.69
		c1.58,3.46,1.08,27.89,0,33.04c-1.08,5.14-0.54,28.2-0.54,28.2s13.88-1.3,10.57,15.33c-3.31,16.63-9.84,43.01-10.16,47.42
		c-0.96,12.98-4.04,15.68-6.8,16.84c0,0,16.36,4.63,16.96,4.86c0.6,0.23,8,9.51,10.01,12.1c2.01,2.59,11.9,4.15,14.19,6.18
		s2.6,11.56,2.06,14.33c0,0,39.11,14.7,51.33,22.09s27.96,10.72,27.96,10.72s26.21,18.61,36.45,84.92s19.88,105.44,19.88,105.44
		h84.78c0,0,14.95,0.53,18.4,18.85c3.46,18.32,37.95,205.79,37.95,205.79s3.75,14.66-15.21,14.66s-846.64,0-846.64,0
		s-22.93,2.73-18.75-19.49l40.61-200.27c0,0,0.32-19.48,20.25-19.48h84.14c0,0,18.72-109.86,20.32-119.18
		c1.61-9.32,14.14-63.96,51.75-76.82c0,0,36.32-14.79,45-21.21c0,0,14.33-6.5,17.84-6.5c0,0-4.98-9.6,1.77-19.55
		c0,0,24.11-12.84,30.54-17.66c6.43-4.82,13.45-3.65,13.45-3.65s-7-6.31-7.15-10.17s-6.32-30.89-9.52-39.23
		c-3.21-8.34-3.37-27.41,8.29-26.56C374.85,322.96,376.94,279.14,383.49,245.23z"/>
</g>
<g id="Table">
	<g>
		<path class="st3" d="M902.65,883.26H96.08c-6.6,0-12-5.4-12-12l33-176.27c0-6.6,5.4-12,12-12h740.57c6.6,0,12,5.4,12,12l33,176.27
			C914.65,877.86,909.25,883.26,902.65,883.26z"/>
	</g>
	<path class="st4" d="M316.78,776.39c0,0-67.46-32.79-89.63-47.57s-26.36-43.43-26.36-43.43h39.59L316.78,776.39z"/>
	<path class="st4" d="M683.91,776.41c0,0,67.46-32.79,89.63-47.57s26.37-44,26.37-44l-39.65,0.05L683.91,776.41z"/>
	<path class="st5" d="M101.78,776.69c0,0,12.06,0.86,32.11,2.03c3.34,0.2,6.9,0.43,10.64,0.8C166,818,218,819,255,806
		c10-3,25-11,20-24c-4-12-19-17-32-19c-19-2-41-4-54,12c-5,7,3,15,10,17c12,3,36,6,36-7c0-8-11-2-18,0c-3,1-8,0-10-4c0-2,1-5,3-6
		c15-6,39-7,46,10c2,6-5,10-10,13c-24,10-55,9-75-9c-5-5-5-12-1-17c18-20,46-20,71-19c23,1,47,11,58.59,31.62
		c2.96,0.18,5.93,0.32,8.89,0.51c2.97,0.03,5.95,0.06,8.92,0.08c107.04,0.82,366.14-22.32,457.89-17.5s112.03,7.99,121.18,6.41
		l8.73,46.65c0,0-16.75-1.19-40.2-2.33c-1.26-0.7-2.45-1.14-4.16-2.33C852,805,840,797,826,794c-33-7-82-11-97,23c-2,5,1,11,6,14
		c28,18,71,24,89-5c8-12-13-18-24-20c-13-1-31-2-36,11c-3,10,17,13,26,10c5-2,7-6,4-10c5,0,11,3,10,7c-3,13-20,10-30,9
		c-9,0-24-2-26-14c-1-6,3-10,8-13c27-12,64-14,84,10c8,9,0,19-8,23c-39,20-96,20-123.5-18.25c-3.54,0.03-7.28,0.17-11.19,0.37
		C564.22,827.67,225.22,839,225.22,839L87.93,850.65L101.78,776.69z"/>
</g>
<g id="Line_table">
	<g>
		<g>
			<g>
				<path d="M902.65,883.26c0-0.11,0.87-0.1,2.46-0.49c1.55-0.42,3.92-1.33,6.02-3.68c1.03-1.16,1.96-2.67,2.5-4.5
					c0.23-0.92,0.45-1.89,0.43-2.93l0.01-0.35c-0.02-0.11-0.04-0.18-0.07-0.34c-0.05-0.27-0.11-0.54-0.17-0.82
					c-0.11-0.55-0.22-1.12-0.34-1.69c-0.92-4.6-1.97-9.9-3.15-15.84c-4.69-23.76-11.27-57.86-19.17-99.13
					c-1.97-10.32-4.03-21.09-6.16-32.25c-1.06-5.58-2.15-11.27-3.25-17.04c-0.55-2.89-1.1-5.8-1.66-8.73
					c-0.02-0.09-0.06-0.29-0.06-0.43l-0.02-0.37l-0.03-0.48c0-0.33-0.09-0.64-0.13-0.96c-0.11-0.64-0.28-1.27-0.52-1.87
					c-0.46-1.21-1.16-2.34-2.05-3.31c-1.77-1.94-4.29-3.18-6.94-3.35c-0.61-0.05-1.43-0.03-2.2-0.03l-2.32,0.01
					c-1.55,0-3.1,0.01-4.66,0.01c-6.24,0.02-12.56,0.03-18.95,0.05c-12.79,0.03-25.89,0.06-39.24,0.09
					c-53.41,0.09-110.91,0.19-169.3,0.29c-116.77,0.09-237.06,0.18-335.22,0.26c-49.08,0.01-92.62,0.02-127.43,0.03
					c-8.7,0-16.85,0-24.41,0c-3.78,0-7.41,0-10.88,0c-1.74,0-3.44,0-5.09,0c-1.8-0.02-2.9,0.01-4.16,0.37
					c-2.43,0.68-4.41,2.31-5.58,4.24c-0.59,0.96-1,1.99-1.22,3.03c-0.08,0.52-0.18,1.04-0.18,1.55l-0.04,0.67
					c-0.06,0.38-0.08,0.46-0.11,0.63c-0.06,0.31-0.12,0.62-0.17,0.92c-0.91,4.89-1.7,9.09-2.35,12.55
					c-2.6,13.87-7.39,39.48-13.8,73.69c-3.21,17.1-6.81,36.35-10.75,57.36c-0.98,5.25-1.99,10.61-3.01,16.08
					c-0.51,2.73-1.03,5.49-1.55,8.27c-0.26,1.39-0.52,2.79-0.79,4.19l-0.4,2.11c-0.03,0.14-0.08,0.45-0.07,0.37l0.01,0.17
					c0.03,0.29,0,0.58,0.07,0.86c0.26,2.29,1.44,4.47,3.22,6.02c1.79,1.56,4.07,2.42,6.56,2.39c5.96,0,12,0,18.14,0.01
					c98.16,0.08,218.45,0.17,335.22,0.26c116.77,0.15,230.01,0.38,314.05,0.72c42.02,0.17,76.75,0.37,100.97,0.6
					c12.11,0.12,21.59,0.24,28.05,0.38c3.23,0.07,5.7,0.14,7.36,0.21S902.65,883.18,902.65,883.26c0,0.08-0.86,0.15-2.52,0.22
					s-4.14,0.14-7.36,0.21c-6.46,0.13-15.94,0.26-28.05,0.38c-24.22,0.23-58.95,0.43-100.97,0.6
					c-84.05,0.34-197.29,0.57-314.05,0.72c-116.77,0.09-237.06,0.18-335.22,0.26c-6.13,0-12.18,0-18.14,0.01
					c-1.68,0.01-3.54-0.27-5.18-0.89c-1.67-0.61-3.2-1.53-4.52-2.68c-2.65-2.3-4.42-5.57-4.82-9.02c-0.08-0.43-0.07-0.86-0.1-1.29
					l-0.02-0.39c-0.01-0.14-0.02-0.34,0.03-0.51l0.13-0.69l0.39-2.11c0.26-1.4,0.52-2.8,0.78-4.19c0.52-2.78,1.04-5.54,1.55-8.27
					c1.02-5.46,2.02-10.83,3.01-16.08c3.93-21.01,7.53-40.26,10.73-57.36c6.4-34.21,11.2-59.82,13.79-73.69
					c0.65-3.47,1.44-7.67,2.35-12.55c0.06-0.31,0.11-0.61,0.17-0.92c0.03-0.14,0.07-0.38,0.06-0.31c-0.01,0.1,0,0.06,0-0.01
					l0.01-0.29c0.01-0.77,0.14-1.55,0.28-2.34c0.33-1.57,0.95-3.12,1.83-4.57c1.76-2.89,4.72-5.33,8.39-6.36
					c0.91-0.26,1.87-0.43,2.84-0.5c1.04-0.07,1.8-0.05,2.63-0.05c1.66,0,3.36,0,5.09,0c3.47,0,7.1,0,10.88,0c7.56,0,15.71,0,24.41,0
					c34.8,0.01,78.35,0.02,127.43,0.03c98.16,0.08,218.45,0.17,335.22,0.26c58.38,0.1,115.88,0.2,169.3,0.29
					c13.35,0.03,26.45,0.06,39.24,0.09c6.4,0.02,12.72,0.03,18.95,0.05c1.56,0,3.11,0.01,4.66,0.01l2.32,0.01
					c0.78,0.01,1.5-0.01,2.42,0.05c3.51,0.24,6.84,1.91,9.14,4.47c1.15,1.27,2.06,2.76,2.67,4.36c0.31,0.8,0.53,1.63,0.67,2.47
					c0.05,0.42,0.15,0.84,0.16,1.27l0.03,0.64c0.01,0.12,0.01,0.22,0.01,0.19c0,0.04,0,0.03,0.02,0.12
					c0.54,2.94,1.08,5.85,1.61,8.75c1.06,5.78,2.11,11.47,3.14,17.06c2.05,11.18,4.03,21.96,5.92,32.3
					c7.57,41.34,13.76,75.51,17.99,99.36c1.05,5.96,1.98,11.28,2.79,15.9c0.1,0.58,0.2,1.14,0.29,1.7c0.05,0.28,0.1,0.55,0.14,0.83
					c0.02,0.12,0.06,0.32,0.08,0.48l-0.03,0.47c-0.02,1.14-0.29,2.21-0.57,3.2c-0.65,1.98-1.72,3.57-2.87,4.77
					c-2.35,2.42-4.92,3.23-6.56,3.53c-0.84,0.12-1.48,0.17-1.91,0.13C902.86,883.32,902.65,883.29,902.65,883.26z"/>
			</g>
		</g>
	</g>
</g>
<g id="Base">
	<g id="XMLID_2_">
		<g>
			<path d="M537.09,529.79h-12.7c-0.8-4.74-3.46-8.93-3.46-8.93s3.46-5.79,10.69-4.98C531.62,515.88,536.45,523.45,537.09,529.79z"
				/>
			<path d="M479.07,520.86c0,0-0.86,2.43-1.71,8.93h-12.22c0-2.33,3.32-16.43,3.32-16.43C477.75,516.56,479.07,520.86,479.07,520.86
				z"/>
			<path class="st6" d="M508.56,340.61l0.15,0.03c-0.76,1.59-0.98,2.6-0.98,2.6s-3.36-0.94-7.43-0.94c-4.06,0-6.96,0.94-6.96,0.94
				s-0.26-1.07-1.11-2.74c0.92-0.19,4.56-0.89,8.07-0.89C504.37,339.61,508.56,340.61,508.56,340.61z"/>
			<path d="M410.33,364.67l-1.99,1.56l-1.03,0.06c-1.61-14.09-2.72-27.29-2.72-27.29s-0.57-3.55-2.49-7.52h0.01l3.96,1.12
				c0.55,0.41,1.56,0.51,2.61,0.94C408.75,343.15,409.07,357.54,410.33,364.67z"/>
			<path d="M492.23,340.5c0.85,1.67,1.11,2.74,1.11,2.74c-2.15,0.85-4.79,0.31-4.79,0.31c-4.44-15.18-33.48-17.39-33.48-17.39
				s-28.91-0.25-34.53,3.92c-5.63,4.18-2.25,17.42-2.25,17.42c-3.06,0.96-3.7,0-3.7,0s-1.61-6.81-2.89-10.67
				c-0.67-2.01-1.87-2.84-3.02-3.29c-0.03-5.59,0.02-9.57,0.02-9.57c1.91,0.17,5.26,0.38,8.94,0.13c5.41-0.37,18.34-4.56,37.91-2.6
				C480.89,324.03,489.54,335.24,492.23,340.5z"/>
			<path d="M408.7,323.97c0,0-0.05,3.98-0.02,9.57c-1.05-0.43-2.06-0.53-2.61-0.94l-3.96-1.12h-0.01c-1.98-4.1-5.4-8.64-11.12-10.11
				l0.06-0.33l16,2.74C407.04,323.78,407.65,323.87,408.7,323.97z"/>
			<path d="M598.5,331.48h0.01c-1.92,3.97-2.49,7.52-2.49,7.52s-1.1,13.16-2.71,27.23l-2.94-2.59c0.92-7.08,0.71-20.3,0.42-29.5
				c1.39-0.99,3.01-0.98,3.75-1.54L598.5,331.48z"/>
			<path d="M593.57,323.78l16.05-2.41c-5.72,1.48-9.14,6.01-11.11,10.11h-0.01l-3.96,1.12c-0.74,0.56-2.36,0.55-3.75,1.54
				c-0.19-5.83-0.42-10.05-0.42-10.05C592.33,323.96,593.57,323.78,593.57,323.78z"/>
			<path d="M590.37,324.09c0,0,0.23,4.22,0.42,10.05c-0.75,0.53-1.43,1.35-1.88,2.69c-1.29,3.86-2.89,10.67-2.89,10.67
				s-0.65,0.96-3.7,0c0,0,3.38-13.24-2.25-17.42c-5.62-4.17-34.53-3.92-34.53-3.92s-29.04,2.21-33.49,17.39c0,0-2.16,0.54-4.32-0.31
				c0,0,0.22-1.01,0.98-2.6c2.48-5.2,10.78-16.59,36.34-19.14c19.58-1.96,32.51,2.23,37.91,2.6
				C585.8,324.29,588.44,324.22,590.37,324.09z"/>
			<path d="M609.62,254.41c0.06,1.44,1.08,28.17,0,34.01c-1.1,6,0,32.95,0,32.95l-16.05,2.41c0,0-1.24,0.18-3.2,0.31
				c0,0-0.42-10.06-1.82-14.02c-1.39-3.97-6.32-35.25-6.32-40.32c0-5.15-4.67-13.4-4.67-13.4l-0.05-0.16
				c2.5-0.69,4.08-1.12,4.08-1.12S609.62,258.82,609.62,254.41z"/>
			<path d="M425.61,256.23c-0.57,0.31-3.83,2.34-4.41,8.64c-0.65,6.91-5.15,38.66-8.04,44.29c-2.89,5.62-4.46,14.81-4.46,14.81
				c-1.05-0.1-1.66-0.19-1.66-0.19l-16-2.74h-0.03c0,0,1.42-15.26,1.74-22.01s5.3-48.86,7.55-55.45c0,0-1.93-22.51,2.57-33.44
				c4.5-10.93,32.65-27,46.54-35.57L445.3,181c0,0,33.43-8.15,47.79-9.43c14.36-1.29,53.83,2.14,65.59,5.14
				c11.77,3,36.36,24.43,42.92,28.71c6.56,4.29,11.08,24.15,15.46,32.29c0,0-7.69,12.14-7.44,16.64c0,0,0,0.02,0,0.06
				c0,4.41-28.03,0.66-28.03,0.66s-1.58,0.43-4.08,1.12c-8.59,2.39-27.99,7.94-31.1,10.18c-4.02,2.89-17.04,0.96-17.04,0.96
				s-24.82,5.24-28.83,5.08c-4.02-0.16-36.27-5.13-43.02-11.88L425.61,256.23z"/>
			<path class="st7" d="M770.36,629.75c0,0,19.93,42.82-22.5,85.25c-41.86,41.86-64.06,61.17-64.65,61.69l16.4-234.9
				c0-6.6-5.4-12-13.45-12H537.09c-0.64-6.34-5.47-13.91-5.47-13.91s21.45-17.84,26.43-22.99c4.99-5.14,23.47-12.85,27.81-13.82
				c4.34-0.96,32.14-22.34,36.16-27c2.23-2.59,9.46-3.54,20.29-1.22c8.68,1.85,19.67,5.81,32.26,12.71
				c28.29,15.51,42.43,19.37,42.43,19.37s32.79,13.5,39.86,64.93S770.36,629.75,770.36,629.75z"/>
			<path class="st8" d="M699.61,541.79l-16.4,234.9c-0.01,0-0.01,0-0.01,0l-0.59,8.52c0,6.6-5.4,12-12,12H329.39
				c-6.6,0-12-5.4-12-12l-0.59-8.52c0,0,0,0-0.01,0l-16.4-234.9c0-6.6,5.4-12,10.56-12h154.19h12.22h47.03h12.7h149.07
				C694.21,529.79,699.61,535.19,699.61,541.79z"/>
			<path class="st9" d="M680.93,811v5.57c0,9.27-3.06,12-13.41,12H330.8c-10.35,0-13.41-2.73-13.41-12V811c0-9.27,3.06-12,13.41-12
				h336.72C677.87,799,680.93,801.73,680.93,811z"/>
			<path class="st7" d="M566.6,466.1c12-8.23,23.74-15.89,27.33-17.03c8.14-2.57,13.07-13.21,15.21-16.86
				c2.14-3.63-13.16-11.17-26.59-16.44c1.69-5.05,3.1-7.86,4.59-12.97l0.21,0.05c0,0,19.22,7.44,25.22,10.22
				c6,2.79,14.79,15.43,16.5,17.36c1.72,1.93,11.36,6.43,13.24,9.77c1.89,3.35,0,10.65,0,10.65c-10.83-2.32-18.06-1.37-20.29,1.22
				c-4.02,4.66-31.82,26.04-36.16,27c-4.34,0.97-22.82,8.68-27.81,13.82c-4.98,5.15-26.43,22.99-26.43,22.99
				c-7.23-0.81-10.69,4.98-10.69,4.98s-19.45,3.53-20.93,3.05c1.48-0.48,1.89-8.2,1.89-9.32c0-1.13-1.89-2.27-1.89-2.27
				s11.38,1.72,35.75-24.5C535.75,487.82,551.38,476.52,566.6,466.1z"/>
			<path class="st10" d="M609.63,321.37c11.25-2.89,6.28,18.16,2.91,26.52c-3.38,8.36-5.4,26.68-5.88,31.02
				c-0.48,4.32-5.85,16.82-18.08,18.23c0.59-2.63,1.21-5.79,1.87-9.72c1.03-6.13,2.02-13.79,2.86-21.19
				c1.61-14.07,2.71-27.23,2.71-27.23s0.57-3.55,2.49-7.52c1.97-4.1,5.39-8.63,11.11-10.11H609.63z"/>
			<path class="st11" d="M582.55,415.77c13.43,5.27,28.73,12.81,26.59,16.44c-2.14,3.65-7.07,14.29-15.21,16.86
				c-3.59,1.14-15.33,8.8-27.33,17.03l3.96-28.69c6.49-9.78,10.62-17.56,11.93-21.48C582.51,415.88,582.53,415.82,582.55,415.77z"/>
			<path class="st12" d="M582.55,415.77c-0.02,0.05-0.04,0.11-0.06,0.16c-1.31,3.92-5.44,11.7-11.93,21.48
				c-7.91,11.87-19.32,26.69-33.42,41.07c-13.46,13.73-36.84,11.96-36.84,11.96s-20.18,3.01-37.62-12.94
				c-12.5-11.42-24.9-27.96-33.39-41.17c-5.53-8.61-9.4-15.8-10.54-19.23c-0.18-0.52-0.35-1.03-0.52-1.52
				c-1.75-4.92-3.43-8.27-5.17-14.55c-0.33-1.18-0.65-2.45-0.98-3.87c-0.63-2.69-1.27-5.87-1.92-9.74
				c-1.03-6.11-2.01-13.75-2.85-21.13l1.03-0.06l1.99-1.56c-1.26-7.13-1.58-21.52-1.65-31.13c1.15,0.45,2.35,1.28,3.02,3.29
				c1.28,3.86,2.89,10.67,2.89,10.67s0.64,0.96,3.7,0c0,0,1.07,11.42,9.26,18.98c8.2,7.55,32.88,8.39,38.34,7.43
				c5.47-0.97,22.89-0.25,22.66-30.36c0,0,2.64,0.54,4.79-0.31c0,0,2.9-0.94,6.96-0.94c4.07,0,7.43,0.94,7.43,0.94
				c2.16,0.85,4.32,0.31,4.32,0.31c-0.22,30.11,17.2,29.39,22.66,30.36c5.47,0.96,30.15,0.12,38.34-7.43
				c8.2-7.56,9.27-18.98,9.27-18.98c3.05,0.96,3.7,0,3.7,0s1.6-6.81,2.89-10.67c0.45-1.34,1.13-2.16,1.88-2.69
				c0.29,9.2,0.5,22.42-0.42,29.5l2.94,2.59c-0.84,7.4-1.83,15.06-2.86,21.19c-0.66,3.93-1.28,7.09-1.87,9.72
				c-0.5,2.21-0.97,4.05-1.44,5.66C585.65,407.91,584.24,410.72,582.55,415.77z"/>
			<path class="st12" d="M588.55,310.07c1.4,3.96,1.82,14.02,1.82,14.02c-1.93,0.13-4.57,0.2-7.41,0.01
				c-5.4-0.37-18.33-4.56-37.91-2.6c-25.56,2.55-33.86,13.94-36.34,19.14l-0.15-0.03c0,0-4.19-1-8.26-1c-3.51,0-7.15,0.7-8.07,0.89
				c-2.69-5.26-11.34-16.47-36.68-19c-19.57-1.96-32.5,2.23-37.91,2.6c-3.68,0.25-7.03,0.04-8.94-0.13c0,0,1.57-9.19,4.46-14.81
				c2.89-5.63,7.39-37.38,8.04-44.29c0.58-6.3,3.84-8.33,4.41-8.64l31.91,4.3c6.75,6.75,39,11.72,43.02,11.88
				c4.01,0.16,28.83-5.08,28.83-5.08s13.02,1.93,17.04-0.96c3.11-2.24,22.51-7.79,31.1-10.18l0.05,0.16c0,0,4.67,8.25,4.67,13.4
				C582.23,274.82,587.16,306.1,588.55,310.07z"/>
			<path class="st12" d="M580.07,330.08c5.63,4.18,2.25,17.42,2.25,17.42s-1.07,11.42-9.27,18.98c-8.19,7.55-32.87,8.39-38.34,7.43
				c-5.46-0.97-22.88-0.25-22.66-30.36c4.45-15.18,33.49-17.39,33.49-17.39S574.45,325.91,580.07,330.08z"/>
			<path class="st10" d="M570.56,437.41l-3.96,28.69c-15.22,10.42-30.85,21.72-30.85,21.72c-24.37,26.22-35.75,24.5-35.75,24.5
				s-11.38,1.72-35.75-24.5c0,0-15.66-10.49-30.61-19.97l-4.35-31.52c8.49,13.21,20.89,29.75,33.39,41.17
				c17.44,15.95,37.62,12.94,37.62,12.94s23.38,1.77,36.84-11.96C551.24,464.1,562.65,449.28,570.56,437.41z"/>
			<path class="st7" d="M524.39,529.79h-47.03c0.85-6.5,1.71-8.93,1.71-8.93s19.45,3.53,20.93,3.05c1.48,0.48,20.93-3.05,20.93-3.05
				S523.59,525.05,524.39,529.79z"/>
			<path class="st7" d="M501.89,514.59c0,1.12-0.41,8.84-1.89,9.32c-1.48,0.48-20.93-3.05-20.93-3.05s-1.32-4.3-10.61-7.5
				c0,0-21.53-15.32-26.51-20.47c-4.99-5.14-23.47-12.85-27.81-13.82c-4.34-0.96-32.14-22.34-36.16-27
				c-2.16-2.5-8.98-3.47-19.2-1.45c0,0-2.49-3.91-2.92-6.05c-0.43-2.14-0.43-8.28,4.71-11.71c5.14-3.43,21-13.25,25.29-17.91
				c4.28-4.66,27.02-13.87,27.02-13.87l0.18-0.05c1.74,6.28,3.42,9.63,5.17,14.55l-0.02,0.01c-4.5,1.76-10.8,4.72-16.41,7.06
				c-11.12,4.63-14.37,13.14-12.94,15.56c2.14,3.65,11.07,12.29,19.21,14.86c3.49,1.11,14.33,7.66,25.57,14.78
				c14.95,9.48,30.61,19.97,30.61,19.97c24.37,26.22,35.75,24.5,35.75,24.5S501.89,513.46,501.89,514.59z"/>
			<path class="st12" d="M488.55,343.55c0.23,30.11-17.19,29.39-22.66,30.36c-5.46,0.96-30.14,0.12-38.34-7.43
				c-8.19-7.56-9.26-18.98-9.26-18.98s-3.38-13.24,2.25-17.42c5.62-4.17,34.53-3.92,34.53-3.92S484.11,328.37,488.55,343.55z"/>
			<path class="st7" d="M468.46,513.36c0,0-3.32,14.1-3.32,16.43H310.95c-5.16,0-10.56,5.4-10.56,12l16.4,234.9
				c-0.59-0.52-22.79-19.83-64.65-61.69c-42.43-42.43-22.5-85.25-22.5-85.25s6.43-30.46,13.5-81.89
				c7.07-51.43,39.86-64.93,39.86-64.93s14.14-3.86,42.43-19.37c13.12-7.19,24.51-11.19,33.35-12.94
				c10.22-2.02,17.04-1.05,19.2,1.45c4.02,4.66,31.82,26.04,36.16,27c4.34,0.97,22.82,8.68,27.81,13.82
				C446.93,498.04,468.46,513.36,468.46,513.36z"/>
			<path class="st11" d="M429.29,436.33l4.35,31.52c-11.24-7.12-22.08-13.67-25.57-14.78c-8.14-2.57-17.07-11.21-19.21-14.86
				c-1.43-2.42,1.82-10.93,12.94-15.56c5.61-2.34,11.91-5.3,16.41-7.06l0.02-0.01c0.17,0.49,0.34,1,0.52,1.52
				C419.89,420.53,423.76,427.72,429.29,436.33z"/>
			<path class="st10" d="M410.16,387.42c0.65,3.87,1.29,7.05,1.92,9.74c-12.27-1.38-17.65-13.93-18.13-18.25
				c-0.49-4.34-2.5-22.66-5.88-31.02c-3.37-8.36-8.34-29.41,2.91-26.52c5.72,1.47,9.14,6.01,11.12,10.11
				c1.92,3.97,2.49,7.52,2.49,7.52s1.11,13.2,2.72,27.29C408.15,373.67,409.13,381.31,410.16,387.42z"/>
		</g>
		<g>
		</g>
	</g>
</g>
<g id="Hair">
	<path class="st13" d="M407.97,366.41l2.23-1.48c0,0-2.11-21.02-1.14-31.42l-6.94-2.04l2.23,7.27L407.97,366.41z"/>
	<path class="st14" d="M408.73,323.16c0,0,2.44-10.31,5.25-14.81s7.31-42.68,7.31-42.68s0.29-5.63,1.96-7.2l2.14-2.6
		c0,0,26.74,4.49,31.98,4.72c0,0,9,7.79,42.63,12.06l29.07-5.08c0,0,10.37,1.94,13.7,0.49c3.33-1.45,9.03-3.91,9.03-3.91l25.45-7.55
		c0,0,3.98,7.5,4.3,11.84c0.32,4.34,3.38,31.7,6.7,41.88c0,0,0.92,4.17,1.82,12.63l13.89-1.59c0,0-2.52-20.46-2.42-28.18
		c0.1-7.71-3.6-36.55-3.6-36.55H603l6.81-10.95c0,0-9.04-23.25-11.38-27.43c-4.7-8.36-24.43-24.86-34.71-30.64s-28-5.36-62.71-5.36
		s-41.29,13.46-54.14,21.5l10.43-18.79c0,0-31.66,20.75-39.04,31.36c-7.38,10.61-6.85,15.32-7.29,34.21c0,0-8.63,16.55-12.99,70.83
		L408.73,323.16z"/>
	<path class="st13" d="M592.41,365.46l-2.23-1.48c0,0,2.08-20.2,1.11-30.6l6.84-1.8l-2.1,6.21L592.41,365.46z"/>
	<path class="st15" d="M408.29,322.87l-6.37-0.77c0,0,7.43-31.9,8.14-36.82c3.6-24.91,6.92-29.3,6.66-32.03
		c-0.4-4.23,0-13.46,1.13-16.19c1.13-2.73,3.22-11.44,4.98-13.54c8.73-10.41,35.04-15.87,35.04-15.87s-3.16,17.82-2.61,21.04
		c0.55,3.21,13.31-20.71,35.71-29.8c9.95-4.04,64.46-5.49,61.39-3.96c-28.84,14.34-43.14,28.39-39.23,27.71
		c27.21-4.76,29.24-4.12,36.27-5.07c0,0,31.62,6.45,37.52,9.84c5.75,3.31,17.67,16.12,17.67,16.12l-25.33,2.88l13.11,10.26
		l-1.14,2.81c0,0,1.32,25.86,2.39,30.57c0.66,2.91,2.86,32.14,2.86,32.14l-6.39,0.73l-10.23-42.47l-157.55,3.46L408.29,322.87z"/>
</g>
<g id="Hair_light">
	<path class="st16" d="M427.94,260.48c0,0-6.91-6.13-5.08-29.34l9.88,26.38c0,0-1.29-29.96,14.6-37.95c0,0-4.11,28.12,2.24,35.49
		c0,0,16.35-46.9,57.17-46.26c0,0-20.73,29.48,15.75,49.16c0,0,3.92-31.15,33.4-29.25c0,0,33.06-0.86,49.4,15.25
		c0,0-13.8,0.72-23.01,2.06c0,0,5.78,7.46,10.04,10.58c0,0-0.16,0.45-10.73-1.53l-78.34,27.07L427.94,260.48z"/>
</g>
<g id="Hair_lines">
	<g>
		<g>
			<g>
				<path d="M456.71,260.18c-0.08,0.12-1.52-0.7-3.53-2.78c-1-1.04-2.14-2.4-3.18-4.16c-1.03-1.75-1.96-3.94-2.32-6.5
					c-0.16-1.28-0.21-2.61-0.04-4.04c0.21-1.43,0.69-2.79,1.25-4.14c1.18-2.68,2.74-5.31,4.51-7.93
					c3.54-5.24,7.87-10.48,12.57-15.51c2.36-2.51,4.82-4.96,7.4-7.28c1.29-1.16,2.61-2.28,4-3.33c0.69-0.53,1.4-1.03,2.14-1.51
					c0.37-0.24,0.76-0.47,1.14-0.69l1.14-0.57c0.76-0.38,1.52-0.75,2.27-1.13c0.76-0.36,1.48-0.78,2.27-1.05
					c1.55-0.59,3.07-1.18,4.57-1.76c1.54-0.45,3.05-0.89,4.53-1.32c1.48-0.41,2.96-0.66,4.39-0.98c1.42-0.34,2.83-0.5,4.18-0.71
					c1.35-0.2,2.66-0.4,3.92-0.49c1.26-0.12,2.47-0.23,3.62-0.33c1.15-0.06,2.24-0.11,3.27-0.16c2.06-0.13,3.85-0.11,5.34-0.14
					c1.49-0.03,2.67-0.02,3.5-0.01c2.06-0.01,6.28,0.08,11.9,0.17c5.59,0.02,12.73,0.23,19.99-1.75l10.44-2.84l-9.55,5.01
					c-7.66,4.02-16.09,8.54-24.27,13.24c-4.06,2.37-8.16,4.75-11.73,7.38c-1.71,1.27-3.11,2.99-4.39,4.69
					c-1.26,1.73-2.36,3.51-3.28,5.32c-1.83,3.59-3.03,7.27-3.05,10.59c0,1.65,0.27,3.2,0.89,4.48c0.28,0.66,0.68,1.22,1.07,1.74
					c0.43,0.55,0.87,1.08,1.25,1.6c1.56,2.07,2.62,3.9,3.08,5.28c0.24,0.69,0.32,1.26,0.29,1.65c-0.02,0.39-0.16,0.59-0.2,0.56
					c-0.06-0.03,0-0.76-0.62-1.99c-0.59-1.23-1.73-2.9-3.37-4.84c-0.4-0.49-0.86-0.97-1.32-1.51c-0.48-0.57-0.96-1.2-1.32-1.94
					c-0.77-1.45-1.14-3.2-1.2-5.02c-0.09-3.67,1.1-7.58,2.93-11.39c0.92-1.91,2.04-3.79,3.33-5.63c1.32-1.81,2.75-3.65,4.69-5.15
					c3.74-2.84,7.78-5.24,11.86-7.68c8.18-4.82,16.59-9.4,24.26-13.47l0.89,2.17c-3.9,1.12-7.7,1.53-11.19,1.76
					c-1.74,0.08-3.42,0.13-5.01,0.16c-1.59,0-3.09,0-4.51,0c-5.66-0.08-9.84-0.16-11.88-0.16c-0.82-0.01-2-0.02-3.46,0.01
					c-1.47,0.03-3.24,0.02-5.26,0.14c-1.01,0.05-2.08,0.1-3.21,0.15c-1.12,0.1-2.3,0.21-3.54,0.32c-1.24,0.08-2.51,0.28-3.83,0.47
					c-1.32,0.2-2.69,0.34-4.07,0.67c-1.38,0.31-2.82,0.55-4.25,0.93c-1.43,0.41-2.89,0.83-4.38,1.26c-1.45,0.55-2.92,1.1-4.41,1.67
					c-0.76,0.25-1.46,0.66-2.19,1c-0.73,0.35-1.46,0.71-2.19,1.07l-1.11,0.54c-0.35,0.2-0.68,0.39-1.02,0.6
					c-0.68,0.43-1.34,0.9-2.01,1.4c-1.32,0.99-2.62,2.07-3.88,3.19c-2.54,2.24-4.98,4.63-7.34,7.08c-4.69,4.9-9.04,10.03-12.6,15.09
					c-3.46,5.06-6.66,10.13-5.83,14.9c0.24,2.34,1.02,4.41,1.91,6.12c0.9,1.71,1.91,3.09,2.79,4.17
					C455.56,259.03,456.81,260.05,456.71,260.18z"/>
			</g>
		</g>
	</g>
	<g>
		<g>
			<g>
				<path d="M455.07,227.38c-0.12,0.02-0.34-1.28,0.19-3.36c0.48-2.09,1.6-4.9,3.2-8.04c1.6-3.15,3.67-6.64,5.98-10.2
					c1.15-1.78,2.37-3.58,3.61-5.36l0.94-1.33l0.35-0.49l0.03-0.05l0.09-0.15l-0.2,0.13c-1.11,0.61-2.2,1.2-3.25,1.78
					c-2.27,1.23-4.39,2.39-6.28,3.41c-3.78,2.05-6.62,3.59-7.84,4.24c-0.76,0.41-2.17,1.17-4.05,2.19c-0.94,0.51-2,1.08-3.15,1.7
					c-0.56,0.32-1.11,0.66-1.7,1c-0.29,0.17-0.59,0.35-0.89,0.53c-0.28,0.21-0.57,0.43-0.86,0.64c-2.34,1.7-4.64,4.04-6.51,6.87
					c-1.88,2.82-3.34,6.09-4.34,9.45c-1.01,3.35-1.6,6.81-1.62,9.97c-0.02,1.55,0.36,3.02,0.71,4.45c0.37,1.42,0.75,2.76,1.13,3.99
					c1.51,4.9,2.62,8.08,2.39,8.18c-0.22,0.09-1.67-2.96-3.45-7.82c-0.45-1.22-0.9-2.55-1.33-3.99c-0.41-1.43-0.88-3.03-0.91-4.77
					c-0.07-3.39,0.46-6.96,1.46-10.48c0.99-3.51,2.48-6.97,4.44-9.98c1.95-3.02,4.39-5.56,6.91-7.4c0.31-0.24,0.62-0.47,0.92-0.7
					c0.32-0.2,0.64-0.39,0.96-0.58c0.63-0.37,1.24-0.75,1.82-1.08c1.15-0.62,2.21-1.2,3.14-1.7c1.87-1.01,3.28-1.77,4.04-2.19
					c2.84-1.53,13.34-7.18,24.96-13.43c-1.34,1.74-2.75,3.54-3.99,5.21c-0.83,1.13-1.66,2.26-2.49,3.39
					c-1.26,1.75-2.49,3.51-3.67,5.25c-2.36,3.48-4.5,6.88-6.2,9.91c-1.7,3.03-2.95,5.7-3.61,7.65
					C455.28,226.17,455.24,227.38,455.07,227.38z"/>
			</g>
		</g>
	</g>
	<g>
		<g>
			<g>
				<path d="M448.25,202.39c-0.04,0.02-0.18-0.55,0.06-1.48c0.25-0.92,0.75-2.19,1.49-3.69c1.49-2.99,3.83-6.92,6.58-11.07
					l0.73,0.66c-10.01,8.43-22.15,18.69-24.62,20.84c-1.07,0.95-4.08,3.43-7.7,6.81c-0.23,0.21-0.45,0.43-0.63,0.63l-0.29,0.31
					l-0.23,0.37c-0.3,0.53-0.58,1.14-0.85,1.75c-0.54,1.24-1.04,2.56-1.55,3.92c-0.5,1.35-1,2.75-1.49,4.15l-0.73,2.11l-0.36,1.06
					l-0.18,0.53l-0.09,0.26c-0.04,0.14-0.02,0.02-0.03,0.13c-0.33,5.94-0.66,11.71-0.95,15.98c-0.29,4.28-0.54,7.06-0.69,7.06
					c-0.15-0.01-0.13-2.81-0.01-7.09c0.12-4.28,0.35-10.05,0.6-16c-0.02-0.08,0.05-0.38,0.08-0.41l0.09-0.27l0.17-0.53l0.35-1.07
					l0.71-2.13c0.48-1.42,0.96-2.82,1.46-4.19c0.5-1.37,1-2.71,1.55-3.99c0.28-0.64,0.55-1.26,0.9-1.88l0.28-0.46l0.36-0.4
					c0.24-0.28,0.48-0.51,0.71-0.72c3.68-3.46,6.66-5.91,7.74-6.87c2.47-2.15,14.62-12.42,24.78-20.69l2.67-2.17l-1.95,2.84
					c-2.8,4.07-5.23,7.93-6.84,10.81c-0.8,1.44-1.37,2.65-1.71,3.5C448.32,201.88,448.34,202.38,448.25,202.39z"/>
			</g>
		</g>
	</g>
	<g>
		<g>
			<g>
				<path d="M556.75,252.88c-0.06-0.12,1.25-0.94,3.72-2.07c2.49-1.09,6.18-2.36,10.73-3.5c4.56-1.12,9.96-2.09,15.83-2.85
					c2.94-0.36,5.98-0.7,9.1-0.95c2.79-0.26,7.58-0.5,6.71-0.48c0.34,0.5-2.76-2.82-4.56-4.91c-2-2.28-3.99-4.54-5.94-6.76
					c-3.92-4.37-7.82-8.4-11.6-11.65c-3.77-3.26-7.44-5.71-10.59-7.03c-0.78-0.34-1.51-0.66-2.25-0.86c-0.72-0.22-1.38-0.45-2-0.62
					c-1.24-0.29-2.21-0.56-2.92-0.68c-1.44-0.25-4.11-0.79-7.75-0.89c-3.63-0.15-8.2,0.09-13.29,0.96
					c-5.09,0.83-10.69,2.3-16.41,4.2c-1.49,0.46-2.74,0.95-4.01,1.69c-1.25,0.73-2.41,1.63-3.46,2.66
					c-2.11,2.07-3.76,4.65-5.05,7.38c-1.29,2.73-2.23,5.63-2.9,8.51c-0.17,0.72-0.32,1.44-0.45,2.16l-0.18,1.07l-0.07,0.46
					c0,0.05-0.03,0.09,0,0.12c0.81,1.12,1.61,2.23,2.39,3.31c3.32,4.63,6.39,8.91,9,12.56c5.19,7.32,8.48,12.16,8.24,12.34
					c-0.25,0.18-3.91-4.39-9.37-11.51c-2.71-3.57-5.9-7.76-9.35-12.3c-0.91-1.21-1.83-2.44-2.77-3.69l-0.15-0.2
					c-0.01-0.08,0.01-0.16,0.01-0.24l0.05-0.48l0.08-0.64l0.17-1.13c0.12-0.75,0.27-1.51,0.43-2.26c0.65-3.02,1.59-6.05,2.92-8.97
					c1.33-2.91,3.08-5.73,5.41-8.06c1.16-1.16,2.46-2.2,3.88-3.04c0.7-0.43,1.45-0.79,2.2-1.11l1.14-0.44l1.09-0.37
					c5.79-1.96,11.5-3.49,16.74-4.37c5.23-0.91,9.99-1.17,13.78-1.02c3.8,0.11,6.61,0.67,8.13,0.93c1.48,0.34,4.18,0.83,7.64,2.31
					c3.47,1.47,7.33,4.07,11.2,7.45c3.89,3.37,7.83,7.49,11.76,11.93c1.96,2.22,3.93,4.52,5.9,6.82c0.99,1.15,1.98,2.3,3,3.41
					l0.76,0.83l0.19,0.21l0.39,0.35l0.81,0.71c0.55,0.48,1.05,0.95,1.63,1.42l1.8,1.43c-7.29,0.18-8.84,0.31-12.26,0.52
					c-3.1,0.2-6.12,0.49-9.04,0.78c-5.83,0.63-11.2,1.46-15.73,2.39c-4.53,0.96-8.21,2.01-10.75,2.87
					C558.25,252.46,556.83,253.03,556.75,252.88z"/>
			</g>
		</g>
	</g>
	<g>
		<g>
			<g>
				<path d="M590.65,254.6c-0.82,0.91-5.04-2.9-5.58-3.39c-0.54-0.49-4.78-4.28-3.96-5.19c0.82-0.91,5.04,2.9,5.58,3.39
					C587.23,249.9,591.46,253.69,590.65,254.6z"/>
			</g>
		</g>
	</g>
</g>
<g id="Face_shadow">
	<polygon class="st17" points="410.64,314.76 460.35,314.82 484,323.5 491.96,333.14 508.18,333.14 517.86,323.18 538.43,314.76 
		589.35,314.82 575.93,278.71 421.43,277.4 	"/>
	<path class="st17" d="M410.08,333.82c0,0,3.83,48.9,29.53,69.07c13.63,10.7,38.87-7.31,43.78,0l16.61,6.32
		c0,0,13.11-2.68,16.24-6.32c5.42-6.32,34.79,14.16,49.26-0.29c15.02-14.99,22.43-47.64,24.68-68.84l-4.55,13.51l-3.61-0.08
		c0,0-1.21,7.51-9.97,14.66c-8.76,7.15-40.82,5.52-40.82,5.52s-19.17-6.12-19.47-24.12c0,0-3.41,0.52-4.29-0.3
		c0,0-5.81-1.29-14.43-0.01c0,0-3.88,0.94-4.88,0.31c0,0,0.88,13.62-9.32,21.01s-43.2,4.75-50.63-3.25
		c-7.03-7.57-9.49-9.26-10.14-13.02l-3.92-0.42C414.14,347.58,411.77,335.87,410.08,333.82z"/>
	<path class="st18" d="M477.34,393.37c0,0-3.19,6.18,1.64,7.68c4.83,1.5,16.18,8.39,19.98,8.11c3.8-0.28,13.42-3.59,18.07-6.76
		l3.11-0.72c0,0,6.36-2.02,2.34-8.3H477.34z"/>
	<path class="st12" d="M476.93,394.43c0,0,5.14-1.25,7.82,0.14c2.68,1.39,7.93,6.32,14.79,6.32s12.21-3.21,14.89-4.71
		c2.68-1.5,8.87-1.25,8.87-1.25s-0.4-4.86-4.37-5.5h-5.04l-4.46-26.26c0,0-2.82-10.34-9.18-10.41c-6.64-0.08-9.39,10.09-9.39,10.09
		l-4.5,26.16c0,0-4.88,0.27-5.84,0.7C479.55,390.13,477.15,393.04,476.93,394.43z"/>
	<path class="st10" d="M412.06,310.45c0,0,10.08-26.4,18.37-27.03c12.22-0.93,18.94,2.27,27.39,4.28
		c14.18,3.38,42.63,7.74,44.25,7.72c18.96-0.16,26.61-1.98,39.14-3.86c9.92-1.48,12.86-3.87,31.29-5.84
		c4.83-0.52,11.16,20.2,17.57,26.79c0,0-8.74-33.42-8.05-45.16l-4.76-10.46l-28.68,8.96c0,0-5.19,5.36-19.02,2.26
		c0,0-24.61,5.63-29.55,5.01s-33.3-4.97-42.79-11.88l-31.54-4.36c0,0-4.6,2.16-4.72,8.17C420.57,283.43,412.06,310.45,412.06,310.45
		z"/>
	<path class="st19" d="M487.54,346.87c0,0-2.77,11.92-14.79,18.35c0,0-20.04,5.46-41.57-3.21c0,0-10.73-8.06-14.12-20.99
		c0,0,1.63,15.54,11.52,22.25c9.89,6.71,37.06,8.14,45.44,4.26C482.39,363.64,488.29,355.48,487.54,346.87z"/>
	<path class="st19" d="M512.18,346.87c0,0,3.84,12.35,15.86,18.78c0,0,18.96,4.5,40.5-4.18c0,0,11.73-7.52,15.12-20.46
		c0,0-2.63,15.54-12.52,22.25c-9.89,6.71-37.06,8.14-45.44,4.26C517.32,363.64,511.42,355.48,512.18,346.87z"/>
	<path class="st10" d="M410.76,316.99c0,0,6.92,0.16,11.34-0.34c4.42-0.51,25.31-2.1,39.54,0.99c14.22,3.09,22,6.52,30.33,18.58
		c0,0,7.26-2.84,16.55,0.11c0,0,6.48-14.65,28.18-18.42c21.7-3.78,44.97-0.88,44.97-0.88h7.99l-0.56-4.2l-7.43-0.06
		c0,0-25.12-4.71-45.53,0.06c-20.41,4.77-29.25,18.55-29.25,18.55s-6.01-2.17-13.84,0c0,0-9.09-15.58-31.48-18.68
		c-21.64-2.68-42.59,0-42.59,0h-7.32L410.76,316.99z"/>
	<path class="st10" d="M475.77,429.25c0,0,0.26,6,9.06,8.73h32.34c0,0,6.34-4.51,6.34-8.87l-13.74-0.84l-8.68,1.2l-11.52-1.2
		L475.77,429.25z"/>
</g>
<g id="Eyes">
	<path class="st20" d="M481.41,348.17l-2.69-7.83l-4.37-3.79c0,0-21.29-1.88-28.85-0.68l-10.96,11.82l8.74-7.42l30.46-0.1
		L481.41,348.17z"/>
	<path class="st21" d="M481.41,348.17c0,0-3.77,5.93-6.98,7.71c0,0-18.34,3.26-33.06-0.3c0,0-2.91-0.65-6.83-7.9l8.74-7.42
		l30.46-0.1L481.41,348.17z"/>
	<g>
		<g>
			<g>
				<path d="M435.16,341.98c-0.16-0.2,3.78-3.64,8.82-6.15l0.48-0.22l0.25-0.11l0.31-0.13c0.19-0.03,0.25-0.03,0.34-0.04l0.26-0.02
					l0.52-0.05c0.69-0.07,1.38-0.13,2.06-0.16c1.35-0.09,2.65-0.12,3.81-0.15c2.33-0.04,4.13,0,4.8,0c1.34,0.01,7.2,0.18,12.7,0.67
					c1.38,0.12,2.73,0.25,3.98,0.39l0.47,0.05l0.23,0.03c0.12,0.02,0.26,0.01,0.37,0.06c0.25,0.23,0.5,0.46,0.75,0.68
					c0.42,0.39,0.81,0.76,1.17,1.1c1.44,1.37,2.34,2.3,2.24,2.42c-0.1,0.12-1.15-0.65-2.7-1.88c-0.39-0.31-0.81-0.65-1.25-1.01
					c-0.19-0.15-0.39-0.31-0.59-0.48c-0.25-0.02-0.51-0.03-0.77-0.05c-1.26-0.08-2.61-0.16-3.98-0.24
					c-5.49-0.34-11.32-0.51-12.64-0.52c-0.66-0.01-2.45-0.04-4.76-0.02c-1.15,0.02-2.43,0.04-3.77,0.11
					c-0.67,0.02-1.35,0.07-2.03,0.12l-0.94,0.07l-0.4,0.16l-0.46,0.2C439.5,339.08,435.36,342.26,435.16,341.98z"/>
			</g>
		</g>
	</g>
	<g>
		<g>
			<g>
				<path d="M441.37,355.58c0.04-0.15,0.96-0.06,2.35,0.17c1.39,0.19,3.26,0.45,5.2,0.61c3.87,0.37,8.01,0.35,8.95,0.35
					c0.94,0,5.08-0.08,8.97-0.39c3.9-0.26,7.54-0.74,7.59-0.44c0.06,0.31-3.57,1.09-7.49,1.5c-3.92,0.47-8.11,0.54-9.06,0.54
					c-0.95,0-5.15,0.02-9.07-0.5c-1.96-0.24-3.85-0.62-5.22-0.98C442.2,356.04,441.33,355.73,441.37,355.58z"/>
			</g>
		</g>
	</g>
	<g>
		<g>
			<path class="st22" d="M448.88,347.09c0.51,5.8,5.62,10.09,11.42,9.58c5.8-0.51,10.09-5.62,9.58-11.42
				c-0.17-1.96-0.87-3.73-1.94-5.22c-4.52-0.07-11.02-0.14-17.09-0.03C449.41,341.99,448.65,344.47,448.88,347.09z M458.81,340.3
				c3.3-0.29,6.21,2.15,6.5,5.45c0.29,3.3-2.15,6.21-5.45,6.5c-3.3,0.29-6.21-2.15-6.5-5.45
				C453.07,343.5,455.51,340.59,458.81,340.3z"/>
			<g>
				<path class="st23" d="M448.88,347.09c0.51,5.8,5.62,10.09,11.42,9.58c5.8-0.51,10.09-5.62,9.58-11.42
					c-0.17-1.96-0.87-3.73-1.94-5.22c-4.52-0.07-11.02-0.14-17.09-0.03C449.41,341.99,448.65,344.47,448.88,347.09z M458.81,340.3
					c3.3-0.29,6.21,2.15,6.5,5.45c0.29,3.3-2.15,6.21-5.45,6.5c-3.3,0.29-6.21-2.15-6.5-5.45
					C453.07,343.5,455.51,340.59,458.81,340.3z"/>
				<g>
					<path d="M458.81,340.3c0.03,0.18-1.05,0.27-2.32,1.1c-0.62,0.42-1.29,1.02-1.78,1.82c-0.49,0.8-0.82,1.78-0.84,2.79
						c-0.04,1.01,0.23,2.04,0.72,2.89c0.49,0.85,1.18,1.53,1.9,1.96c1.46,0.89,2.85,0.82,3.31,0.79c0.46-0.04,1.84-0.22,3.13-1.35
						c0.64-0.55,1.2-1.33,1.53-2.26c0.33-0.92,0.42-1.98,0.2-2.97c-0.2-1-0.69-1.91-1.31-2.61c-0.62-0.71-1.38-1.19-2.07-1.49
						C459.89,340.39,458.82,340.49,458.81,340.3c-0.03-0.11,1.07-0.47,2.72,0.02c0.8,0.25,1.72,0.73,2.49,1.51
						c0.77,0.77,1.41,1.83,1.68,3.01c0.29,1.17,0.22,2.45-0.15,3.58c-0.38,1.13-1.05,2.09-1.82,2.77c-1.55,1.4-3.26,1.61-3.81,1.67
						c-0.56,0.05-2.28,0.13-4.05-0.98c-0.88-0.53-1.71-1.37-2.27-2.41c-0.57-1.04-0.86-2.29-0.77-3.5c0.06-1.21,0.5-2.36,1.13-3.25
						c0.62-0.9,1.44-1.53,2.19-1.92C457.67,340.02,458.82,340.19,458.81,340.3z"/>
				</g>
				<g>
					<path d="M448.88,347.09c-0.1,0.04-0.6-1.8,0.22-4.49c0.21-0.66,0.5-1.36,0.9-2.06c0.11-0.18,0.2-0.34,0.33-0.53l0.29-0.43
						l0.51-0.01c0.41-0.01,0.83-0.01,1.26-0.02c1.71-0.02,3.55-0.04,5.42-0.06c1.87-0.01,3.77-0.02,5.59-0.03
						c0.91,0,1.8-0.01,2.67-0.01c0.43,0,0.85,0,1.27,0c0.31,0,0.61,0,0.91,0l0.33,0.48l0.19,0.29c0.9,1.4,1.37,2.83,1.57,3.98
						c0.11,0.58,0.15,1.09,0.16,1.52c0.02,0.43,0.03,0.77,0,1c-0.03,0.91-0.28,3.65-2.35,6.3c-1.01,1.32-2.47,2.52-4.23,3.29
						c-1.75,0.81-3.8,1.07-5.74,0.87c-1.95-0.25-3.79-1-5.21-2.08c-1.43-1.07-2.46-2.39-3.1-3.63
						C448.6,348.97,448.78,347.07,448.88,347.09c0.2-0.04,0.27,1.78,1.61,4.04c0.66,1.11,1.68,2.29,3.02,3.22
						c1.33,0.94,3.02,1.58,4.78,1.77c1.76,0.14,3.6-0.11,5.16-0.86c1.57-0.71,2.87-1.8,3.76-2.98c1.84-2.38,2.05-4.81,2.08-5.63
						c0.03-0.21,0.02-0.51,0-0.9c0-0.38-0.04-0.84-0.14-1.35c-0.18-1.03-0.59-2.3-1.39-3.55l-0.14-0.22l-0.31,0
						c-0.41,0-0.83,0-1.26-0.01c-0.86-0.01-1.75-0.01-2.66-0.02c-1.82-0.02-3.71-0.03-5.58-0.05c-1.86-0.03-3.7-0.06-5.41-0.08
						c-0.42-0.01-0.84-0.02-1.25-0.03l-0.1-0.01l-0.05,0.06c-0.1,0.13-0.21,0.31-0.31,0.46c-0.4,0.63-0.71,1.27-0.94,1.87
						C448.83,345.29,449.07,347.09,448.88,347.09z"/>
				</g>
			</g>
		</g>
		<circle cx="459.33" cy="346.28" r="6"/>
	</g>
	<path class="st20" d="M518.59,348.22l2.69-7.83l4.37-3.79c0,0,21.29-1.88,28.85-0.68l10.96,11.82l-8.74-7.42l-30.46-0.1
		L518.59,348.22z"/>
	<path class="st21" d="M518.59,348.22c0,0,3.77,5.93,6.98,7.71c0,0,18.34,3.26,33.06-0.3c0,0,2.91-0.65,6.83-7.9l-8.74-7.42
		l-30.46-0.1L518.59,348.22z"/>
	<g>
		<g>
			<g>
				<path d="M564.84,342.03c-0.2,0.29-4.34-2.9-9.26-5.19l-0.46-0.2l-0.4-0.16l-0.94-0.07c-0.68-0.05-1.36-0.1-2.03-0.12
					c-1.33-0.07-2.61-0.08-3.77-0.11c-2.31-0.02-4.09,0.02-4.76,0.02c-1.33,0.01-7.15,0.18-12.64,0.52
					c-1.37,0.08-2.72,0.17-3.98,0.24c-0.26,0.02-0.52,0.03-0.77,0.05c-0.2,0.16-0.4,0.32-0.59,0.48c-0.44,0.36-0.86,0.7-1.25,1.01
					c-1.55,1.24-2.6,2-2.7,1.88c-0.1-0.12,0.8-1.05,2.24-2.42c0.36-0.34,0.76-0.71,1.17-1.1c0.24-0.22,0.49-0.45,0.75-0.68
					c0.11-0.05,0.25-0.04,0.37-0.06l0.23-0.03l0.47-0.05c1.26-0.14,2.61-0.27,3.98-0.39c5.5-0.49,11.36-0.66,12.7-0.67
					c0.67-0.01,2.47-0.04,4.8,0c1.16,0.03,2.46,0.06,3.81,0.15c0.68,0.03,1.36,0.09,2.06,0.16l0.52,0.05l0.26,0.02
					c0.09,0.01,0.15,0.01,0.34,0.04l0.31,0.13l0.25,0.11l0.48,0.22C561.06,338.39,565,341.83,564.84,342.03z"/>
			</g>
		</g>
	</g>
	<g>
		<g>
			<g>
				<path d="M558.63,355.63c0.04,0.15-0.83,0.46-2.2,0.86c-1.38,0.36-3.26,0.74-5.22,0.98c-3.93,0.52-8.12,0.5-9.07,0.5
					c-0.95,0-5.14-0.08-9.06-0.54c-3.92-0.42-7.55-1.19-7.49-1.5c0.05-0.29,3.69,0.18,7.59,0.44c3.89,0.31,8.03,0.39,8.97,0.39
					c0.94,0,5.08,0.02,8.95-0.35c1.94-0.16,3.81-0.42,5.2-0.61C557.67,355.57,558.59,355.48,558.63,355.63z"/>
			</g>
		</g>
	</g>
	<g>
		<g>
			<path class="st22" d="M549.16,340.06c-6.07-0.11-12.57-0.05-17.09,0.03c-1.07,1.49-1.77,3.26-1.94,5.22
				c-0.51,5.8,3.78,10.91,9.58,11.42s10.91-3.78,11.42-9.58C551.35,344.52,550.59,342.04,549.16,340.06z M546.64,346.85
				c-0.29,3.3-3.2,5.74-6.5,5.45c-3.3-0.29-5.74-3.2-5.45-6.5c0.29-3.3,3.2-5.74,6.5-5.45
				C544.49,340.64,546.93,343.55,546.64,346.85z"/>
			<g>
				<path class="st23" d="M549.16,340.06c-6.07-0.11-12.57-0.05-17.09,0.03c-1.07,1.49-1.77,3.26-1.94,5.22
					c-0.51,5.8,3.78,10.91,9.58,11.42s10.91-3.78,11.42-9.58C551.35,344.52,550.59,342.04,549.16,340.06z M546.64,346.85
					c-0.29,3.3-3.2,5.74-6.5,5.45c-3.3-0.29-5.74-3.2-5.45-6.5c0.29-3.3,3.2-5.74,6.5-5.45
					C544.49,340.64,546.93,343.55,546.64,346.85z"/>
				<g>
					<path d="M546.64,346.85c-0.18-0.01-0.08-1.08-0.68-2.47c-0.3-0.69-0.78-1.45-1.49-2.07c-0.7-0.62-1.61-1.11-2.61-1.31
						c-0.99-0.21-2.05-0.12-2.97,0.2c-0.92,0.33-1.71,0.89-2.26,1.53c-1.13,1.28-1.3,2.67-1.35,3.13c-0.04,0.46-0.11,1.85,0.79,3.31
						c0.43,0.72,1.11,1.41,1.96,1.9c0.85,0.48,1.88,0.75,2.89,0.72c1.02-0.02,2-0.34,2.79-0.84c0.8-0.49,1.41-1.15,1.82-1.78
						C546.37,347.9,546.46,346.83,546.64,346.85c0.12-0.01,0.28,1.14-0.49,2.67c-0.39,0.75-1.02,1.56-1.92,2.19
						c-0.89,0.63-2.04,1.07-3.25,1.13c-1.21,0.09-2.45-0.21-3.5-0.77c-1.05-0.57-1.88-1.4-2.41-2.27c-1.11-1.77-1.02-3.49-0.98-4.05
						c0.05-0.56,0.27-2.26,1.67-3.81c0.68-0.77,1.64-1.44,2.77-1.82c1.12-0.38,2.4-0.45,3.58-0.15c1.18,0.27,2.24,0.91,3.01,1.68
						c0.78,0.77,1.26,1.69,1.51,2.49C547.12,345.78,546.76,346.88,546.64,346.85z"/>
				</g>
				<g>
					<path d="M549.16,340.06c0.07-0.09,1.44,1.23,2.13,3.96c0.34,1.35,0.41,3.02,0.02,4.77c-0.17,0.88-0.52,1.74-0.92,2.6
						c-0.46,0.83-0.98,1.66-1.66,2.37c-1.31,1.46-3.07,2.55-4.9,3.11c-1.84,0.55-3.74,0.61-5.36,0.28
						c-1.63-0.32-2.98-0.97-3.97-1.61c-0.97-0.67-1.62-1.27-1.93-1.63c-0.32-0.35-0.94-0.99-1.52-2.02
						c-0.6-1.01-1.18-2.39-1.42-4.03c-0.25-1.64-0.13-3.53,0.53-5.34c0.16-0.45,0.36-0.9,0.58-1.33c0.11-0.22,0.23-0.43,0.36-0.64
						l0.2-0.31l0.28-0.4l0.19-0.27c0.08-0.06,0.22-0.02,0.32-0.03l0.49,0l0.7,0l1.41,0.01
						C542.15,339.61,549.17,339.75,549.16,340.06s-7.02,0.47-14.48,0.56l-1.4,0.02l-0.7,0.01l-0.21,0c-0.01,0-0.02,0.01-0.03,0.02
						l-0.29,0.46c-0.11,0.19-0.22,0.38-0.32,0.58c-0.2,0.39-0.37,0.79-0.51,1.2c-0.58,1.62-0.67,3.32-0.44,4.78
						c0.45,2.97,2.08,4.8,2.64,5.39c0.28,0.32,0.86,0.85,1.72,1.45c0.88,0.57,2.08,1.16,3.53,1.45c1.45,0.3,3.14,0.26,4.8-0.21
						c1.65-0.48,3.24-1.44,4.46-2.73c2.54-2.57,3.15-6.35,2.65-8.87C550.13,341.59,549,340.16,549.16,340.06z"/>
				</g>
			</g>
		</g>
		<circle cx="540.67" cy="346.33" r="6"/>
	</g>
	<g>
		<g>
			<g>
				<path d="M481.41,348.17c-0.22,0.21-1.4-0.69-3.08-2.2c-0.84-0.75-1.8-1.66-2.83-2.65c-0.51-0.5-1.05-1.02-1.59-1.55
					c-0.24-0.24-0.65-0.65-0.6-0.57c-0.02-0.02-0.06,0-0.08,0l-0.55,0c-6.25-0.01-12.86-0.03-14.37-0.03
					c-0.78,0-2.92,0.01-5.67,0.01c-1.37,0.01-2.9,0.03-4.48,0.04c-1.45,0.03-2.95,0.05-4.42,0.08l-0.03,0.02
					c-0.01,0.01,0,0-0.1,0.08l-0.41,0.38c-0.28,0.25-0.55,0.5-0.83,0.74c-0.55,0.49-1.09,0.95-1.62,1.39
					c-1.06,0.88-2.06,1.65-2.95,2.26c-1.78,1.23-3.12,1.76-3.26,1.51c-0.15-0.26,0.88-1.13,2.4-2.57c0.76-0.73,1.64-1.59,2.6-2.53
					c0.48-0.48,0.97-0.97,1.48-1.48c0.59-0.61,1.2-1.23,1.81-1.86c0.94-0.06,1.89-0.12,2.84-0.19c0.81-0.04,1.63-0.08,2.42-0.12
					c1.59-0.07,3.13-0.11,4.52-0.14c2.77-0.05,4.92-0.05,5.71-0.05c1.52,0,8.16,0.02,14.42,0.33l0.62,0.03l0.54,0.02l0.27,0.01
					c0.09,0,0.13,0.11,0.2,0.16c0.33,0.37,0.67,0.73,0.99,1.09c0.5,0.57,1,1.12,1.47,1.66c0.95,1.07,1.81,2.08,2.52,2.95
					C480.78,346.74,481.63,347.96,481.41,348.17z"/>
			</g>
		</g>
	</g>
	<g>
		<g>
			<g>
				<path d="M518.59,348.22c-0.22-0.21,0.63-1.43,2.06-3.17c0.72-0.87,1.58-1.88,2.52-2.95c0.48-0.53,0.97-1.09,1.47-1.66
					c0.33-0.36,0.66-0.72,0.99-1.09c0.07-0.05,0.11-0.17,0.2-0.16l0.27-0.01l0.54-0.02l0.62-0.03c6.26-0.3,12.9-0.33,14.42-0.33
					c0.78,0,2.94,0,5.71,0.05c1.38,0.03,2.92,0.07,4.52,0.14c0.8,0.04,1.61,0.08,2.42,0.12c0.95,0.06,1.9,0.12,2.84,0.19
					c0.61,0.63,1.22,1.25,1.81,1.86c0.51,0.51,1,1,1.48,1.48c0.96,0.93,1.85,1.79,2.6,2.53c1.51,1.45,2.55,2.31,2.4,2.57
					c-0.14,0.25-1.48-0.28-3.26-1.51c-0.89-0.61-1.89-1.38-2.95-2.26c-0.53-0.44-1.07-0.9-1.62-1.39c-0.27-0.25-0.55-0.49-0.83-0.74
					l-0.41-0.38c-0.09-0.09-0.08-0.08-0.1-0.08l-0.03-0.02c-1.47-0.03-2.97-0.05-4.42-0.08c-1.58-0.01-3.11-0.03-4.48-0.04
					c-2.75-0.01-4.9-0.01-5.67-0.01c-1.51,0-8.12,0.02-14.37,0.03l-0.55,0c-0.02,0-0.06-0.02-0.08,0c0.06-0.07-0.35,0.34-0.59,0.57
					c-0.54,0.53-1.08,1.05-1.59,1.55c-1.03,0.99-1.99,1.9-2.83,2.65C520,347.52,518.82,348.43,518.59,348.22z"/>
			</g>
		</g>
	</g>
</g>
<g id="Glasses">
	<path class="st24" d="M418.06,348.01c0,0,2.68,14.47,9.19,18.19c6.51,3.72,22.18,11.53,47.93,5.04c0,0,12.5-0.02,13.07-25.97
		c0,0-1.02-14.1-25.96-18.07c-24.94-3.96-42.06,2.6-42.06,2.6S414.8,334.05,418.06,348.01z"/>
	<path class="st24" d="M582.3,347.66c0,0-2.74,15.1-9.25,18.82c-6.51,3.72-22.65,11.64-48.4,5.15c0,0-12.04-0.73-12.61-26.67
		c0,0,0.71-13.67,25.64-17.63c24.94-3.96,42.07,2.14,42.07,2.14S585.56,333.7,582.3,347.66z"/>
	<path class="st25" d="M419.83,351.71c0,0,5.24,3.59,12.15,5.68s29.22,5.97,44.32,2.41c0,0,5.52-0.81,11.3-6.12
		c0,0-4.01,14.89-11.36,17.81c-5.17,2.05-31.56,6.62-44.98-2.52C431.26,368.97,420.9,359.21,419.83,351.71z"/>
	<path class="st25" d="M581.07,351.89c0,0-5.24,3.59-12.15,5.68c-6.91,2.09-29.22,5.97-44.32,2.41c0,0-5.52-0.81-11.3-6.12
		c0,0,4.01,14.89,11.36,17.81c5.17,2.05,31.56,6.62,44.98-2.52C569.64,369.15,580.01,359.39,581.07,351.89z"/>
</g>
<g id="Light">
	<path class="st26" d="M683.38,774.12c0,0-5.56-86.45,38.05-129.19c10.71-10.5,4.19-47.55,4.82-84.54
		C726.86,524.48,738.8,500,738.8,500s0.98-4.99-18.8-15.53s-22.94-9.18-36.61-16.33c-13.67-7.14-28.13-15.31-43.58-17.78
		s-10.95-5.04-15.77-4.72c-4.82,0.32-9.7-1.61-13.21,2.25c-3.51,3.86-26.65,18-31.79,21.21c-5.14,3.21-39.86,24.98-47.41,30.97
		s-16.01,15.31-29.78,15.79c-13.77,0.48-23.31-6.91-24.49-6.91c-1.18,0-15.96-15.47-22.71-19.15c-6.75-3.68-21.54-14.25-29.57-16.68
		c-8.04-2.42-35.68-21.07-40.18-25.25c-4.5-4.18-12.86-3.62-16.71-2.45c-3.86,1.17-9.59,4.8-15.51,6.66
		c-5.93,1.86-54.24,25.22-54.24,25.22l-18.67,7.3c0,0-5.92-0.22-17.16,15.03c-3.09,4.2,6.15,15.32,11.19,51.21
		c4.88,34.81-3.53,87.22,3.75,94.07c35.52,33.43,39.08,129.19,39.08,129.19l-16.23-235.26c0,0,1.46-7.71,10.89-9
		c9.43-1.29,378.43-0.07,378.43-0.07s9,3.07,9.43,11.64C699.57,550,683.38,774.12,683.38,774.12z"/>
</g>
<g id="Beard">
	<g>
		<path class="st27" d="M589.89,363.13c-1.07,10.93-3.17,19.44-5.53,29.82c-2.36,10.37-4,11.13-7.22,19.21
			c-3.21,8.09-25.1,36.75-28,39.18c-2.89,2.44-5.23,5.95-9,5.79s-2.82-5.79-2.82-5.79s0.2-29.48,0.84-31.57
			c0.64-2.09-38.16-6.32-38.16-6.32s-37.8,4.23-37.16,6.32c0.64,2.09-0.16,31.57-0.16,31.57s0.96,5.63-2.82,5.79
			s-5.96-2.58-8.85-5.01c-2.89-2.44-26.55-34.66-29.77-42.75c-3.21-8.09-3.24-6.05-5.6-16.42c-2.36-10.37-3.82-17.48-4.89-28.41
			l-3.09,2.06c0,0,1.12,23.76,8.78,45.22c7.66,21.46,37.8,57.15,37.8,57.15c21.25,25.69,45.75,21.19,45.75,21.19
			c31.43,1.77,45.58-21.4,45.58-21.4c28.15-33.67,36.5-53.17,40.08-62.25s6.92-40.94,6.92-40.94L589.89,363.13z M528.75,464.04
			c-4.07,1.5-13.61-3.54-17.36-4.82c-3.75-1.29-1.61-8.14-1.61-8.14l1.5-3.96c0,0,0.21-2.32-0.86-2.45
			c-1.07-0.12-5.54-2.27-10.43-2.27s-9.36,2.14-10.43,2.27c-1.07,0.12-0.86,2.45-0.86,2.45l1.5,3.96c0,0,2.14,6.86-1.61,8.14
			c-3.75,1.29-13.29,6.32-17.36,4.82s-3.54-3-3.54-3s1.51-32.73,1.08-35.19c-0.43-2.46,31.21-5.19,31.21-5.19s32.46,2.89,32.04,5.36
			c-0.43,2.46,0.25,35.03,0.25,35.03S532.82,462.54,528.75,464.04z"/>
	</g>
</g>
<g id="Laptop">
	<path class="st9" d="M317.39,781.57c0,0,290.89,28.07,317.25-251.65h51.52c0,0,13.49-0.07,12.98,11.5l-16.29,243.73
		c0,0-1.12,11.94-12,12H327.5C327.5,797.16,318.46,796.91,317.39,781.57z"/>
</g>
<g id="Stroke">
	<g>
		<g>
			<g>
				<path d="M670.61,797.21c0-0.09,0.56-0.14,1.59-0.34c1.03-0.2,2.57-0.61,4.27-1.71c1.69-1.06,3.54-2.88,4.63-5.56
					c0.54-1.35,0.83-2.84,0.81-4.54c0.09-1.74,0.19-3.58,0.3-5.53c0.86-15.62,2.22-38,3.94-65.09c1.77-27.09,3.84-58.88,6.08-93.3
					c1.15-17.21,2.34-35.08,3.57-53.35c0.31-4.57,0.62-9.16,0.93-13.77c0.16-2.31,0.31-4.62,0.47-6.94l0.23-3.48l0.12-1.74
					c0.02-0.29-0.02-0.46-0.03-0.7c-0.01-0.22-0.02-0.45-0.07-0.69c-0.25-1.9-1.11-3.69-2.43-5.09c-1.31-1.42-3.07-2.42-5-2.97
					c-0.97-0.26-1.98-0.44-3.01-0.48l-0.77-0.03l-0.87,0l-1.76,0c-2.35,0-4.71,0.01-7.06,0.01c-150.86,0.13-310.84,0.26-347.3,0.29
					c-2.28,0-5.04,0-8.25,0c-1.61,0-3.32,0-5.15,0c-0.91,0-1.85,0-2.82,0c-0.48,0-0.97,0-1.47,0c-0.22,0-0.55-0.01-0.7,0.01
					l-0.52,0.03c-2.85,0.3-6.18,3.2-7.16,7.02c-0.14,0.47-0.21,0.96-0.28,1.46c-0.03,0.24-0.02,0.46-0.04,0.69
					c0,0.12-0.03,0.21-0.02,0.37l0.03,0.47c0.09,1.27,0.18,2.55,0.27,3.87c0.18,2.62,0.37,5.34,0.57,8.14
					c1.56,22.43,3.51,50.49,5.7,82.12c2.18,31.63,4.61,66.82,7.14,103.52c0.63,9.17,1.27,18.44,1.91,27.77
					c0.32,4.66,0.64,9.34,0.96,14.04l0.24,3.51c0.02,1.07,0.17,1.97,0.43,2.9c0.3,0.91,0.72,1.78,1.25,2.58
					c0.55,0.79,1.21,1.5,1.95,2.12c1.5,1.21,3.35,1.97,5.27,2.15l0.72,0.04c0.23,0.02,0.57,0.01,0.86,0.01l1.77,0l3.55,0.01
					c4.73,0.01,9.47,0.02,14.2,0.02c9.47,0.02,18.93,0.04,28.36,0.05c75.43,0.15,148.58,0.38,202.88,0.72
					c27.15,0.17,49.58,0.37,65.23,0.6c7.82,0.12,13.95,0.24,18.12,0.38S670.61,797.06,670.61,797.21s-2.21,0.3-6.39,0.43
					s-10.3,0.26-18.12,0.38c-15.65,0.23-38.08,0.43-65.23,0.6c-54.29,0.34-127.45,0.57-202.88,0.72
					c-9.43,0.02-18.89,0.04-28.36,0.05c-4.73,0.01-9.47,0.02-14.2,0.02l-3.55,0.01l-1.77,0c-0.31,0-0.56,0.01-0.92-0.01l-1.05-0.05
					c-2.8-0.24-5.5-1.34-7.68-3.1c-1.08-0.89-2.04-1.91-2.84-3.06c-0.78-1.16-1.39-2.43-1.83-3.76c-0.4-1.33-0.62-2.77-0.65-4.06
					l-0.25-3.53c-0.33-4.69-0.67-9.37-1-14.03c-0.66-9.33-1.32-18.59-1.97-27.77c-2.59-36.69-5.08-71.89-7.32-103.51
					c-2.22-31.63-4.19-59.69-5.77-82.12c-0.2-2.8-0.39-5.52-0.57-8.14c-0.09-1.31-0.18-2.6-0.27-3.87l-0.03-0.47
					c-0.01-0.16,0.01-0.39,0.01-0.58c0.02-0.39,0.03-0.8,0.07-1.18c0.1-0.74,0.21-1.47,0.42-2.17c0.75-2.83,2.29-5.25,4.22-7.1
					c0.98-0.91,2.06-1.7,3.24-2.3c1.19-0.59,2.46-1,3.78-1.18c0.33-0.02,0.67-0.04,1-0.07c0.36-0.02,0.53-0.01,0.8-0.01
					c0.5,0,0.99,0,1.47,0c0.97,0,1.91,0,2.82,0c1.83,0,3.54,0,5.15,0c3.21,0,5.97,0,8.25,0c36.46,0.03,196.44,0.17,347.3,0.29
					c2.36,0,4.71,0.01,7.06,0.01l1.76,0l0.89,0l0.99,0.04c1.32,0.06,2.64,0.29,3.93,0.65c2.57,0.74,5.03,2.13,6.9,4.17
					c1.88,2.01,3.13,4.64,3.47,7.36c0.11,0.65,0.12,1.45,0.13,2.09l-0.13,1.74l-0.25,3.48c-0.17,2.32-0.33,4.63-0.5,6.93
					c-0.33,4.61-0.67,9.2-1,13.77c-1.33,18.27-2.63,36.13-3.89,53.34c-2.56,34.41-4.93,66.19-6.94,93.27
					c-2.06,27.08-3.82,49.45-5.15,65.05c-0.17,1.95-0.33,3.79-0.48,5.53c-0.04,1.78-0.43,3.54-1.09,4.98
					c-1.33,2.92-3.46,4.79-5.34,5.81c-1.89,1.05-3.56,1.34-4.65,1.41C671.16,797.38,670.61,797.27,670.61,797.21z"/>
			</g>
		</g>
	</g>
	<g>
		<g>
			<g>
				<path d="M667.52,828.57c0-0.18,1.34-0.25,3.79-0.6c1.21-0.19,2.73-0.46,4.3-1.15c1.58-0.67,3.05-1.99,3.69-4.07
					c0.71-2.06,0.72-4.61,0.66-7.43c-0.03-1.42-0.05-2.9-0.08-4.44c-0.04-1.49-0.15-3.03-0.47-4.52c-0.33-1.48-0.94-2.86-1.99-3.84
					c-1.04-0.98-2.59-1.52-4.28-1.82c-1.7-0.3-3.54-0.38-5.44-0.36c-1.95,0.02-3.94,0.04-5.98,0.06
					c-32.66,0.34-76.65,0.57-122.02,0.72c-90.74,0.3-186.95,0.29-208.88,0.29c-1.3,0.03-2.91,0.02-4.61,0.27
					c-1.7,0.23-3.5,0.74-4.56,1.84c-0.54,0.55-0.97,1.3-1.28,2.32c-0.29,1.03-0.44,2.27-0.52,3.61c-0.04,1.32-0.03,2.88-0.03,4.46
					c0,0.79,0,1.6,0,2.41c0.02,0.79,0,1.56,0.08,2.32c0.1,1.52,0.36,3.04,0.92,4.17c0.25,0.6,0.64,1.01,1.05,1.43
					c0.48,0.36,0.97,0.73,1.68,0.96c1.35,0.53,3.11,0.77,4.96,0.87c1.82,0.09,3.88,0.06,5.96,0.07c8.3,0.01,17.3,0.01,26.83,0.02
					c38.14,0.08,84.88,0.17,130.24,0.26c45.37,0.15,89.36,0.38,122.02,0.72c16.33,0.17,29.82,0.37,39.23,0.6
					C662.19,828,667.52,828.27,667.52,828.57c0,0.31-5.33,0.57-14.74,0.8c-9.41,0.23-22.9,0.43-39.23,0.6
					c-32.66,0.34-76.65,0.57-122.02,0.72c-45.37,0.09-92.11,0.18-130.24,0.26c-9.53,0.01-18.53,0.01-26.83,0.02
					c-2.07-0.01-4.08,0.04-6.23-0.07c-2.11-0.12-4.26-0.35-6.45-1.19l-0.81-0.33l-0.8-0.44c-0.54-0.26-1.02-0.7-1.51-1.07
					c-0.91-0.86-1.72-1.86-2.18-2.92c-1.01-2.11-1.26-4.12-1.4-5.95c-0.09-0.93-0.07-1.82-0.09-2.66c0-0.82,0-1.62,0-2.41
					c0-1.58-0.01-3.08,0.04-4.69c0.09-1.59,0.27-3.17,0.71-4.74c0.45-1.57,1.27-3.16,2.46-4.35c1.18-1.19,2.58-1.97,3.83-2.4
					c0.63-0.25,1.24-0.37,1.83-0.54c0.57-0.11,1.14-0.22,1.67-0.3c2.13-0.31,3.85-0.29,5.29-0.32c21.93,0,118.15-0.01,208.88,0.29
					c45.37,0.15,89.36,0.38,122.02,0.72c2.04,0.02,4.04,0.05,5.99,0.07c1.99,0.03,3.97,0.16,5.92,0.55c1.92,0.4,3.94,1.1,5.44,2.58
					c1.51,1.47,2.22,3.39,2.55,5.12c0.33,1.75,0.38,3.4,0.37,4.98c-0.03,1.54-0.05,3.02-0.08,4.44c-0.05,2.84-0.15,5.61-1.09,7.99
					c-0.47,1.18-1.12,2.27-2,3.04c-0.86,0.78-1.81,1.32-2.72,1.63c-1.83,0.65-3.42,0.78-4.69,0.85
					C668.85,828.91,667.52,828.7,667.52,828.57z"/>
			</g>
		</g>
	</g>
	<g>
		<g>
			<g>
				<path d="M500,512.32c0.03-0.22,1.16-0.31,3.08-0.95c1.92-0.62,4.57-1.83,7.59-3.67c6.04-3.69,13.38-9.96,20.24-17.13
					c0.85-0.9,1.71-1.81,2.56-2.72l0.64-0.68l0.32-0.34c0.12-0.12,0.21-0.24,0.34-0.32l0.26-0.19l1.52-1.12
					c2.03-1.48,4.05-2.94,6.03-4.38c3.98-2.84,7.8-5.57,11.23-8.01c6.89-4.86,12.28-8.56,14.29-9.91c2.23-1.5,8.55-5.87,16.89-11.02
					c1.06-0.63,2.15-1.27,3.26-1.93c0.58-0.31,1.16-0.63,1.75-0.94c0.6-0.31,1.15-0.65,1.87-0.93l1.03-0.43l0.52-0.21l0.41-0.16
					l0.82-0.31c0.27-0.12,0.53-0.27,0.8-0.4c1.07-0.53,2.07-1.28,3.04-2.09c1.91-1.68,3.62-3.74,5.12-5.96
					c1.52-2.21,2.83-4.61,4.18-6.93c0.05-0.08,0.07-0.16,0.02-0.29c-0.1-0.25-0.33-0.6-0.61-0.93c-0.58-0.68-1.36-1.32-2.14-1.92
					c-1.59-1.2-3.28-2.25-4.93-3.22c-3.3-1.92-6.44-3.5-9.09-4.83c-5.32-2.64-8.73-4.25-8.58-4.65c0.14-0.37,3.8,0.66,9.37,2.87
					c2.78,1.12,6.05,2.53,9.55,4.35c1.74,0.92,3.55,1.93,5.35,3.19c0.9,0.64,1.79,1.33,2.65,2.25c0.42,0.48,0.85,1,1.18,1.75
					c0.07,0.19,0.16,0.44,0.22,0.69c0.04,0.24,0.07,0.49,0.07,0.74c-0.03,0.24-0.04,0.5-0.12,0.73l-0.28,0.69
					c-2.55,4.76-5.31,10.01-9.74,14c-1.12,0.97-2.31,1.89-3.66,2.59c-0.34,0.17-0.66,0.36-1.01,0.52l-1.06,0.42l-0.53,0.2l-0.4,0.18
					l-0.79,0.35c-0.52,0.2-1.09,0.54-1.63,0.83c-0.55,0.3-1.1,0.6-1.64,0.9c-1.08,0.65-2.13,1.29-3.15,1.91
					c-8.17,5.13-14.49,9.5-16.7,10.99c-2,1.35-7.37,5.04-14.28,9.84c-3.45,2.41-7.28,5.09-11.28,7.89c-2,1.41-4.03,2.84-6.08,4.28
					l-1.54,1.08c-0.07,0.05-0.13,0.1-0.12,0.08c-0.01,0-0.01,0.01-0.01,0l-0.33,0.34l-0.67,0.68c-0.89,0.91-1.78,1.81-2.66,2.71
					c-7.14,7.14-14.91,13.34-21.47,16.74c-3.27,1.69-6.21,2.69-8.34,3.01C501.23,512.88,499.96,512.56,500,512.32z"/>
			</g>
		</g>
	</g>
	<g>
		<g>
			<g>
				<path d="M316.8,776.69c-0.08,0.09-1.16-0.72-3.13-2.34c-1.96-1.62-4.8-4.05-8.36-7.22c-7.14-6.32-17.2-15.58-29.16-27.01
					c-5.99-5.71-12.44-11.97-19.25-18.66c-1.7-1.68-3.43-3.38-5.18-5.1c-0.88-0.86-1.73-1.78-2.61-2.68
					c-0.87-0.91-1.77-1.8-2.59-2.77c-3.44-3.76-6.61-7.93-9.55-12.37c-5.87-8.88-10.38-19.29-12.35-30.51
					c-2.03-11.19-1.51-23.12,1.9-34.4c0.44-1.41,0.92-2.8,1.51-4.21c0.11-0.25,0.06-0.14,0.08-0.2l0.11-0.52l0.21-1.05l0.42-2.11
					c0.53-2.82,1.07-5.65,1.6-8.48c1.04-5.66,2.03-11.34,2.99-17c1.91-11.33,3.68-22.61,5.31-33.68c0.79-5.54,1.57-11.02,2.33-16.43
					c0.33-2.69,0.88-5.42,1.33-8.11c0.25-1.34,0.43-2.69,0.73-4.01c0.33-1.31,0.67-2.62,1-3.93c2.63-10.42,6.74-20.11,12.09-28.4
					c5.3-8.33,11.93-15.14,19.01-20.13c0.89-0.62,1.77-1.23,2.69-1.77c0.9-0.57,1.83-1.08,2.76-1.58c0.49-0.24,0.93-0.47,1.47-0.71
					c0.15-0.08,0.52-0.18,0.56-0.19l0.34-0.1l0.68-0.21c0.91-0.29,1.81-0.61,2.7-0.92c3.55-1.28,6.89-2.65,10.01-4
					c6.23-2.7,11.59-5.31,16-7.54c4.41-2.23,7.88-4.09,10.31-5.41c4.33-2.32,12.01-6.66,22.98-10.56c5.5-1.9,11.82-3.77,19.08-4.47
					c1.82-0.16,3.69-0.24,5.64-0.14c1.94,0.11,3.96,0.35,6.06,1.19c0.53,0.22,1.06,0.49,1.58,0.84c0.26,0.2,0.52,0.37,0.77,0.61
					l0.64,0.64c0.31,0.31,0.58,0.62,0.92,0.94l1.04,0.96c1.42,1.28,2.94,2.56,4.48,3.85c6.23,5.1,13.03,10.35,20.31,15.47
					c1.82,1.26,3.68,2.55,5.57,3.67c0.48,0.31,0.94,0.55,1.4,0.8c0.22,0.11,0.49,0.28,0.67,0.35c0.18,0.06,0.35,0.13,0.53,0.21
					c0.06,0.04,0.24,0.08,0.39,0.12l0.47,0.12c0.32,0.08,0.6,0.18,0.89,0.27c0.59,0.18,1.15,0.38,1.71,0.58
					c4.48,1.63,8.85,3.53,13.24,5.68c2.19,1.07,4.36,2.24,6.51,3.52c1.08,0.64,2.14,1.34,3.19,2.1c0.52,0.42,1.05,0.76,1.56,1.26
					l0.77,0.71l0.63,0.6c3.45,3.2,7.48,6.23,11.42,9.26c3.98,3.02,8.04,6.01,12.14,8.98l1.54,1.11l0.32,0.23
					c0.05,0.04,0.02,0.02,0.07,0.04l0.93,0.35c1.25,0.47,2.47,1.02,3.67,1.66c1.2,0.64,2.36,1.39,3.46,2.29
					c0.55,0.44,1.07,0.94,1.57,1.48c0.24,0.28,0.49,0.55,0.71,0.87c0.11,0.16,0.23,0.3,0.33,0.48l0.21,0.33l0.02,0.04
					c0.01,0.01,0.03,0.01,0.04,0.01c2.58,0.45,5.17,0.9,7.76,1.36c2.73,0.46,5.46,0.9,8.17,1.27c0.67,0.08,1.36,0.18,2.01,0.24
					c0.32,0.03,0.68,0.07,0.94,0.08c0.04,0.01,0.08,0.01,0.12,0c0.08-0.11,0.02,0.1,0.25-0.65c0.15-0.58,0.28-1.21,0.38-1.86
					c0.2-1.3,0.33-2.64,0.41-3.98l0.05-0.99l0-0.1l0-0.03c-0.01-0.02-0.01-0.04-0.02-0.06c0,0-0.04-0.06-0.11-0.14
					c-0.06-0.07-0.14-0.16-0.23-0.24c-0.09-0.08-0.19-0.17-0.29-0.25l-0.08-0.06c-0.01-0.01-0.02-0.02-0.04-0.02l-0.04,0l-0.04,0
					l-0.16-0.01l-0.31-0.02c-0.21-0.01-0.42-0.03-0.61-0.06c-0.39-0.06-0.8-0.1-1.17-0.19c-0.77-0.14-1.49-0.35-2.21-0.57
					c-0.72-0.21-1.4-0.5-2.1-0.75c-0.68-0.28-1.34-0.6-2.01-0.89c-1.3-0.66-2.61-1.31-3.82-2.07c-0.61-0.38-1.24-0.73-1.84-1.12
					l-1.77-1.2c-4.69-3.24-8.92-6.94-12.91-10.76c-0.99-0.96-1.97-1.93-2.96-2.88c-0.95-0.99-1.89-1.98-2.83-2.96l-1.41-1.47
					c0,0-0.01-0.01-0.02-0.02l-0.11-0.07l-0.42-0.28l-0.83-0.56c-1.11-0.75-2.22-1.49-3.33-2.23c-4.44-2.94-8.8-5.83-13.09-8.67
					c-8.59-5.64-16.88-10.99-24.81-15.85c-1.98-1.21-3.95-2.39-5.89-3.5c-1.94-1.11-3.88-2.2-5.77-3.06
					c-0.47-0.2-0.94-0.4-1.41-0.59c-0.53-0.2-1.06-0.39-1.59-0.59c-0.51-0.23-1.02-0.45-1.52-0.68c-0.49-0.25-0.97-0.51-1.45-0.76
					c-1.9-1.05-3.65-2.23-5.29-3.48c-3.27-2.5-6.13-5.19-8.5-8.15c-0.29-0.38-0.58-0.76-0.84-1.16l-0.39-0.62
					c-0.12-0.29-0.28-0.61-0.33-0.89c-0.23-1.16-0.02-2.13,0.24-3.04c0.54-1.82,1.47-3.35,2.5-4.7c2.07-2.7,4.61-4.63,7.09-6.08
					c0.63-0.34,1.26-0.66,1.86-0.99c0.63-0.28,1.24-0.55,1.84-0.81c1.19-0.48,2.32-0.95,3.39-1.38c4.28-1.77,7.63-3.17,9.94-4.05
					c2.31-0.88,3.58-1.25,3.62-1.15c0.04,0.11-1.14,0.67-3.37,1.73c-2.23,1.05-5.5,2.63-9.72,4.56c-1.06,0.48-2.17,0.98-3.34,1.5
					c-0.57,0.27-1.14,0.55-1.74,0.83c-0.57,0.32-1.15,0.65-1.75,0.99c-2.31,1.44-4.65,3.33-6.48,5.84c-0.91,1.25-1.7,2.67-2.12,4.18
					c-0.21,0.74-0.32,1.56-0.17,2.15c0.03,0.16,0.1,0.23,0.13,0.36l0.34,0.51c0.23,0.34,0.51,0.69,0.78,1.03
					c2.26,2.72,5.1,5.31,8.27,7.65c1.59,1.17,3.28,2.27,5.07,3.23c0.45,0.23,0.91,0.46,1.37,0.69c0.47,0.2,0.94,0.4,1.41,0.61
					c0.48,0.17,0.96,0.34,1.44,0.51c0.53,0.21,1.07,0.43,1.61,0.64c2.1,0.92,4.04,1.99,6.04,3.1c1.99,1.11,3.98,2.27,5.99,3.47
					c8.03,4.79,16.39,10.07,25.04,15.65c4.31,2.81,8.71,5.67,13.18,8.58c1.11,0.73,2.23,1.47,3.35,2.21l0.84,0.56l0.42,0.28
					l0.31,0.21c0.12,0.08,0.22,0.21,0.34,0.32l1.4,1.44c0.93,0.96,1.87,1.93,2.81,2.9c0.97,0.93,1.94,1.87,2.92,2.81
					c3.94,3.71,8.09,7.3,12.6,10.37c2.24,1.56,4.6,2.93,7.03,4.11c0.61,0.27,1.23,0.55,1.84,0.81c0.62,0.22,1.24,0.48,1.87,0.66
					c0.63,0.19,1.26,0.37,1.88,0.48c0.32,0.08,0.62,0.1,0.92,0.15c0.16,0.03,0.3,0.04,0.44,0.04l0.21,0.01l0.11,0.01l0.23,0
					l0.57,0.1c0.18,0.03,0.37,0.08,0.56,0.12c0.27,0.17,0.55,0.37,0.76,0.53c0.17,0.13,0.33,0.27,0.49,0.42
					c0.33,0.32,0.63,0.61,0.98,1.2c0.16,0.28,0.28,0.58,0.35,0.9l0.06,0.48c0.01,0.16,0,0.35,0,0.42l-0.05,1.08
					c-0.08,1.42-0.21,2.83-0.42,4.28c-0.11,0.72-0.24,1.45-0.44,2.21c-0.14,0.54-0.61,2.25-1.73,2.79c-0.58,0.2-1.19,0.34-1.86,0.27
					c-0.44-0.01-0.77-0.05-1.14-0.08c-0.73-0.06-1.42-0.16-2.12-0.24c-2.79-0.37-5.53-0.8-8.28-1.25l-4.11-0.69l-4.52-0.79
					c-0.25-0.22-0.5-0.41-0.69-0.58l-0.66-0.61l-0.19-0.34l-0.1-0.15c-0.06-0.1-0.14-0.21-0.22-0.31c-0.15-0.21-0.33-0.41-0.51-0.61
					c-0.37-0.4-0.77-0.79-1.22-1.14c-0.89-0.71-1.87-1.36-2.92-1.91c-1.05-0.55-2.15-1.05-3.29-1.47l-0.85-0.31l-0.42-0.15
					c-0.15-0.05-0.24-0.15-0.36-0.23l-0.46-0.32l-1.55-1.11c-4.13-2.97-8.22-5.96-12.24-8.99c-4.02-3.07-7.97-6.01-11.76-9.49
					l-0.7-0.68l-0.59-0.54c-0.36-0.37-0.87-0.7-1.31-1.04c-0.93-0.67-1.91-1.31-2.93-1.92c-2.03-1.21-4.13-2.33-6.26-3.36
					c-4.25-2.07-8.59-3.95-12.87-5.49c-0.54-0.19-1.07-0.38-1.59-0.53c-0.26-0.08-0.53-0.17-0.77-0.23l-0.37-0.1
					c-0.12-0.03-0.23-0.06-0.43-0.13c-0.37-0.13-0.73-0.26-1.09-0.41c-0.35-0.14-0.57-0.29-0.86-0.44c-0.55-0.29-1.1-0.58-1.59-0.9
					c-2.04-1.21-3.91-2.51-5.79-3.79c-7.41-5.19-14.24-10.45-20.57-15.62c-1.58-1.31-3.12-2.6-4.62-3.95l-1.12-1.03
					c-0.37-0.34-0.75-0.76-1.12-1.14c-0.22-0.24-0.29-0.28-0.38-0.38c-0.09-0.1-0.24-0.18-0.35-0.28c-0.28-0.18-0.6-0.35-0.95-0.49
					c-1.43-0.58-3.17-0.83-4.88-0.91c-1.71-0.09-3.43-0.02-5.12,0.13c-6.76,0.66-12.9,2.45-18.21,4.29
					c-10.66,3.79-18.11,7.99-22.45,10.33c-2.45,1.33-5.94,3.21-10.4,5.46c-4.46,2.25-9.87,4.89-16.2,7.63
					c-3.17,1.36-6.56,2.76-10.23,4.08c-0.92,0.33-1.85,0.65-2.81,0.96c-0.41,0.13-0.83,0.26-1.25,0.39
					c-0.37,0.16-0.82,0.39-1.23,0.6c-0.84,0.46-1.7,0.92-2.53,1.46c-0.85,0.5-1.68,1.07-2.52,1.66
					c-6.66,4.69-12.99,11.16-18.07,19.12c-5.13,7.92-9.11,17.24-11.68,27.33c-0.32,1.26-0.65,2.53-0.97,3.8
					c-0.29,1.28-0.48,2.59-0.72,3.9c-0.44,2.63-0.98,5.22-1.32,7.95c-0.78,5.42-1.58,10.91-2.38,16.45
					c-1.66,11.09-3.47,22.39-5.43,33.73c-0.98,5.67-2,11.36-3.07,17.03c-0.55,2.84-1.1,5.67-1.65,8.5l-0.43,2.12l-0.22,1.06
					l-0.11,0.53c-0.04,0.16-0.05,0.34-0.13,0.49l-0.14,0.33c-0.53,1.24-0.99,2.57-1.42,3.89c-3.3,10.7-3.88,22.18-1.99,32.93
					c1.82,10.79,6.09,20.86,11.72,29.53c2.82,4.33,5.86,8.43,9.19,12.13c0.79,0.96,1.66,1.84,2.5,2.74
					c0.85,0.89,1.67,1.79,2.53,2.66c1.73,1.74,3.43,3.46,5.11,5.15c6.73,6.76,13.09,13.1,18.98,18.89
					c11.77,11.6,21.62,21.06,28.51,27.63c3.44,3.29,6.14,5.87,7.97,7.62C315.93,775.64,316.87,776.6,316.8,776.69z"/>
			</g>
		</g>
	</g>
	<g>
		<g>
			<g>
				<path d="M683.2,776.69c-0.07-0.09,0.63-0.84,2-2.2c1.37-1.36,3.42-3.32,6.03-5.83c5.23-5.01,12.73-12.19,21.72-20.97
					c8.99-8.78,19.47-19.15,30.72-30.49c1.39-1.42,2.87-2.83,4.22-4.3c1.38-1.46,2.8-2.91,4.1-4.48c0.66-0.77,1.33-1.55,2-2.33
					c0.63-0.81,1.26-1.62,1.9-2.44c1.31-1.6,2.44-3.35,3.65-5.04c2.27-3.5,4.47-7.1,6.27-10.95c1.82-3.83,3.38-7.81,4.59-11.91
					c2.39-8.21,3.38-16.89,2.8-25.42c-0.29-4.26-0.94-8.49-1.99-12.58c-0.53-2.04-1.14-4.06-1.88-5.98l-0.65-1.64l-0.35-1.7
					c-0.21-1.05-0.42-2.1-0.63-3.15c-3.29-16.75-5.99-32.88-8.26-47.41c-1.14-7.26-2.15-14.12-3.07-20.45
					c-0.45-3.17-0.87-6.2-1.28-9.09c-0.49-2.83-0.96-5.52-1.4-8.05c-0.18-1.27-0.54-2.46-0.82-3.63c-0.3-1.16-0.58-2.28-0.86-3.36
					c-0.3-1.07-0.49-2.13-0.84-3.09c-0.33-0.97-0.64-1.89-0.94-2.77c-0.62-1.75-1.08-3.35-1.65-4.69c-0.58-1.34-1.07-2.49-1.48-3.44
					c-0.35-0.78-0.72-1.72-1.21-2.75c-0.53-1.01-1.13-2.15-1.8-3.41c-0.33-0.63-0.68-1.29-1.04-1.97c-0.37-0.68-0.83-1.34-1.27-2.06
					c-0.45-0.71-0.91-1.44-1.39-2.2c-0.24-0.38-0.48-0.77-0.73-1.16c-0.28-0.37-0.56-0.75-0.84-1.14c-0.57-0.77-1.16-1.56-1.76-2.37
					c-0.31-0.4-0.59-0.83-0.93-1.23c-0.34-0.39-0.68-0.79-1.03-1.2c-0.7-0.81-1.41-1.64-2.14-2.49c-0.79-0.8-1.59-1.61-2.41-2.44
					c-3.34-3.25-7.3-6.52-11.93-9.14c-0.58-0.32-1.16-0.64-1.75-0.92c-0.15-0.07-0.3-0.15-0.42-0.2l-0.06-0.03l-0.24-0.07
					l-1.06-0.33c-1.39-0.45-2.78-0.94-4.17-1.46c-2.79-1.04-5.6-2.19-8.45-3.42c-5.7-2.47-11.54-5.25-17.47-8.28
					c-2.97-1.52-5.96-3.09-8.97-4.73c-3.03-1.65-5.98-3.27-9.1-4.78c-6.19-3.02-12.71-5.72-19.48-7.67
					c-3.39-0.98-6.84-1.77-10.32-2.26c-3.46-0.46-7.03-0.68-10.27-0.07c-0.81,0.15-1.57,0.38-2.24,0.67
					c-0.34,0.14-0.64,0.32-0.89,0.5c-0.13,0.09-0.25,0.18-0.33,0.28l-0.16,0.15l-0.26,0.27c-1.38,1.47-2.75,2.59-4.14,3.82
					c-2.79,2.37-5.62,4.62-8.46,6.84c-5.7,4.42-11.41,8.68-17.28,12.6c-1.48,0.97-2.94,1.92-4.56,2.79l-0.61,0.32
					c-0.2,0.11-0.4,0.22-0.68,0.31c-0.5,0.19-1.11,0.42-1.42,0.48c-0.37,0.09-0.76,0.2-1.15,0.33c-0.39,0.12-0.78,0.25-1.18,0.39
					c-3.16,1.09-6.26,2.38-9.26,3.71c-3,1.34-5.92,2.75-8.68,4.28c-1.39,0.75-2.71,1.57-3.97,2.41c-0.63,0.42-1.22,0.88-1.77,1.33
					l-0.78,0.7l-0.85,0.83c-4.56,4.29-9.08,8.04-13.33,11.64c-4.26,3.58-8.29,6.9-12.02,9.94l-0.52,0.43
					c-0.18,0.13-0.33,0.35-0.58,0.27c-0.39-0.03-0.77-0.05-1.16-0.08c-0.54-0.02-1.08,0-1.6,0.05c-1.05,0.1-2.04,0.41-2.96,0.81
					c-0.92,0.41-1.76,0.95-2.5,1.57c-0.36,0.32-0.72,0.64-1.03,0.99c-0.16,0.17-0.31,0.35-0.46,0.54c-0.15,0.19-0.41,0.56-0.59,0.83
					c-1.27,0.23-1.92,0.32-2.73,0.45c-0.78,0.12-1.54,0.24-2.28,0.36c-1.48,0.22-2.86,0.42-4.16,0.62
					c-2.59,0.37-4.81,0.65-6.62,0.84c-1.81,0.19-3.22,0.29-4.18,0.3c-0.96,0.02-1.49-0.15-1.45-0.22c0.04-0.07,0.48-0.08,1.42-0.23
					c0.93-0.16,2.31-0.4,4.09-0.7c1.78-0.33,3.98-0.74,6.54-1.21c1.28-0.24,2.66-0.51,4.12-0.79c0.73-0.14,1.48-0.29,2.26-0.44
					c0.74-0.15,1.71-0.32,2.05-0.42c0.09-0.14,0.11-0.19,0.27-0.39c0.15-0.21,0.32-0.41,0.5-0.62c0.35-0.41,0.74-0.8,1.15-1.18
					c0.83-0.74,1.79-1.4,2.85-1.91c1.07-0.5,2.24-0.9,3.48-1.05c0.62-0.08,1.25-0.12,1.88-0.11l0.62,0.03
					c0.14,0,0.21-0.15,0.34-0.24c3.64-3.14,7.59-6.54,11.79-10.17c4.16-3.65,8.66-7.51,13.03-11.73l0.8-0.8l0.94-0.87
					c0.64-0.54,1.29-1.05,1.96-1.51c1.34-0.93,2.72-1.8,4.15-2.59c2.84-1.62,5.8-3.09,8.84-4.49c3.05-1.39,6.17-2.73,9.45-3.9
					c0.41-0.15,0.82-0.29,1.25-0.43c0.42-0.14,0.85-0.27,1.32-0.39c0.53-0.12,0.71-0.25,1.02-0.36c0.13-0.04,0.31-0.13,0.49-0.23
					l0.53-0.29c1.42-0.78,2.87-1.73,4.29-2.69c5.71-3.88,11.38-8.18,16.99-12.59c2.8-2.22,5.6-4.48,8.31-6.81
					c1.32-1.16,2.74-2.37,3.82-3.55l0.54-0.55c0.22-0.24,0.46-0.42,0.7-0.6c0.48-0.35,0.97-0.63,1.47-0.84
					c0.99-0.44,1.97-0.73,2.94-0.91c3.9-0.74,7.67-0.48,11.36-0.02c3.69,0.5,7.29,1.31,10.8,2.31c7.03,2,13.72,4.74,20.07,7.81
					c3.17,1.52,6.28,3.21,9.25,4.81c2.99,1.62,5.96,3.17,8.9,4.67c5.89,2.99,11.67,5.73,17.28,8.14c2.81,1.2,5.57,2.33,8.29,3.33
					c1.36,0.5,2.7,0.98,4.03,1.41l0.98,0.3l0.27,0.08c0.17,0.04,0.35,0.13,0.43,0.17c0.2,0.09,0.37,0.17,0.54,0.25
					c0.69,0.32,1.33,0.67,1.96,1.02c10.01,5.78,16.74,13.44,21.41,19.91c0.3,0.4,0.59,0.8,0.88,1.19c0.26,0.41,0.51,0.81,0.77,1.21
					c0.5,0.79,0.99,1.56,1.45,2.3c0.46,0.75,0.94,1.44,1.33,2.15c0.38,0.71,0.74,1.4,1.08,2.05c0.69,1.31,1.32,2.5,1.87,3.55
					c0.51,1.08,0.9,2.05,1.26,2.86c0.43,0.99,0.94,2.19,1.54,3.58c0.6,1.39,1.07,3.06,1.72,4.87c0.31,0.91,0.63,1.87,0.97,2.87
					c0.36,1,0.56,2.09,0.87,3.19c0.28,1.11,0.58,2.27,0.88,3.47c0.3,1.2,0.66,2.43,0.85,3.74c0.45,2.6,0.93,5.36,1.44,8.28
					c0.4,2.88,0.83,5.91,1.27,9.08c0.91,6.32,1.91,13.17,3.03,20.42c2.24,14.49,4.89,30.6,8.11,47.29c0.21,1.04,0.41,2.08,0.62,3.13
					l0.29,1.45l0.23,0.56l0.31,0.79c0.8,2.09,1.43,4.22,1.97,6.37c1.08,4.31,1.74,8.74,2.02,13.2c0.56,8.93-0.52,17.99-3.08,26.53
					c-1.29,4.27-2.94,8.4-4.86,12.35c-1.89,3.98-4.2,7.69-6.58,11.28c-1.27,1.74-2.45,3.53-3.81,5.16
					c-0.66,0.83-1.32,1.66-1.97,2.49c-0.69,0.79-1.39,1.58-2.08,2.37c-1.35,1.6-2.82,3.07-4.25,4.55c-1.42,1.51-2.88,2.87-4.3,4.29
					c-11.39,11.22-22.03,21.46-31.21,30.06c-9.18,8.6-16.89,15.58-22.37,20.33C686.58,774.32,683.35,776.86,683.2,776.69z"/>
			</g>
		</g>
	</g>
	<g>
		<g>
			<g>
				<path d="M412.88,401.08c0.36,0.86-7.87,4.62-16.3,9.07c-2.1,1.11-4.2,2.29-6.11,3.49c-0.46,0.31-0.94,0.6-1.38,0.91
					c-0.41,0.32-0.86,0.62-1.21,0.93l-0.48,0.45l-0.25,0.22l-0.31,0.32c-0.41,0.42-0.82,0.83-1.22,1.17
					c-1.59,1.43-3.04,2.52-4.21,3.4c-1.17,0.87-2.05,1.5-2.53,1.84c-0.96,0.68-3.55,2.49-6.95,4.7c-1.7,1.11-3.6,2.32-5.59,3.57
					c-0.99,0.62-2.01,1.26-3.03,1.89l-1.52,0.95c-0.27,0.16-0.48,0.31-0.68,0.46c-0.21,0.15-0.43,0.28-0.61,0.46
					c-1.6,1.28-2.62,3.14-3.13,5.04c-0.49,1.89-0.61,3.87-0.22,5.23c0.44,1.53,1.03,2.85,1.36,3.79c0.34,0.94,0.48,1.52,0.28,1.64
					c-0.19,0.12-0.67-0.25-1.33-1.04c-0.65-0.8-1.51-1.96-2.3-3.67c-0.18-0.42-0.39-0.96-0.48-1.49c-0.11-0.53-0.18-1.05-0.21-1.6
					c-0.07-1.09-0.01-2.26,0.21-3.45c0.43-2.37,1.63-4.98,3.72-6.83c0.24-0.25,0.53-0.45,0.8-0.66c0.28-0.22,0.55-0.43,0.8-0.59
					l1.51-1.03c1-0.67,2-1.34,2.97-1.99c1.95-1.3,3.81-2.54,5.49-3.66c3.35-2.24,5.89-4.02,6.83-4.68c0.46-0.34,1.32-0.96,2.47-1.78
					c1.13-0.84,2.55-1.9,3.99-3.15c0.38-0.31,0.71-0.64,1.04-0.97l0.26-0.25l0.35-0.32c0.24-0.22,0.48-0.44,0.73-0.66
					c0.49-0.4,0.99-0.72,1.49-1.09c0.51-0.34,1.02-0.64,1.54-0.97c2.09-1.24,4.3-2.37,6.5-3.41
					C403.96,403.17,412.54,400.24,412.88,401.08z"/>
			</g>
		</g>
	</g>
	<g>
		<g>
			<g>
				<path d="M516.36,644.93c2.12,1.22-11.57,25-13.33,28.06c-1.76,3.06-15.41,26.87-17.53,25.65c-2.12-1.22,11.57-25,13.33-28.06
					C500.59,667.52,514.24,643.71,516.36,644.93z"/>
			</g>
		</g>
	</g>
	<g>
		<g>
			<g>
				<path d="M535.64,692.21c-0.72-0.94,4.09-5.39,9.54-9.95c2.73-2.28,5.62-4.6,8.06-6.52c1.11-0.86,2.11-1.65,2.93-2.29
					c0-0.01-0.01,0-0.01,0l0,0c-0.77-0.64-1.73-1.43-2.81-2.33c-2.37-1.97-5.26-4.41-8.01-6.85c-5.51-4.86-10.47-9.68-9.7-10.63
					c0.77-0.95,6.5,2.93,12.39,7.33c2.94,2.2,5.92,4.53,8.34,6.44c3.42,2.76,6.08,4.9,7.06,5.69c0.15,0.12,0.33,0.27,0.55,0.45
					c-0.93,0.71-2.4,1.83-4.24,3.24c-1.02,0.77-2.25,1.69-3.61,2.71c-2.49,1.86-5.48,4.04-8.39,6.08
					C541.91,689.67,536.36,693.16,535.64,692.21z"/>
			</g>
		</g>
	</g>
	<g>
		<g>
			<g>
				<path d="M464.64,692.21c-0.72,0.94-6.27-2.54-12.09-6.62c-2.91-2.04-5.9-4.23-8.39-6.08c-1.36-1.02-2.59-1.95-3.61-2.71
					c-1.85-1.41-3.31-2.53-4.24-3.24c0.22-0.18,0.4-0.32,0.55-0.45c0.98-0.79,3.64-2.93,7.06-5.69c2.42-1.92,5.4-4.24,8.34-6.44
					c5.88-4.4,11.62-8.28,12.39-7.33c0.77,0.95-4.2,5.77-9.7,10.63c-2.75,2.43-5.64,4.87-8.01,6.85c-1.08,0.9-2.04,1.69-2.81,2.33
					l0,0c0,0,0,0-0.01,0c0.83,0.65,1.83,1.43,2.93,2.29c2.44,1.92,5.33,4.23,8.06,6.52C460.56,686.83,465.36,691.27,464.64,692.21z"
					/>
			</g>
		</g>
	</g>
	<g>
		<g>
			<g>
				<path d="M587.35,402.85c0.33-0.85,8.63,1.86,17.33,5.15c2.18,0.83,4.37,1.69,6.49,2.57c1.07,0.46,2.05,0.83,3.19,1.48
					c1.06,0.62,1.94,1.29,2.74,1.95c3.14,2.68,5.08,5.06,5.85,5.91c0.76,0.86,2.73,3.22,5.11,6.34c0.59,0.77,1.2,1.58,1.85,2.43
					l0.45,0.56c0.15,0.13,0.17,0.2,0.39,0.36c0.34,0.28,0.77,0.59,1.22,0.89c1.8,1.21,3.85,2.44,5.8,3.77
					c0.98,0.66,1.94,1.37,2.87,2.12c0.92,0.78,1.81,1.57,2.56,2.69c0.77,1.18,0.97,2.43,1.06,3.48c0.09,1.07,0.01,2.03-0.09,2.91
					c-0.46,3.47-1.45,5.51-1.86,5.4c-0.47-0.11-0.17-2.29-0.24-5.5c-0.03-0.79-0.08-1.65-0.25-2.5c-0.17-0.85-0.42-1.65-0.89-2.22
					c-0.49-0.61-1.28-1.27-2.13-1.88c-0.87-0.61-1.8-1.22-2.77-1.81c-1.94-1.2-3.98-2.31-5.96-3.57c-0.5-0.32-0.99-0.64-1.52-1.05
					c-0.23-0.16-0.58-0.5-0.82-0.75c-0.2-0.23-0.42-0.48-0.58-0.69c-0.67-0.85-1.31-1.66-1.92-2.44c-2.39-3.06-4.29-5.33-5.02-6.15
					c-0.73-0.81-2.65-3.12-5.41-5.55c-0.69-0.59-1.44-1.17-2.23-1.65c-0.7-0.44-1.78-0.91-2.78-1.36c-2.06-0.9-4.2-1.85-6.32-2.77
					C594.99,407.26,587.02,403.7,587.35,402.85z"/>
			</g>
		</g>
	</g>
	<g>
		<g>
			<g>
				<path d="M465.14,529.79c-0.3,0.02-0.52-0.52-0.58-1.27c-0.07-0.75-0.01-1.73,0.1-2.72c0.23-1.99,0.67-4.04,0.77-4.51
					c0.18-0.94,1.82-8.21,3.02-7.92c1.17,0.28-0.47,7.5-0.66,8.43c-0.1,0.47-0.54,2.51-1.05,4.4c-0.26,0.95-0.53,1.86-0.8,2.52
					C465.68,529.38,465.45,529.77,465.14,529.79z"/>
			</g>
		</g>
	</g>
	<g>
		<g>
			<g>
				<path d="M477.36,529.79c-1.23-0.15-0.62-4.19-0.5-4.71c0.05-0.26,0.25-1.4,0.64-2.44c0.38-1.04,0.98-1.98,1.57-1.78
					c0.57,0.2,0.58,1.19,0.5,2.25c-0.08,1.05-0.29,2.15-0.33,2.4C479.12,526,478.55,529.93,477.36,529.79z"/>
			</g>
		</g>
	</g>
	<g>
		<g>
			<g>
				<path d="M537.09,529.79c-0.62,0.05-1.07-1.49-1.7-3.09c-0.59-1.6-1.29-3.28-1.45-3.67c-0.16-0.38-0.88-2.06-1.57-3.67
					c-0.66-1.62-1.27-3.16-0.75-3.49c0.52-0.33,1.67,0.96,2.64,2.5c0.98,1.53,1.75,3.31,1.92,3.72c0.16,0.41,0.92,2.2,1.26,4.03
					C537.82,527.95,537.69,529.75,537.09,529.79z"/>
			</g>
		</g>
	</g>
	<g>
		<g>
			<g>
				<path d="M524.39,529.79c-0.61,0.09-1.07-0.86-1.52-1.85c-0.44-1-0.84-2.07-0.94-2.32c-0.09-0.25-0.53-1.31-0.89-2.35
					c-0.35-1.05-0.62-2.08-0.11-2.4c0.52-0.33,1.36,0.47,2.01,1.45c0.67,0.98,1.14,2.15,1.24,2.41c0.11,0.26,0.56,1.44,0.74,2.63
					C525.11,528.54,524.99,529.69,524.39,529.79z"/>
			</g>
		</g>
	</g>
	<g>
		<g>
			<g>
				<path d="M481.47,436.33c0.19-0.24,1.13,0.23,2.62,0.64c0.74,0.2,1.63,0.38,2.57,0.43c1.03,0.04,2.14,0.09,3.26,0.14
					c4.52,0.22,9.29,0.46,10.38,0.51c0.98,0,5.84-0.27,10.35-0.49c1.13-0.05,2.23-0.11,3.27-0.16c0.98-0.03,1.8-0.21,2.56-0.43
					c1.49-0.44,2.46-0.89,2.64-0.64c0.18,0.24-0.57,1.11-2.1,1.94c-0.75,0.41-1.79,0.79-2.89,0.95c-1.05,0.17-2.16,0.32-3.3,0.45
					c-4.56,0.53-9.33,0.79-10.55,0.8c-1.2-0.04-5.96-0.32-10.52-0.81c-1.14-0.13-2.25-0.26-3.31-0.43c-1.13-0.18-2.1-0.55-2.88-0.94
					C482.02,437.47,481.28,436.56,481.47,436.33z"/>
			</g>
		</g>
	</g>
	<g>
		<g>
			<g>
				<path class="st28" d="M510.73,444.94c-0.18,0.6-2.47,0.23-4.88,0.02c-2.41-0.24-4.97-0.3-5.55-0.28
					c-0.58-0.01-3.14,0.03-5.56,0.25c-2.42,0.19-4.67,0.57-4.87,0.01c-0.21-0.6,2.03-1.6,4.55-2.12c2.52-0.54,5.26-0.58,5.88-0.57
					c0.62-0.02,3.36,0.04,5.87,0.6C508.7,443.39,510.91,444.37,510.73,444.94z"/>
			</g>
		</g>
	</g>
	<g>
		<g>
			<g>
				<path d="M472.39,426.88c0.14-0.28,1.63,0.3,3.88,1.03c0.56,0.18,1.17,0.36,1.8,0.48c0.31,0.07,0.63,0.1,0.9,0.11
					c0.16-0.01,0.17-0.01,0.37-0.04c0.19-0.04,0.38-0.08,0.57-0.12c1.53-0.31,3.2-0.56,4.9-0.73c1.7-0.17,3.44-0.26,5.12-0.26
					c1.68-0.02,3.36,0.17,4.75,0.35c2.82,0.39,4.93,0.64,5.63,0.61c0.7,0.03,2.81-0.22,5.63-0.61c1.39-0.18,3.07-0.37,4.75-0.35
					c1.68,0,3.42,0.09,5.12,0.26c1.7,0.17,3.37,0.42,4.9,0.73c0.19,0.04,0.38,0.08,0.57,0.12c0.2,0.03,0.21,0.04,0.37,0.04
					c0.27,0,0.59-0.04,0.9-0.11c0.63-0.12,1.24-0.3,1.8-0.48c2.25-0.73,3.74-1.31,3.88-1.03c0.14,0.26-1.13,1.25-3.36,2.34
					c-0.56,0.27-1.19,0.54-1.91,0.77c-0.36,0.11-0.76,0.21-1.22,0.26c-0.21,0.02-0.57,0-0.75-0.02c-0.18-0.02-0.37-0.05-0.56-0.07
					c-1.5-0.19-3.13-0.34-4.77-0.43c-1.65-0.09-3.32-0.13-4.92-0.08c-1.6,0.02-3.05,0.22-4.46,0.42c-2.77,0.42-5.01,0.69-5.95,0.66
					c-0.94,0.03-3.18-0.24-5.95-0.66c-1.41-0.2-2.86-0.39-4.46-0.42c-1.6-0.04-3.27-0.01-4.92,0.08c-1.65,0.09-3.27,0.24-4.77,0.43
					c-0.19,0.02-0.37,0.05-0.56,0.07c-0.17,0.02-0.54,0.05-0.75,0.02c-0.47-0.05-0.86-0.14-1.22-0.26c-0.73-0.22-1.35-0.5-1.91-0.77
					C473.52,428.13,472.26,427.14,472.39,426.88z"/>
			</g>
		</g>
	</g>
	<g>
		<g>
			<g>
				<path class="st6" d="M493.34,343.24c-0.1-0.3,1.45-0.91,3.18-1.21c1.72-0.33,3.6-0.35,4.02-0.33c0.42-0.01,2.29,0.05,4.01,0.38
					c1.72,0.31,3.28,0.86,3.19,1.17c-0.08,0.29-1.65,0.04-3.34-0.11c-1.68-0.17-3.46-0.23-3.87-0.22c-0.41-0.01-2.18,0.01-3.86,0.18
					C494.99,343.23,493.43,343.52,493.34,343.24z"/>
			</g>
		</g>
	</g>
	<g>
		<g>
			<g>
				<path class="st6" d="M492.01,340.55c-0.07-0.3,1.73-0.84,3.71-1.16c0.98-0.16,2.01-0.28,2.85-0.33c0.42-0.03,0.8-0.04,1.09-0.05
					c0.15,0,0.28,0,0.39-0.01c0.05,0,0.1,0,0.15,0l0.06,0l0.03,0l0.01,0c0,0.06,0.01-0.23,0.01,0.48l0,0.12h0h0h0h-0.01l0-0.01
					v-0.42l0-0.17l0,0l0.01,0c0,0,0.01,0,0.01,0l0.03,0l0.06,0c0.04,0,0.1,0,0.15,0c0.11,0,0.25,0,0.4,0.01
					c0.3,0.01,0.68,0.03,1.1,0.06c0.84,0.06,1.86,0.18,2.84,0.35c1.96,0.33,3.73,0.89,3.66,1.19c-0.07,0.29-1.87,0.04-3.8-0.14
					c-1.93-0.2-3.98-0.27-4.46-0.26c-0.45-0.01-2.51,0.05-4.45,0.24C493.91,340.61,492.08,340.84,492.01,340.55z"/>
			</g>
		</g>
	</g>
	<g>
		<g>
			<g>
				<path d="M412.24,397.18c0,0.04-0.27,0.03-0.8-0.02c-0.52-0.08-1.31-0.08-2.3-0.38c-1.99-0.44-4.89-1.58-7.83-4.12
					c-2.91-2.53-5.84-6.41-7.5-11.62c-0.09-0.33-0.17-0.67-0.26-1.01c-0.08-0.34-0.13-0.71-0.19-1.06
					c-0.08-0.68-0.17-1.37-0.25-2.07c-0.18-1.4-0.37-2.84-0.56-4.32c-0.41-2.96-0.87-6.07-1.44-9.3c-0.58-3.23-1.22-6.59-2.13-10
					c-0.45-1.7-0.98-3.41-1.64-5.08c-0.71-1.74-1.32-3.54-1.86-5.38c-1.08-3.69-1.96-7.57-2.26-11.67
					c-0.13-2.05-0.14-4.17,0.43-6.34c0.29-1.07,0.76-2.18,1.64-3.1c0.87-0.92,2.17-1.45,3.38-1.5c1.21-0.05,2.39,0.16,3.42,0.56
					c0.53,0.2,1.09,0.31,1.58,0.58l1.52,0.76c1.95,1.17,3.64,2.73,5.04,4.51c1.4,1.78,2.52,3.78,3.4,5.86
					c0.43,1.05,0.83,2.11,1.16,3.2c0.17,0.54,0.32,1.09,0.46,1.65l0.2,0.84l0.09,0.43l0.05,0.25l0.02,0.26
					c0.79,8.84,1.7,17.87,2.75,26.95c1.07,9.07,2.21,18.21,4,27.14c0.92,4.46,2.02,8.84,3.54,13.04c0.75,2.11,1.6,4.19,2.42,6.31
					c0.84,2.1,1.52,4.34,2.34,6.24c1.81,3.96,4.01,7.79,6.24,11.5c2.27,3.69,4.55,7.3,6.93,10.76c4.72,6.95,9.57,13.43,14.44,19.33
					c4.88,5.89,9.78,11.2,14.65,15.7c4.77,4.53,9.99,7.63,14.91,9.66c4.92,2.03,9.52,3.04,13.36,3.44c1.92,0.2,3.65,0.3,5.17,0.28
					c0.76,0.01,1.46-0.03,2.1-0.06c0.32-0.02,0.63-0.04,0.92-0.07c0.14-0.01,0.28-0.03,0.42-0.04l0.2-0.02l0.16-0.02
					c0.07-0.01,0.14-0.02,0.21-0.01c0.29,0.01,0.59,0.03,0.91,0.04c0.3,0.01,0.61,0.01,0.93,0.02c0.65,0.01,1.36,0,2.13-0.01
					c1.53-0.05,3.27-0.12,5.2-0.34c3.85-0.43,8.52-1.18,13.5-3.06c0.62-0.24,1.25-0.49,1.89-0.73c0.64-0.25,1.25-0.58,1.88-0.88
					c1.29-0.56,2.51-1.34,3.78-2.08c0.65-0.35,1.21-0.85,1.84-1.28c0.59-0.46,1.26-0.85,1.81-1.4c0.57-0.52,1.15-1.04,1.73-1.57
					c0.59-0.52,1.14-1.17,1.72-1.75c4.66-4.77,9.48-10.17,14.39-16.05c4.9-5.89,9.85-12.3,14.65-19.19c2.4-3.45,4.77-7,7.03-10.69
					c2.26-3.69,4.48-7.49,6.33-11.46l0.67-1.49l0.57-1.5c0.38-1.06,0.76-2.13,1.13-3.2c0.79-2.13,1.63-4.23,2.38-6.33
					c1.51-4.2,2.54-8.6,3.44-13.07c1.76-8.94,2.93-18.07,3.99-27.15c1.05-9.08,1.96-18.11,2.75-26.95c0-0.1,0.04-0.41,0.07-0.51
					l0.09-0.43l0.19-0.84c0.14-0.55,0.29-1.11,0.46-1.65c0.33-1.09,0.73-2.15,1.16-3.2c0.88-2.09,2-4.08,3.4-5.86
					c1.4-1.78,3.09-3.34,5.04-4.51l1.52-0.76c0.5-0.27,1.06-0.39,1.58-0.58c1.03-0.4,2.21-0.61,3.42-0.56
					c1.21,0.05,2.52,0.57,3.39,1.49c0.88,0.91,1.35,2.03,1.64,3.1c0.57,2.16,0.56,4.29,0.43,6.34c-0.3,4.1-1.19,7.98-2.26,11.67
					c-0.54,1.85-1.15,3.64-1.86,5.38c-0.65,1.67-1.19,3.37-1.64,5.08c-0.91,3.41-1.56,6.77-2.13,10c-0.57,3.23-1.03,6.34-1.44,9.3
					c-0.19,1.48-0.38,2.92-0.56,4.32c-0.09,0.7-0.17,1.39-0.25,2.07c-0.06,0.36-0.12,0.72-0.19,1.06c-0.09,0.34-0.18,0.68-0.26,1.01
					c-1.65,5.22-4.59,9.1-7.5,11.62c-2.94,2.54-5.84,3.68-7.83,4.12c-0.98,0.3-1.78,0.3-2.3,0.38c-0.52,0.05-0.79,0.06-0.8,0.02
					c0-0.04,0.26-0.12,0.76-0.24c0.5-0.15,1.27-0.21,2.21-0.57c1.91-0.56,4.66-1.78,7.41-4.31c2.72-2.51,5.47-6.35,6.95-11.34
					c0.07-0.31,0.15-0.62,0.23-0.94c0.06-0.32,0.1-0.63,0.15-0.95c0.07-0.68,0.14-1.38,0.22-2.08c0.16-1.41,0.33-2.86,0.5-4.35
					c0.36-2.98,0.79-6.11,1.32-9.37c0.54-3.26,1.15-6.66,2.04-10.15c0.44-1.75,0.97-3.51,1.65-5.29c0.66-1.68,1.24-3.44,1.76-5.25
					c1.02-3.61,1.85-7.42,2.1-11.32c0.11-1.94,0.08-3.94-0.41-5.74c-0.25-0.89-0.64-1.73-1.21-2.31c-0.57-0.58-1.32-0.89-2.19-0.93
					c-0.87-0.02-1.81,0.12-2.75,0.49c-0.46,0.18-0.96,0.27-1.39,0.52l-1.33,0.68c-1.7,1.04-3.21,2.44-4.47,4.07
					c-1.27,1.63-2.29,3.48-3.11,5.44c-0.4,0.99-0.77,1.99-1.07,3.01c-0.16,0.51-0.29,1.03-0.42,1.55l-0.18,0.78l-0.08,0.39
					c-0.03,0.17-0.03,0.13-0.04,0.31c-0.75,8.87-1.61,17.91-2.63,27.02c-1.03,9.1-2.16,18.28-3.92,27.33
					c-0.89,4.52-1.94,9.04-3.48,13.39c-0.76,2.17-1.61,4.28-2.37,6.37c-0.37,1.05-0.74,2.11-1.11,3.16l-0.62,1.64l-0.7,1.56
					c-1.91,4.13-4.15,7.97-6.43,11.71c-2.28,3.74-4.67,7.34-7.08,10.82c-4.84,6.95-9.82,13.43-14.75,19.37
					c-4.94,5.94-9.79,11.38-14.49,16.2c-0.6,0.6-1.12,1.22-1.76,1.79c-0.63,0.57-1.25,1.14-1.87,1.7c-0.59,0.59-1.3,1.01-1.94,1.51
					c-0.67,0.46-1.27,1-1.97,1.37c-1.36,0.8-2.66,1.62-4.03,2.22c-0.68,0.31-1.32,0.67-2,0.93c-0.67,0.26-1.33,0.52-1.99,0.77
					c-5.25,1.97-10.09,2.75-14.09,3.2c-2,0.23-3.81,0.3-5.4,0.36c-0.79,0.01-1.53,0.02-2.22,0.01c-0.34-0.01-0.67-0.01-0.98-0.02
					c-0.29-0.01-0.57-0.03-0.83-0.04c-4.22,0.44-13.09,0.57-23.44-3.69c-5.15-2.12-10.66-5.41-15.62-10.12
					c-4.97-4.6-9.93-9.99-14.85-15.95c-4.92-5.97-9.8-12.52-14.55-19.53c-2.4-3.49-4.7-7.14-6.98-10.88
					c-2.24-3.77-4.45-7.61-6.35-11.77c-0.94-2.2-1.54-4.27-2.37-6.35c-0.8-2.08-1.66-4.19-2.42-6.36
					c-1.55-4.34-2.67-8.84-3.59-13.36c-1.79-9.06-2.9-18.24-3.94-27.34c-1.02-9.11-1.88-18.15-2.63-27.02
					c-0.01-0.18-0.01-0.14-0.04-0.31l-0.08-0.39l-0.18-0.78c-0.13-0.52-0.27-1.04-0.42-1.55c-0.3-1.03-0.67-2.03-1.07-3.01
					c-0.82-1.96-1.84-3.81-3.11-5.44c-1.26-1.63-2.77-3.02-4.47-4.07l-1.33-0.68c-0.43-0.25-0.93-0.34-1.39-0.52
					c-0.93-0.37-1.87-0.51-2.75-0.49c-0.87,0.04-1.62,0.35-2.19,0.93c-0.57,0.58-0.96,1.41-1.21,2.31c-0.5,1.81-0.52,3.81-0.41,5.75
					c0.25,3.9,1.08,7.71,2.1,11.32c0.51,1.81,1.09,3.57,1.76,5.25c0.68,1.77,1.2,3.54,1.65,5.29c0.89,3.49,1.5,6.89,2.04,10.15
					c0.53,3.26,0.95,6.39,1.32,9.37c0.17,1.49,0.34,2.94,0.5,4.35c0.07,0.7,0.15,1.4,0.22,2.08c0.05,0.32,0.09,0.63,0.15,0.95
					c0.08,0.32,0.15,0.63,0.23,0.94c1.47,4.98,4.23,8.83,6.95,11.34c2.75,2.53,5.5,3.75,7.41,4.31c0.94,0.36,1.71,0.42,2.21,0.57
					C411.98,397.06,412.24,397.14,412.24,397.18z"/>
			</g>
		</g>
	</g>
	<g>
		<g>
			<g>
				<path d="M488.55,343.55c0.15,0,0.26,0.72,0.34,2.01c0.05,1.28,0.21,3.14-0.03,5.37c-0.11,2.24-0.51,4.87-1.26,7.66
					c-0.22,0.69-0.44,1.4-0.66,2.11l-0.17,0.54l-0.24,0.52c-0.16,0.35-0.32,0.7-0.48,1.05c-0.58,1.45-1.51,2.77-2.41,4.11
					c-1.94,2.61-4.7,4.69-7.62,5.93c-2.92,1.26-5.95,1.7-8.51,2.03c-0.63,0.09-1.25,0.18-1.84,0.26c-0.66,0.1-1.27,0.15-1.84,0.18
					c-1.17,0.09-2.21,0.09-3.14,0.11c-1.86,0.01-3.25-0.05-4-0.07c-1.5-0.07-5.55-0.24-10.74-1.03c-2.59-0.39-5.46-0.95-8.41-1.8
					c-2.94-0.85-6-1.93-8.72-3.75c-0.67-0.48-1.3-1.02-1.94-1.52c-0.55-0.57-1.11-1.12-1.63-1.7c-1.01-1.18-1.92-2.39-2.67-3.63
					c-1.53-2.47-2.55-4.95-3.23-7.1c-1.34-4.32-1.35-7.31-1.06-7.33c0.31-0.04,0.77,2.81,2.38,6.86c0.81,2.01,1.91,4.31,3.44,6.57
					c0.76,1.13,1.65,2.23,2.61,3.29c0.5,0.52,1.03,1.01,1.55,1.52c0.57,0.41,1.12,0.86,1.71,1.26c2.44,1.56,5.36,2.55,8.18,3.32
					c2.83,0.77,5.62,1.29,8.14,1.65c5.05,0.74,9.02,0.9,10.48,0.97c0.73,0.02,2.09,0.08,3.89,0.08c0.9-0.01,1.92-0.01,3-0.09
					c0.55-0.03,1.1-0.07,1.65-0.15c0.61-0.08,1.24-0.17,1.89-0.26c2.56-0.31,5.3-0.7,7.92-1.78c2.61-1.08,5.04-2.83,6.83-5.12
					c0.83-1.19,1.71-2.35,2.29-3.67c0.16-0.32,0.32-0.64,0.48-0.96l0.24-0.47l0.18-0.5c0.24-0.66,0.47-1.32,0.7-1.96
					c0.82-2.6,1.35-5.11,1.62-7.28c0.4-2.15,0.44-3.97,0.62-5.24C488.25,344.27,488.4,343.55,488.55,343.55z"/>
			</g>
		</g>
	</g>
	<g>
		<g>
			<g>
				<path d="M512.05,343.55c0.15,0,0.31,0.72,0.46,1.99c0.18,1.26,0.22,3.08,0.62,5.24c0.28,2.17,0.8,4.68,1.62,7.28
					c0.23,0.64,0.46,1.3,0.7,1.96l0.18,0.5l0.24,0.47c0.16,0.32,0.32,0.64,0.48,0.96c0.57,1.32,1.45,2.48,2.29,3.67
					c1.8,2.29,4.23,4.04,6.83,5.12c2.63,1.09,5.36,1.47,7.92,1.78c0.65,0.09,1.28,0.17,1.89,0.26c0.55,0.08,1.1,0.13,1.65,0.15
					c1.08,0.08,2.1,0.08,3,0.09c1.8,0.01,3.16-0.05,3.89-0.08c1.46-0.07,5.43-0.23,10.48-0.97c2.52-0.36,5.31-0.88,8.14-1.65
					c2.82-0.77,5.74-1.76,8.18-3.32c0.59-0.4,1.13-0.85,1.71-1.26c0.52-0.51,1.05-1,1.55-1.52c0.96-1.06,1.86-2.16,2.61-3.29
					c1.53-2.26,2.64-4.56,3.44-6.57c1.61-4.05,2.07-6.9,2.38-6.86c0.29,0.02,0.29,3.01-1.06,7.33c-0.68,2.15-1.7,4.63-3.23,7.1
					c-0.75,1.24-1.67,2.45-2.67,3.63c-0.52,0.58-1.08,1.13-1.63,1.7c-0.64,0.5-1.27,1.04-1.94,1.52c-2.73,1.82-5.79,2.9-8.72,3.75
					c-2.95,0.85-5.82,1.41-8.41,1.8c-5.18,0.79-9.23,0.96-10.74,1.03c-0.75,0.02-2.14,0.08-4,0.07c-0.94-0.02-1.98-0.02-3.14-0.11
					c-0.58-0.03-1.19-0.08-1.84-0.18c-0.59-0.08-1.21-0.17-1.84-0.26c-2.56-0.33-5.58-0.77-8.51-2.03
					c-2.92-1.24-5.68-3.32-7.62-5.93c-0.9-1.34-1.83-2.66-2.41-4.11c-0.16-0.35-0.32-0.7-0.48-1.05l-0.24-0.52l-0.17-0.54
					c-0.22-0.72-0.44-1.42-0.66-2.11c-0.75-2.79-1.15-5.42-1.26-7.66c-0.24-2.24-0.08-4.09-0.03-5.37
					C511.79,344.27,511.9,343.55,512.05,343.55z"/>
			</g>
		</g>
	</g>
	<g>
		<g>
			<g>
				<path d="M478.09,393.28c0.1,0.07,0.04,0.39-0.15,0.89c-0.1,0.25-0.23,0.54-0.32,0.9c-0.06,0.17-0.12,0.36-0.18,0.55
					c-0.06,0.19-0.08,0.41-0.12,0.62c-0.16,0.86-0.11,1.87,0.43,2.76c0.28,0.44,0.66,0.85,1.14,1.21c0.25,0.17,0.51,0.34,0.78,0.49
					c0.14,0.07,0.28,0.14,0.43,0.2c0.14,0.06,0.32,0.13,0.32,0.12c-0.03-0.01,0.17,0.01,0.32,0.03l0.44,0.06
					c0.29,0.04,0.58,0.1,0.87,0.16c0.58,0.12,1.15,0.28,1.72,0.47c1.12,0.36,2.29,0.95,3.24,1.48c0.99,0.54,1.98,1.07,2.95,1.59
					c0.48,0.26,0.96,0.52,1.42,0.77c0.24,0.13,0.47,0.26,0.66,0.35c0.23,0.1,0.45,0.21,0.67,0.31c1.8,0.8,3.49,1.36,4.83,1.68
					c1.34,0.32,2.32,0.37,2.79,0.38c0.47-0.01,1.44-0.06,2.79-0.38c1.34-0.32,3.03-0.88,4.83-1.68c0.22-0.1,0.45-0.2,0.67-0.31
					c0.19-0.09,0.42-0.22,0.66-0.35c0.47-0.25,0.94-0.51,1.42-0.77c0.96-0.52,1.95-1.05,2.95-1.59c0.95-0.53,2.12-1.12,3.24-1.48
					c0.57-0.19,1.14-0.35,1.72-0.47c0.29-0.06,0.58-0.12,0.87-0.16l0.44-0.06c0.14-0.02,0.34-0.03,0.32-0.03
					c-0.01,0.01,0.17-0.06,0.32-0.12c0.14-0.06,0.29-0.14,0.43-0.2c0.28-0.15,0.54-0.31,0.78-0.49c0.48-0.36,0.86-0.77,1.14-1.21
					c0.54-0.89,0.59-1.9,0.43-2.76c-0.05-0.21-0.07-0.43-0.12-0.62c-0.06-0.19-0.12-0.38-0.18-0.55c-0.09-0.36-0.22-0.65-0.32-0.9
					c-0.19-0.5-0.26-0.82-0.15-0.89c0.1-0.07,0.35,0.12,0.73,0.54c0.19,0.21,0.42,0.48,0.61,0.84c0.22,0.35,0.45,0.76,0.61,1.27
					c0.36,0.98,0.52,2.44-0.17,3.84c-0.35,0.68-0.84,1.31-1.45,1.83c-0.31,0.25-0.63,0.49-0.98,0.71c-0.18,0.1-0.35,0.21-0.54,0.3
					c-0.19,0.09-0.34,0.18-0.7,0.31c-2.21,0.29-4,1.06-5.94,2.24c-0.99,0.56-1.97,1.13-2.92,1.67c-0.48,0.27-0.95,0.54-1.41,0.81
					c-0.23,0.13-0.45,0.27-0.73,0.4c-0.25,0.12-0.49,0.23-0.73,0.35c-1.92,0.88-3.73,1.5-5.24,1.88c-1.51,0.37-2.73,0.45-3.35,0.45
					c-0.62-0.01-1.84-0.08-3.35-0.45c-1.51-0.37-3.32-0.99-5.24-1.88c-0.24-0.11-0.48-0.23-0.73-0.35c-0.28-0.14-0.5-0.27-0.73-0.4
					c-0.46-0.26-0.94-0.53-1.41-0.81c-0.96-0.55-1.93-1.11-2.92-1.67c-1.94-1.18-3.73-1.95-5.94-2.24c-0.36-0.13-0.51-0.21-0.7-0.31
					c-0.19-0.09-0.36-0.2-0.54-0.3c-0.35-0.21-0.67-0.45-0.98-0.71c-0.61-0.52-1.1-1.15-1.45-1.83c-0.69-1.4-0.53-2.86-0.17-3.84
					c0.16-0.51,0.39-0.92,0.61-1.27c0.2-0.36,0.42-0.63,0.61-0.84C477.74,393.4,477.99,393.21,478.09,393.28z"/>
			</g>
		</g>
	</g>
	<g>
		<g>
			<g>
				<path d="M408.34,366.23c-0.05-0.06,0.06-0.24,0.32-0.52c0.13-0.14,0.29-0.31,0.48-0.5c0.17-0.17,0.36-0.36,0.58-0.57
					c0.08-0.08,0.2-0.15,0.12-0.29c-0.04-0.15-0.06-0.2-0.1-0.41c-0.09-0.42-0.18-0.87-0.28-1.35c-0.17-0.97-0.34-2.07-0.5-3.28
					c-0.61-4.83-1.02-11.37-1.22-18.1c-0.11-3.37-0.17-6.78-0.2-10.07c-0.01-1.64-0.01-3.25-0.02-4.8c0-0.78,0-1.54,0.01-2.29
					c-0.02-0.16,0.04-0.42,0.05-0.47l0.05-0.28l0.1-0.55c0.07-0.36,0.14-0.72,0.21-1.07c1.14-5.61,2.67-9.84,3.37-11.39
					c0.16-0.39,0.42-0.94,0.75-1.62c0.26-0.62,0.57-1.29,0.84-2.25c0.58-1.83,1.15-4.26,1.73-7c1.17-5.49,2.35-12.3,3.43-18.92
					c0.52-3.31,1.03-6.58,1.51-9.61c0.22-1.52,0.44-2.97,0.64-4.35c0.09-0.69,0.19-1.36,0.27-2.01c0.05-0.34,0.1-0.67,0.16-0.99
					c0.07-0.32,0.15-0.64,0.22-0.94c0.62-2.46,1.79-4.31,2.87-5.3c1.08-1.01,1.93-1.24,1.98-1.1c0.07,0.14-0.58,0.57-1.39,1.64
					c-0.82,1.05-1.69,2.79-2.09,5.07c-0.05,0.29-0.09,0.58-0.14,0.87c-0.03,0.3-0.06,0.61-0.09,0.92c-0.05,0.65-0.11,1.33-0.16,2.03
					c-0.12,1.4-0.28,2.87-0.45,4.41c-0.35,3.06-0.77,6.35-1.23,9.69c-0.94,6.67-2.05,13.52-3.2,19.1c-0.57,2.79-1.14,5.25-1.76,7.24
					c-0.27,0.97-0.67,1.91-0.99,2.62c-0.3,0.62-0.54,1.12-0.69,1.48c-0.64,1.41-2.11,5.45-3.26,10.92
					c-0.12,0.62-0.25,1.26-0.38,1.91c-0.01,0.74-0.02,1.5-0.03,2.27c-0.01,1.55-0.02,3.15-0.03,4.78c0.01,3.27,0.02,6.68,0.03,10.03
					c0.06,6.71,0.23,13.21,0.5,18.01c0.08,1.2,0.15,2.29,0.22,3.26c0.04,0.48,0.08,0.93,0.12,1.35c-0.01,0.49,0.32,1.17-0.29,1.33
					c-0.42,0.29-0.64,0.43-0.88,0.57c-0.23,0.14-0.43,0.26-0.6,0.35C408.59,366.22,408.39,366.29,408.34,366.23z"/>
			</g>
		</g>
	</g>
	<g>
		<g>
			<g>
				<path d="M402.11,331.48c0.02-0.08,0.68,0.03,1.89,0.3c0.63,0.15,1.3,0.28,2.27,0.56c0.72,0.42,1.79,0.45,2.93,0.96
					c1.15,0.46,2.28,1.54,2.82,2.94c0.54,1.36,0.95,2.79,1.42,4.35c0.46,1.56,0.91,3.22,1.37,4.97c0.11,0.42,0.22,0.85,0.33,1.29
					c0,0.23,0.23,0.33,0.42,0.34c0.35,0.05,0.78,0.01,1.21-0.06l0.24-0.05l0.14-0.04c0.09-0.03,0.2-0.05,0.26-0.1l-0.06-0.24
					l-0.07-0.3c-0.08-0.41-0.16-0.83-0.24-1.25c-0.15-0.84-0.27-1.7-0.37-2.58c-0.19-1.75-0.28-3.58-0.12-5.48
					c0.17-1.88,0.54-3.88,1.65-5.71c0.56-0.9,1.31-1.74,2.29-2.34c0.96-0.57,1.94-0.91,2.92-1.23c3.95-1.12,8.06-1.58,12.25-1.97
					c4.2-0.37,8.48-0.57,12.82-0.69c2.17-0.06,4.34-0.09,6.53-0.09c0.27,0,0.34,0.02,0.5,0.03l0.42,0.04l0.83,0.09l1.65,0.21
					c1.1,0.15,2.19,0.32,3.28,0.52c4.35,0.78,8.66,1.9,12.77,3.52c4.09,1.63,8.06,3.78,11.18,6.97c1.55,1.59,2.82,3.48,3.62,5.54
					l0.17,0.47c0,0.01,0.01,0.02,0.02,0.01l0.3,0.03c0.23,0.02,0.45,0.03,0.68,0.03c0.45,0,0.89-0.03,1.31-0.09
					c0.11-0.02,0.05-0.01,0.09-0.02l-0.01-0.03l0-0.01l-0.08-0.19c-0.06-0.15-0.12-0.3-0.2-0.44l-0.42-0.87l-0.49-0.84
					c-0.65-1.12-1.4-2.17-2.22-3.14c-1.64-1.94-3.46-3.65-5.42-5.02c-3.88-2.82-8-4.62-11.73-5.93c-0.94-0.31-1.87-0.55-2.76-0.81
					c-0.9-0.24-1.74-0.55-2.58-0.7c-1.68-0.35-3.23-0.67-4.62-0.96c-2.83-0.36-5.02-0.7-6.48-0.84c-3.98-0.36-13.74-1.15-26.46,0.93
					c-1.59,0.25-3.22,0.54-4.91,0.84c-1.7,0.3-3.42,0.64-5.32,0.83c-3.72,0.28-7.5,0.19-11.5-0.35c-3.82-0.66-7.76-1.34-11.78-2.04
					c-1.03-0.18-2.07-0.36-3.12-0.54l-1.48-0.25l-0.37-0.06c-0.03-0.01-0.07,0-0.08-0.02l0.01-0.09l0.02-0.19l0.06-0.75l0.17-2.09
					c0.17-2.06,0.34-4.13,0.51-6.21c0.34-4.16,0.68-8.36,1.03-12.56c0.29-4.27,0.77-8.46,1.23-12.61c0.96-8.3,2.01-16.42,3.11-24.03
					c0.55-3.81,1.11-7.49,1.72-11c0.29-1.76,0.62-3.47,0.95-5.14c0.09-0.42,0.19-0.83,0.28-1.24l0.14-0.62
					c0.05-0.22,0.07-0.35,0.18-0.72c0.18-0.63,0.36-1.26,0.53-1.88l0.07-0.23l0.03-0.12c0.01-0.04,0.02-0.09,0.06-0.05l0.42,0.26
					l0.83,0.51c2.83,1.75,5.48,3.39,7.92,4.9c2.3,1.44,4.4,2.75,6.26,3.92c3.22,1.2,5.92,2.22,7.68,2.92
					c1.79,0.71,2.74,1.14,2.7,1.24c-0.03,0.1-1.04-0.16-2.89-0.71c-1.87-0.56-4.47-1.39-7.94-2.52c-3.73-2.18-8.42-4.91-13.81-8.05
					l-0.2-0.11l-0.1-0.05c-0.02,0.01-0.02,0.07-0.04,0.1l-0.12,0.47c-0.15,0.76-0.31,1.52-0.47,2.3c-0.29,1.65-0.59,3.35-0.86,5.1
					c-0.55,3.5-1.05,7.17-1.56,10.98c-1,7.6-1.97,15.72-2.86,24.01c-0.43,4.14-0.88,8.34-1.13,12.49
					c-0.32,4.22-0.64,8.44-0.96,12.62c-0.16,2.09-0.32,4.17-0.48,6.24l-0.08,1c-0.01,0.04,0.03,0.03,0.05,0.04
					c0.98,0.17,1.96,0.33,2.93,0.49c4.01,0.68,7.94,1.34,11.76,1.99c3.68,0.49,7.47,0.57,10.92,0.3c1.68-0.17,3.42-0.52,5.1-0.82
					c1.69-0.31,3.35-0.61,4.96-0.86c6.47-1.05,12.24-1.41,16.88-1.43c4.64-0.02,8.14,0.29,10.19,0.46c1.49,0.13,3.75,0.48,6.66,0.86
					c1.44,0.3,3.04,0.63,4.78,0.99c0.88,0.16,1.75,0.48,2.68,0.73c0.92,0.28,1.89,0.53,2.87,0.85c3.89,1.38,8.22,3.27,12.37,6.29
					c2.09,1.48,4.06,3.32,5.84,5.44c0.89,1.06,1.71,2.22,2.44,3.46l0.54,0.94l0.48,0.99c0.08,0.16,0.16,0.33,0.22,0.51l0.31,0.78
					c0.22,0.64,0.37,1.26,0.56,1.91l-1.33,0.46c-0.42,0.14-0.97,0.27-1.36,0.33c-0.57,0.09-1.13,0.12-1.69,0.11
					c-0.28,0-0.56-0.01-0.83-0.04l-0.47-0.04c-0.25-0.03-0.49-0.06-0.73-0.11l-0.36-0.07l-0.18-0.04c-0.07-0.01-0.12-0.02-0.13-0.09
					l-0.27-0.68l-0.34-0.97c-0.67-1.75-1.74-3.38-3.11-4.79c-2.75-2.84-6.45-4.9-10.35-6.48c-3.92-1.57-8.1-2.68-12.33-3.47
					c-1.06-0.2-2.12-0.37-3.18-0.53l-1.6-0.21l-0.8-0.09l-0.71-0.07c-2.16-0.02-4.33,0-6.47,0.04c-4.3,0.08-8.56,0.25-12.7,0.56
					c-4.13,0.34-8.21,0.76-11.9,1.76c-0.9,0.27-1.79,0.58-2.51,1c-0.7,0.41-1.28,1.03-1.73,1.73c-0.91,1.43-1.3,3.21-1.48,4.94
					c-0.17,1.74-0.12,3.48,0.03,5.17c0.08,0.84,0.18,1.67,0.31,2.49c0.07,0.41,0.14,0.81,0.21,1.21l0.19,0.9l0.23,0.97
					c-0.35,0.12-0.75,0.23-1.12,0.33l-0.56,0.14l-0.48,0.09c-0.53,0.08-1.07,0.13-1.66,0.03c-0.73-0.11-1.48-0.52-1.51-1.3
					c-0.11-0.47-0.22-0.93-0.32-1.39c-0.41-1.76-0.82-3.42-1.22-4.98c-0.41-1.54-0.79-3.04-1.23-4.28
					c-0.43-1.23-1.26-2.09-2.23-2.56c-0.94-0.5-2.04-0.6-2.86-1.14c-0.83-0.28-1.53-0.52-2.11-0.72
					C402.7,331.81,402.08,331.56,402.11,331.48z"/>
			</g>
		</g>
	</g>
	<g>
		<g>
			<g>
				<path d="M407.96,250.83c0.01-0.06,0.68-0.03,1.95,0.1c1.29,0.13,3.09,0.33,5.59,0.64c2.63,1.09,5.94,2.48,9.85,4.1
					c8.08,1.02,18.52,2.34,30.53,3.85l1.13,0.15l0.78,0.1c0.15,0.04,0.25,0.19,0.38,0.28l0.27,0.24c0.52,0.46,1.14,0.87,1.78,1.25
					c1.29,0.76,2.71,1.39,4.18,1.98c2.94,1.16,6.09,2.1,9.33,2.96c6.49,1.7,13.4,3.06,20.53,4.16c1.78,0.27,3.59,0.52,5.37,0.7
					c0.92,0.1,1.62,0.07,2.56-0.04c0.88-0.08,1.8-0.23,2.7-0.36c3.64-0.56,7.32-1.26,11.01-1.97c3.7-0.72,7.41-1.47,11.14-2.25
					l1.4-0.29l0.88-0.19l0.88,0.12c0.93,0.12,1.87,0.21,2.8,0.29c1.87,0.15,3.75,0.24,5.61,0.21c1.85-0.04,3.72-0.18,5.39-0.63
					c0.41-0.12,0.8-0.27,1.16-0.43l1.15-0.66c0.24-0.13,0.48-0.28,0.71-0.4l0.68-0.3c0.45-0.2,0.91-0.42,1.36-0.58
					c3.61-1.42,7.23-2.57,10.84-3.71c3.61-1.13,7.2-2.19,10.77-3.22c1.78-0.51,3.56-1.01,5.32-1.52c1.84-0.51,3.68-1.02,5.5-1.52
					c1.15,0.14,2.29,0.28,3.43,0.41c1.07,0.11,2.13,0.22,3.18,0.33c2.11,0.21,4.21,0.38,6.28,0.51c2.07,0.13,4.12,0.22,6.12,0.23
					c2,0.01,3.99-0.05,5.82-0.34c0.45-0.08,0.89-0.17,1.27-0.3c0.37-0.11,0.75-0.31,0.81-0.4c0,0,0.01-0.01,0.01-0.01l0.03-0.61
					c-0.01-0.55,0.16-1.08,0.24-1.61c0.51-2.03,1.3-3.8,2.09-5.53c0.81-1.71,1.67-3.35,2.55-4.93c0.44-0.79,0.88-1.56,1.33-2.33
					c0.34-0.57,0.67-1.12,1.01-1.68l0,0l0,0.01l-0.09-0.17l-0.4-0.79c-0.24-0.53-0.47-1.06-0.7-1.58c-0.45-1.05-0.86-2.08-1.25-3.09
					c-0.78-2.03-1.49-3.99-2.17-5.86c-1.36-3.74-2.61-7.14-3.89-10.07c-1.27-2.93-2.57-5.42-3.92-7.24
					c-0.67-0.9-1.35-1.65-2.01-2.12c-0.28-0.26-0.71-0.54-1.07-0.79c-0.36-0.26-0.72-0.49-1.01-0.71
					c-3.45-2.49-9.74-7.65-18.47-14.14c-4.38-3.21-9.36-6.8-15.09-10.05c-0.72-0.38-1.46-0.77-2.2-1.15
					c-0.74-0.38-1.51-0.68-2.28-1.03c-0.38-0.19-0.77-0.33-1.17-0.45c-0.39-0.13-0.79-0.26-1.18-0.39c-0.79-0.27-1.68-0.4-2.52-0.61
					c-3.47-0.71-7.14-1.24-10.9-1.75c-7.55-0.97-15.53-1.74-23.77-2.34c-8.24-0.55-16.77-1.05-25.31-0.8
					c-4.23,0.13-8.5,0.82-12.78,1.5c-4.27,0.72-8.55,1.54-12.8,2.4c-4.25,0.86-8.49,1.77-12.69,2.7c-2.1,0.47-4.19,0.94-6.27,1.41
					c-1.06,0.24-2.11,0.49-3.17,0.73c-1.83,0.44-3.65,0.87-5.47,1.31c1.84-2.87,3.67-5.71,5.48-8.52l1.34,1.36
					c-10.88,6.6-21.34,12.77-30.32,19.21c-4.47,3.22-8.62,6.48-11.97,10c-1.67,1.76-3.15,3.61-4.04,5.58
					c-0.82,2.06-1.46,4.15-1.82,6.2c-0.81,4.09-1.11,7.89-1.29,11.23c-0.17,3.34-0.2,6.23-0.2,8.59c0.03,2.36,0.05,4.2,0.07,5.45
					c0.02,1.25,0.01,1.91-0.05,1.91c-0.06,0.01-0.18-0.65-0.32-1.89c-0.13-1.25-0.29-3.09-0.39-5.46c-0.1-2.37-0.18-5.28-0.1-8.65
					c0.09-3.37,0.3-7.22,1.06-11.42c0.1-0.53,0.2-1.06,0.3-1.59c0.14-0.53,0.27-1.07,0.41-1.62l0.21-0.82l0.28-0.82
					c0.2-0.55,0.36-1.1,0.6-1.66c0.98-2.24,2.52-4.19,4.22-6.04c3.43-3.69,7.59-7.04,12.07-10.35c8.99-6.6,19.45-12.89,30.26-19.54
					l3.61-2.22l-2.27,3.59c-0.91,1.43-1.82,2.88-2.75,4.34l0.73-0.18c1.02-0.24,2.04-0.48,3.06-0.73c2.08-0.48,4.18-0.97,6.28-1.45
					c4.21-0.96,8.45-1.89,12.72-2.77c4.27-0.88,8.56-1.73,12.86-2.47c4.31-0.71,8.65-1.43,13.06-1.58
					c8.73-0.28,17.27,0.2,25.57,0.73c8.29,0.58,16.31,1.35,23.91,2.31c3.8,0.51,7.5,1.04,11.09,1.77c0.9,0.22,1.79,0.35,2.68,0.65
					c0.45,0.15,0.89,0.29,1.33,0.43c0.45,0.13,0.88,0.29,1.28,0.49c0.82,0.37,1.65,0.7,2.43,1.1c0.77,0.4,1.54,0.81,2.29,1.2
					c5.93,3.35,10.94,6.97,15.37,10.21c8.79,6.53,15.11,11.7,18.46,14.12c0.29,0.23,0.61,0.43,0.96,0.68
					c0.34,0.24,0.69,0.46,1.15,0.85c0.93,0.68,1.73,1.59,2.5,2.62c1.54,2.07,2.88,4.7,4.2,7.72c1.31,3.03,2.58,6.47,3.94,10.21
					c0.68,1.87,1.38,3.82,2.15,5.82c0.39,0.99,0.78,2.01,1.21,3.01c0.22,0.5,0.44,1,0.67,1.51c0.35,0.7,0.7,1.4,1.05,2.11
					c-0.34,0.55-0.68,1.1-1.03,1.65c-0.22,0.37-0.44,0.74-0.66,1.11c-0.43,0.75-0.87,1.51-1.31,2.28c-0.86,1.54-1.7,3.14-2.48,4.78
					c-0.76,1.64-1.5,3.36-1.94,5.07c-0.06,0.42-0.2,0.83-0.19,1.25l-0.01,0.32l-0.04,0.53c-0.07,0.48-0.32,0.91-0.66,1.26
					c-0.64,0.6-1.21,0.78-1.76,0.98c-0.55,0.18-1.08,0.29-1.61,0.38c-2.1,0.34-4.15,0.37-6.23,0.37c-2.07-0.01-4.16-0.11-6.26-0.25
					c-2.1-0.14-4.22-0.32-6.36-0.53c-1.07-0.11-2.14-0.23-3.22-0.34c-1-0.12-2-0.24-3.01-0.37c-1.67,0.46-3.34,0.92-5.03,1.38
					c-1.76,0.5-3.53,1-5.31,1.5c-3.56,1.02-7.14,2.07-10.73,3.18c-3.58,1.12-7.2,2.26-10.68,3.61c-0.45,0.16-0.85,0.36-1.27,0.54
					l-0.63,0.28c-0.19,0.1-0.35,0.2-0.54,0.3l-1.33,0.76c-0.51,0.23-1.02,0.42-1.52,0.56c-2.02,0.54-4,0.66-5.96,0.69
					c-1.96,0.02-3.9-0.08-5.83-0.24c-0.97-0.08-1.93-0.19-2.89-0.31c-0.69-0.09-0.38-0.1-1.05,0.03l-1.4,0.29
					c-3.74,0.76-7.46,1.5-11.18,2.2c-3.72,0.7-7.41,1.37-11.11,1.92c-0.93,0.13-1.85,0.27-2.8,0.35c-0.9,0.11-2.04,0.14-2.95,0.02
					c-1.87-0.2-3.67-0.47-5.47-0.76c-7.19-1.16-14.13-2.58-20.7-4.36c-3.28-0.9-6.47-1.89-9.5-3.12c-1.51-0.62-2.99-1.3-4.39-2.14
					c-0.7-0.43-1.38-0.88-2-1.45c-0.33-0.28-0.09-0.17-0.59-0.25l-1.13-0.16c-12.03-1.73-22.5-3.23-30.6-4.39
					c-3.87-1.76-7.16-3.25-9.76-4.44c-2.3-0.39-4.22-0.72-5.45-0.96C408.61,251.05,407.95,250.89,407.96,250.83z"/>
			</g>
		</g>
	</g>
	<g>
		<g>
			<g>
				<path d="M598.5,331.48c0.02,0.08-0.6,0.34-1.78,0.76c-0.3,0.1-0.63,0.21-0.99,0.34c-0.18,0.06-0.37,0.12-0.57,0.19
					c-0.19,0.07-0.43,0.12-0.54,0.2c-0.86,0.54-1.94,0.63-2.88,1.15c-0.95,0.48-1.78,1.34-2.19,2.58c-0.43,1.26-0.81,2.75-1.22,4.29
					c-0.4,1.55-0.8,3.21-1.21,4.96c-0.11,0.46-0.21,0.93-0.32,1.4c-0.04,0.79-0.84,1.17-1.55,1.28c-0.59,0.09-1.13,0.04-1.66-0.04
					l-0.2-0.03l-0.29-0.06l-0.57-0.15c-0.37-0.1-0.78-0.2-1.13-0.33l0.24-1.03l0.19-0.93c0.07-0.42,0.14-0.84,0.21-1.26
					c0.13-0.85,0.23-1.72,0.31-2.6c0.15-1.76,0.18-3.58-0.04-5.39c-0.23-1.79-0.72-3.62-1.79-4.98c-0.55-0.69-1.17-1.18-2.02-1.54
					c-0.84-0.37-1.78-0.65-2.74-0.89c-3.89-0.91-8.1-1.31-12.35-1.62c-4.26-0.29-8.6-0.44-12.95-0.49l-3.26-0.02l-1.61,0.01
					l-0.72,0.07l-0.8,0.09c-2.13,0.26-4.25,0.62-6.33,1.04c-4.17,0.87-8.23,2.04-11.95,3.66c-3.7,1.62-7.11,3.7-9.54,6.43
					c-1.21,1.36-2.15,2.86-2.74,4.45l-0.12,0.35c-0.08,0.21-0.15,0.44-0.23,0.64c-0.1,0.19-0.15,0.43-0.28,0.58l-0.64,0.15
					c-1.03,0.18-1.33,0.17-1.89,0.18c-0.54-0.01-0.97-0.04-1.59-0.15c-0.87-0.18-1.63-0.48-2.43-0.76c0.2-0.76,0.35-1.49,0.64-2.24
					l0.26-0.69l0.26-0.58c0.33-0.78,0.76-1.48,1.14-2.19c0.44-0.67,0.85-1.34,1.31-1.96c0.48-0.6,0.93-1.21,1.41-1.77
					c0.5-0.54,1-1.06,1.48-1.58c0.49-0.51,1.03-0.93,1.52-1.39c0.97-0.93,2.03-1.61,2.98-2.33c0.47-0.37,0.96-0.66,1.44-0.95
					c0.48-0.29,0.93-0.56,1.38-0.83c0.87-0.57,1.74-0.94,2.52-1.33c0.78-0.37,1.48-0.71,2.1-1.01c0.64-0.25,1.2-0.46,1.66-0.64
					c1.04-0.4,2.53-1.02,4.47-1.52c0.97-0.26,2.02-0.63,3.2-0.89c1.18-0.24,2.44-0.51,3.8-0.79c0.34-0.07,0.68-0.14,1.03-0.21
					c0.35-0.05,0.71-0.1,1.07-0.15c0.73-0.1,1.47-0.2,2.24-0.3c0.77-0.1,1.55-0.21,2.35-0.31c0.8-0.1,1.63-0.14,2.47-0.22
					c3.37-0.27,7.03-0.41,10.91-0.3c3.87,0.11,7.96,0.42,12.16,1.03c2.1,0.29,4.22,0.66,6.36,1.04c2.13,0.37,4.31,0.84,6.37,1.04
					c2.14,0.17,4.35,0.18,6.55,0.08c1.1-0.05,2.21-0.13,3.3-0.25c1.05-0.12,2.22-0.32,3.32-0.47c4.17-0.61,8.37-1.22,12.52-1.83
					c-0.05-1.86-0.11-3.72-0.16-5.56c-0.04-2.15-0.09-4.29-0.13-6.4c-0.06-4.22-0.08-8.35,0-12.33c0.06-1.99,0.11-3.94,0.29-5.87
					c0.06-0.94,0.27-2.01,0.37-2.82c0.13-0.86,0.18-1.78,0.24-2.65c0.2-3.55,0.24-6.92,0.27-10.02c0-6.2,0-11.31,0-14.88
					c0.01-3.57,0.06-5.58,0.21-5.59c0.15-0.01,0.36,2,0.58,5.56c0.22,3.56,0.46,8.68,0.59,14.89c0.05,3.11,0.1,6.49-0.04,10.11
					c-0.05,0.91-0.08,1.82-0.2,2.79c-0.11,1.02-0.26,1.79-0.31,2.75c-0.14,1.85-0.16,3.78-0.19,5.75
					c-0.02,3.94,0.05,8.05,0.16,12.26c0.06,2.1,0.13,4.23,0.2,6.38c0.1,2.46,0.19,4.94,0.29,7.42c-4.77,0.73-9.59,1.47-14.38,2.21
					c-1.14,0.17-2.2,0.36-3.4,0.5c-1.15,0.13-2.3,0.22-3.44,0.28c-2.29,0.12-4.56,0.12-6.84-0.05c-2.34-0.23-4.47-0.68-6.6-1.04
					c-2.12-0.37-4.21-0.73-6.27-1c-4.11-0.58-8.11-0.88-11.89-0.97c-3.79-0.1-7.37,0.04-10.66,0.31c-0.82,0.08-1.63,0.12-2.41,0.22
					c-0.78,0.11-1.54,0.21-2.29,0.31c-0.74,0.1-1.47,0.2-2.17,0.29c-0.35,0.05-0.7,0.1-1.04,0.14c-0.34,0.07-0.67,0.14-1,0.21
					c-1.31,0.27-2.54,0.53-3.67,0.77c-1.13,0.25-2.14,0.6-3.07,0.85c-1.87,0.49-3.28,1.08-4.28,1.46c-0.45,0.17-0.98,0.37-1.59,0.61
					c-0.59,0.28-1.25,0.6-1.99,0.96c-0.73,0.36-1.56,0.72-2.38,1.25c-0.42,0.25-0.85,0.51-1.29,0.78c-0.45,0.26-0.91,0.54-1.35,0.89
					c-0.88,0.67-1.88,1.31-2.78,2.17c-0.45,0.42-0.96,0.81-1.4,1.28c-0.44,0.47-0.9,0.95-1.36,1.45c-0.44,0.51-0.85,1.07-1.29,1.61
					c-0.42,0.56-0.79,1.17-1.19,1.77c-0.34,0.63-0.73,1.26-1.01,1.94l-0.23,0.51l-0.16,0.43l-0.01,0.01l0.01,0.01
					c0.26,0.05,0.72,0.1,1.08,0.1c0.33,0.01,0.96-0.05,0.81-0.04l0.01,0l0,0l0.11-0.31c0.71-1.89,1.82-3.65,3.2-5.19
					c2.78-3.09,6.48-5.29,10.38-6.98c3.93-1.68,8.12-2.87,12.42-3.74c2.15-0.43,4.32-0.78,6.52-1.03l0.83-0.09l0.42-0.04l0.49-0.04
					l1.67,0l3.29,0.05c4.38,0.09,8.76,0.27,13.07,0.61c4.31,0.35,8.56,0.79,12.67,1.81c1.03,0.27,2.05,0.59,3.06,1.05
					c0.5,0.23,1.02,0.52,1.48,0.89c0.45,0.37,0.87,0.77,1.2,1.23c1.38,1.82,1.85,3.94,2.08,5.91c0.21,1.99,0.13,3.91-0.05,5.75
					c-0.1,0.92-0.22,1.82-0.38,2.71c-0.08,0.44-0.17,0.88-0.25,1.31l-0.08,0.34l-0.06,0.23c0.05,0.04,0.16,0.06,0.24,0.09l0.13,0.04
					l0.23,0.05c0.42,0.08,0.85,0.11,1.19,0.07c0.19-0.02,0.41-0.09,0.41-0.31c0.11-0.42,0.22-0.84,0.33-1.26
					c0.46-1.75,0.91-3.4,1.37-4.95c0.47-1.56,0.88-2.99,1.42-4.35c0.52-1.41,1.65-2.51,2.81-2.99c1.15-0.52,2.24-0.56,2.94-0.96
					c0.28-0.14,0.49-0.14,0.69-0.21c0.2-0.05,0.4-0.09,0.59-0.14c0.37-0.09,0.71-0.16,1.02-0.23
					C597.81,331.5,598.48,331.4,598.5,331.48z"/>
			</g>
		</g>
	</g>
	<g>
		<g>
			<g>
				<path d="M406.09,381.32c-0.08,0.13-0.5-0.01-1.22-0.4c-0.65-0.46-1.59-1.22-2.3-2.46c-0.74-1.21-1.31-2.79-1.6-4.53
					c-0.29-1.72-0.32-3.7-0.11-5.52c0.25-3.6,0.34-7.36,0.29-10.4c-0.04-3.04-0.19-5.39-0.27-6.26c-0.07-0.87-0.25-3.21-0.78-6.17
					c-0.13-0.74-0.28-1.52-0.5-2.28c-0.17-0.79-0.47-1.56-0.74-2.37c-0.62-1.58-1.42-3.16-2.41-4.59c-0.98-1.44-2.14-2.73-3.34-3.81
					c-0.6-0.53-1.19-1.03-1.78-1.46c-0.11-0.1-0.2-0.17-0.33-0.27l-0.19-0.14c-0.03-0.01-0.08-0.07-0.09-0.04l-0.03,0.08
					c-0.04,0.12-0.09,0.24-0.12,0.35c-0.02,0.07-0.05,0.13-0.07,0.2c-0.02,0.06-0.07,0.25-0.1,0.36c-0.14,0.52-0.26,0.97-0.38,1.33
					c-0.24,0.73-0.44,1.13-0.59,1.11c-0.15-0.02-0.21-0.47-0.21-1.24c0-0.38,0.02-0.85,0.06-1.38c0.01-0.15,0.02-0.3,0.04-0.45
					c0.02-0.22,0.05-0.44,0.07-0.67c0.05-0.48,0.13-0.94,0.21-1.44l0.07-0.38c-0.01-0.1,0.07-0.04,0.12-0.02l0.17,0.07
					c0.23,0.1,0.47,0.21,0.71,0.32c0.48,0.23,1.03,0.51,1.55,0.84c0.69,0.4,1.37,0.89,2.07,1.42c1.38,1.08,2.72,2.42,3.87,3.97
					c1.16,1.54,2.11,3.26,2.83,5c0.32,0.88,0.67,1.74,0.87,2.6c0.26,0.86,0.42,1.68,0.57,2.45c0.59,3.1,0.77,5.53,0.84,6.42
					c0.08,0.9,0.24,3.32,0.25,6.43c0.01,3.12-0.16,6.92-0.56,10.62c-0.57,3.53-0.19,6.95,0.84,9.19c0.47,1.15,1.14,1.92,1.58,2.51
					C405.9,380.82,406.17,381.19,406.09,381.32z"/>
			</g>
		</g>
	</g>
	<path d="M400.87,343.43c0,0-4,13.13-3.57,16.99c0.43,3.86,1.79,10.58,4.43,11.45C401.73,371.88,403.54,349.83,400.87,343.43z"/>
	<g>
		<g>
			<g>
				<path d="M594.49,381.32c-0.08-0.13,0.19-0.5,0.7-1.01c0.44-0.59,1.11-1.36,1.58-2.51c1.02-2.24,1.41-5.66,0.84-9.19
					c-0.41-3.7-0.57-7.5-0.56-10.62c0.01-3.12,0.16-5.53,0.25-6.43c0.07-0.9,0.25-3.32,0.84-6.42c0.15-0.77,0.32-1.59,0.57-2.45
					c0.2-0.86,0.55-1.72,0.87-2.6c0.72-1.73,1.67-3.46,2.83-5c1.15-1.54,2.5-2.89,3.87-3.97c0.69-0.53,1.38-1.02,2.07-1.42
					c0.52-0.32,1.07-0.61,1.55-0.84c0.24-0.11,0.47-0.21,0.71-0.32l0.17-0.07c0.05-0.02,0.13-0.08,0.12,0.02l0.07,0.38
					c0.09,0.5,0.17,0.96,0.21,1.44c0.02,0.23,0.05,0.45,0.07,0.67c0.01,0.15,0.02,0.3,0.04,0.45c0.04,0.53,0.06,1,0.06,1.38
					c0.01,0.77-0.05,1.22-0.21,1.24c-0.15,0.02-0.35-0.38-0.59-1.11c-0.12-0.37-0.25-0.81-0.38-1.33c-0.03-0.11-0.07-0.3-0.1-0.36
					c-0.02-0.06-0.04-0.13-0.07-0.2c-0.04-0.11-0.08-0.23-0.12-0.35l-0.03-0.08c-0.01-0.03-0.06,0.03-0.09,0.04l-0.19,0.14
					c-0.12,0.09-0.21,0.17-0.33,0.27c-0.59,0.42-1.18,0.92-1.78,1.46c-1.19,1.08-2.35,2.37-3.34,3.81c-0.99,1.44-1.8,3.02-2.41,4.59
					c-0.27,0.8-0.57,1.58-0.74,2.37c-0.22,0.77-0.37,1.54-0.5,2.28c-0.53,2.96-0.71,5.3-0.78,6.17c-0.08,0.87-0.23,3.21-0.27,6.26
					c-0.05,3.04,0.04,6.79,0.29,10.4c0.21,1.82,0.18,3.8-0.11,5.52c-0.29,1.74-0.86,3.32-1.6,4.53c-0.71,1.24-1.65,2-2.3,2.46
					C594.99,381.3,594.57,381.45,594.49,381.32z"/>
			</g>
		</g>
	</g>
	<path d="M599.7,343.43c0,0,4,13.13,3.57,16.99c-0.43,3.86-1.79,10.58-4.43,11.45C598.85,371.88,597.04,349.83,599.7,343.43z"/>
	<g>
		<g>
			<g>
				<path d="M577.56,256.35c0.24-0.14,2.09,2.44,3.96,6.94c0.46,1.13,0.9,2.39,1.23,3.8c0.16,0.7,0.3,1.44,0.34,2.24
					c0.07,0.8,0.07,1.41,0.17,2.19c0.32,2.98,0.81,6.22,1.3,9.5c2.03,13.12,4.37,27.01,5.52,29.97c0.46,1.67,1.11,6.02,1.42,11.65
					c0.29,5.61,0.51,12.46,0.55,19.13c0.03,6.67-0.1,13.14-0.61,17.94c-0.11,1.2-0.26,2.3-0.42,3.26l-0.04,0.24l-0.04,0.19
					c0.04,0.11,0.15,0.18,0.23,0.28c0.29,0.3,0.56,0.57,0.8,0.82c0.96,1,1.45,1.62,1.35,1.73c-0.1,0.11-0.77-0.3-1.89-1.13
					c-0.28-0.21-0.58-0.44-0.92-0.7c-0.21-0.19-0.52-0.36-0.68-0.61c0.02-0.31,0.04-0.63,0.06-0.96c0.06-0.95,0.12-2.03,0.14-3.22
					c0.16-4.75,0.07-11.18-0.11-17.81c-0.19-6.63-0.49-13.47-0.81-19.02c-0.34-5.53-0.98-9.77-1.38-11.2
					c-0.04-0.18-0.1-0.41-0.18-0.65c-0.08-0.27-0.17-0.57-0.27-0.92c-0.24-0.78-0.41-1.62-0.63-2.61c-0.41-1.96-0.86-4.41-1.35-7.17
					c-0.95-5.53-2-12.3-2.85-18.91c-0.42-3.31-0.81-6.56-1.03-9.64c-0.07-0.73-0.06-1.62-0.09-2.27c0-0.66-0.09-1.33-0.21-1.98
					c-0.23-1.3-0.57-2.53-0.94-3.64C578.7,259.3,577.26,256.51,577.56,256.35z"/>
			</g>
		</g>
	</g>
	<g>
		<g>
			<g>
				<path d="M433.64,467.85c-1.21,0.17-3.12-13.8-3.37-15.6c-0.25-1.8-2.18-15.76-0.97-15.93c1.21-0.17,3.12,13.8,3.37,15.6
					C432.91,453.72,434.84,467.68,433.64,467.85z"/>
			</g>
		</g>
	</g>
	<g>
		<g>
			<g>
				<path d="M566.36,467.85c-1.21-0.17,0.73-14.13,0.97-15.93c0.25-1.8,2.16-15.76,3.37-15.6c1.21,0.17-0.73,14.13-0.97,15.93
					C569.49,454.05,567.57,468.02,566.36,467.85z"/>
			</g>
		</g>
	</g>
</g>
<g id="Guides" class="st0">
	<line class="st29" x1="500" y1="0" x2="500" y2="1000"/>
	<line class="st29" x1="0" y1="500" x2="1000" y2="500"/>
</g>
</svg>
