<?xml version="1.0" encoding="utf-8"?>
<!-- Generator: Adobe Illustrator 24.1.0, SVG Export Plug-In . SVG Version: 6.00 Build 0)  -->
<svg version="1.1" xmlns="http://www.w3.org/2000/svg" xmlns:xlink="http://www.w3.org/1999/xlink" x="0px" y="0px"
	 viewBox="0 0 1000 1000" style="enable-background:new 0 0 1000 1000;" xml:space="preserve">
<style type="text/css">
	.st0{display:none;}
	.st1{display:inline;}
	.st2{fill:#FFFFFF;stroke:#FFFFFF;stroke-miterlimit:10;}
	.st3{fill:#72482A;}
	.st4{fill:#56341D;}
	.st5{fill:#7A5135;}
	.st6{fill:#48484F;}
	.st7{fill:#C6C6C6;}
	.st8{fill:#A3A3A3;}
	.st9{fill:#AA7752;}
	.st10{fill:#1C1C1C;}
	.st11{fill:#CC996E;}
	.st12{fill:#494746;}
	.st13{fill:#77661E;}
	.st14{fill:#191919;}
	.st15{opacity:0.57;fill:#232323;}
	.st16{opacity:0.14;fill:#BCE8E8;}
	.st17{opacity:0.13;fill:#BCE8E8;}
	.st18{fill:#D8A988;}
	.st19{fill:#DDAE8C;}
	.st20{fill:#724729;}
	.st21{fill:#FCEDF0;}
	.st22{fill:#A5744C;}
	.st23{fill:#3D1B04;}
	.st24{opacity:0.6;fill:#BCE8E8;}
	.st25{opacity:0.35;fill:#BCE8E8;}
	.st26{fill:#84573E;}
	.st27{fill:#3A241A;}
	.st28{display:inline;fill:#FFFFFF;stroke:#000000;stroke-miterlimit:10;}
</style>
<g id="Background" class="st0">
	<rect class="st1" width="1000" height="1000"/>
</g>
<g id="Border">
	<path class="st2" d="M383.49,245.23c0,0-3.57-24.37,2.4-40.23s58.22-45.86,64.45-48l-7.98,11.78c0,0,46.25-9.74,52.3-9.87
		c6.05-0.13,50.14,2.48,66.88,5.21c16.74,2.74,51.84,29.57,54.22,32.14c2.38,2.57,14.5,42.72,17.01,45.01c0,0-9.22,17.23-7.64,20.69
		c1.58,3.46,1.08,27.89,0,33.04c-1.08,5.14-0.54,28.2-0.54,28.2s13.88-1.3,10.57,15.33c-3.31,16.63-9.84,43.01-10.16,47.42
		c-0.96,12.98-4.04,15.68-6.8,16.84c0,0,16.36,4.63,16.96,4.86c0.6,0.23,8,9.51,10.01,12.1c2.01,2.59,11.9,4.15,14.19,6.18
		s2.6,11.56,2.06,14.33c0,0,39.11,14.7,51.33,22.09s27.96,10.72,27.96,10.72s26.21,18.61,36.45,84.92s19.88,105.44,19.88,105.44
		h84.78c0,0,14.95,0.53,18.4,18.85c3.46,18.32,37.95,205.79,37.95,205.79s3.75,14.66-15.21,14.66s-846.64,0-846.64,0
		s-22.93,2.73-18.75-19.49l40.61-200.27c0,0,0.32-19.48,20.25-19.48h84.14c0,0,18.72-109.86,20.32-119.18
		c1.61-9.32,14.14-63.96,51.75-76.82c0,0,36.32-14.79,45-21.21c0,0,14.33-6.5,17.84-6.5c0,0-4.98-9.6,1.77-19.55
		c0,0,24.11-12.84,30.54-17.66c6.43-4.82,13.45-3.65,13.45-3.65s-7-6.31-7.15-10.17s-6.32-30.89-9.52-39.23
		c-3.21-8.34-3.37-27.41,8.29-26.56C374.85,322.96,376.94,279.14,383.49,245.23z"/>
</g>
<g id="Table">
	<g>
		<path class="st3" d="M902.65,883.26H96.08c-6.6,0-12-5.4-12-12l33-176.27c0-6.6,5.4-12,12-12h740.57c6.6,0,12,5.4,12,12l33,176.27
			C914.65,877.86,909.25,883.26,902.65,883.26z"/>
	</g>
	<path class="st4" d="M316.78,776.39c0,0-67.46-32.79-89.63-47.57s-26.36-43.43-26.36-43.43h39.59L316.78,776.39z"/>
	<path class="st4" d="M683.91,776.41c0,0,67.46-32.79,89.63-47.57s26.37-44,26.37-44l-39.65,0.05L683.91,776.41z"/>
	<path class="st5" d="M101.78,776.69c0,0,12.06,0.86,32.11,2.03c3.34,0.2,6.9,0.43,10.64,0.8C166,818,218,819,255,806
		c10-3,25-11,20-24c-4-12-19-17-32-19c-19-2-41-4-54,12c-5,7,3,15,10,17c12,3,36,6,36-7c0-8-11-2-18,0c-3,1-8,0-10-4c0-2,1-5,3-6
		c15-6,39-7,46,10c2,6-5,10-10,13c-24,10-55,9-75-9c-5-5-5-12-1-17c18-20,46-20,71-19c23,1,47,11,58.59,31.62
		c2.96,0.18,5.93,0.32,8.89,0.51c2.97,0.03,5.95,0.06,8.92,0.08c107.04,0.82,366.14-22.32,457.89-17.5s112.03,7.99,121.18,6.41
		l8.73,46.65c0,0-16.75-1.19-40.2-2.33c-1.26-0.7-2.45-1.14-4.16-2.33C852,805,840,797,826,794c-33-7-82-11-97,23c-2,5,1,11,6,14
		c28,18,71,24,89-5c8-12-13-18-24-20c-13-1-31-2-36,11c-3,10,17,13,26,10c5-2,7-6,4-10c5,0,11,3,10,7c-3,13-20,10-30,9
		c-9,0-24-2-26-14c-1-6,3-10,8-13c27-12,64-14,84,10c8,9,0,19-8,23c-39,20-96,20-123.5-18.25c-3.54,0.03-7.28,0.17-11.19,0.37
		C564.22,827.67,225.22,839,225.22,839L87.93,850.65L101.78,776.69z"/>
</g>
<g id="Line_table">
	<g>
		<g>
			<g>
				<path d="M902.65,883.26c0-0.11,0.87-0.1,2.46-0.49c1.55-0.42,3.92-1.33,6.02-3.68c1.03-1.16,1.96-2.67,2.5-4.5
					c0.23-0.92,0.45-1.89,0.43-2.93l0.01-0.35c-0.02-0.11-0.04-0.18-0.07-0.34c-0.05-0.27-0.11-0.54-0.17-0.82
					c-0.11-0.55-0.22-1.12-0.34-1.69c-0.92-4.6-1.97-9.9-3.15-15.84c-4.69-23.76-11.27-57.86-19.17-99.13
					c-1.97-10.32-4.03-21.09-6.16-32.25c-1.06-5.58-2.15-11.27-3.25-17.04c-0.55-2.89-1.1-5.8-1.66-8.73
					c-0.02-0.09-0.06-0.29-0.06-0.43l-0.02-0.37l-0.03-0.48c0-0.33-0.09-0.64-0.13-0.96c-0.11-0.64-0.28-1.27-0.52-1.87
					c-0.46-1.21-1.16-2.34-2.05-3.31c-1.77-1.94-4.29-3.18-6.94-3.35c-0.61-0.05-1.43-0.03-2.2-0.03l-2.32,0.01
					c-1.55,0-3.1,0.01-4.66,0.01c-6.24,0.02-12.56,0.03-18.95,0.05c-12.79,0.03-25.89,0.06-39.24,0.09
					c-53.41,0.09-110.91,0.19-169.3,0.29c-116.77,0.09-237.06,0.18-335.22,0.26c-49.08,0.01-92.62,0.02-127.43,0.03
					c-8.7,0-16.85,0-24.41,0c-3.78,0-7.41,0-10.88,0c-1.74,0-3.44,0-5.09,0c-1.8-0.02-2.9,0.01-4.16,0.37
					c-2.43,0.68-4.41,2.31-5.58,4.24c-0.59,0.96-1,1.99-1.22,3.03c-0.08,0.52-0.18,1.04-0.18,1.55l-0.04,0.67
					c-0.06,0.38-0.08,0.46-0.11,0.63c-0.06,0.31-0.12,0.62-0.17,0.92c-0.91,4.89-1.7,9.09-2.35,12.55
					c-2.6,13.87-7.39,39.48-13.8,73.69c-3.21,17.1-6.81,36.35-10.75,57.36c-0.98,5.25-1.99,10.61-3.01,16.08
					c-0.51,2.73-1.03,5.49-1.55,8.27c-0.26,1.39-0.52,2.79-0.79,4.19l-0.4,2.11c-0.03,0.14-0.08,0.45-0.07,0.37l0.01,0.17
					c0.03,0.29,0,0.58,0.07,0.86c0.26,2.29,1.44,4.47,3.22,6.02c1.79,1.56,4.07,2.42,6.56,2.39c5.96,0,12,0,18.14,0.01
					c98.16,0.08,218.45,0.17,335.22,0.26c116.77,0.15,230.01,0.38,314.05,0.72c42.02,0.17,76.75,0.37,100.97,0.6
					c12.11,0.12,21.59,0.24,28.05,0.38c3.23,0.07,5.7,0.14,7.36,0.21S902.65,883.18,902.65,883.26c0,0.08-0.86,0.15-2.52,0.22
					s-4.14,0.14-7.36,0.21c-6.46,0.13-15.94,0.26-28.05,0.38c-24.22,0.23-58.95,0.43-100.97,0.6
					c-84.05,0.34-197.29,0.57-314.05,0.72c-116.77,0.09-237.06,0.18-335.22,0.26c-6.13,0-12.18,0-18.14,0.01
					c-1.68,0.01-3.54-0.27-5.18-0.89c-1.67-0.61-3.2-1.53-4.52-2.68c-2.65-2.3-4.42-5.57-4.82-9.02c-0.08-0.43-0.07-0.86-0.1-1.29
					l-0.02-0.39c-0.01-0.14-0.02-0.34,0.03-0.51l0.13-0.69l0.39-2.11c0.26-1.4,0.52-2.8,0.78-4.19c0.52-2.78,1.04-5.54,1.55-8.27
					c1.02-5.46,2.02-10.83,3.01-16.08c3.93-21.01,7.53-40.26,10.73-57.36c6.4-34.21,11.2-59.82,13.79-73.69
					c0.65-3.47,1.44-7.67,2.35-12.55c0.06-0.31,0.11-0.61,0.17-0.92c0.03-0.14,0.07-0.38,0.06-0.31c-0.01,0.1,0,0.06,0-0.01
					l0.01-0.29c0.01-0.77,0.14-1.55,0.28-2.34c0.33-1.57,0.95-3.12,1.83-4.57c1.76-2.89,4.72-5.33,8.39-6.36
					c0.91-0.26,1.87-0.43,2.84-0.5c1.04-0.07,1.8-0.05,2.63-0.05c1.66,0,3.36,0,5.09,0c3.47,0,7.1,0,10.88,0c7.56,0,15.71,0,24.41,0
					c34.8,0.01,78.35,0.02,127.43,0.03c98.16,0.08,218.45,0.17,335.22,0.26c58.38,0.1,115.88,0.2,169.3,0.29
					c13.35,0.03,26.45,0.06,39.24,0.09c6.4,0.02,12.72,0.03,18.95,0.05c1.56,0,3.11,0.01,4.66,0.01l2.32,0.01
					c0.78,0.01,1.5-0.01,2.42,0.05c3.51,0.24,6.84,1.91,9.14,4.47c1.15,1.27,2.06,2.76,2.67,4.36c0.31,0.8,0.53,1.63,0.67,2.47
					c0.05,0.42,0.15,0.84,0.16,1.27l0.03,0.64c0.01,0.12,0.01,0.22,0.01,0.19c0,0.04,0,0.03,0.02,0.12
					c0.54,2.94,1.08,5.85,1.61,8.75c1.06,5.78,2.11,11.47,3.14,17.06c2.05,11.18,4.03,21.96,5.92,32.3
					c7.57,41.34,13.76,75.51,17.99,99.36c1.05,5.96,1.98,11.28,2.79,15.9c0.1,0.58,0.2,1.14,0.29,1.7c0.05,0.28,0.1,0.55,0.14,0.83
					c0.02,0.12,0.06,0.32,0.08,0.48l-0.03,0.47c-0.02,1.14-0.29,2.21-0.57,3.2c-0.65,1.98-1.72,3.57-2.87,4.77
					c-2.35,2.42-4.92,3.23-6.56,3.53c-0.84,0.12-1.48,0.17-1.91,0.13C902.86,883.32,902.65,883.29,902.65,883.26z"/>
			</g>
		</g>
	</g>
</g>
<g id="Base_color">
	<g>
		<g>
			<g>
				<g id="XMLID_1_">
					<g>
						<path class="st6" d="M770.61,629.69c0,0,19.93,42.82-22.5,85.25c-41.86,41.86-64.06,61.17-64.65,61.69l16.4-234.9
							c0-6.6-5.4-12-13.45-12H537.34c-0.64-6.34-5.46-13.91-5.46-13.91s21.44-17.84,26.42-22.99c4.99-5.14,23.47-12.85,27.81-13.82
							c4.34-0.96,32.14-22.34,36.16-27c2.23-2.59,9.46-3.54,20.29-1.22c8.68,1.85,19.67,5.81,32.26,12.71
							c28.29,15.51,42.43,19.37,42.43,19.37s32.79,13.5,39.86,64.93S770.61,629.69,770.61,629.69z"/>
						<path class="st7" d="M699.86,541.73l-16.4,234.9h-0.01l-0.59,8.52c0,6.6-5.4,12-12,12H329.64c-6.6,0-12-5.4-12-12l-0.59-8.52
							h-0.01l-16.4-234.9c0-6.6,5.4-12,10.56-12h154.19h12.22h47.03h12.7h149.07C694.46,529.73,699.86,535.13,699.86,541.73z"/>
						<path class="st8" d="M681.18,810.94v5.57c0,9.27-3.06,12-13.41,12H331.05c-10.35,0-13.41-2.73-13.41-12v-5.57
							c0-9.27,3.06-12,13.41-12h336.72C678.12,798.94,681.18,801.67,681.18,810.94z"/>
						<path class="st6" d="M642.56,440.14c1.89,3.35,0,10.65,0,10.65c-10.83-2.32-18.06-1.37-20.29,1.22
							c-4.02,4.66-31.82,26.04-36.16,27c-4.34,0.97-22.82,8.68-27.81,13.82c-4.98,5.15-26.42,22.99-26.42,22.99
							c-7.24-0.81-10.7,4.98-10.7,4.98s-19.45,3.53-20.93,3.05c1.48-0.48,1.89-8.2,1.89-9.32c0-1.05-1.62-2.1-1.86-2.26
							c0.58,0.2,10.12,2.88,33.72-22.51l-0.23-0.29c0.67-0.52,1.33-1.07,1.98-1.65c5.12-4.59,10.47-10.51,15.66-16.95l0.01,0.01
							c0,0,34.62-19.3,42.76-21.87c8.14-2.57,13.07-13.21,15.21-16.86c2.15-3.63-10.76-10.07-24.2-15.35
							c1.46-3.93,2.16-4.9,3.43-11.01c1.79-0.21,3.4-0.66,4.86-1.29l0.02,0.06c0,0,13.32,5.67,19.32,8.45
							c6,2.79,14.79,15.43,16.5,17.36C631.04,432.3,640.68,436.8,642.56,440.14z"/>
						<path class="st9" d="M609.57,330.03c11.25-2.89,7.29,18.16,3.91,26.52c-3.37,8.35-7.39,26.68-7.87,31.02
							c-0.41,3.66-3.65,13.28-12.13,16.93c-1.46,0.63-3.07,1.08-4.86,1.29c0.48-2.33,1.05-5.42,1.77-9.71
							c3-17.78,5.57-48.43,5.57-48.43s0.57-3.55,2.49-7.51C600.42,336.04,603.84,331.5,609.57,330.03z"/>
						<path d="M601.54,210.08c6.57,4.29,11.09,29.15,15.47,37.29c0,0-7.69,11.14-7.44,15.64c0,0,0,0.02,0,0.06
							c0,4.47-28.03,7.66-28.03,7.66s-1.58,0.43-4.08,1.12c-8.59,2.39-27.99,7.94-31.1,10.18c-4.02,2.89-17.04,0.96-17.04,0.96
							s-24.82,5.24-28.84,5.07c-4.02-0.16-36.27-5.12-43.02-11.87l-31.82-4.34l-10.6-3.7l-14.79-15.91c0,0-1.93-26.51,2.57-37.44
							c4.5-10.93,32.65-27,46.54-35.57l-4.11,6.42c0,0,33.43-8.14,47.79-9.42c14.35-1.29,53.83,2.14,65.59,5.14
							S594.98,205.8,601.54,210.08z"/>
						<path d="M609.57,263.07c0.06,1.44,1.08,28.17,0,34.01c-1.11,6,0,32.95,0,32.95l-16.05,2.41c0,0-1.24,0.18-3.2,0.31
							c0,0-0.43-10.06-1.82-14.02c-1.39-3.97-6.32-28.25-6.32-33.33c0-5.14-4.68-13.39-4.68-13.39l-0.04-0.16
							c2.5-0.69,4.08-1.12,4.08-1.12S609.57,267.54,609.57,263.07z"/>
						<path d="M593.52,332.44l16.05-2.41c-5.73,1.47-9.15,6.01-11.12,10.11l-3.97,1.12C595.61,340.41,593.52,332.44,593.52,332.44z"
							/>
						<path class="st10" d="M585.19,416.8c13.44,5.28,26.35,11.72,24.2,15.35c-2.14,3.65-7.07,14.29-15.21,16.86
							c-8.14,2.57-42.76,21.87-42.76,21.87l-0.01-0.01c16.03-19.84,30.6-44.68,32.78-51.23C584.56,418.52,584.89,417.6,585.19,416.8
							z"/>
						<path class="st11" d="M415.07,416.9c-1.26-3.4-2-5.15-3.2-11.1c-0.49-2.42-1.05-5.52-1.76-9.72
							c-3-17.78-5.57-48.43-5.57-48.43s-0.57-3.55-2.49-7.51l3.97,1.12c1.12,0.86,4.34,0.38,5.62,4.23
							c1.29,3.86,2.9,10.66,2.9,10.66s0.64,0.97,3.69,0c0,0,1.07,14.43,9.27,21.99c8.2,7.55,32.88,8.39,38.34,7.42
							c5.46-0.96,22.89-1.24,22.66-31.35c0,0,2.38,0.6,4.54-0.25c0,0,3.15-1,7.21-1s7.21,1,7.21,1c2.16,0.85,4.54,0.25,4.54,0.25
							c-0.23,30.11,17.2,30.39,22.66,31.36c5.46,0.96,30.14,0.12,38.34-7.43c8.2-7.56,9.27-21.99,9.27-21.99
							c3.05,0.97,3.69,0,3.69,0s1.61-6.8,2.9-10.66c1.28-3.85,4.5-3.37,5.62-4.23l3.97-1.12c-1.92,3.96-2.49,7.51-2.49,7.51
							s-2.57,30.65-5.57,48.43c-0.72,4.29-1.29,7.38-1.77,9.71c-1.27,6.11-1.97,7.08-3.43,11.01c-0.3,0.8-0.63,1.72-1,2.84
							c-2.18,6.55-16.75,31.39-32.78,51.23c-5.19,6.44-10.54,12.36-15.66,16.95c-0.65,0.58-1.31,1.13-1.98,1.65
							c-14.61,11.53-33.52,10.47-33.52,10.47s-15.2,2.93-33.63-10.34c-0.78-0.56-1.57-1.15-2.37-1.78
							c-5.07-3.98-10.59-9.92-16.02-16.66c-15.17-18.83-29.65-43.95-31.78-50.34C415.92,419.22,415.47,417.98,415.07,416.9z"/>
						<path d="M593.52,332.44c0,0,2.09,7.97,0.96,8.82c-1.12,0.86-4.34,0.38-5.62,4.23c-1.29,3.86-2.9,10.66-2.9,10.66
							s-0.64,0.97-3.69,0c0,0,3.37-13.23-2.25-17.41c-5.63-4.17-34.54-1.92-34.54-1.92s-29.03,2.21-33.48,17.39
							c0,0-2.38,0.6-4.54-0.25c0,0,0.24-1.05,1.05-2.69c2.59-5.25,11.06-16.58,36.49-19.12c19.58-1.95,32.5,0.24,37.91,0.61
							c2.84,0.19,5.48,0.12,7.41-0.01C592.28,332.62,593.52,332.44,593.52,332.44z"/>
						<path class="st11" d="M588.5,318.73c1.39,3.96,1.82,14.02,1.82,14.02c-1.93,0.13-4.57,0.2-7.41,0.01
							c-5.41-0.37-18.33-2.56-37.91-0.61c-25.43,2.54-33.9,13.87-36.49,19.12c0,0-4.18-0.99-8.22-1c-0.01,0-0.03,0-0.04,0
							c-4.06,0-8.29,0.94-8.29,0.94c-2.62-5.27-11.12-16.52-36.46-19.06c-19.58-1.95-32.5,0.24-37.91,0.61
							c-3.69,0.25-7.04,0.04-8.95-0.13c0,0,1.57-9.19,4.47-14.81c2.89-5.63,7.39-30.38,8.03-37.29c0.65-6.91,4.5-8.68,4.5-8.68
							l31.82,4.34c6.75,6.75,39,11.71,43.02,11.87c4.02,0.17,28.84-5.07,28.84-5.07s13.02,1.93,17.04-0.96
							c3.11-2.24,22.51-7.79,31.1-10.18l0.04,0.16c0,0,4.68,8.25,4.68,13.39C582.18,290.48,587.11,314.76,588.5,318.73z"/>
						<path class="st11" d="M580.02,338.74c5.62,4.18,2.25,17.41,2.25,17.41s-1.07,14.43-9.27,21.99
							c-8.2,7.55-32.88,8.39-38.34,7.43c-5.46-0.97-22.89-1.25-22.66-31.36c4.45-15.18,33.48-17.39,33.48-17.39
							S574.39,334.57,580.02,338.74z"/>
						<path d="M537.34,529.73h-12.7c-0.8-4.74-3.46-8.93-3.46-8.93s3.46-5.79,10.7-4.98C531.88,515.82,536.7,523.39,537.34,529.73z"
							/>
						<path class="st9" d="M533.77,489.47l0.23,0.29c-23.6,25.39-33.14,22.71-33.72,22.51c-0.02,0-0.03-0.01-0.03-0.01
							s-9.38,3.72-33.75-22.5l0.12-0.16c18.43,13.27,33.63,10.34,33.63,10.34S519.16,501,533.77,489.47z"/>
						<path class="st12" d="M524.64,529.73h-47.03c0.85-6.5,1.71-8.93,1.71-8.93s19.45,3.53,20.93,3.05
							c1.48,0.48,20.93-3.05,20.93-3.05S523.84,524.99,524.64,529.73z"/>
						<path class="st13" d="M508.51,351.27c-0.81,1.64-1.05,2.69-1.05,2.69s-3.15-1-7.21-1l0.04-2.69
							C504.33,350.28,508.51,351.27,508.51,351.27z"/>
						<path class="st6" d="M502.14,514.53c0,1.12-0.41,8.84-1.89,9.32c-1.48,0.48-20.93-3.05-20.93-3.05s-1.32-4.3-10.61-7.5
							c0,0-21.53-15.32-26.51-20.47c-4.99-5.14-23.47-12.85-27.81-13.82c-4.34-0.96-32.14-22.34-36.16-27
							c-2.16-2.5-8.98-3.47-19.2-1.45c0,0-2.49-3.91-2.92-6.05c-0.43-2.14-0.43-8.28,4.71-11.71c5.14-3.43,21-13.25,25.29-17.91
							c4.28-4.66,18.63-11.01,18.63-11.01l0.26-0.41c1.95,1.17,4.22,2.01,6.87,2.33c1.2,5.95,1.94,7.7,3.2,11.1
							c-4.36,1.73-7.54,3.4-13.02,5.69c-11.12,4.63-14.37,13.14-12.94,15.56c2.14,3.65,11.07,12.29,19.21,14.86
							c8.14,2.57,39.91,18.15,39.91,18.15c5.43,6.74,10.95,12.68,16.02,16.66c0.8,0.63,1.59,1.22,2.37,1.78l-0.12,0.16
							c24.37,26.22,33.75,22.5,33.75,22.5s0.01,0.01,0.03,0.01C500.52,512.43,502.14,513.48,502.14,514.53z"/>
						<path class="st13" d="M500.29,350.27l-0.04,2.69c-4.06,0-7.21,1-7.21,1s-0.24-1.07-1.08-2.75c0,0,4.23-0.94,8.29-0.94
							C500.26,350.27,500.28,350.27,500.29,350.27z"/>
						<path d="M491.96,351.21c0.84,1.68,1.08,2.75,1.08,2.75c-2.16,0.85-4.54,0.25-4.54,0.25c-4.45-15.18-33.48-17.39-33.48-17.39
							s-28.91-2.26-34.54,1.92c-5.62,4.18-2.25,17.41-2.25,17.41c-3.05,0.97-3.69,0-3.69,0s-1.61-6.8-2.9-10.66
							c-1.28-3.85-4.5-3.37-5.62-4.23c-1.13-0.85,0.96-8.82,0.96-8.82s0.61,0.09,1.66,0.19c1.91,0.17,5.26,0.38,8.95,0.13
							c5.41-0.37,18.33-2.56,37.91-0.61C480.84,334.69,489.34,345.94,491.96,351.21z"/>
						<path class="st11" d="M488.5,354.21c0.23,30.11-17.2,30.39-22.66,31.35c-5.46,0.97-30.14,0.13-38.34-7.42
							c-8.2-7.56-9.27-21.99-9.27-21.99s-3.37-13.23,2.25-17.41c5.63-4.18,34.54-1.92,34.54-1.92S484.05,339.03,488.5,354.21z"/>
						<path d="M479.32,520.8c0,0-0.86,2.43-1.71,8.93h-12.22c0-2.33,3.32-16.43,3.32-16.43C478,516.5,479.32,520.8,479.32,520.8z"/>
						<path class="st6" d="M468.71,513.3c0,0-3.32,14.1-3.32,16.43H311.2c-5.16,0-10.56,5.4-10.56,12l16.4,234.9
							c-0.59-0.52-22.79-19.83-64.65-61.69c-42.43-42.43-22.5-85.25-22.5-85.25s6.43-30.46,13.5-81.89
							c7.07-51.43,39.86-64.93,39.86-64.93s14.14-3.86,42.43-19.37c13.12-7.19,24.51-11.19,33.35-12.94
							c10.22-2.02,17.04-1.05,19.2,1.45c4.02,4.66,31.82,26.04,36.16,27c4.34,0.97,22.82,8.68,27.81,13.82
							C447.18,497.98,468.71,513.3,468.71,513.3z"/>
						<path class="st10" d="M416.45,420.82c2.13,6.39,16.61,31.51,31.78,50.34c0,0-31.77-15.58-39.91-18.15
							c-8.14-2.57-17.07-11.21-19.21-14.86c-1.43-2.42,1.82-10.93,12.94-15.56c5.48-2.29,8.66-3.96,13.02-5.69
							C415.47,417.98,415.92,419.22,416.45,420.82z"/>
						<path d="M415.04,268.15l10.6,3.7c0,0-3.85,1.77-4.5,8.68c-0.64,6.91-5.14,31.66-8.03,37.29c-2.9,5.62-4.47,14.81-4.47,14.81
							c-1.05-0.1-1.66-0.19-1.66-0.19l-16.05-2.41c0,0,1.45-15.59,1.77-22.34c0.32-6.75,5.3-48.86,7.55-55.45L415.04,268.15z"/>
						<path class="st9" d="M410.11,396.08c0.71,4.2,1.27,7.3,1.76,9.72c-2.65-0.32-4.92-1.16-6.87-2.33v-0.01
							c-6.98-4.18-9.73-12.54-10.11-15.9c-0.48-4.33-4.5-22.66-7.87-31.01c-3.38-8.36-7.34-29.41,3.91-26.52
							c5.73,1.47,9.15,6.01,11.12,10.11c1.92,3.96,2.49,7.51,2.49,7.51S407.11,378.3,410.11,396.08z"/>
						<path d="M390.93,330.03l16.05,2.41c0,0-2.09,7.97-0.96,8.82l-3.97-1.12C400.08,336.04,396.66,331.5,390.93,330.03z"/>
					</g>
					<g>
					</g>
				</g>
			</g>
		</g>
		<line class="st9" x1="433.47" y1="464.06" x2="429.29" y2="444.29"/>
		<line class="st9" x1="570.26" y1="444.59" x2="566.65" y2="462.56"/>
	</g>
	<polygon class="st9" points="429.89,445.32 448.7,471.17 433.03,464.45 	"/>
	<polygon class="st9" points="552.21,469.89 569.83,446.72 566.65,463.09 	"/>
</g>
<g id="Hair">
	<path class="st14" d="M407.97,374.9l2.23-1.48c0,0-2.08-20.2-1.11-30.6l-7.03-2.68l2.29,7.09L407.97,374.9z"/>
	<path class="st15" d="M408.73,331.64c0,0,2.44-10.31,5.25-14.81s7.31-35.68,7.31-35.68s1.05-7.68,4.1-8.28v-1.53
		c0,0,26.07,4.6,31.32,4.83c0,0,16.97,10.43,43.29,11.95l29.07-5.08c0,0,10.37,1.94,13.7,0.49s9.03-3.91,9.03-3.91l25.45-7.55
		c0,0,3.98,7.5,4.3,11.84c0.32,4.34,3.38,24.7,6.7,34.88c0,0,0.92,4.17,1.82,12.63l13.89-1.59c0,0-2.52-20.46-2.42-28.18
		c0.1-7.71-3.6-33.55-3.6-33.55H603l6.81-21.95c0,0-9.04-23.25-11.38-27.43c-4.7-8.36-27.43-21.86-37.71-27.64
		c-10.29-5.79-26-8.36-60.71-8.36s-50.29,17.46-63.14,25.5l12.43-20.79c0,0-27.66,18.75-35.04,29.36
		c-7.38,10.61-4.85,27.32-5.29,46.21c0,0-8.88,13.67-11.99,66.83L408.73,331.64z"/>
	<path class="st14" d="M592.41,373.95l-2.23-1.48c0,0,2.08-20.2,1.11-30.6l6.65-1.24l-1.91,5.65L592.41,373.95z"/>
	<path class="st16" d="M408.29,331.35l-6.37-0.77c0,0,7.43-31.9,8.14-36.82c3.6-24.91,6.92-22.3,6.66-25.03
		c-0.4-4.23,0-20.46,1.13-23.19s3.22-11.44,4.98-13.54c8.73-10.41,35.04-30.87,35.04-30.87s-10.16,13.82-9.61,17.04
		c0.55,3.21,11.79-15.02,37.73-21c10.46-2.41,42.86-4.6,46.29-4.66c4.31-0.08-27.05,11.29-23.14,10.61
		c27.21-4.76,69.11,0.32,51.27,1.93c0,0,19.92,12.27,23.52,17.84s20.67,40.12,20.67,40.12l-25.33-4.12l13.11,10.26l2.86,14.81
		c0,0,0.32,9.86,1.39,14.57c0.66,2.91-0.14,32.14-0.14,32.14l-6.39,0.73l-10.23-42.47l-157.55,3.46L408.29,331.35z"/>
</g>
<g id="Hair_light">
	<path class="st17" d="M424.91,271.89c0,0-5.41-13.97-3.05-22.75l6.88,11.38c0,0,5.71-23.96,21.6-31.95c0,0-7.11,19.12-0.76,26.49
		c0,0,24.35-34.9,65.17-34.26c0,0-38.73,21.48-2.25,41.16c0,0,13.92-24.15,43.4-22.25c0,0,31.06,6.14,47.4,22.25
		c0,0-21.8-3.28-31.01-1.94c0,0,12.52,8.65,18.04,8.58c0,0-37.07,10.06-41.75,12.25c-4.68,2.2-8.93,4.18-19.5,2.2l-28.84,5.07
		c0,0-32.73-3.07-43.45-12.03L424.91,271.89z"/>
</g>
<g id="Hair_lines">
	<g>
		<g>
			<g>
				<path d="M456.71,276.18c-0.08,0.12-1.52-0.7-3.53-2.78c-1-1.04-2.14-2.4-3.18-4.16c-1.03-1.76-1.96-3.95-2.32-6.51
					c-0.16-1.29-0.21-2.62-0.04-4.04c0.21-1.43,0.69-2.79,1.26-4.15c1.18-2.68,2.75-5.32,4.52-7.94c3.55-5.25,7.88-10.49,12.6-15.53
					c2.37-2.51,4.83-4.97,7.42-7.28c1.29-1.16,2.62-2.28,4.01-3.33c0.7-0.53,1.41-1.03,2.15-1.51c0.76-0.49,1.53-0.88,2.29-1.27
					c6.07-3.18,12.52-4.85,18.32-5.55c5.82-0.73,11.02-0.64,15.13-0.44c4.12,0.21,7.17,0.54,8.83,0.7
					c2.02,0.22,6.15,0.67,11.69,1.28c2.76,0.27,5.87,0.56,9.22,0.61c3.34,0.04,6.95-0.15,10.48-1.18l0.73,2.24
					c-8.18,2.84-17.2,6.12-25.94,9.77c-1.09,0.45-2.18,0.92-3.25,1.4c-1.08,0.47-2.14,0.96-3.19,1.47c-2.09,1-4.17,2.07-5.89,3.31
					c-0.84,0.57-1.6,1.41-2.32,2.22c-0.71,0.82-1.38,1.69-2,2.56c-1.25,1.75-2.32,3.58-3.22,5.4c-1.78,3.64-2.89,7.39-2.73,10.72
					c0.08,1.65,0.49,3.18,1.21,4.41c0.71,1.19,1.75,2.28,2.52,3.3c3.24,4.05,4.85,6.75,4.62,6.89c-0.09,0.05-0.56-0.55-1.47-1.63
					c-0.91-1.08-2.25-2.64-3.96-4.57c-0.43-0.48-0.88-0.99-1.35-1.51c-0.45-0.51-1.02-1.11-1.44-1.82c-0.9-1.38-1.43-3.13-1.58-4.97
					c-0.29-3.71,0.81-7.71,2.59-11.57c0.9-1.94,1.99-3.86,3.26-5.72c0.64-0.93,1.32-1.85,2.07-2.74c0.76-0.89,1.52-1.77,2.56-2.53
					c1.98-1.48,4.06-2.56,6.2-3.62c1.06-0.53,2.14-1.05,3.23-1.53c1.08-0.5,2.18-0.99,3.27-1.46c8.79-3.78,17.8-7.12,26.02-10.02
					l0.73,2.24c-3.9,1.16-7.73,1.36-11.2,1.33c-3.48-0.03-6.64-0.33-9.43-0.6c-5.54-0.6-9.68-1.05-11.7-1.27
					c-1.64-0.16-4.67-0.48-8.7-0.69c-4.03-0.2-9.1-0.3-14.71,0.39c-5.61,0.66-11.76,2.24-17.57,5.23c-0.73,0.37-1.46,0.74-2.12,1.16
					c-0.68,0.43-1.35,0.9-2.01,1.39c-1.33,0.99-2.62,2.07-3.89,3.19c-2.54,2.23-4.99,4.63-7.35,7.08
					c-4.7,4.91-9.05,10.04-12.62,15.1c-1.78,2.53-3.36,5.06-4.53,7.57c-0.57,1.25-1.04,2.51-1.25,3.71
					c-0.18,1.22-0.19,2.47-0.08,3.64c0.24,2.35,1.01,4.42,1.91,6.13c0.9,1.72,1.91,3.09,2.79,4.18
					C455.56,275.03,456.81,276.05,456.71,276.18z"/>
			</g>
		</g>
	</g>
	<g>
		<g>
			<g>
				<path d="M455.07,243.38c-0.12,0.02-0.34-1.28,0.19-3.36c0.48-2.09,1.6-4.9,3.2-8.04c1.6-3.15,3.67-6.64,5.98-10.2
					c1.15-1.78,2.37-3.58,3.61-5.36l0.94-1.33l0.35-0.49l0.03-0.05l0.09-0.15l-0.2,0.13c-1.11,0.61-2.2,1.2-3.25,1.78
					c-2.27,1.23-4.39,2.39-6.28,3.41c-3.78,2.05-6.62,3.59-7.84,4.24c-0.76,0.41-2.17,1.17-4.05,2.19c-0.94,0.51-2,1.08-3.15,1.7
					c-0.56,0.32-1.11,0.66-1.7,1c-0.29,0.17-0.59,0.35-0.89,0.53c-0.28,0.21-0.57,0.43-0.86,0.64c-2.34,1.7-4.64,4.04-6.51,6.87
					c-1.88,2.82-3.34,6.09-4.34,9.45c-1.01,3.35-1.6,6.81-1.62,9.97c-0.02,1.55,0.36,3.02,0.71,4.45c0.37,1.42,0.75,2.76,1.13,3.99
					c1.51,4.9,2.62,8.08,2.39,8.18c-0.22,0.09-1.67-2.96-3.45-7.82c-0.45-1.22-0.9-2.55-1.33-3.99c-0.41-1.43-0.88-3.03-0.91-4.77
					c-0.07-3.39,0.46-6.96,1.46-10.48c0.99-3.51,2.48-6.97,4.44-9.98c1.95-3.02,4.39-5.56,6.91-7.4c0.31-0.24,0.62-0.47,0.92-0.7
					c0.32-0.2,0.64-0.39,0.96-0.58c0.63-0.37,1.24-0.75,1.82-1.08c1.15-0.62,2.21-1.2,3.14-1.7c1.87-1.01,3.28-1.77,4.04-2.19
					c2.84-1.53,13.34-7.18,24.96-13.43c-1.34,1.74-2.75,3.54-3.99,5.21c-0.83,1.13-1.66,2.26-2.49,3.39
					c-1.26,1.75-2.49,3.51-3.67,5.25c-2.36,3.48-4.5,6.88-6.2,9.91c-1.7,3.03-2.95,5.7-3.61,7.65
					C455.28,242.17,455.24,243.38,455.07,243.38z"/>
			</g>
		</g>
	</g>
	<g>
		<g>
			<g>
				<path d="M448.25,218.39c-0.04,0.02-0.18-0.55,0.06-1.48c0.25-0.92,0.75-2.19,1.49-3.69c1.49-2.99,3.83-6.92,6.58-11.07
					l0.73,0.66c-10.01,8.43-22.15,18.69-24.62,20.84c-1.07,0.95-4.08,3.43-7.7,6.81c-0.23,0.21-0.45,0.43-0.63,0.63l-0.29,0.31
					l-0.23,0.37c-0.3,0.53-0.58,1.14-0.85,1.75c-0.54,1.24-1.04,2.56-1.55,3.92c-0.5,1.35-1,2.75-1.49,4.15l-0.73,2.11l-0.36,1.06
					l-0.18,0.53l-0.09,0.26c-0.04,0.14-0.02,0.02-0.03,0.13c-0.33,5.94-0.66,11.71-0.95,15.98c-0.29,4.28-0.54,7.06-0.69,7.06
					s-0.13-2.81-0.01-7.09c0.12-4.28,0.35-10.05,0.6-16c-0.02-0.08,0.05-0.38,0.08-0.41l0.09-0.27l0.17-0.53l0.35-1.07l0.71-2.13
					c0.48-1.42,0.96-2.82,1.46-4.19c0.5-1.37,1-2.71,1.55-3.99c0.28-0.64,0.55-1.26,0.9-1.88l0.28-0.46l0.36-0.4
					c0.24-0.28,0.48-0.51,0.71-0.72c3.68-3.46,6.66-5.91,7.74-6.87c2.47-2.15,14.62-12.42,24.78-20.69l2.67-2.17l-1.95,2.84
					c-2.8,4.07-5.23,7.93-6.84,10.81c-0.8,1.44-1.37,2.65-1.71,3.5C448.32,217.88,448.34,218.38,448.25,218.39z"/>
			</g>
		</g>
	</g>
	<g>
		<g>
			<g>
				<path d="M559.75,263.88c-0.06-0.12,1.14-0.84,3.41-1.85c2.32-0.87,5.76-1.91,10.05-2.4c4.28-0.5,9.35-0.59,14.81-0.19
					c2.73,0.22,5.56,0.51,8.43,0.96c0.72,0.1,1.44,0.22,2.17,0.35c0.66,0.12,1.33,0.24,2,0.35l0.3,0.05l0.13,0.02
					c0.03,0,0.12,0.03,0.04-0.02c-0.09-0.06-0.17-0.13-0.23-0.19l-0.1-0.09l-0.5-0.55c-1.03-1.15-2.03-2.32-3.01-3.49
					c-1.96-2.33-3.89-4.65-5.83-6.88c-3.86-4.46-7.74-8.58-11.56-11.88c-3.8-3.3-7.57-5.73-10.81-6.87
					c-1.66-0.58-3.15-1.05-4.4-1.34c-1.24-0.34-2.25-0.52-2.95-0.66c-1.39-0.3-3.99-0.68-7.49-0.86c-3.5-0.16-7.92,0.02-12.84,0.77
					c-4.92,0.78-10.32,2.14-15.83,4c-2.61,0.92-5.02,2.43-7.06,4.45c-2.05,2-3.73,4.44-5.08,7.02c-1.35,2.59-2.39,5.34-3.17,8.08
					c-0.21,0.68-0.37,1.38-0.53,2.06l-0.22,1.01c-0.01,0.04-0.02,0.07-0.02,0.11l0.07,0.1c0.85,1.14,1.69,2.26,2.52,3.36
					c3.28,4.42,6.31,8.49,8.89,11.97c5.13,6.98,8.38,11.6,8.14,11.79c-0.24,0.19-3.86-4.16-9.26-10.93
					c-2.68-3.4-5.83-7.39-9.23-11.71c-0.85-1.08-1.71-2.19-2.59-3.31l-0.58-0.75c0.01-0.31,0.09-0.63,0.14-0.94
					c0.07-0.4,0.14-0.74,0.22-1.11c0.16-0.72,0.32-1.45,0.52-2.16c0.77-2.88,1.81-5.76,3.21-8.53c1.4-2.76,3.17-5.4,5.4-7.63
					c2.22-2.24,4.96-4,7.89-5.04c5.59-1.93,11.13-3.36,16.2-4.18c5.07-0.8,9.66-1,13.32-0.83c3.66,0.18,6.38,0.59,7.84,0.9
					c0.74,0.14,1.79,0.33,3.1,0.69c1.32,0.31,2.87,0.8,4.63,1.42c3.63,1.3,7.62,3.91,11.54,7.34c3.94,3.42,7.87,7.65,11.74,12.18
					c1.94,2.27,3.86,4.62,5.79,6.96c0.97,1.17,1.94,2.34,2.93,3.47l1.03,1.15l0.79,0.8l1.1,0.92l2.18,1.82l1.99,1.61
					c-0.48-0.09-1.3-0.31-2.02-0.49l-2.19-0.54c-1.46-0.36-2.86-0.7-4.17-0.95l-1.25-0.25l-1.07-0.2c-0.71-0.14-1.42-0.26-2.12-0.37
					c-2.82-0.49-5.59-0.83-8.27-1.1c-5.35-0.51-10.32-0.56-14.52-0.24c-4.21,0.31-7.59,1.13-9.93,1.76
					C561.13,263.55,559.83,264.03,559.75,263.88z"/>
			</g>
		</g>
	</g>
	<g>
		<g>
			<g>
				<path d="M591.65,268.6c-0.82,0.91-5.04-2.9-5.58-3.39c-0.54-0.49-4.78-4.28-3.96-5.19c0.82-0.91,5.04,2.9,5.58,3.39
					C588.23,263.9,592.46,267.69,591.65,268.6z"/>
			</g>
		</g>
	</g>
</g>
<g id="Face_shadow">
	<polygon class="st18" points="408.64,329.76 460.35,329.82 484,338.5 491.96,348.14 508.18,348.14 517.86,338.18 538.43,329.76 
		589.35,329.82 575.93,293.71 421.43,292.4 	"/>
	<path class="st18" d="M409.08,342.82c0,0,5.83,57.9,31.53,78.07c13.63,10.7,37.87-10.31,42.78-3l16.61,6.32
		c0,0,13.11-2.68,16.24-6.32c5.42-6.32,34.79,16.16,49.26,1.71c15.02-14.99,21.89-55.64,24.14-76.84l-4.02,13.51l-3.61-0.08
		c0,0-1.21,15.51-9.97,22.66c-8.76,7.15-40.82,6.52-40.82,6.52s-20.22-2.76-19.47-31.12c0,0-3.41,0.52-4.29-0.3
		c0,0-5.81-1.29-14.43-0.01c0,0-3.88,0.94-4.88,0.31c0,0,0.88,19.62-9.32,27.01s-41.87,4.26-50.63-2.25
		c-8.76-6.51-9.49-18.26-10.14-22.02l-3.92-0.42C414.14,356.58,410.77,344.87,409.08,342.82z"/>
	<path class="st19" d="M477.34,408.37c0,0-3.19,6.18,1.64,7.68c4.83,1.5,16.18,8.39,19.98,8.11c3.8-0.28,13.42-3.59,18.07-6.76
		l3.11-0.72c0,0,6.36-2.02,2.34-8.3H477.34z"/>
	<path class="st11" d="M476.93,409.43c0,0,5.14-1.25,7.82,0.14c2.68,1.39,7.93,6.32,14.79,6.32s12.21-3.21,14.89-4.71
		c2.68-1.5,8.87-1.25,8.87-1.25s-0.4-4.86-4.37-5.5h-5.04l-4.46-21.26c0,0-2.82-10.34-9.18-10.41c-6.64-0.08-9.39,10.09-9.39,10.09
		l-4.5,21.16c0,0-4.88,0.27-5.84,0.7C479.55,405.13,477.15,408.04,476.93,409.43z"/>
	<path class="st9" d="M410.06,325.45c0,0,12.08-29.4,20.37-30.03c12.22-0.93,18.94,2.27,27.39,4.28
		c14.18,3.38,42.63,7.74,44.25,7.72c18.96-0.16,26.61-1.98,39.14-3.86c9.92-1.48,12.86-3.87,31.29-5.84
		c4.83-0.52,11.16,23.2,17.57,29.79c0,0-8.74-33.42-8.05-45.16l-4.76-10.46l-28.68,8.96c0,0-5.19,5.36-19.02,2.26
		c0,0-24.61,5.63-29.55,5.01s-33.3-4.97-42.79-11.88l-31.54-4.36c0,0-4.6,2.16-4.72,8.17C420.57,298.43,410.06,325.45,410.06,325.45
		z"/>
	<path class="st20" d="M487.54,359.87c0,0-2.77,10.92-14.79,17.35c0,0-20.04,5.46-41.57-3.21c0,0-9.73-7.06-13.12-19.99
		c0,0,0.63,15.54,10.52,22.25c9.89,6.71,37.06,8.14,45.44,4.26C482.39,376.64,488.29,368.48,487.54,359.87z"/>
	<path class="st20" d="M512.18,359.87c0,0,3.84,11.35,15.86,17.78c0,0,18.96,4.5,40.5-4.18c0,0,9.73-6.52,13.12-19.46
		c0,0-0.63,15.54-10.52,22.25c-9.89,6.71-37.06,8.14-45.44,4.26C517.32,376.64,511.42,368.48,512.18,359.87z"/>
	<path class="st9" d="M408.76,331.99c0,0,8.92,0.16,13.34-0.34c4.42-0.51,25.31-2.1,39.54,0.99c14.22,3.09,22,6.52,30.33,18.58
		c0,0,7.26-2.84,16.55,0.11c0,0,6.48-14.65,28.18-18.42c21.7-3.78,44.97-0.88,44.97-0.88h7.99l-0.56-4.2l-7.43-0.06
		c0,0-25.12-4.71-45.53,0.06c-20.41,4.77-29.25,18.55-29.25,18.55s-6.01-2.17-13.84,0c0,0-9.09-15.58-31.48-18.68
		c-21.64-2.68-42.59,0-42.59,0h-9.32L408.76,331.99z"/>
	<path class="st9" d="M476.77,443.25c0,0,0.26,4,9.06,6.73h28.34c0,0,8.34-2.51,8.34-6.87l-12.74-2.84l-8.68,1.2l-11.52-1.2
		L476.77,443.25z"/>
</g>
<g id="Eyes">
	<path class="st21" d="M518.86,358.21c0,0,4.27,5.58,7.63,7.07c0,0,18.56,1.64,32.9-3.18c0,0,2.85-0.9,6.11-8.47l-9.36-4.63
		l-30.36,2.55L518.86,358.21z"/>
	<path class="st22" d="M518.86,358.21l2-8.04l4.02-4.16c0,0,21.05-3.73,28.68-3.19l11.95,10.82l-9.36-4.63l-30.36,2.55
		L518.86,358.21z"/>
	<path class="st22" d="M481.14,358.21l-2-8.04l-4.02-4.16c0,0-21.05-3.73-28.68-3.19l-11.95,10.82l9.36-4.63l30.36,2.55
		L481.14,358.21z"/>
	<path class="st21" d="M481.14,358.21c0,0-4.27,5.58-7.63,7.07c0,0-18.56,1.64-32.9-3.18c0,0-2.85-0.9-6.11-8.47l9.36-4.63
		l30.36,2.55L481.14,358.21z"/>
	<g>
		<g>
			<path class="st23" d="M457.88,352.52c6.01-0.24,11.07,4.44,11.31,10.45c0.03,0.76,0.03,1.15-0.09,1.87l-11.11,0.12l-10.56-1.36
				C447.33,357.69,451.95,352.75,457.88,352.52z"/>
			<g>
				<g>
					<path d="M457.88,352.52c0.02,0.18-1.35,0.2-3.24,0.99c-1.88,0.75-4.22,2.48-5.53,5.12c-0.66,1.3-1.03,2.78-1.09,4.25
						c-0.01,0.26,0,0.19,0,0.21c0,0.02,0.02,0.01,0.03,0.01c0.34,0.04,0.67,0.08,1.01,0.12c0.75,0.09,1.48,0.18,2.19,0.27
						c2.83,0.36,5.27,0.67,6.78,0.86c0.56-0.01,0.98-0.01,1.25-0.01c0.82-0.01,3.03-0.03,5.88-0.05c0.71,0,1.47-0.01,2.25-0.02
						c0.38,0,0.77,0,1.17-0.01c0.01,0,0.02,0.01,0.02,0c0-0.04,0,0.08,0.02-0.19c0.08-1.56-0.16-3.22-0.78-4.71
						c-0.6-1.5-1.56-2.82-2.67-3.81c-1.1-1-2.33-1.68-3.43-2.11C459.51,352.58,457.88,352.72,457.88,352.52
						c-0.03-0.1,1.64-0.49,4.08,0.26c1.2,0.37,2.56,1.04,3.8,2.08c1.25,1.03,2.35,2.45,3.05,4.09c0.72,1.63,1.02,3.46,0.95,5.2
						c0,0.14-0.07,0.67-0.13,1.03l-0.02,0.15l-0.01,0.07c-0.02,0-0.05,0-0.07,0l-0.29,0.01l-0.59,0.01
						c-0.41,0.01-0.82,0.01-1.22,0.02c-0.78,0.01-1.54,0.02-2.25,0.03c-2.85,0.03-5.06,0.06-5.88,0.07c-0.29,0-0.74,0.01-1.33,0.01
						c-1.53-0.2-4-0.53-6.86-0.9c-0.71-0.1-1.44-0.19-2.19-0.29c-0.42-0.06-0.84-0.11-1.26-0.17l-0.55-0.07
						c-0.07-0.03-0.23,0.01-0.23-0.07l0.01-0.28l0.03-0.95c0.09-1.63,0.54-3.26,1.3-4.67c1.51-2.86,4.15-4.64,6.21-5.27
						C456.49,352.22,457.89,352.43,457.88,352.52z"/>
				</g>
			</g>
		</g>
	</g>
	<g>
		<g>
			<g>
				<path d="M481.14,358.21c-0.21,0.22-1.38-0.58-3.04-1.94c-0.83-0.68-1.79-1.5-2.81-2.4c-0.48-0.43-0.98-0.87-1.49-1.32
					c-0.02-0.02-0.05-0.03-0.09-0.02c-0.01,0,0,0-0.04,0l-0.14-0.01l-0.27-0.02c-0.37-0.03-0.73-0.06-1.11-0.09
					c-5.93-0.52-12.2-1.08-13.63-1.21c-1.43-0.12-7.71-0.69-13.61-1.08l-0.55-0.04l-0.25-0.02l-0.05-0.01l-0.04,0.01l-0.23,0.1
					l-0.5,0.23c-0.66,0.3-1.31,0.59-1.93,0.86c-1.25,0.55-2.41,1.04-3.4,1.44c-2,0.8-3.35,1.21-3.49,0.94
					c-0.13-0.27,1.02-1.1,2.86-2.2c0.92-0.55,2.02-1.17,3.21-1.83c0.6-0.32,1.22-0.66,1.86-1.01c0.4-0.21,0.8-0.42,1.2-0.63
					c0.46,0.01,0.91,0.02,1.37,0.02c6,0.09,12.3,0.67,13.74,0.79c1.44,0.12,7.74,0.7,13.65,1.5c0.37,0.05,0.74,0.1,1.1,0.15
					l0.65,0.09l0.5,0.07c0.13,0.09,0.24,0.23,0.36,0.34c0.53,0.55,1.06,1.09,1.56,1.6c0.94,0.98,1.8,1.91,2.52,2.71
					C480.5,356.86,481.35,357.99,481.14,358.21z"/>
			</g>
		</g>
	</g>
	<g>
		<g>
			<g>
				<path d="M435.61,348.02c-0.14-0.21,4.09-3.29,9.32-5.36l0.5-0.18l0.25-0.09l0.32-0.1c0.19-0.02,0.25-0.01,0.34-0.01l0.26,0
					l0.52,0c0.7-0.01,1.39-0.01,2.06,0.02c1.35,0.03,2.65,0.11,3.81,0.18c2.32,0.17,4.11,0.36,4.78,0.42
					c1.33,0.13,7.15,0.81,12.59,1.77c1.36,0.24,2.7,0.48,3.94,0.73l0.46,0.09l0.23,0.05c0.12,0.03,0.26,0.03,0.36,0.09
					c0.23,0.25,0.46,0.5,0.68,0.75c0.38,0.43,0.74,0.83,1.07,1.2c1.32,1.49,2.13,2.5,2.02,2.6c-0.11,0.11-1.09-0.75-2.53-2.11
					c-0.36-0.35-0.75-0.72-1.16-1.12c-0.18-0.17-0.36-0.35-0.54-0.52c-0.25-0.04-0.5-0.08-0.76-0.12c-1.25-0.19-2.59-0.39-3.94-0.59
					c-5.44-0.81-11.23-1.49-12.55-1.62c-0.66-0.06-2.44-0.25-4.74-0.44c-1.15-0.08-2.43-0.18-3.76-0.22
					c-0.67-0.04-1.35-0.05-2.03-0.06l-0.95-0.02l-0.41,0.13l-0.48,0.16C440.19,345.51,435.79,348.32,435.61,348.02z"/>
			</g>
		</g>
	</g>
	<g>
		<g>
			<g>
				<path d="M440.61,362.11c0.05-0.14,0.96,0.03,2.32,0.37c1.37,0.31,3.21,0.74,5.12,1.06c3.83,0.7,7.95,1.05,8.89,1.13
					c0.94,0.08,5.06,0.36,8.97,0.39c3.91,0.08,7.57-0.08,7.6,0.22c0.03,0.31-3.65,0.77-7.6,0.84c-3.94,0.12-8.12-0.17-9.07-0.25
					c-0.95-0.08-5.13-0.43-9-1.29c-1.93-0.41-3.78-0.95-5.12-1.43C441.4,362.64,440.56,362.25,440.61,362.11z"/>
			</g>
		</g>
	</g>
	<g>
		<path d="M451.66,362.63c0-3.57,2.89-6.46,6.46-6.46c3.57,0,6.46,2.89,6.46,6.46c0,0.91-0.19,1.77-0.53,2.55
			c-3.52-0.01-7.68-0.15-12.06-0.59C451.8,363.97,451.66,363.32,451.66,362.63z"/>
	</g>
	<path class="st21" d="M518.86,358.21c0,0,4.27,5.58,7.63,7.07c0,0,18.56,1.64,32.9-3.18c0,0,2.85-0.9,6.11-8.47l-9.36-4.63
		l-30.36,2.55L518.86,358.21z"/>
	<g>
		<g>
			<path class="st23" d="M542.12,352.52c-6.01-0.24-11.07,4.44-11.31,10.45c-0.03,0.76-0.03,1.15,0.09,1.87l11.11,0.12l10.56-1.36
				C552.67,357.69,548.05,352.75,542.12,352.52z"/>
			<g>
				<g>
					<path d="M542.12,352.52c-0.01-0.09,1.39-0.3,3.47,0.37c2.05,0.63,4.7,2.41,6.21,5.27c0.76,1.41,1.21,3.04,1.3,4.67l0.03,0.95
						l0.01,0.28c0,0.09-0.16,0.05-0.23,0.07l-0.55,0.07c-0.42,0.06-0.84,0.11-1.26,0.17c-0.75,0.1-1.48,0.2-2.19,0.29
						c-2.86,0.38-5.34,0.7-6.86,0.9c-0.6-0.01-1.05-0.01-1.33-0.01c-0.82-0.01-3.03-0.04-5.88-0.07c-0.71-0.01-1.47-0.02-2.25-0.03
						c-0.4-0.01-0.81-0.01-1.22-0.02l-0.59-0.01l-0.29-0.01c-0.02,0-0.05,0-0.07,0l-0.01-0.07l-0.02-0.15
						c-0.06-0.36-0.13-0.88-0.13-1.03c-0.07-1.74,0.23-3.57,0.95-5.2c0.7-1.64,1.8-3.06,3.05-4.09c1.24-1.04,2.6-1.71,3.8-2.08
						C540.48,352.03,542.15,352.42,542.12,352.52c0.01,0.2-1.63,0.06-3.86,0.92c-1.1,0.42-2.33,1.11-3.43,2.11
						c-1.11,0.99-2.07,2.31-2.67,3.81c-0.62,1.49-0.86,3.15-0.78,4.71c0.02,0.27,0.02,0.15,0.02,0.19c0,0.01,0.02,0,0.02,0
						c0.39,0,0.78,0,1.17,0.01c0.78,0.01,1.54,0.01,2.25,0.02c2.85,0.03,5.06,0.05,5.88,0.05c0.27,0,0.69,0.01,1.25,0.01
						c1.51-0.19,3.96-0.5,6.78-0.86c0.71-0.09,1.45-0.18,2.19-0.27c0.33-0.04,0.67-0.08,1.01-0.12c0.01,0,0.03,0.01,0.03-0.01
						c0-0.03,0,0.04,0-0.21c-0.06-1.47-0.43-2.95-1.09-4.25c-1.31-2.64-3.65-4.37-5.53-5.12
						C543.47,352.72,542.1,352.7,542.12,352.52z"/>
				</g>
			</g>
		</g>
	</g>
	<g>
		<g>
			<g>
				<path d="M518.86,358.21c-0.21-0.22,0.64-1.35,2.07-2.96c0.71-0.8,1.57-1.72,2.52-2.71c0.5-0.52,1.02-1.06,1.56-1.6
					c0.12-0.11,0.23-0.25,0.36-0.34l0.5-0.07l0.65-0.09c0.37-0.05,0.73-0.1,1.1-0.15c5.91-0.81,12.21-1.38,13.65-1.5
					c1.44-0.12,7.74-0.7,13.74-0.79c0.46-0.01,0.92-0.02,1.37-0.02c0.4,0.21,0.81,0.42,1.2,0.63c0.64,0.34,1.26,0.68,1.86,1.01
					c1.19,0.66,2.29,1.28,3.21,1.83c1.84,1.1,3,1.93,2.86,2.2c-0.13,0.27-1.49-0.14-3.49-0.94c-1-0.4-2.16-0.89-3.4-1.44
					c-0.62-0.28-1.27-0.57-1.93-0.86l-0.5-0.23l-0.23-0.1l-0.04-0.01l-0.05,0.01l-0.25,0.02l-0.55,0.04
					c-5.9,0.39-12.18,0.96-13.61,1.08c-1.43,0.13-7.7,0.68-13.63,1.21c-0.37,0.03-0.74,0.06-1.11,0.09l-0.27,0.02l-0.14,0.01
					c-0.03,0-0.02,0-0.04,0c-0.03-0.01-0.06,0-0.09,0.02c-0.51,0.45-1.01,0.89-1.49,1.32c-1.02,0.9-1.98,1.72-2.81,2.4
					C520.24,357.63,519.07,358.43,518.86,358.21z"/>
			</g>
		</g>
	</g>
	<g>
		<g>
			<g>
				<path d="M564.39,348.02c-0.17,0.3-4.57-2.51-9.68-4.36l-0.48-0.16l-0.41-0.12l-0.95,0.02c-0.68,0.01-1.36,0.02-2.03,0.06
					c-1.33,0.05-2.61,0.15-3.76,0.22c-2.3,0.18-4.08,0.37-4.74,0.44c-1.32,0.13-7.11,0.81-12.55,1.62c-1.36,0.2-2.7,0.4-3.94,0.59
					c-0.26,0.04-0.51,0.08-0.76,0.12c-0.19,0.18-0.37,0.35-0.54,0.52c-0.41,0.4-0.8,0.77-1.16,1.12c-1.44,1.37-2.42,2.22-2.53,2.11
					s0.71-1.12,2.02-2.6c0.33-0.37,0.69-0.77,1.07-1.2c0.22-0.24,0.45-0.49,0.68-0.75c0.11-0.06,0.25-0.06,0.36-0.09l0.23-0.05
					l0.46-0.09c1.24-0.25,2.58-0.49,3.94-0.73c5.44-0.97,11.26-1.64,12.59-1.77c0.67-0.06,2.46-0.25,4.78-0.42
					c1.16-0.07,2.45-0.16,3.81-0.18c0.68-0.03,1.37-0.03,2.06-0.02l0.52,0l0.26,0c0.09,0,0.15-0.01,0.34,0.01l0.32,0.1l0.25,0.09
					l0.5,0.18C560.3,344.72,564.53,347.81,564.39,348.02z"/>
			</g>
		</g>
	</g>
	<g>
		<g>
			<g>
				<path d="M559.39,362.11c0.05,0.14-0.79,0.53-2.12,1.05c-1.34,0.48-3.18,1.03-5.12,1.43c-3.87,0.86-8.05,1.21-9,1.29
					c-0.95,0.08-5.13,0.37-9.07,0.25c-3.94-0.07-7.63-0.53-7.6-0.84c0.03-0.3,3.7-0.14,7.6-0.22c3.91-0.03,8.03-0.31,8.97-0.39
					c0.94-0.08,5.06-0.43,8.89-1.13c1.92-0.33,3.76-0.75,5.12-1.06C558.42,362.14,559.33,361.96,559.39,362.11z"/>
			</g>
		</g>
	</g>
	<g>
		<path d="M548.34,362.63c0-3.57-2.89-6.46-6.46-6.46c-3.57,0-6.46,2.89-6.46,6.46c0,0.91,0.19,1.77,0.53,2.55
			c3.52-0.01,7.68-0.15,12.06-0.59C548.2,363.97,548.34,363.32,548.34,362.63z"/>
	</g>
</g>
<g id="Glasses">
	<path class="st24" d="M418.06,357.01c0,0,2.68,17.47,9.19,21.19c6.51,3.72,22.18,11.53,47.93,5.04c0,0,12.5-3.02,13.07-28.97
		c0,0-1.09-12.34-26.03-16.3c-24.94-3.96-41.99,0.84-41.99,0.84S414.8,343.05,418.06,357.01z"/>
	<path class="st24" d="M581.94,356.66c0,0-2.68,17.47-9.19,21.19c-6.51,3.72-22.18,11.53-47.93,5.04c0,0-12.5-3.02-13.07-28.97
		c0,0,1.09-12.34,26.03-16.3s41.99,0.84,41.99,0.84S585.19,342.71,581.94,356.66z"/>
</g>
<g id="Light">
	<path class="st25" d="M683.38,774.12c0,0-5.56-86.45,38.05-129.19c10.71-10.5,4.19-47.55,4.82-84.54
		C726.86,524.48,738.8,500,738.8,500s0.98-4.99-18.8-15.53s-22.94-9.18-36.61-16.33c-13.67-7.14-28.13-15.31-43.58-17.78
		s-10.95-5.04-15.77-4.72c-4.82,0.32-9.7-1.61-13.21,2.25c-3.51,3.86-26.65,18-31.79,21.21c-5.14,3.21-39.86,24.98-47.41,30.97
		s-16.01,15.31-29.78,15.79c-13.77,0.48-23.31-6.91-24.49-6.91c-1.18,0-15.96-15.47-22.71-19.15c-6.75-3.68-21.54-14.25-29.57-16.68
		c-8.04-2.42-35.68-21.07-40.18-25.25c-4.5-4.18-12.86-3.62-16.71-2.45c-3.86,1.17-9.59,4.8-15.51,6.66
		c-5.93,1.86-54.24,25.22-54.24,25.22l-18.67,7.3c0,0-5.92-0.22-17.16,15.03c-3.09,4.2,6.15,15.32,11.19,51.21
		c4.88,34.81-3.53,87.22,3.75,94.07c35.52,33.43,39.08,129.19,39.08,129.19l-16.23-235.26c0,0,1.46-7.71,10.89-9
		c9.43-1.29,378.43-0.07,378.43-0.07s9,3.07,9.43,11.64C699.57,550,683.38,774.12,683.38,774.12z"/>
</g>
<g id="Beard">
	<g>
		<path class="st26" d="M589.89,372.13c-1.07,10.93-3.17,21.44-5.53,31.82c-2.36,10.37-4,12.13-7.22,20.21
			c-3.21,8.09-25.1,40.75-28,43.18c-2.89,2.44-5.23,5.95-9,5.79s-2.82-5.79-2.82-5.79s0.2-30.48,0.84-32.57
			c0.64-2.09-38.16-8.32-38.16-8.32s-37.8,6.23-37.16,8.32c0.64,2.09-0.16,32.57-0.16,32.57s0.96,5.63-2.82,5.79
			s-5.96-2.58-8.85-5.01c-2.89-2.44-26.55-38.66-29.77-46.75c-3.21-8.09-3.24-7.05-5.6-17.42c-2.36-10.37-4.54-19.62-5.61-30.55
			l-2.38,1.82c0,0,1.14,24.15,8.8,45.61c7.66,21.46,37.8,57.15,37.8,57.15c21.25,25.69,45.75,21.19,45.75,21.19
			c31.43,1.77,45.58-21.4,45.58-21.4c28.15-33.67,36.5-53.17,40.08-62.25s6.92-40.94,6.92-40.94L589.89,372.13z M528.75,477.04
			c-4.07,1.5-13.61-3.54-17.36-4.82c-3.75-1.29-1.61-8.14-1.61-8.14l1.5-3.96c0,0,0.21-2.32-0.86-2.45
			c-1.07-0.12-5.54-2.27-10.43-2.27s-9.36,2.14-10.43,2.27c-1.07,0.12-0.86,2.45-0.86,2.45l1.5,3.96c0,0,2.14,6.86-1.61,8.14
			c-3.75,1.29-13.29,6.32-17.36,4.82s-3.54-3-3.54-3s1.51-30.73,1.08-33.19c-0.43-2.46,31.21-7.19,31.21-7.19s32.46,4.89,32.04,7.36
			c-0.43,2.46,0.25,33.03,0.25,33.03S532.82,475.54,528.75,477.04z"/>
	</g>
</g>
<g id="Laptop">
	<path class="st8" d="M317.39,781.57c0,0,290.89,28.07,317.25-251.65h51.52c0,0,13.49-0.07,12.98,11.5l-16.29,243.73
		c0,0-1.12,11.94-12,12H327.5C327.5,797.16,318.46,796.91,317.39,781.57z"/>
</g>
<g id="Stroke">
	<g>
		<g>
			<g>
				<path d="M481.17,448.04c0.19-0.24,1.13,0.23,2.62,0.64c0.72,0.19,1.67,0.4,2.52,0.41c0.97-0.01,2.1-0.07,3.23-0.12
					c4.51-0.21,9.38-0.29,10.47-0.21c1.07-0.05,5.95,0.05,10.45,0.25c1.12,0.04,2.24,0.09,3.22,0.09c0.9-0.01,1.78-0.2,2.52-0.41
					c1.49-0.44,2.46-0.89,2.64-0.64c0.18,0.24-0.57,1.11-2.1,1.94c-0.77,0.41-1.75,0.8-2.92,0.95c-1.1,0.13-2.21,0.17-3.36,0.2
					c-4.59,0.11-9.33,0-10.46,0.05c-1.1-0.08-5.86,0.01-10.43-0.08c-1.15-0.03-2.25-0.06-3.36-0.17c-1.23-0.16-2.13-0.54-2.93-0.93
					C481.72,449.19,480.98,448.28,481.17,448.04z"/>
			</g>
		</g>
	</g>
	<g>
		<g>
			<g>
				<path class="st27" d="M510.43,457.66c-0.18,0.6-2.47,0.23-4.88,0.02c-2.41-0.24-4.97-0.3-5.55-0.28
					c-0.58-0.01-3.14,0.03-5.56,0.25c-2.42,0.19-4.67,0.57-4.87,0.01c-0.21-0.6,2.03-1.6,4.55-2.12c2.52-0.54,5.26-0.58,5.88-0.57
					c0.62-0.02,3.36,0.04,5.87,0.6C508.39,456.11,510.61,457.09,510.43,457.66z"/>
			</g>
		</g>
	</g>
	<g>
		<g>
			<g>
				<path d="M472.09,443.59c-0.12-0.59,5.94-2.2,12.5-3.52c1.65-0.32,3.31-0.64,4.98-0.86c0.79-0.11,1.87-0.16,2.61-0.06
					c0.79,0.07,1.54,0.16,2.24,0.25c2.8,0.39,4.89,0.63,5.58,0.6c0.69,0.03,2.78-0.21,5.58-0.6c0.7-0.09,1.45-0.18,2.24-0.25
					c0.74-0.1,1.82-0.06,2.61,0.06c1.67,0.22,3.33,0.53,4.98,0.86c6.57,1.32,12.63,2.93,12.5,3.52c-0.12,0.6-6.31-0.41-12.87-1.42
					c-1.64-0.25-3.31-0.5-4.87-0.67c-0.82-0.07-1.34-0.1-2.13,0c-0.73,0.08-1.46,0.18-2.14,0.28c-2.75,0.42-4.97,0.68-5.9,0.66
					c-0.93,0.03-3.15-0.24-5.9-0.66c-0.69-0.1-1.41-0.2-2.14-0.28c-0.79-0.1-1.3-0.08-2.13,0c-1.56,0.16-3.23,0.42-4.87,0.67
					C478.4,443.18,472.21,444.2,472.09,443.59z"/>
			</g>
		</g>
	</g>
	<g>
		<g>
			<g>
				<path class="st13" d="M493.04,353.96c-0.1-0.3,1.45-0.91,3.18-1.21c1.72-0.33,3.6-0.35,4.02-0.33c0.42-0.01,2.29,0.05,4.01,0.38
					c1.72,0.31,3.28,0.86,3.19,1.17c-0.08,0.29-1.65,0.04-3.34-0.11c-1.68-0.17-3.46-0.23-3.87-0.22c-0.41-0.01-2.18,0.01-3.86,0.18
					C494.68,353.95,493.13,354.24,493.04,353.96z"/>
			</g>
		</g>
	</g>
	<g>
		<g>
			<g>
				<path class="st13" d="M491.71,351.27c-0.07-0.3,1.73-0.84,3.71-1.16c0.98-0.16,2.01-0.28,2.85-0.33
					c0.42-0.03,0.8-0.04,1.09-0.05c0.15,0,0.28,0,0.39-0.01c0.05,0,0.1,0,0.15,0l0.06,0l0.03,0l0.01,0c0,0.06,0.01-0.23,0.01,0.48
					l0,0.12h0h0h0h-0.01l0-0.01v-0.42l0-0.17l0,0l0.01,0c0,0,0.01,0,0.01,0l0.03,0l0.06,0c0.04,0,0.1,0,0.15,0
					c0.11,0,0.25,0,0.4,0.01c0.3,0.01,0.68,0.03,1.1,0.06c0.84,0.06,1.86,0.18,2.84,0.35c1.96,0.33,3.73,0.89,3.66,1.19
					c-0.07,0.29-1.87,0.04-3.8-0.14c-1.93-0.2-3.98-0.27-4.46-0.26c-0.45-0.01-2.51,0.05-4.45,0.24
					C493.6,351.33,491.78,351.56,491.71,351.27z"/>
			</g>
		</g>
	</g>
	<g>
		<g>
			<g>
				<path d="M411.94,405.9c0,0.04-0.27,0.03-0.8-0.02c-0.52-0.08-1.31-0.08-2.29-0.38c-1.98-0.45-4.89-1.63-7.73-4.29
					c-2.79-2.67-5.47-6.74-6.77-12.05c-0.82-5.3-2.13-11.1-3.75-17.48c-0.82-3.18-1.72-6.48-2.8-9.85
					c-0.53-1.69-1.14-3.37-1.81-5.06c-0.7-1.75-1.27-3.57-1.78-5.43c-0.98-3.72-1.73-7.63-1.83-11.75c-0.02-1.03,0-2.07,0.12-3.13
					c0.11-1.05,0.3-2.12,0.67-3.18c0.37-1.05,0.92-2.13,1.84-2.98c0.91-0.86,2.19-1.34,3.4-1.38c1.2-0.04,2.38,0.17,3.41,0.57
					c0.52,0.2,1.09,0.31,1.58,0.59l1.52,0.76c1.94,1.17,3.64,2.73,5.03,4.51c1.4,1.78,2.51,3.77,3.39,5.86
					c0.43,1.05,0.83,2.11,1.16,3.2c0.17,0.54,0.32,1.09,0.46,1.65l0.19,0.84l0.09,0.43c0.03,0.11,0.07,0.42,0.07,0.51
					c0.79,8.83,1.7,17.86,2.75,26.93c1.05,9.08,2.25,18.18,3.96,27.14c0.87,4.49,1.75,8.87,3.47,12.99c0.41,1.05,0.83,2.12,1.22,3.2
					c0.4,1.05,0.74,2.21,1.15,3.17c0.77,2,1.8,4,2.8,5.95c4.14,7.82,8.72,15.25,13.36,22.24c4.66,6.99,9.41,13.54,14.19,19.51
					c4.78,5.97,9.59,11.35,14.45,15.84c4.76,4.53,9.99,7.62,14.9,9.64c4.92,2.02,9.51,3.03,13.35,3.43c1.92,0.2,3.65,0.3,5.16,0.28
					c0.76,0.01,1.46-0.03,2.1-0.06c0.32-0.02,0.63-0.04,0.92-0.07c0.14-0.01,0.28-0.03,0.42-0.04l0.19-0.02l0.17-0.02
					c0.07-0.01,0.14-0.02,0.21-0.01c2.25,0.12,5.27,0.11,9.16-0.29c3.85-0.43,8.51-1.18,13.49-3.05c0.62-0.24,1.25-0.48,1.88-0.73
					c0.64-0.25,1.24-0.58,1.88-0.88c1.29-0.56,2.51-1.33,3.78-2.08c0.66-0.35,1.21-0.85,1.84-1.28c0.59-0.46,1.26-0.85,1.81-1.4
					c0.57-0.52,1.15-1.04,1.73-1.57c0.59-0.52,1.14-1.17,1.72-1.75c4.65-4.76,9.39-10.22,14.22-16.16
					c4.81-5.95,9.66-12.44,14.38-19.38c4.7-6.95,9.37-14.32,13.5-22.15c1.03-1.95,2.01-3.95,2.89-5.96c0.81-1.95,1.49-4.2,2.32-6.32
					c0.83-2.13,1.52-4.16,2.01-6.36c0.51-2.18,0.93-4.42,1.34-6.66c1.68-8.99,2.9-18.07,3.94-27.15c1.05-9.07,1.96-18.1,2.75-26.93
					c0-0.09,0.04-0.4,0.07-0.51l0.09-0.43l0.19-0.84c0.14-0.55,0.29-1.11,0.46-1.65c0.33-1.09,0.73-2.15,1.16-3.2
					c0.88-2.08,1.99-4.08,3.39-5.86c1.39-1.78,3.09-3.34,5.03-4.52l1.52-0.76c0.49-0.28,1.06-0.39,1.58-0.59
					c1.03-0.4,2.21-0.61,3.41-0.57c1.21,0.04,2.49,0.51,3.4,1.37c0.92,0.85,1.47,1.92,1.84,2.97c0.37,1.06,0.56,2.13,0.67,3.18
					c0.12,1.06,0.14,2.1,0.12,3.13c-0.1,4.12-0.85,8.03-1.83,11.76c-0.5,1.86-1.07,3.67-1.77,5.43c-0.67,1.69-1.27,3.37-1.81,5.06
					c-1.08,3.37-1.98,6.67-2.8,9.85c-1.62,6.38-2.94,12.18-3.75,17.48c-1.3,5.31-3.99,9.38-6.77,12.05
					c-2.84,2.66-5.75,3.84-7.73,4.29c-0.98,0.31-1.78,0.31-2.29,0.38c-0.52,0.05-0.79,0.06-0.8,0.02c0-0.04,0.26-0.12,0.76-0.24
					c0.5-0.15,1.27-0.21,2.21-0.58c1.9-0.56,4.64-1.82,7.29-4.45c2.59-2.63,5.09-6.64,6.23-11.71c0.7-5.22,1.95-11.18,3.49-17.58
					c0.78-3.21,1.65-6.54,2.71-9.97c0.52-1.71,1.12-3.45,1.79-5.19c0.65-1.67,1.19-3.44,1.66-5.26c0.92-3.63,1.61-7.46,1.67-11.36
					c0.01-0.97-0.02-1.95-0.13-2.91c-0.1-0.96-0.29-1.91-0.6-2.78c-0.31-0.87-0.76-1.67-1.37-2.23c-0.61-0.56-1.39-0.85-2.27-0.88
					c-0.88-0.02-1.82,0.13-2.75,0.5c-0.46,0.18-0.96,0.27-1.39,0.52l-1.33,0.68c-1.7,1.05-3.2,2.44-4.46,4.07
					c-1.26,1.63-2.29,3.48-3.1,5.44c-0.4,0.98-0.77,1.99-1.07,3.01c-0.16,0.51-0.29,1.03-0.42,1.55l-0.18,0.78l-0.08,0.39
					c-0.03,0.16-0.02,0.13-0.04,0.31c-0.75,8.86-1.61,17.9-2.63,27c-1.01,9.09-2.21,18.28-3.87,27.31
					c-0.41,2.26-0.83,4.52-1.34,6.78c-0.49,2.26-1.26,4.55-2.08,6.64c-0.82,2.11-1.43,4.2-2.34,6.41c-0.92,2.11-1.91,4.15-2.95,6.14
					c-4.18,7.96-8.87,15.38-13.59,22.4c-4.75,7.01-9.62,13.55-14.47,19.56c-4.86,6-9.64,11.51-14.34,16.33
					c-0.6,0.6-1.12,1.23-1.76,1.8c-0.63,0.57-1.25,1.14-1.86,1.7c-0.59,0.59-1.3,1.01-1.94,1.51c-0.67,0.46-1.27,1-1.97,1.37
					c-1.36,0.8-2.66,1.62-4.02,2.22c-0.68,0.31-1.32,0.67-1.99,0.93c-0.67,0.26-1.33,0.52-1.99,0.77
					c-5.24,1.97-10.08,2.75-14.08,3.19c-3.98,0.42-7.27,0.43-9.43,0.31c-0.24,0.03-0.49,0.05-0.75,0.08
					c-0.32,0.02-0.65,0.05-0.99,0.07c-0.69,0.03-1.44,0.07-2.24,0.06c-1.6,0.02-3.42-0.09-5.44-0.3c-4.03-0.42-8.84-1.48-14.01-3.6
					c-5.15-2.12-10.66-5.39-15.61-10.11c-4.97-4.61-9.85-10.08-14.67-16.11c-4.82-6.04-9.6-12.65-14.28-19.7
					c-4.67-7.06-9.26-14.53-13.44-22.48c-1.02-2.01-2.05-4.01-2.9-6.21c-0.46-1.12-0.74-2.14-1.15-3.19
					c-0.38-1.05-0.78-2.09-1.19-3.15c-0.84-2.11-1.59-4.38-2.12-6.63c-0.55-2.25-1-4.51-1.42-6.77c-1.7-9.03-2.87-18.22-3.89-27.31
					c-1.02-9.1-1.88-18.14-2.63-27c-0.01-0.18-0.01-0.15-0.04-0.31l-0.08-0.39l-0.18-0.78c-0.13-0.52-0.26-1.04-0.42-1.55
					c-0.3-1.03-0.67-2.03-1.07-3.01c-0.81-1.96-1.84-3.81-3.1-5.44c-1.26-1.63-2.76-3.03-4.47-4.07l-1.33-0.68
					c-0.43-0.25-0.93-0.34-1.39-0.52c-0.93-0.37-1.87-0.52-2.75-0.5c-0.88,0.03-1.66,0.33-2.27,0.88c-0.61,0.55-1.06,1.35-1.37,2.23
					c-0.31,0.87-0.5,1.82-0.6,2.78c-0.11,0.96-0.15,1.93-0.13,2.91c0.06,3.9,0.76,7.74,1.67,11.36c0.47,1.81,1.01,3.58,1.66,5.26
					c0.67,1.74,1.27,3.48,1.79,5.19c1.06,3.43,1.93,6.76,2.71,9.97c1.54,6.4,2.79,12.36,3.49,17.58c1.14,5.07,3.64,9.08,6.23,11.71
					c2.65,2.63,5.39,3.89,7.29,4.45c0.94,0.36,1.71,0.43,2.21,0.58C411.68,405.78,411.94,405.86,411.94,405.9z"/>
			</g>
		</g>
	</g>
	<g>
		<g>
			<g>
				<path d="M670.61,797.21c0-0.09,0.56-0.14,1.59-0.34c1.03-0.2,2.57-0.61,4.27-1.71c1.69-1.06,3.54-2.88,4.63-5.56
					c0.54-1.35,0.83-2.84,0.81-4.54c0.09-1.74,0.19-3.58,0.3-5.53c0.86-15.62,2.22-38,3.94-65.09c1.77-27.09,3.84-58.88,6.08-93.3
					c1.15-17.21,2.34-35.08,3.57-53.35c0.31-4.57,0.62-9.16,0.93-13.77c0.16-2.31,0.31-4.62,0.47-6.94l0.23-3.48l0.12-1.74
					c0.02-0.29-0.02-0.46-0.03-0.7c-0.01-0.22-0.02-0.45-0.07-0.69c-0.25-1.9-1.11-3.69-2.43-5.09c-1.31-1.42-3.07-2.42-5-2.97
					c-0.97-0.26-1.98-0.44-3.01-0.48l-0.77-0.03l-0.87,0l-1.76,0c-2.35,0-4.71,0.01-7.06,0.01c-150.86,0.13-310.84,0.26-347.3,0.29
					c-2.28,0-5.04,0-8.25,0c-1.61,0-3.32,0-5.15,0c-0.91,0-1.85,0-2.82,0c-0.48,0-0.97,0-1.47,0c-0.22,0-0.55-0.01-0.7,0.01
					l-0.52,0.03c-2.85,0.3-6.18,3.2-7.16,7.02c-0.14,0.47-0.21,0.96-0.28,1.46c-0.03,0.24-0.02,0.46-0.04,0.69
					c0,0.12-0.03,0.21-0.02,0.37l0.03,0.47c0.09,1.27,0.18,2.55,0.27,3.87c0.18,2.62,0.37,5.34,0.57,8.14
					c1.56,22.43,3.51,50.49,5.7,82.12c2.18,31.63,4.61,66.82,7.14,103.52c0.63,9.17,1.27,18.44,1.91,27.77
					c0.32,4.66,0.64,9.34,0.96,14.04l0.24,3.51c0.02,1.07,0.17,1.97,0.43,2.9c0.3,0.91,0.72,1.78,1.25,2.58
					c0.55,0.79,1.21,1.5,1.95,2.12c1.5,1.21,3.35,1.97,5.27,2.15l0.72,0.04c0.23,0.02,0.57,0.01,0.86,0.01l1.77,0l3.55,0.01
					c4.73,0.01,9.47,0.02,14.2,0.02c9.47,0.02,18.93,0.04,28.36,0.05c75.43,0.15,148.58,0.38,202.88,0.72
					c27.15,0.17,49.58,0.37,65.23,0.6c7.82,0.12,13.95,0.24,18.12,0.38S670.61,797.06,670.61,797.21s-2.21,0.3-6.39,0.43
					s-10.3,0.26-18.12,0.38c-15.65,0.23-38.08,0.43-65.23,0.6c-54.29,0.34-127.45,0.57-202.88,0.72
					c-9.43,0.02-18.89,0.04-28.36,0.05c-4.73,0.01-9.47,0.02-14.2,0.02l-3.55,0.01l-1.77,0c-0.31,0-0.56,0.01-0.92-0.01l-1.05-0.05
					c-2.8-0.24-5.5-1.34-7.68-3.1c-1.08-0.89-2.04-1.91-2.84-3.06c-0.78-1.16-1.39-2.43-1.83-3.76c-0.4-1.33-0.62-2.77-0.65-4.06
					l-0.25-3.53c-0.33-4.69-0.67-9.37-1-14.03c-0.66-9.33-1.32-18.59-1.97-27.77c-2.59-36.69-5.08-71.89-7.32-103.51
					c-2.22-31.63-4.19-59.69-5.77-82.12c-0.2-2.8-0.39-5.52-0.57-8.14c-0.09-1.31-0.18-2.6-0.27-3.87l-0.03-0.47
					c-0.01-0.16,0.01-0.39,0.01-0.58c0.02-0.39,0.03-0.8,0.07-1.18c0.1-0.74,0.21-1.47,0.42-2.17c0.75-2.83,2.29-5.25,4.22-7.1
					c0.98-0.91,2.06-1.7,3.24-2.3c1.19-0.59,2.46-1,3.78-1.18c0.33-0.02,0.67-0.04,1-0.07c0.36-0.02,0.53-0.01,0.8-0.01
					c0.5,0,0.99,0,1.47,0c0.97,0,1.91,0,2.82,0c1.83,0,3.54,0,5.15,0c3.21,0,5.97,0,8.25,0c36.46,0.03,196.44,0.17,347.3,0.29
					c2.36,0,4.71,0.01,7.06,0.01l1.76,0l0.89,0l0.99,0.04c1.32,0.06,2.64,0.29,3.93,0.65c2.57,0.74,5.03,2.13,6.9,4.17
					c1.88,2.01,3.13,4.64,3.47,7.36c0.11,0.65,0.12,1.45,0.13,2.09l-0.13,1.74l-0.25,3.48c-0.17,2.32-0.33,4.63-0.5,6.93
					c-0.33,4.61-0.67,9.2-1,13.77c-1.33,18.27-2.63,36.13-3.89,53.34c-2.56,34.41-4.93,66.19-6.94,93.27
					c-2.06,27.08-3.82,49.45-5.15,65.05c-0.17,1.95-0.33,3.79-0.48,5.53c-0.04,1.78-0.43,3.54-1.09,4.98
					c-1.33,2.92-3.46,4.79-5.34,5.81c-1.89,1.05-3.56,1.34-4.65,1.41C671.16,797.38,670.61,797.27,670.61,797.21z"/>
			</g>
		</g>
	</g>
	<g>
		<g>
			<g>
				<path d="M667.52,828.57c0-0.18,1.34-0.25,3.79-0.6c1.21-0.19,2.73-0.46,4.3-1.15c1.58-0.67,3.05-1.99,3.69-4.07
					c0.71-2.06,0.72-4.61,0.66-7.43c-0.03-1.42-0.05-2.9-0.08-4.44c-0.04-1.49-0.15-3.03-0.47-4.52c-0.33-1.48-0.94-2.86-1.99-3.84
					c-1.04-0.98-2.59-1.52-4.28-1.82c-1.7-0.3-3.54-0.38-5.44-0.36c-1.95,0.02-3.94,0.04-5.98,0.06
					c-32.66,0.34-76.65,0.57-122.02,0.72c-90.74,0.3-186.95,0.29-208.88,0.29c-1.3,0.03-2.91,0.02-4.61,0.27
					c-1.7,0.23-3.5,0.74-4.56,1.84c-0.54,0.55-0.97,1.3-1.28,2.32c-0.29,1.03-0.44,2.27-0.52,3.61c-0.04,1.32-0.03,2.88-0.03,4.46
					c0,0.79,0,1.6,0,2.41c0.02,0.79,0,1.56,0.08,2.32c0.1,1.52,0.36,3.04,0.92,4.17c0.25,0.6,0.64,1.01,1.05,1.43
					c0.48,0.36,0.97,0.73,1.68,0.96c1.35,0.53,3.11,0.77,4.96,0.87c1.82,0.09,3.88,0.06,5.96,0.07c8.3,0.01,17.3,0.01,26.83,0.02
					c38.14,0.08,84.88,0.17,130.24,0.26c45.37,0.15,89.36,0.38,122.02,0.72c16.33,0.17,29.82,0.37,39.23,0.6
					C662.19,828,667.52,828.27,667.52,828.57c0,0.31-5.33,0.57-14.74,0.8c-9.41,0.23-22.9,0.43-39.23,0.6
					c-32.66,0.34-76.65,0.57-122.02,0.72c-45.37,0.09-92.11,0.18-130.24,0.26c-9.53,0.01-18.53,0.01-26.83,0.02
					c-2.07-0.01-4.08,0.04-6.23-0.07c-2.11-0.12-4.26-0.35-6.45-1.19l-0.81-0.33l-0.8-0.44c-0.54-0.26-1.02-0.7-1.51-1.07
					c-0.91-0.86-1.72-1.86-2.18-2.92c-1.01-2.11-1.26-4.12-1.4-5.95c-0.09-0.93-0.07-1.82-0.09-2.66c0-0.82,0-1.62,0-2.41
					c0-1.58-0.01-3.08,0.04-4.69c0.09-1.59,0.27-3.17,0.71-4.74c0.45-1.57,1.27-3.16,2.46-4.35c1.18-1.19,2.58-1.97,3.83-2.4
					c0.63-0.25,1.24-0.37,1.83-0.54c0.57-0.11,1.14-0.22,1.67-0.3c2.13-0.31,3.85-0.29,5.29-0.32c21.93,0,118.15-0.01,208.88,0.29
					c45.37,0.15,89.36,0.38,122.02,0.72c2.04,0.02,4.04,0.05,5.99,0.07c1.99,0.03,3.97,0.16,5.92,0.55c1.92,0.4,3.94,1.1,5.44,2.58
					c1.51,1.47,2.22,3.39,2.55,5.12c0.33,1.75,0.38,3.4,0.37,4.98c-0.03,1.54-0.05,3.02-0.08,4.44c-0.05,2.84-0.15,5.61-1.09,7.99
					c-0.47,1.18-1.12,2.27-2,3.04c-0.86,0.78-1.81,1.32-2.72,1.63c-1.83,0.65-3.42,0.78-4.69,0.85
					C668.85,828.91,667.52,828.7,667.52,828.57z"/>
			</g>
		</g>
	</g>
	<g>
		<g>
			<g>
				<path d="M488.25,354.27c0.15,0,0.26,0.74,0.34,2.07c0.06,1.33,0.19,3.24-0.05,5.55c-0.1,1.15-0.13,2.42-0.43,3.74
					c-0.27,1.32-0.42,2.74-0.93,4.16c-0.22,0.71-0.44,1.44-0.67,2.18c-0.29,0.72-0.63,1.44-0.95,2.17c-0.17,0.36-0.32,0.74-0.5,1.1
					l-0.64,1.05c-0.45,0.68-0.81,1.44-1.39,2.06c-2,2.68-4.81,4.84-7.81,6.13c-2.98,1.33-6.12,1.85-8.72,2.23
					c-0.61,0.1-1.33,0.2-2,0.28c-0.65,0.04-1.27,0.09-1.87,0.13c-1.19,0.04-2.27,0.06-3.23,0.05c-1.92-0.01-3.35-0.08-4.13-0.12
					c-1.55-0.08-5.73-0.31-11.07-1.2c-2.67-0.48-5.62-1.11-8.65-2.07c-3-1.01-6.14-2.31-8.76-4.58c-2.53-2.25-4.25-5.08-5.53-7.76
					c-1.27-2.71-2.06-5.34-2.58-7.6c-1.02-4.53-0.98-7.59-0.69-7.6c0.31-0.03,0.73,2.92,2.05,7.24c0.66,2.15,1.56,4.64,2.87,7.14
					c1.31,2.48,3,5.06,5.29,6.98c2.24,1.87,5.19,3.08,8.05,3.99c2.89,0.87,5.76,1.46,8.35,1.9c5.2,0.83,9.29,1.05,10.8,1.13
					c0.76,0.04,2.16,0.11,4.02,0.12c1.87,0,4.19,0.05,6.71-0.39c2.67-0.37,5.46-0.83,8.18-1.98c2.7-1.12,5.2-2.97,7.06-5.33
					c0.53-0.54,0.87-1.23,1.3-1.83l0.62-0.93c0.18-0.33,0.33-0.67,0.49-1c0.32-0.67,0.66-1.32,0.95-1.98
					c0.24-0.69,0.48-1.37,0.71-2.03c0.53-1.31,0.74-2.67,1.07-3.92c0.36-1.25,0.46-2.47,0.64-3.58c0.41-2.22,0.48-4.1,0.65-5.4
					C487.94,355.01,488.1,354.27,488.25,354.27z"/>
			</g>
		</g>
	</g>
	<g>
		<g>
			<g>
				<path d="M535.75,487.82c0.22,0.21-0.46,1.25-1.64,2.72c-0.59,0.74-1.31,1.58-2.1,2.49c-0.82,0.88-1.71,1.81-2.63,2.75
					l-1.39,1.41c-0.48,0.45-0.96,0.89-1.43,1.33c-0.95,0.87-1.84,1.71-2.68,2.43c-1.7,1.42-3.02,2.52-3.53,2.9
					c-1.02,0.75-5.44,4.26-10.29,6.54c-2.41,1.16-4.9,2.01-6.84,2.27c-1.94,0.29-3.28-0.03-3.23-0.35c0.04-0.29,1.19-0.43,2.91-1.02
					c1.72-0.56,3.97-1.56,6.19-2.79c4.48-2.43,8.78-5.83,9.77-6.56c0.5-0.37,1.78-1.45,3.47-2.81c0.83-0.69,1.73-1.51,2.68-2.32
					c0.48-0.41,0.96-0.83,1.45-1.25l1.43-1.32c1.92-1.73,3.78-3.41,5.18-4.68C534.52,488.34,535.53,487.61,535.75,487.82z"/>
			</g>
		</g>
	</g>
	<g>
		<g>
			<g>
				<path d="M316.8,776.69c-0.08,0.09-0.99-0.57-2.64-1.9c-1.65-1.33-4.02-3.35-7.01-5.96c-5.97-5.23-14.4-12.89-24.42-22.34
					c-5.02-4.72-10.42-9.9-16.14-15.43c-2.85-2.78-5.78-5.63-8.78-8.56c-1.49-1.47-3.01-2.96-4.53-4.46
					c-0.76-0.75-1.53-1.51-2.3-2.28c-0.76-0.79-1.53-1.58-2.29-2.38c-6.13-6.38-11.72-13.82-16.14-22.18
					c-4.42-8.35-7.47-17.71-8.64-27.41c-0.6-4.85-0.71-9.77-0.33-14.67c0.35-4.9,1.21-9.76,2.57-14.48
					c0.34-1.18,0.72-2.35,1.14-3.52c0.22-0.58,0.43-1.16,0.69-1.75l0.06-0.13l0-0.02l0.08-0.39l0.18-0.87
					c0.45-2.33,0.9-4.66,1.36-6.98c0.88-4.65,1.71-9.28,2.52-13.87c3.2-18.35,5.91-36.02,8.15-51.93c0.56-3.98,1.04-7.83,1.76-11.62
					c0.34-1.89,0.63-3.75,0.99-5.56c0.46-1.79,0.9-3.55,1.34-5.28c0.22-0.86,0.44-1.71,0.65-2.56c0.22-0.84,0.54-1.65,0.8-2.46
					c0.55-1.61,1.08-3.19,1.61-4.73c0.24-0.78,0.57-1.51,0.88-2.24c0.31-0.73,0.62-1.45,0.93-2.15c0.3-0.71,0.61-1.41,0.9-2.09
					c0.3-0.69,0.57-1.37,0.93-2.01c5.17-10.46,10.98-17.17,14.23-20.58c1.11-1.11,2.47-2.57,4.31-4.12c0.45-0.4,0.92-0.81,1.41-1.24
					c0.51-0.4,1.04-0.82,1.6-1.25c0.56-0.42,1.11-0.89,1.72-1.32c0.62-0.43,1.25-0.86,1.9-1.32c1.32-0.88,2.76-1.76,4.35-2.6
					c0.41-0.2,0.82-0.41,1.24-0.61l0.38-0.17c0.08-0.04,0.2-0.08,0.3-0.11l0.19-0.05l0.61-0.19c0.82-0.26,1.68-0.55,2.54-0.85
					c3.47-1.22,7.2-2.73,11.14-4.44c7.88-3.42,16.6-7.73,25.84-12.73c9.27-5.12,19.78-10.09,31.5-13.08
					c2.93-0.74,5.94-1.34,9.04-1.7c3.1-0.35,6.28-0.51,9.57-0.02c1.64,0.26,3.34,0.66,5.03,1.73l0.62,0.47
					c0.2,0.17,0.4,0.38,0.59,0.57l0.75,0.78c0.48,0.5,1.08,1.02,1.61,1.53c2.27,2.03,4.67,4,7.09,5.97
					c4.87,3.9,9.86,7.75,14.96,11.42c2.55,1.84,5.14,3.64,7.75,5.27l0.98,0.6l0.97,0.52c0.16,0.08,0.33,0.19,0.47,0.25l0.38,0.14
					c0.14,0.05,0.21,0.11,0.41,0.16l0.64,0.17c1.64,0.47,3.13,1.03,4.63,1.61c5.96,2.35,11.72,4.98,17.22,8.19
					c1.37,0.83,2.72,1.67,4.02,2.68c0.66,0.47,1.29,1.07,1.92,1.66c0.54,0.51,1.02,1.02,1.6,1.51c2.24,1.99,4.63,3.88,6.99,5.74
					c4.75,3.7,9.52,7.25,14.2,10.68c1.11,0.8,2.21,1.6,3.31,2.4l0.9,0.34c0.35,0.13,0.69,0.26,1.03,0.41
					c0.68,0.29,1.36,0.59,2.02,0.93c1.32,0.68,2.61,1.44,3.79,2.38c0.59,0.48,1.16,0.97,1.68,1.55c0.27,0.28,0.51,0.58,0.75,0.9
					c0.12,0.16,0.24,0.31,0.34,0.49l0.16,0.26c0.07,0.1,0.05,0.08,0.07,0.13c0.02,0.04,0.04,0.09,0.06,0.14
					c0.02,0.05,0.09,0.03,0.13,0.05c1.38,0.25,2.74,0.5,4.09,0.75c1.46,0.26,2.9,0.51,4.33,0.76c2.86,0.49,5.66,0.96,8.38,1.31
					c0.68,0.09,1.35,0.16,1.99,0.22l0.31,0.02c0.06,0.01,0.12,0,0.19,0c0.13,0.01,0.22-0.12,0.28-0.22c0.08-0.09,0.31-0.82,0.43-1.4
					c0.13-0.61,0.24-1.24,0.33-1.87c0.18-1.26,0.3-2.54,0.38-3.79l0.04-0.81c0-0.13-0.05-0.25-0.13-0.37
					c-0.1-0.15-0.27-0.34-0.46-0.51c-0.09-0.08-0.2-0.18-0.29-0.25l-0.17-0.13c-0.04-0.02-0.07-0.07-0.12-0.06
					c-0.05,0-0.09,0-0.14,0c-0.03,0-0.14,0-0.27-0.01l-0.35-0.02c-0.24-0.01-0.45-0.05-0.67-0.08c-0.45-0.05-0.87-0.14-1.29-0.24
					c-0.43-0.08-0.83-0.2-1.23-0.33c-0.4-0.13-0.81-0.22-1.19-0.38c-1.55-0.56-3-1.21-4.37-1.94c-2.75-1.4-5.13-3.06-7.34-4.62
					c-4.38-3.2-7.77-6.42-10.56-9.05c-1.34-1.37-2.53-2.58-3.57-3.64c-1.02-1.08-1.84-2.03-2.51-2.79
					c-1.34-1.53-2.01-2.38-1.92-2.46c0.08-0.08,0.9,0.63,2.38,2.02c0.73,0.7,1.64,1.56,2.7,2.58c1.08,1,2.33,2.14,3.73,3.43
					c2.88,2.47,6.34,5.55,10.71,8.56c2.21,1.46,4.56,3.02,7.23,4.3c2.65,1.26,5.54,2.52,8.67,2.6c0.16,0.02,0.31,0.04,0.48,0.06
					c0.15,0,0.3,0.08,0.47,0.12c0.21,0.13,0.41,0.27,0.59,0.41c0.15,0.12,0.29,0.23,0.43,0.35c0.28,0.25,0.54,0.51,0.8,0.88
					c0.28,0.4,0.5,0.88,0.51,1.39c0.01,0.28,0,0.45,0,0.6l-0.02,0.49c-0.06,1.31-0.16,2.62-0.33,3.97
					c-0.08,0.67-0.19,1.36-0.33,2.05c-0.18,0.71-0.24,1.33-0.83,2.41c-0.47,1.05-1.89,1.14-2.73,1.04c-0.73-0.05-1.43-0.12-2.13-0.2
					c-2.8-0.32-5.62-0.76-8.5-1.21c-1.44-0.23-2.89-0.47-4.36-0.71c-1.57-0.27-3.16-0.54-4.77-0.81c-0.23-0.18-0.47-0.31-0.64-0.49
					c-0.19-0.19-0.37-0.38-0.57-0.58c-0.06-0.1-0.15-0.28-0.18-0.32l-0.11-0.18c-0.07-0.12-0.17-0.23-0.25-0.35
					c-0.18-0.23-0.37-0.46-0.59-0.68c-0.41-0.45-0.9-0.86-1.4-1.26c-1.01-0.79-2.16-1.46-3.36-2.06c-0.6-0.3-1.22-0.57-1.86-0.83
					c-0.31-0.14-0.63-0.26-0.96-0.37l-1.12-0.41c-0.6-0.34-0.77-0.52-1.09-0.73l-0.88-0.63c-0.59-0.42-1.18-0.84-1.77-1.27
					c-4.73-3.39-9.55-6.91-14.37-10.61c-2.41-1.86-4.83-3.74-7.2-5.82c-0.59-0.5-1.18-1.09-1.77-1.65c-0.51-0.45-0.99-0.93-1.6-1.35
					c-1.14-0.88-2.44-1.67-3.73-2.45c-5.27-3.03-11-5.61-16.8-7.85c-1.44-0.55-2.93-1.08-4.33-1.48c-0.47-0.1-1.92-0.57-2.52-0.95
					l-1.13-0.6l-1.05-0.63c-2.77-1.7-5.39-3.51-7.98-5.37c-5.19-3.7-10.22-7.55-15.16-11.47c-2.46-1.98-4.89-3.96-7.26-6.06
					c-0.59-0.56-1.17-1.05-1.77-1.67l-0.86-0.89l-0.24-0.23l-0.31-0.23c-0.94-0.6-2.28-0.98-3.66-1.18
					c-2.78-0.41-5.75-0.28-8.64,0.07c-2.9,0.35-5.78,0.92-8.59,1.64c-5.62,1.44-11.01,3.4-16.12,5.6c-2.55,1.11-5.04,2.27-7.46,3.48
					c-2.43,1.22-4.73,2.47-7.07,3.74c-9.31,5.06-18.1,9.42-26.1,12.9c-4,1.74-7.79,3.28-11.38,4.54c-0.9,0.32-1.78,0.62-2.67,0.89
					l-0.67,0.2l-0.13,0.04l-0.01,0.01l-0.22,0.1c-0.37,0.18-0.73,0.36-1.08,0.54c-1.43,0.76-2.78,1.58-4.01,2.41
					c-0.61,0.42-1.21,0.83-1.78,1.23c-0.57,0.4-1.1,0.85-1.62,1.24c-0.52,0.41-1.02,0.8-1.51,1.18c-0.46,0.41-0.9,0.8-1.33,1.18
					c-1.74,1.47-3.04,2.86-4.09,3.91c-3.09,3.24-8.62,9.62-13.59,19.66c-0.35,0.61-0.61,1.26-0.9,1.93
					c-0.28,0.66-0.57,1.33-0.87,2.01c-0.29,0.68-0.59,1.37-0.89,2.07c-0.3,0.7-0.62,1.4-0.85,2.15c-0.51,1.48-1.02,3.01-1.55,4.56
					c-0.25,0.78-0.56,1.56-0.78,2.37c-0.21,0.82-0.42,1.64-0.63,2.48c-0.43,1.67-0.86,3.37-1.31,5.11c-0.35,1.76-0.64,3.57-0.97,5.4
					c-0.7,3.63-1.19,7.54-1.76,11.52c-2.27,15.93-5.02,33.63-8.29,52.02c-0.82,4.6-1.67,9.24-2.57,13.9
					c-0.46,2.33-0.93,4.67-1.39,7.02l-0.18,0.88l-0.1,0.49c-0.03,0.14-0.05,0.28-0.12,0.41l-0.12,0.28
					c-0.22,0.5-0.43,1.04-0.63,1.58c-0.4,1.08-0.76,2.18-1.09,3.3c-1.31,4.47-2.15,9.12-2.51,13.8c-0.39,4.68-0.31,9.4,0.24,14.04
					c1.07,9.3,3.93,18.31,8.14,26.4c4.2,8.1,9.56,15.38,15.49,21.67c0.74,0.79,1.48,1.57,2.22,2.35c0.76,0.77,1.52,1.53,2.27,2.29
					c1.51,1.52,3,3.02,4.48,4.51c2.96,2.96,5.85,5.85,8.66,8.66c5.65,5.58,10.98,10.83,15.87,15.66
					c9.83,9.63,18.05,17.49,23.77,22.98c2.86,2.75,5.1,4.9,6.62,6.37C316.1,775.78,316.87,776.6,316.8,776.69z"/>
			</g>
		</g>
	</g>
	<g>
		<g>
			<g>
				<path d="M549.9,472.7c-0.46-0.79,9.18-6.97,19.72-13.1c5.27-3.06,10.77-6.11,15.37-8.46c2.29-1.18,4.38-2.17,6.1-2.92
					c0.86-0.37,1.72-0.66,2.35-0.9c0.53-0.21,0.95-0.37,1.25-0.48c0.47-0.25,1.28-0.63,2.28-1.34c0.98-0.73,2.18-1.72,3.39-3.07
					c1.21-1.34,2.45-2.99,3.66-4.87c1.22-1.88,2.35-3.96,3.64-6.17c0.01-0.03,0.04-0.05,0.02-0.1c0-0.09-0.11-0.34-0.29-0.6
					c-0.36-0.52-0.93-1.09-1.55-1.61c-1.25-1.06-2.71-2.01-4.15-2.89c-2.9-1.76-5.83-3.26-8.36-4.54c-5.08-2.56-8.64-4.3-8.44-4.81
					c0.19-0.49,4.03,0.54,9.41,2.65c2.69,1.06,5.75,2.39,8.89,4.09c1.57,0.86,3.15,1.8,4.69,3c0.76,0.61,1.53,1.27,2.22,2.2
					c0.34,0.47,0.68,1.02,0.86,1.8c0.19,0.82,0.07,1.73-0.36,2.48c-1.17,2.13-2.34,4.38-3.6,6.38c-1.26,2.02-2.6,3.85-3.96,5.38
					c-1.35,1.54-2.76,2.73-3.96,3.62c-1.22,0.87-2.27,1.38-2.88,1.69c-0.7,0.27-1.98,0.76-3.69,1.42c-1.61,0.69-3.63,1.64-5.9,2.77
					c-4.54,2.26-10.06,5.2-15.43,8.05C560.45,468.1,550.37,473.49,549.9,472.7z"/>
			</g>
		</g>
	</g>
	<g>
		<g>
			<g>
				<path d="M449.69,472.7c-0.42,0.82-11.17-4.16-22.6-9.43c-5.71-2.61-11.61-5.36-16.44-7.31c-0.6-0.23-1.19-0.49-1.74-0.68
					c-0.56-0.2-1.11-0.39-1.63-0.58c-1.19-0.39-2.23-0.85-3.14-1.26c-1.79-0.88-3.05-1.64-3.71-2.08c-1.35-0.84-4.91-3.21-8.8-7.09
					c-0.97-0.98-1.97-2.03-2.93-3.26c-0.49-0.65-0.94-1.2-1.43-2.13c-0.61-1.33-0.46-2.36-0.32-3.3c0.34-1.88,1.14-3.46,2.09-4.92
					c0.96-1.44,2.1-2.74,3.34-3.89c2.5-2.27,5.38-3.93,8.15-5.07c2.68-1.05,5.16-2.03,7.28-2.86c4.23-1.68,7.16-2.45,7.32-2.02
					c0.16,0.43-2.44,1.8-6.45,3.94c-1.99,1.06-4.47,2.24-7.03,3.45c-2.48,1.2-4.99,2.81-7.08,4.87c-1.04,1.03-1.97,2.17-2.73,3.37
					c-0.75,1.19-1.32,2.51-1.5,3.67c-0.07,0.3-0.04,0.54-0.06,0.78c0.01,0.1,0.04,0.18,0.04,0.27c0,0.11,0.05,0.07,0.04,0.12
					c0.21,0.39,0.68,1.02,1.08,1.51c0.85,1.05,1.79,2.02,2.69,2.92c3.67,3.58,7,5.79,8.22,6.56c0.61,0.4,1.76,1.09,3.34,1.88
					c0.8,0.37,1.7,0.77,2.7,1.1c0.56,0.2,1.15,0.41,1.76,0.63c0.62,0.22,1.21,0.48,1.84,0.74c4.98,2.07,10.82,4.92,16.47,7.75
					C439.75,466.09,450.1,471.89,449.69,472.7z"/>
			</g>
		</g>
	</g>
	<g>
		<g>
			<g>
				<path d="M683.2,776.69c-0.07-0.09,0.63-0.84,2-2.2c1.37-1.36,3.42-3.32,6.03-5.83c5.23-5.01,12.73-12.19,21.72-20.97
					c8.99-8.78,19.47-19.15,30.72-30.49c1.39-1.42,2.87-2.83,4.22-4.3c1.38-1.46,2.8-2.91,4.1-4.48c0.66-0.77,1.33-1.55,2-2.33
					c0.63-0.81,1.26-1.62,1.9-2.44c1.31-1.6,2.44-3.35,3.65-5.04c2.27-3.5,4.47-7.1,6.27-10.95c1.82-3.83,3.38-7.81,4.59-11.91
					c2.39-8.21,3.38-16.89,2.8-25.42c-0.29-4.26-0.94-8.49-1.99-12.58c-0.53-2.04-1.14-4.06-1.88-5.98l-0.65-1.64l-0.35-1.7
					c-0.21-1.05-0.42-2.1-0.63-3.15c-3.29-16.75-5.99-32.88-8.26-47.41c-1.14-7.26-2.15-14.12-3.07-20.45
					c-0.45-3.17-0.87-6.2-1.28-9.09c-0.49-2.83-0.96-5.52-1.4-8.05c-0.18-1.27-0.54-2.46-0.82-3.63c-0.3-1.16-0.58-2.28-0.86-3.36
					c-0.3-1.07-0.49-2.13-0.84-3.09c-0.33-0.97-0.64-1.89-0.94-2.77c-0.62-1.75-1.08-3.35-1.65-4.69c-0.58-1.34-1.07-2.49-1.48-3.44
					c-0.35-0.78-0.72-1.72-1.21-2.75c-0.53-1.01-1.13-2.15-1.8-3.41c-0.33-0.63-0.68-1.29-1.04-1.97c-0.37-0.68-0.83-1.34-1.27-2.06
					c-0.45-0.71-0.91-1.44-1.39-2.2c-0.24-0.38-0.48-0.77-0.73-1.16c-0.28-0.37-0.56-0.75-0.84-1.14c-0.57-0.77-1.16-1.56-1.76-2.37
					c-0.31-0.4-0.59-0.83-0.93-1.23c-0.34-0.39-0.68-0.79-1.03-1.2c-0.7-0.81-1.41-1.64-2.14-2.49c-0.79-0.8-1.59-1.61-2.41-2.44
					c-3.34-3.25-7.3-6.52-11.93-9.14c-0.58-0.32-1.16-0.64-1.75-0.92c-0.15-0.07-0.3-0.15-0.42-0.2l-0.06-0.03l-0.24-0.07
					l-1.06-0.33c-1.39-0.45-2.78-0.94-4.17-1.46c-2.79-1.04-5.6-2.19-8.45-3.42c-5.7-2.47-11.54-5.25-17.47-8.28
					c-2.97-1.52-5.96-3.09-8.97-4.73c-3.03-1.65-5.98-3.27-9.1-4.78c-6.19-3.02-12.71-5.72-19.48-7.67
					c-3.39-0.98-6.84-1.77-10.32-2.26c-3.46-0.46-7.03-0.68-10.27-0.07c-0.81,0.15-1.57,0.38-2.24,0.67
					c-0.34,0.14-0.64,0.32-0.89,0.5c-0.13,0.09-0.25,0.18-0.33,0.28l-0.16,0.15l-0.26,0.27c-1.38,1.47-2.75,2.59-4.14,3.82
					c-2.79,2.37-5.62,4.62-8.46,6.84c-5.7,4.42-11.41,8.68-17.28,12.6c-1.48,0.97-2.94,1.92-4.56,2.79l-0.61,0.32
					c-0.2,0.11-0.4,0.22-0.68,0.31c-0.5,0.19-1.11,0.42-1.42,0.48c-0.37,0.09-0.76,0.2-1.15,0.33c-0.39,0.12-0.78,0.25-1.18,0.39
					c-3.16,1.09-6.26,2.38-9.26,3.71c-3,1.34-5.92,2.75-8.68,4.28c-1.39,0.75-2.71,1.57-3.97,2.41c-0.63,0.42-1.22,0.88-1.77,1.33
					l-0.78,0.7l-0.85,0.83c-4.56,4.29-9.08,8.04-13.33,11.64c-4.26,3.58-8.29,6.9-12.02,9.94l-0.52,0.43
					c-0.18,0.13-0.33,0.35-0.58,0.27c-0.39-0.03-0.77-0.05-1.16-0.08c-0.54-0.02-1.08,0-1.6,0.05c-1.05,0.1-2.04,0.41-2.96,0.81
					c-0.92,0.41-1.76,0.95-2.5,1.57c-0.36,0.32-0.72,0.64-1.03,0.99c-0.16,0.17-0.31,0.35-0.46,0.54c-0.15,0.19-0.41,0.56-0.59,0.83
					c-1.27,0.23-1.92,0.32-2.73,0.45c-0.78,0.12-1.54,0.24-2.28,0.36c-1.48,0.22-2.86,0.42-4.16,0.62
					c-2.59,0.37-4.81,0.65-6.62,0.84c-1.81,0.19-3.22,0.29-4.18,0.3c-0.96,0.02-1.49-0.15-1.45-0.22c0.04-0.07,0.48-0.08,1.42-0.23
					c0.93-0.16,2.31-0.4,4.09-0.7c1.78-0.33,3.98-0.74,6.54-1.21c1.28-0.24,2.66-0.51,4.12-0.79c0.73-0.14,1.48-0.29,2.26-0.44
					c0.74-0.15,1.71-0.32,2.05-0.42c0.09-0.14,0.11-0.19,0.27-0.39c0.15-0.21,0.32-0.41,0.5-0.62c0.35-0.41,0.74-0.8,1.15-1.18
					c0.83-0.74,1.79-1.4,2.85-1.91c1.07-0.5,2.24-0.9,3.48-1.05c0.62-0.08,1.25-0.12,1.88-0.11l0.62,0.03
					c0.14,0,0.21-0.15,0.34-0.24c3.64-3.14,7.59-6.54,11.79-10.17c4.16-3.65,8.66-7.51,13.03-11.73l0.8-0.8l0.94-0.87
					c0.64-0.54,1.29-1.05,1.96-1.51c1.34-0.93,2.72-1.8,4.15-2.59c2.84-1.62,5.8-3.09,8.84-4.49c3.05-1.39,6.17-2.73,9.45-3.9
					c0.41-0.15,0.82-0.29,1.25-0.43c0.42-0.14,0.85-0.27,1.32-0.39c0.53-0.12,0.71-0.25,1.02-0.36c0.13-0.04,0.31-0.13,0.49-0.23
					l0.53-0.29c1.42-0.78,2.87-1.73,4.29-2.69c5.71-3.88,11.38-8.18,16.99-12.59c2.8-2.22,5.6-4.48,8.31-6.81
					c1.32-1.16,2.74-2.37,3.82-3.55l0.54-0.55c0.22-0.24,0.46-0.42,0.7-0.6c0.48-0.35,0.97-0.63,1.47-0.84
					c0.99-0.44,1.97-0.73,2.94-0.91c3.9-0.74,7.67-0.48,11.36-0.02c3.69,0.5,7.29,1.31,10.8,2.31c7.03,2,13.72,4.74,20.07,7.81
					c3.17,1.52,6.28,3.21,9.25,4.81c2.99,1.62,5.96,3.17,8.9,4.67c5.89,2.99,11.67,5.73,17.28,8.14c2.81,1.2,5.57,2.33,8.29,3.33
					c1.36,0.5,2.7,0.98,4.03,1.41l0.98,0.3l0.27,0.08c0.17,0.04,0.35,0.13,0.43,0.17c0.2,0.09,0.37,0.17,0.54,0.25
					c0.69,0.32,1.33,0.67,1.96,1.02c10.01,5.78,16.74,13.44,21.41,19.91c0.3,0.4,0.59,0.8,0.88,1.19c0.26,0.41,0.51,0.81,0.77,1.21
					c0.5,0.79,0.99,1.56,1.45,2.3c0.46,0.75,0.94,1.44,1.33,2.15c0.38,0.71,0.74,1.4,1.08,2.05c0.69,1.31,1.32,2.5,1.87,3.55
					c0.51,1.08,0.9,2.05,1.26,2.86c0.43,0.99,0.94,2.19,1.54,3.58c0.6,1.39,1.07,3.06,1.72,4.87c0.31,0.91,0.63,1.87,0.97,2.87
					c0.36,1,0.56,2.09,0.87,3.19c0.28,1.11,0.58,2.27,0.88,3.47c0.3,1.2,0.66,2.43,0.85,3.74c0.45,2.6,0.93,5.36,1.44,8.28
					c0.4,2.88,0.83,5.91,1.27,9.08c0.91,6.32,1.91,13.17,3.03,20.42c2.24,14.49,4.89,30.6,8.11,47.29c0.21,1.04,0.41,2.08,0.62,3.13
					l0.29,1.45l0.23,0.56l0.31,0.79c0.8,2.09,1.43,4.22,1.97,6.37c1.08,4.31,1.74,8.74,2.02,13.2c0.56,8.93-0.52,17.99-3.08,26.53
					c-1.29,4.27-2.94,8.4-4.86,12.35c-1.89,3.98-4.2,7.69-6.58,11.28c-1.27,1.74-2.45,3.53-3.81,5.16
					c-0.66,0.83-1.32,1.66-1.97,2.49c-0.69,0.79-1.39,1.58-2.08,2.37c-1.35,1.6-2.82,3.07-4.25,4.55c-1.42,1.51-2.88,2.87-4.3,4.29
					c-11.39,11.22-22.03,21.46-31.21,30.06c-9.18,8.6-16.89,15.58-22.37,20.33C686.58,774.32,683.35,776.86,683.2,776.69z"/>
			</g>
		</g>
	</g>
	<g>
		<g>
			<g>
				<path d="M404.49,403.94c0.19,0.42-1.51,1.54-4.15,3.13c-2.62,1.6-6.25,3.63-9.64,6.03c-0.43,0.29-0.84,0.6-1.24,0.92
					c-0.42,0.31-0.8,0.63-1.17,0.95c-0.4,0.32-0.7,0.66-1.03,0.98c-0.4,0.4-0.79,0.81-1.18,1.21c-1.62,1.54-3.24,2.77-4.7,3.88
					c-2.93,2.2-5.27,3.76-6.13,4.35c-0.86,0.59-3.2,2.16-6.24,4.11c-1.53,0.97-3.22,2.04-5,3.16c-0.87,0.55-1.81,1.13-2.65,1.68
					c-0.77,0.5-1.44,1.12-2.03,1.81c-1.16,1.4-1.86,3.18-2.17,4.91c-0.16,0.87-0.22,1.73-0.2,2.52c0.01,0.4,0.04,0.76,0.1,1.08
					c0.08,0.35,0.17,0.7,0.28,1.04c0.95,2.78,1.85,4.66,1.43,4.9c-0.19,0.12-0.64-0.2-1.24-0.89c-0.6-0.7-1.38-1.74-2.14-3.2
					c-0.19-0.37-0.37-0.77-0.54-1.23c-0.16-0.49-0.27-0.98-0.34-1.48c-0.15-0.99-0.18-2.02-0.08-3.1c0.19-2.14,0.9-4.51,2.38-6.52
					c0.75-0.99,1.64-1.89,2.65-2.61c0.93-0.67,1.8-1.24,2.68-1.83c1.74-1.16,3.41-2.27,4.92-3.27c2.99-2,5.3-3.54,6.16-4.12
					c0.85-0.58,3.16-2.13,6.04-4.22c1.42-1.05,3.03-2.23,4.48-3.54c0.35-0.34,0.71-0.68,1.07-1.03c0.44-0.41,0.88-0.85,1.34-1.19
					c0.45-0.37,0.91-0.72,1.38-1.03c0.46-0.33,0.93-0.65,1.4-0.93c3.76-2.36,7.58-4.11,10.48-5.28
					C402.3,404.03,404.3,403.52,404.49,403.94z"/>
			</g>
		</g>
	</g>
	<g>
		<g>
			<g>
				<path d="M516.36,644.93c2.12,1.22-11.57,25-13.33,28.06c-1.76,3.06-15.41,26.87-17.53,25.65c-2.12-1.22,11.57-25,13.33-28.06
					C500.59,667.52,514.24,643.71,516.36,644.93z"/>
			</g>
		</g>
	</g>
	<g>
		<g>
			<g>
				<path d="M535.64,692.21c-0.72-0.94,4.09-5.39,9.54-9.95c2.73-2.28,5.62-4.6,8.06-6.52c1.11-0.86,2.11-1.65,2.93-2.29
					c0-0.01-0.01,0-0.01,0l0,0c-0.77-0.64-1.73-1.43-2.81-2.33c-2.37-1.97-5.26-4.41-8.01-6.85c-5.51-4.86-10.47-9.68-9.7-10.63
					c0.77-0.95,6.5,2.93,12.39,7.33c2.94,2.2,5.92,4.53,8.34,6.44c3.42,2.76,6.08,4.9,7.06,5.69c0.15,0.12,0.33,0.27,0.55,0.45
					c-0.93,0.71-2.4,1.83-4.24,3.24c-1.02,0.77-2.25,1.69-3.61,2.71c-2.49,1.86-5.48,4.04-8.39,6.08
					C541.91,689.67,536.36,693.16,535.64,692.21z"/>
			</g>
		</g>
	</g>
	<g>
		<g>
			<g>
				<path d="M464.64,692.21c-0.72,0.94-6.27-2.54-12.09-6.62c-2.91-2.04-5.9-4.23-8.39-6.08c-1.36-1.02-2.59-1.95-3.61-2.71
					c-1.85-1.41-3.31-2.53-4.24-3.24c0.22-0.18,0.4-0.32,0.55-0.45c0.98-0.79,3.64-2.93,7.06-5.69c2.42-1.92,5.4-4.24,8.34-6.44
					c5.88-4.4,11.62-8.28,12.39-7.33c0.77,0.95-4.2,5.77-9.7,10.63c-2.75,2.43-5.64,4.87-8.01,6.85c-1.08,0.9-2.04,1.69-2.81,2.33
					l0,0c0,0,0,0-0.01,0c0.83,0.65,1.83,1.43,2.93,2.29c2.44,1.92,5.33,4.23,8.06,6.52C460.56,686.83,465.36,691.27,464.64,692.21z"
					/>
			</g>
		</g>
	</g>
	<g>
		<g>
			<g>
				<path d="M511.75,354.27c0.15,0,0.31,0.75,0.46,2.05c0.17,1.3,0.24,3.18,0.65,5.4c0.19,1.11,0.29,2.34,0.64,3.58
					c0.33,1.25,0.54,2.61,1.07,3.92c0.23,0.67,0.47,1.34,0.71,2.03c0.29,0.66,0.63,1.31,0.95,1.98c0.16,0.33,0.32,0.67,0.49,1
					l0.62,0.93c0.43,0.61,0.77,1.3,1.3,1.83c1.86,2.37,4.36,4.21,7.06,5.33c2.71,1.15,5.5,1.61,8.18,1.98
					c2.52,0.44,4.84,0.4,6.71,0.39c1.86-0.02,3.26-0.08,4.02-0.12c1.51-0.08,5.6-0.31,10.8-1.13c2.59-0.44,5.46-1.03,8.35-1.9
					c2.86-0.91,5.8-2.12,8.05-3.99c2.29-1.93,3.98-4.5,5.29-6.98c1.3-2.51,2.2-4.99,2.87-7.14c1.32-4.32,1.73-7.27,2.05-7.24
					c0.29,0.02,0.34,3.07-0.69,7.6c-0.52,2.26-1.31,4.89-2.58,7.6c-1.28,2.68-3,5.52-5.53,7.76c-2.61,2.27-5.76,3.57-8.76,4.58
					c-3.03,0.96-5.99,1.59-8.65,2.07c-5.34,0.89-9.52,1.11-11.07,1.2c-0.78,0.05-2.21,0.11-4.13,0.12
					c-0.96,0.02-2.05-0.01-3.23-0.05c-0.6-0.04-1.22-0.08-1.87-0.13c-0.67-0.09-1.39-0.18-2-0.28c-2.6-0.38-5.74-0.91-8.72-2.23
					c-3-1.29-5.81-3.45-7.81-6.13c-0.57-0.62-0.93-1.37-1.39-2.06l-0.64-1.05c-0.18-0.36-0.34-0.73-0.5-1.1
					c-0.32-0.73-0.66-1.45-0.95-2.17c-0.23-0.74-0.45-1.47-0.67-2.18c-0.51-1.41-0.66-2.84-0.93-4.16c-0.3-1.32-0.33-2.58-0.43-3.74
					c-0.25-2.31-0.11-4.22-0.05-5.55C511.49,355.01,511.6,354.27,511.75,354.27z"/>
			</g>
		</g>
	</g>
	<g>
		<g>
			<g>
				<path d="M593.25,404.62c0.36-0.84,7.91,1.97,15.87,5.2c0.99,0.41,1.99,0.82,2.99,1.23c0.51,0.23,0.96,0.36,1.52,0.66
					c0.54,0.28,1.1,0.57,1.55,0.9c1.92,1.28,3.43,2.71,4.76,4.02c2.6,2.65,4.36,4.85,5.04,5.66c0.66,0.8,2.44,3.03,4.58,5.88
					c0.27,0.34,0.55,0.71,0.79,1.01c0.13,0.15,0.19,0.19,0.31,0.31l0.48,0.38c0.71,0.52,1.57,1.07,2.43,1.62
					c1.74,1.11,3.61,2.26,5.41,3.56c0.9,0.64,1.78,1.34,2.61,2.09c0.41,0.4,0.82,0.79,1.2,1.27c0.19,0.21,0.37,0.5,0.55,0.77
					c0.19,0.27,0.31,0.56,0.43,0.85c0.85,2.33,0.58,4.25,0.4,5.85c-0.51,3.18-1.41,5.06-1.84,4.95c-0.46-0.11-0.24-2.13-0.27-5.09
					c-0.04-1.44-0.14-3.27-0.8-4.58c-0.59-1.14-2.38-2.38-4.07-3.48c-1.74-1.12-3.61-2.18-5.42-3.26c-0.91-0.55-1.8-1.08-2.69-1.7
					c-0.23-0.17-0.46-0.35-0.68-0.52c-0.23-0.2-0.53-0.48-0.72-0.69c-0.37-0.42-0.65-0.79-0.94-1.15c-2.22-2.86-3.92-4.99-4.57-5.78
					c-0.65-0.78-2.38-2.93-4.78-5.45c-1.21-1.24-2.6-2.58-4.13-3.67c-0.38-0.3-0.77-0.5-1.15-0.72c-0.36-0.23-0.93-0.44-1.39-0.67
					c-0.97-0.45-1.94-0.9-2.91-1.35C600.07,409.1,592.9,405.46,593.25,404.62z"/>
			</g>
		</g>
	</g>
	<g>
		<g>
			<g>
				<path d="M465.14,529.79c-0.3,0.02-0.52-0.52-0.58-1.27c-0.07-0.75-0.01-1.73,0.1-2.72c0.23-1.99,0.67-4.04,0.77-4.51
					c0.18-0.94,1.82-8.21,3.02-7.92c1.17,0.28-0.47,7.5-0.66,8.43c-0.1,0.47-0.54,2.51-1.05,4.4c-0.26,0.95-0.53,1.86-0.8,2.52
					C465.68,529.38,465.45,529.77,465.14,529.79z"/>
			</g>
		</g>
	</g>
	<g>
		<g>
			<g>
				<path d="M477.36,529.79c-1.23-0.15-0.62-4.19-0.5-4.71c0.05-0.26,0.25-1.4,0.64-2.44c0.38-1.04,0.98-1.98,1.57-1.78
					c0.57,0.2,0.58,1.19,0.5,2.25c-0.08,1.05-0.29,2.15-0.33,2.4C479.12,526,478.55,529.93,477.36,529.79z"/>
			</g>
		</g>
	</g>
	<g>
		<g>
			<g>
				<path d="M537.09,529.79c-0.62,0.05-1.07-1.49-1.7-3.09c-0.59-1.6-1.29-3.28-1.45-3.67c-0.16-0.38-0.88-2.06-1.57-3.67
					c-0.66-1.62-1.27-3.16-0.75-3.49c0.52-0.33,1.67,0.96,2.64,2.5c0.98,1.53,1.75,3.31,1.92,3.72c0.16,0.41,0.92,2.2,1.26,4.03
					C537.82,527.95,537.69,529.75,537.09,529.79z"/>
			</g>
		</g>
	</g>
	<g>
		<g>
			<g>
				<path d="M524.39,529.79c-0.61,0.09-1.07-0.86-1.52-1.85c-0.44-1-0.84-2.07-0.94-2.32c-0.09-0.25-0.53-1.31-0.89-2.35
					c-0.35-1.05-0.62-2.08-0.11-2.4c0.52-0.33,1.36,0.47,2.01,1.45c0.67,0.98,1.14,2.15,1.24,2.41c0.11,0.26,0.56,1.44,0.74,2.63
					C525.11,528.54,524.99,529.69,524.39,529.79z"/>
			</g>
		</g>
	</g>
	<g>
		<g>
			<g>
				<path d="M477.79,408c0.1,0.07,0.04,0.39-0.15,0.89c-0.1,0.25-0.23,0.54-0.32,0.9c-0.06,0.17-0.12,0.36-0.18,0.55
					c-0.06,0.19-0.08,0.41-0.12,0.62c-0.16,0.86-0.11,1.87,0.43,2.76c0.28,0.44,0.66,0.85,1.14,1.21c0.25,0.17,0.51,0.34,0.78,0.49
					c0.14,0.07,0.28,0.14,0.43,0.2c0.14,0.06,0.32,0.13,0.32,0.12c-0.03-0.01,0.17,0.01,0.32,0.03l0.44,0.06
					c0.29,0.04,0.58,0.1,0.87,0.16c0.58,0.12,1.15,0.28,1.72,0.47c1.12,0.36,2.29,0.95,3.24,1.48c0.99,0.54,1.98,1.07,2.95,1.59
					c0.48,0.26,0.96,0.52,1.42,0.77c0.24,0.13,0.47,0.26,0.66,0.35c0.23,0.1,0.45,0.21,0.67,0.31c1.8,0.8,3.49,1.36,4.83,1.68
					c1.34,0.32,2.32,0.37,2.79,0.38c0.47-0.01,1.44-0.06,2.79-0.38c1.34-0.32,3.03-0.88,4.83-1.68c0.22-0.1,0.45-0.2,0.67-0.31
					c0.19-0.09,0.42-0.22,0.66-0.35c0.47-0.25,0.94-0.51,1.42-0.77c0.96-0.52,1.95-1.05,2.95-1.59c0.95-0.53,2.12-1.12,3.24-1.48
					c0.57-0.19,1.14-0.35,1.72-0.47c0.29-0.06,0.58-0.12,0.87-0.16l0.44-0.06c0.14-0.02,0.34-0.03,0.32-0.03
					c-0.01,0.01,0.17-0.06,0.32-0.12c0.14-0.06,0.29-0.14,0.43-0.2c0.28-0.15,0.54-0.31,0.78-0.49c0.48-0.36,0.86-0.77,1.14-1.21
					c0.54-0.89,0.59-1.9,0.43-2.76c-0.05-0.21-0.07-0.43-0.12-0.62c-0.06-0.19-0.12-0.38-0.18-0.55c-0.09-0.36-0.22-0.65-0.32-0.9
					c-0.19-0.5-0.26-0.82-0.15-0.89s0.35,0.12,0.73,0.54c0.19,0.21,0.42,0.48,0.61,0.84c0.22,0.35,0.45,0.76,0.61,1.27
					c0.36,0.98,0.52,2.44-0.17,3.84c-0.35,0.68-0.84,1.31-1.45,1.83c-0.31,0.25-0.63,0.49-0.98,0.71c-0.18,0.1-0.35,0.21-0.54,0.3
					c-0.19,0.09-0.34,0.18-0.7,0.31c-2.21,0.29-4,1.06-5.94,2.24c-0.99,0.56-1.97,1.13-2.92,1.67c-0.48,0.27-0.95,0.54-1.41,0.81
					c-0.23,0.13-0.45,0.27-0.73,0.4c-0.25,0.12-0.49,0.23-0.73,0.35c-1.92,0.88-3.73,1.5-5.24,1.88c-1.51,0.37-2.73,0.45-3.35,0.45
					c-0.62-0.01-1.84-0.08-3.35-0.45c-1.51-0.37-3.32-0.99-5.24-1.88c-0.24-0.11-0.48-0.23-0.73-0.35c-0.28-0.14-0.5-0.27-0.73-0.4
					c-0.46-0.26-0.94-0.53-1.41-0.81c-0.96-0.55-1.93-1.11-2.92-1.67c-1.94-1.18-3.73-1.95-5.94-2.24c-0.36-0.13-0.51-0.21-0.7-0.31
					c-0.19-0.09-0.36-0.2-0.54-0.3c-0.35-0.21-0.67-0.45-0.98-0.71c-0.61-0.52-1.1-1.15-1.45-1.83c-0.69-1.4-0.53-2.86-0.17-3.84
					c0.16-0.51,0.39-0.92,0.61-1.27c0.2-0.36,0.42-0.63,0.61-0.84C477.43,408.12,477.68,407.93,477.79,408z"/>
			</g>
		</g>
	</g>
	<g>
		<g>
			<g>
				<path d="M408.04,374.95c-0.05-0.06,0.06-0.23,0.29-0.5c0.12-0.13,0.27-0.29,0.45-0.47c0.17-0.16,0.36-0.35,0.57-0.56
					c0.06-0.08,0.17-0.14,0.2-0.24c-0.03-0.11-0.06-0.23-0.09-0.35c-0.08-0.38-0.17-0.79-0.26-1.23c-0.19-0.91-0.32-1.95-0.5-3.08
					c-0.6-4.54-1.01-10.68-1.23-17.01c-0.22-6.33-0.29-12.85-0.26-18.17l0-0.5c0-0.04-0.01-0.29,0.03-0.42l0.05-0.27
					c0.06-0.32,0.12-0.64,0.18-0.95c0.13-0.62,0.25-1.22,0.37-1.79c0.25-1.14,0.5-2.19,0.75-3.11c0.48-1.85,0.92-3.22,1.17-3.96
					c0.26-0.74,0.69-2.11,1.51-3.9c0.2-0.43,0.47-0.95,0.65-1.38c0.19-0.44,0.41-0.88,0.58-1.43c0.39-1.03,0.74-2.22,1.11-3.47
					c1.43-5.04,2.8-11.4,4.03-17.57c0.61-3.09,1.18-6.14,1.68-8.97c0.24-1.42,0.47-2.78,0.66-4.06c0.17-1.25,0.36-2.6,0.69-3.72
					c0.65-2.3,1.83-4,2.85-4.91c1.03-0.93,1.84-1.14,1.89-1c0.07,0.14-0.53,0.55-1.3,1.55c-0.76,0.99-1.64,2.58-2.07,4.71
					c-0.23,1.08-0.32,2.19-0.42,3.56c-0.12,1.33-0.28,2.71-0.47,4.15c-0.38,2.88-0.86,5.96-1.41,9.08
					c-1.09,6.25-2.4,12.64-3.83,17.83c-0.37,1.3-0.73,2.52-1.14,3.65c-0.18,0.56-0.44,1.12-0.67,1.64
					c-0.24,0.54-0.43,0.91-0.63,1.33c-0.74,1.64-1.16,2.96-1.41,3.66c-0.23,0.71-0.66,2.02-1.13,3.82
					c-0.24,0.89-0.49,1.91-0.74,3.02c-0.12,0.56-0.24,1.14-0.37,1.74c-0.06,0.3-0.12,0.61-0.18,0.92l-0.04,0.21
					c0,0.03,0-0.05,0,0.07l-0.01,0.49c-0.06,5.3-0.07,11.8,0,18.1c0.07,6.3,0.25,12.41,0.51,16.92c0.09,1.12,0.13,2.16,0.22,3.06
					c0.04,0.47,0.08,0.9,0.12,1.31c0.03,0.27,0.05,0.53,0.07,0.78c-0.11,0.19-0.38,0.29-0.54,0.43c-0.09,0.06-0.18,0.12-0.26,0.18
					c-0.07,0.04-0.13,0.08-0.19,0.12c-0.12,0.08-0.24,0.15-0.35,0.22c-0.22,0.13-0.41,0.24-0.57,0.32
					C408.27,374.95,408.08,375.01,408.04,374.95z"/>
			</g>
		</g>
	</g>
	<g>
		<g>
			<g>
				<path d="M401.8,340.2c0.02-0.08,0.68,0.03,1.88,0.3c0.62,0.15,1.3,0.28,2.27,0.56c0.72,0.42,1.79,0.45,2.93,0.96
					c1.15,0.46,2.28,1.53,2.82,2.93c0.54,1.36,0.95,2.79,1.42,4.35c0.46,1.56,0.91,3.22,1.37,4.98c0.11,0.42,0.22,0.85,0.33,1.29
					c0,0.23,0.23,0.33,0.42,0.34c0.35,0.05,0.78,0.01,1.21-0.06l0.24-0.05l0.14-0.04c0.09-0.03,0.2-0.05,0.26-0.1l-0.06-0.24
					l-0.07-0.3c-0.08-0.41-0.16-0.82-0.24-1.24c-0.15-0.84-0.27-1.69-0.37-2.56c-0.19-1.74-0.28-3.56-0.13-5.44
					c0.16-1.87,0.52-3.86,1.6-5.69c0.55-0.9,1.28-1.75,2.24-2.35c0.97-0.59,1.97-0.91,2.96-1.19c3.99-0.98,8.11-1.19,12.3-1.33
					c4.2-0.11,8.48-0.04,12.8,0.13c2.16,0.09,4.33,0.2,6.51,0.35c2.24,0.18,4.4,0.49,6.58,0.88c4.35,0.77,8.66,1.88,12.78,3.49
					c4.1,1.62,8.09,3.76,11.23,6.95c1.56,1.59,2.86,3.47,3.67,5.56c0.27,0.75,0.15,0.46,0.2,0.53l0.28,0.02
					c0.23,0.02,0.46,0.03,0.68,0.03c0.45,0,0.9-0.02,1.33-0.09c0.13-0.02,0.06-0.01,0.1-0.02l-0.01-0.03l-0.1-0.25
					c-0.06-0.16-0.14-0.31-0.21-0.46c-0.28-0.62-0.61-1.21-0.96-1.79c-0.69-1.16-1.5-2.25-2.36-3.26c-0.4-0.53-0.91-0.97-1.35-1.45
					l-0.68-0.71l-0.74-0.64c-0.49-0.42-0.97-0.86-1.46-1.25c-0.52-0.37-1.03-0.74-1.54-1.11c-4.12-2.9-8.51-4.65-12.46-5.91
					c-1-0.29-1.97-0.57-2.9-0.84c-0.93-0.29-1.87-0.41-2.75-0.62c-0.88-0.18-1.73-0.36-2.54-0.53c-0.81-0.18-1.6-0.23-2.33-0.35
					c-1.48-0.2-2.79-0.37-3.93-0.53c-1.15-0.1-2.11-0.19-2.87-0.26c-4.06-0.34-13.96-1.08-26.99,0.09
					c-1.63,0.16-3.32,0.32-5.04,0.49c-1.73,0.18-3.57,0.35-5.44,0.36c-1.87,0.03-3.77-0.03-5.7-0.18c-0.97-0.08-1.93-0.16-2.95-0.33
					c-0.95-0.16-1.92-0.33-2.89-0.5c-3.95-0.68-8.02-1.39-12.17-2.1l-1.49-0.26c-0.06-0.01-0.14-0.01-0.18-0.04l0.02-0.19l0.03-0.38
					l0.06-0.76l0.16-1.96c0.08-1.04,0.17-2.07,0.25-3.12c0.17-2.09,0.34-4.19,0.51-6.3c0.34-4.24,0.69-8.51,1.03-12.78
					c0.39-4.29,0.89-8.53,1.38-12.74c1.01-8.41,2.09-16.62,3.26-24.33c0.59-3.85,1.18-7.57,1.87-11.13
					c0.16-0.89,0.37-1.77,0.56-2.64c0.11-0.58,0.34-1.35,0.53-2.01l0.29-1.02l0.14-0.5l0.04-0.13c0.03,0.02,0.06,0.06,0.09,0.09
					l0.18,0.19c0.48,0.51,0.95,1.02,1.42,1.52c0.39,0.42,0.77,0.84,1.15,1.25c0.56,0.61,1.11,1.22,1.65,1.81
					c4.28,4.74,8.01,8.87,10.98,12.15c1.61,0.61,3.06,1.15,4.32,1.62c1.29,0.5,2.39,0.93,3.29,1.28c1.79,0.71,2.74,1.14,2.7,1.24
					c-0.03,0.09-1.04-0.16-2.89-0.71c-0.92-0.29-2.05-0.64-3.37-1.05c-1.35-0.44-2.9-0.94-4.63-1.5c-3.1-3.24-7.01-7.33-11.49-12.02
					c-0.83-0.86-1.68-1.76-2.55-2.68c-0.06-0.1-0.07,0.01-0.09,0.08l-0.05,0.22l-0.05,0.22l-0.06,0.29c-0.17,0.85-0.36,1.7-0.5,2.59
					c-0.63,3.51-1.17,7.23-1.7,11.08c-1.06,7.69-2.06,15.91-3,24.3c-0.46,4.2-0.92,8.45-1.28,12.68c-0.32,4.26-0.64,8.52-0.96,12.75
					c-0.16,2.12-0.32,4.23-0.48,6.33c-0.08,1.05-0.16,2.09-0.24,3.13l-0.09,1.15c-0.01,0.03,0.01,0.04,0.04,0.03
					c3.99,0.67,7.9,1.34,11.7,1.98c0.97,0.16,1.93,0.33,2.88,0.49c0.89,0.15,1.84,0.23,2.77,0.3c1.86,0.14,3.69,0.19,5.47,0.16
					c1.79-0.02,3.51-0.18,5.24-0.36c1.74-0.17,3.43-0.34,5.07-0.5c13.22-1.21,23.28-0.46,27.4-0.12c0.77,0.07,1.75,0.16,2.91,0.26
					c1.16,0.16,2.52,0.34,4.04,0.54c0.76,0.12,1.57,0.18,2.4,0.36c0.84,0.17,1.71,0.36,2.62,0.55c0.91,0.21,1.87,0.34,2.84,0.64
					c0.97,0.28,1.98,0.57,3.02,0.87c4.11,1.32,8.72,3.16,13.11,6.26c0.54,0.39,1.09,0.79,1.64,1.19c0.53,0.43,1.04,0.9,1.57,1.35
					l0.79,0.69l0.74,0.76c0.48,0.53,1.02,1,1.46,1.58c0.93,1.11,1.82,2.3,2.58,3.59c0.38,0.65,0.75,1.31,1.07,2.02
					c0.08,0.17,0.17,0.34,0.24,0.53l0.31,0.76c0.24,0.67,0.39,1.32,0.59,1.99l-1.34,0.47c-0.21,0.08-0.46,0.13-0.7,0.19
					c-0.22,0.06-0.52,0.12-0.66,0.13c-0.57,0.09-1.14,0.12-1.7,0.11c-0.28,0-0.56-0.01-0.84-0.04l-0.5-0.05
					c-0.25-0.03-0.5-0.07-0.74-0.11l-0.36-0.07l-0.18-0.04c-0.06-0.01-0.06-0.1-0.09-0.15c-0.09-0.23-0.19-0.45-0.27-0.69
					l-0.33-0.94c-0.68-1.76-1.77-3.39-3.15-4.8c-2.77-2.85-6.49-4.9-10.4-6.47c-3.93-1.56-8.11-2.67-12.34-3.45
					c-2.11-0.39-4.26-0.71-6.35-0.89c-2.15-0.16-4.31-0.29-6.45-0.39c-4.28-0.2-8.53-0.31-12.66-0.24
					c-4.12,0.09-8.21,0.27-11.89,1.13c-0.9,0.23-1.79,0.53-2.47,0.94c-0.68,0.41-1.26,1.04-1.7,1.75c-0.89,1.44-1.27,3.21-1.44,4.93
					c-0.16,1.73-0.11,3.47,0.04,5.14c0.08,0.84,0.18,1.66,0.31,2.47c0.07,0.4,0.14,0.8,0.21,1.2l0.19,0.9l0.23,0.96
					c-0.35,0.12-0.75,0.23-1.12,0.33l-0.56,0.14l-0.48,0.09c-0.53,0.08-1.07,0.13-1.66,0.03c-0.74-0.11-1.47-0.52-1.5-1.31
					c-0.11-0.47-0.21-0.93-0.32-1.38c-0.41-1.76-0.82-3.42-1.22-4.98c-0.41-1.54-0.79-3.04-1.23-4.28
					c-0.43-1.23-1.27-2.09-2.24-2.55c-0.94-0.5-2.04-0.6-2.86-1.13c-0.83-0.28-1.53-0.52-2.11-0.71
					C402.39,340.53,401.78,340.27,401.8,340.2z"/>
			</g>
		</g>
	</g>
	<g>
		<g>
			<g>
				<path d="M407.66,260.55c0.05-0.05,0.77,0.53,2.09,1.69c0.65,0.58,1.46,1.3,2.4,2.15c0.92,0.84,1.99,1.81,3.18,2.9
					c2.73,1.14,5.99,2.51,9.73,4.07c5.48,0.69,11.88,1.49,19.01,2.39c3.58,0.46,7.34,0.94,11.25,1.44c0.49,0.06,0.98,0.13,1.48,0.19
					l0.51,0.07c0.1,0.03,0.22,0,0.3,0.07l0.23,0.21l0.61,0.53c0.75,0.56,1.57,1.08,2.45,1.53c1.76,0.92,3.68,1.67,5.65,2.35
					c3.96,1.36,8.18,2.44,12.52,3.43c4.35,0.97,8.84,1.83,13.43,2.56c2.29,0.36,4.62,0.71,6.93,0.94c0.29,0.03,0.57,0.05,0.83,0.06
					l0.79-0.03c0.56-0.05,1.14-0.11,1.72-0.18c1.16-0.15,2.34-0.34,3.52-0.52c4.71-0.79,9.48-1.72,14.27-2.68
					c2.39-0.49,4.79-0.99,7.19-1.48l0.9-0.19c0.14-0.02,0.28-0.07,0.43-0.08l0.39,0.05l0.45,0.06c0.6,0.07,1.2,0.14,1.8,0.2
					c1.21,0.12,2.42,0.21,3.62,0.26c2.41,0.1,4.84,0.09,7.13-0.31c1.11-0.21,2.24-0.51,3-1.04c1.25-0.78,2.39-1.24,3.56-1.71
					c4.66-1.81,9.33-3.23,13.98-4.65c4.65-1.41,9.26-2.74,13.81-4.01c1.14-0.32,2.28-0.63,3.41-0.94l0.42-0.12l0.21-0.06
					c0.07-0.02,0.26-0.07,0.38-0.08l0.86-0.1l1.72-0.22c2.29-0.31,4.56-0.64,6.79-1.01c4.46-0.75,8.83-1.58,12.86-2.83
					c1-0.32,1.98-0.67,2.87-1.08c0.44-0.21,0.86-0.44,1.2-0.68c0.34-0.23,0.59-0.54,0.58-0.58l0.02-0.45c0.02-0.31,0-0.64,0.08-0.92
					l0.17-0.87c0.07-0.28,0.16-0.54,0.24-0.81c0.32-1.07,0.74-2.05,1.17-3.01c0.87-1.91,1.85-3.68,2.86-5.39
					c0.51-0.85,1.01-1.69,1.53-2.51c0.4-0.61,0.79-1.22,1.18-1.82l-0.11-0.22l-0.4-0.87c-0.25-0.58-0.49-1.16-0.71-1.73
					c-0.45-1.15-0.85-2.28-1.22-3.39c-0.75-2.22-1.42-4.37-2.05-6.43c-1.27-4.11-2.42-7.85-3.57-11.13
					c-1.15-3.27-2.29-6.09-3.47-8.28c-0.59-1.09-1.19-2.03-1.78-2.76c-0.15-0.18-0.3-0.35-0.44-0.51c-0.15-0.14-0.3-0.28-0.44-0.42
					c-0.3-0.25-0.52-0.41-0.89-0.67c-3.63-2.46-9.91-7.68-18.7-14.25c-4.39-3.26-9.39-6.91-15.14-10.27
					c-2.89-1.63-5.92-3.26-9.29-4.02c-3.46-0.78-7.16-1.36-10.96-1.86c-7.6-1.03-15.66-1.8-23.98-2.43
					c-4.16-0.3-8.39-0.57-12.66-0.73c-4.27-0.17-8.6-0.29-12.91-0.15c-4.29,0.09-8.6,0.73-12.93,1.44
					c-4.33,0.72-8.65,1.55-12.96,2.41c-4.31,0.87-8.6,1.79-12.86,2.74c-2.13,0.48-4.25,0.96-6.36,1.43
					c-1.06,0.25-2.12,0.49-3.18,0.74c-1.86,0.44-3.72,0.89-5.57,1.33c1.84-2.87,3.67-5.71,5.49-8.54l1.35,1.37
					c-11.3,6.85-22.19,13.27-31.48,20.07c-4.62,3.4-8.91,6.86-12.19,10.7c-3.45,3.74-4.15,8.61-4.85,12.89
					c-0.61,4.32-0.83,8.3-0.97,11.8c-0.13,3.5-0.14,6.52-0.13,9c0.02,2.47,0.04,4.4,0.06,5.71c0.01,1.31,0,2-0.07,2
					c-0.06,0-0.18-0.68-0.31-1.98c-0.13-1.3-0.28-3.23-0.39-5.71c-0.11-2.48-0.21-5.52-0.17-9.04c0.05-3.52,0.18-7.53,0.72-11.94
					c0.25-2.21,0.69-4.51,1.33-6.88c0.4-1.17,0.75-2.39,1.4-3.54c0.61-1.16,1.41-2.2,2.22-3.24c3.38-4.07,7.7-7.61,12.33-11.11
					c9.31-6.96,20.21-13.5,31.44-20.41l3.64-2.24l-2.28,3.61c-0.91,1.43-1.82,2.87-2.74,4.33l0.73-0.18
					c1.04-0.25,2.09-0.5,3.14-0.74c2.12-0.49,4.24-0.98,6.37-1.47c4.27-0.97,8.57-1.91,12.89-2.8c4.32-0.89,8.67-1.74,13.03-2.48
					c4.35-0.73,8.77-1.4,13.22-1.51c4.42-0.15,8.77-0.05,13.08,0.11c4.31,0.15,8.56,0.42,12.74,0.7c8.36,0.61,16.46,1.37,24.13,2.4
					c3.84,0.5,7.56,1.08,11.19,1.89c0.9,0.16,1.81,0.5,2.71,0.79c0.92,0.26,1.71,0.7,2.56,1.04c0.84,0.35,1.62,0.78,2.4,1.18
					c0.78,0.4,1.55,0.81,2.28,1.25c5.91,3.45,10.95,7.12,15.38,10.41c8.82,6.6,15.19,11.87,18.6,14.18
					c0.27,0.19,0.75,0.52,1.15,0.87c0.19,0.18,0.39,0.37,0.59,0.57c0.18,0.21,0.36,0.42,0.55,0.64c0.72,0.9,1.39,1.96,2.03,3.15
					c1.28,2.38,2.44,5.29,3.62,8.63c1.17,3.34,2.33,7.11,3.59,11.22c0.63,2.05,1.29,4.19,2.03,6.37c0.37,1.09,0.76,2.19,1.18,3.29
					c0.21,0.55,0.44,1.09,0.67,1.64l0.37,0.8c0.24,0.48,0.48,0.96,0.73,1.44c-0.39,0.58-0.78,1.16-1.17,1.74
					c-0.25,0.39-0.51,0.79-0.76,1.18c-0.51,0.8-1,1.61-1.5,2.44c-0.98,1.66-1.93,3.38-2.75,5.17c-0.4,0.89-0.79,1.8-1.06,2.72
					c-0.07,0.23-0.14,0.46-0.2,0.68l-0.13,0.66c-0.06,0.23-0.04,0.42-0.06,0.63l-0.02,0.34c0.01,0.26-0.04,0.52-0.11,0.77
					c-0.37,0.96-0.96,1.38-1.47,1.77c-0.52,0.37-1.05,0.64-1.57,0.89c-1.05,0.48-2.1,0.86-3.17,1.19c-4.26,1.3-8.67,2.12-13.19,2.88
					c-2.26,0.37-4.55,0.71-6.86,1.01l-1.74,0.22l-0.88,0.1l-0.68,0.18c-1.13,0.31-2.26,0.62-3.4,0.93
					c-4.55,1.26-9.15,2.57-13.78,3.96c-4.61,1.4-9.31,2.81-13.81,4.55c-1.11,0.43-2.24,0.92-3.09,1.43
					c-1.29,0.88-2.62,1.16-3.9,1.41c-2.58,0.43-5.1,0.42-7.61,0.31c-1.25-0.06-2.5-0.15-3.74-0.28c-0.62-0.06-1.24-0.13-1.86-0.21
					l-0.47-0.06c-0.1-0.01-0.06-0.01-0.09-0.01l-0.9,0.19c-2.41,0.48-4.82,0.97-7.22,1.45c-4.81,0.94-9.59,1.85-14.35,2.62
					c-1.2,0.18-2.39,0.36-3.59,0.51c-0.61,0.07-1.21,0.13-1.84,0.18l-0.99,0.03c-0.33-0.02-0.64-0.04-0.94-0.08
					c-2.41-0.26-4.73-0.62-7.05-1c-4.62-0.77-9.14-1.67-13.52-2.69c-4.38-1.03-8.64-2.16-12.68-3.59c-2.02-0.72-3.99-1.51-5.86-2.51
					c-0.94-0.49-1.84-1.06-2.69-1.72l-0.52-0.46c-0.03-0.03-0.06-0.06-0.11-0.06l-0.23-0.03c-0.49-0.07-0.98-0.14-1.47-0.21
					c-3.91-0.55-7.66-1.08-11.23-1.59c-7.17-1.03-13.61-1.96-19.11-2.75c-3.79-1.71-7.11-3.21-9.88-4.46
					c-1.19-1.17-2.24-2.22-3.16-3.13c-0.89-0.9-1.65-1.67-2.27-2.29C408.23,261.29,407.61,260.6,407.66,260.55z"/>
			</g>
		</g>
	</g>
	<g>
		<g>
			<g>
				<path d="M598.2,340.2c0.02,0.08-0.6,0.34-1.78,0.76c-0.3,0.1-0.63,0.21-0.99,0.34c-0.18,0.06-0.37,0.12-0.57,0.19
					c-0.19,0.07-0.43,0.12-0.54,0.2c-0.87,0.54-1.94,0.63-2.88,1.15c-0.95,0.48-1.78,1.34-2.19,2.58c-0.43,1.26-0.81,2.75-1.22,4.29
					c-0.4,1.55-0.8,3.21-1.21,4.96c-0.11,0.46-0.21,0.93-0.32,1.4c-0.04,0.79-0.84,1.17-1.55,1.28c-0.59,0.09-1.13,0.04-1.66-0.04
					l-0.2-0.03l-0.29-0.06l-0.57-0.15c-0.37-0.1-0.78-0.2-1.13-0.33l0.24-1.03l0.19-0.93c0.07-0.42,0.14-0.84,0.21-1.26
					c0.13-0.85,0.23-1.72,0.31-2.6c0.15-1.76,0.18-3.58-0.04-5.39c-0.22-1.79-0.72-3.62-1.79-4.98c-0.26-0.35-0.57-0.64-0.9-0.9
					c-0.33-0.25-0.68-0.44-1.1-0.62c-0.84-0.35-1.78-0.59-2.75-0.79c-3.91-0.73-8.14-0.88-12.39-0.92
					c-4.26-0.02-8.6,0.11-12.94,0.35c-2.16,0.14-4.36,0.22-6.45,0.49c-2.13,0.26-4.24,0.62-6.33,1.05
					c-4.16,0.87-8.21,2.05-11.93,3.66c-3.7,1.62-7.1,3.7-9.52,6.42c-1.21,1.35-2.14,2.86-2.73,4.45l-0.12,0.35
					c-0.08,0.21-0.15,0.44-0.24,0.64c-0.1,0.19-0.14,0.44-0.29,0.58l-0.64,0.15c-1.03,0.18-1.32,0.17-1.89,0.18
					c-0.54-0.01-0.97-0.04-1.59-0.15c-0.87-0.18-1.62-0.48-2.43-0.76c0.2-0.76,0.35-1.49,0.64-2.24l0.26-0.69l0.26-0.58
					c0.33-0.78,0.76-1.48,1.14-2.19c0.44-0.67,0.85-1.34,1.31-1.96c0.48-0.6,0.93-1.21,1.41-1.77c0.5-0.54,1-1.06,1.48-1.57
					c0.48-0.51,1.02-0.93,1.52-1.39c0.97-0.93,2.03-1.61,2.98-2.33c0.47-0.37,0.96-0.67,1.44-0.95c0.48-0.29,0.93-0.56,1.38-0.83
					c0.87-0.56,1.74-0.95,2.51-1.33c0.78-0.38,1.48-0.71,2.1-1.01c0.64-0.25,1.2-0.46,1.66-0.64c1.04-0.4,2.52-1.02,4.47-1.52
					c0.97-0.26,2.02-0.63,3.19-0.89c1.17-0.24,2.44-0.51,3.79-0.79c5.45-0.95,12.27-1.66,19.98-1.79c3.85-0.07,7.93-0.01,12.14,0.25
					c4.2,0.23,8.59,0.75,12.91,1.16c2.15,0.16,4.34,0.18,6.55,0.07c1.1-0.05,2.2-0.14,3.3-0.25c1.05-0.12,2.22-0.32,3.32-0.47
					c4.17-0.61,8.36-1.22,12.5-1.83c-0.05-1.86-0.11-3.72-0.16-5.56c-0.04-2.15-0.09-4.29-0.13-6.4c-0.06-4.22-0.08-8.35,0-12.33
					c0.06-1.99,0.11-3.94,0.29-5.87c0.06-0.94,0.27-2.01,0.37-2.82c0.13-0.86,0.18-1.78,0.24-2.65c0.2-3.55,0.24-6.92,0.27-10.02
					c0-6.2,0-11.31,0-14.88c0.01-3.57,0.06-5.58,0.21-5.59c0.15-0.01,0.36,2,0.59,5.57c0.22,3.56,0.46,8.68,0.59,14.9
					c0.05,3.11,0.1,6.49-0.04,10.11c-0.05,0.91-0.08,1.82-0.2,2.79c-0.11,1.02-0.26,1.79-0.31,2.75c-0.14,1.85-0.16,3.78-0.19,5.75
					c-0.02,3.94,0.05,8.05,0.16,12.26c0.06,2.1,0.13,4.23,0.2,6.38c0.1,2.46,0.19,4.93,0.29,7.42c-4.76,0.73-9.57,1.47-14.36,2.21
					c-4.49,0.81-9.15,1.05-13.65,0.75c-4.48-0.39-8.72-0.89-12.88-1.1c-4.15-0.24-8.16-0.29-11.96-0.21
					c-3.8,0.07-7.38,0.3-10.67,0.59c-1.66,0.12-3.22,0.34-4.7,0.54c-0.74,0.1-1.47,0.2-2.17,0.29c-0.35,0.05-0.7,0.1-1.04,0.14
					c-0.34,0.07-0.67,0.14-1,0.21c-1.31,0.27-2.53,0.53-3.67,0.77c-1.13,0.25-2.14,0.6-3.07,0.86c-1.87,0.49-3.28,1.08-4.27,1.46
					c-0.45,0.17-0.98,0.37-1.59,0.61c-0.59,0.28-1.25,0.6-1.99,0.96c-0.73,0.36-1.56,0.72-2.37,1.25c-0.42,0.25-0.85,0.51-1.29,0.78
					c-0.45,0.26-0.91,0.54-1.35,0.89c-0.88,0.67-1.88,1.31-2.77,2.17c-0.45,0.42-0.96,0.81-1.4,1.28c-0.44,0.47-0.9,0.95-1.36,1.44
					c-0.44,0.51-0.85,1.07-1.29,1.61c-0.41,0.56-0.79,1.17-1.19,1.77c-0.34,0.63-0.73,1.26-1.01,1.94l-0.23,0.51l-0.16,0.43
					l-0.01,0.01l0.01,0.01c0.25,0.05,0.71,0.09,1.08,0.09c0.33,0.01,0.96-0.05,0.82-0.04l0.01,0l0,0l0.11-0.3
					c0.7-1.88,1.82-3.65,3.2-5.19c2.78-3.09,6.47-5.29,10.37-6.98c3.92-1.68,8.11-2.87,12.4-3.75c2.15-0.43,4.32-0.78,6.52-1.04
					c2.24-0.26,4.4-0.33,6.6-0.45c4.38-0.21,8.75-0.31,13.07-0.24c4.32,0.09,8.59,0.27,12.76,1.1c1.04,0.23,2.08,0.51,3.11,0.95
					c0.51,0.22,1.05,0.52,1.5,0.89c0.45,0.37,0.86,0.78,1.19,1.23c1.37,1.82,1.84,3.94,2.07,5.9c0.21,1.98,0.13,3.9-0.06,5.74
					c-0.1,0.92-0.22,1.82-0.38,2.7c-0.08,0.44-0.17,0.88-0.25,1.31l-0.08,0.34l-0.06,0.23c0.05,0.04,0.16,0.06,0.24,0.09l0.13,0.04
					l0.23,0.05c0.42,0.08,0.85,0.11,1.19,0.07c0.19-0.02,0.41-0.09,0.41-0.31c0.11-0.42,0.22-0.84,0.33-1.26
					c0.46-1.75,0.91-3.4,1.37-4.95c0.47-1.56,0.88-2.99,1.42-4.35c0.52-1.41,1.65-2.51,2.81-2.99c1.15-0.52,2.24-0.56,2.94-0.96
					c0.28-0.14,0.49-0.14,0.69-0.21c0.2-0.05,0.4-0.09,0.59-0.14c0.37-0.09,0.71-0.16,1.02-0.23
					C597.51,340.22,598.17,340.11,598.2,340.2z"/>
			</g>
		</g>
	</g>
	<g>
		<g>
			<g>
				<path d="M405.79,390.04c-0.08,0.13-0.5-0.01-1.22-0.4c-0.65-0.46-1.59-1.22-2.3-2.46c-0.74-1.21-1.31-2.79-1.6-4.53
					c-0.29-1.72-0.32-3.7-0.11-5.52c0.25-3.6,0.34-7.36,0.29-10.4c-0.04-3.04-0.19-5.39-0.27-6.26c-0.07-0.87-0.25-3.21-0.78-6.17
					c-0.13-0.74-0.28-1.52-0.5-2.28c-0.17-0.79-0.47-1.56-0.74-2.37c-0.62-1.58-1.42-3.16-2.41-4.59c-0.98-1.44-2.14-2.73-3.34-3.81
					c-0.6-0.53-1.19-1.03-1.78-1.46c-0.11-0.1-0.2-0.17-0.33-0.27l-0.19-0.14c-0.03-0.01-0.08-0.07-0.09-0.04l-0.03,0.08
					c-0.04,0.12-0.09,0.24-0.12,0.35c-0.02,0.07-0.05,0.13-0.07,0.2c-0.02,0.06-0.07,0.25-0.1,0.36c-0.14,0.52-0.26,0.96-0.38,1.33
					c-0.24,0.73-0.44,1.13-0.59,1.11c-0.15-0.02-0.21-0.47-0.21-1.24c0-0.38,0.02-0.85,0.06-1.38c0.01-0.15,0.02-0.3,0.04-0.45
					c0.02-0.22,0.05-0.44,0.07-0.67c0.05-0.48,0.13-0.94,0.21-1.44l0.07-0.38c-0.01-0.1,0.07-0.04,0.12-0.02l0.17,0.07
					c0.23,0.1,0.47,0.21,0.71,0.32c0.48,0.23,1.03,0.51,1.55,0.84c0.69,0.4,1.37,0.89,2.07,1.42c1.38,1.08,2.72,2.42,3.87,3.97
					c1.16,1.54,2.11,3.26,2.83,5c0.32,0.88,0.67,1.74,0.87,2.6c0.26,0.86,0.42,1.68,0.57,2.45c0.59,3.1,0.77,5.53,0.84,6.42
					c0.08,0.9,0.24,3.32,0.25,6.43c0.01,3.12-0.16,6.92-0.56,10.62c-0.57,3.53-0.19,6.95,0.84,9.19c0.47,1.15,1.14,1.92,1.58,2.51
					C405.59,389.54,405.86,389.91,405.79,390.04z"/>
			</g>
		</g>
	</g>
	<path d="M400.57,352.15c0,0-4,13.13-3.57,16.99s1.79,10.58,4.43,11.45C401.43,380.59,403.24,358.55,400.57,352.15z"/>
	<g>
		<g>
			<g>
				<path d="M594.19,390.04c-0.08-0.13,0.19-0.5,0.7-1.01c0.44-0.59,1.11-1.36,1.58-2.51c1.02-2.24,1.41-5.66,0.84-9.19
					c-0.41-3.7-0.57-7.5-0.56-10.62c0.01-3.12,0.16-5.53,0.25-6.43c0.07-0.9,0.25-3.32,0.84-6.42c0.15-0.77,0.32-1.59,0.57-2.45
					c0.2-0.86,0.55-1.72,0.87-2.6c0.72-1.73,1.67-3.46,2.83-5c1.15-1.54,2.5-2.89,3.87-3.97c0.69-0.53,1.38-1.02,2.07-1.42
					c0.52-0.32,1.07-0.61,1.55-0.84c0.24-0.11,0.47-0.21,0.71-0.32l0.17-0.07c0.05-0.02,0.13-0.08,0.12,0.02l0.07,0.38
					c0.09,0.5,0.17,0.96,0.21,1.44c0.02,0.23,0.05,0.45,0.07,0.67c0.01,0.15,0.02,0.3,0.04,0.45c0.04,0.53,0.06,1,0.06,1.38
					c0.01,0.77-0.05,1.22-0.21,1.24c-0.15,0.02-0.35-0.38-0.59-1.11c-0.12-0.37-0.25-0.81-0.38-1.33c-0.03-0.11-0.07-0.3-0.1-0.36
					c-0.02-0.06-0.04-0.13-0.07-0.2c-0.04-0.11-0.08-0.23-0.12-0.35l-0.03-0.08c-0.01-0.03-0.06,0.03-0.09,0.04l-0.19,0.14
					c-0.12,0.09-0.21,0.17-0.33,0.27c-0.59,0.42-1.18,0.92-1.78,1.46c-1.19,1.08-2.35,2.37-3.34,3.81c-0.99,1.44-1.8,3.02-2.41,4.59
					c-0.27,0.8-0.57,1.58-0.74,2.37c-0.22,0.77-0.37,1.54-0.5,2.28c-0.53,2.96-0.7,5.3-0.78,6.17c-0.08,0.87-0.23,3.21-0.27,6.26
					c-0.05,3.04,0.04,6.79,0.29,10.4c0.21,1.82,0.18,3.8-0.11,5.52c-0.29,1.74-0.86,3.32-1.6,4.53c-0.71,1.24-1.65,2-2.3,2.46
					C594.69,390.02,594.27,390.17,594.19,390.04z"/>
			</g>
		</g>
	</g>
	<path d="M599.4,352.15c0,0,4,13.13,3.57,16.99s-1.79,10.58-4.43,11.45C598.54,380.59,596.73,358.55,599.4,352.15z"/>
	<g>
		<g>
			<g>
				<path d="M577.25,272.07c0.24-0.14,1.98,2.28,3.79,6.48c0.44,1.06,0.88,2.23,1.24,3.52c0.17,0.65,0.33,1.33,0.43,2.06
					c0.07,0.35,0.07,0.74,0.1,1.12c0.02,0.34,0.05,0.68,0.07,1.02c0.27,2.74,0.84,5.79,1.39,8.83c1.14,6.11,2.46,12.4,3.62,17.49
					c0.29,1.27,0.58,2.47,0.86,3.56c0.15,0.53,0.28,1.07,0.42,1.53c0.16,0.5,0.3,0.98,0.44,1.43c0.52,1.93,0.69,3.32,0.81,4.09
					c0.24,1.52,0.7,5.62,0.9,10.89c0.23,5.26,0.42,11.7,0.43,17.96c0.01,6.26-0.16,12.34-0.66,16.85c-0.06,0.56-0.11,1.1-0.19,1.61
					c-0.04,0.26-0.08,0.5-0.11,0.75c-0.02,0.12-0.04,0.24-0.06,0.36l-0.03,0.17l-0.02,0.09c-0.01,0.11-0.11,0.26,0.02,0.33
					c0.09,0.09,0.13,0.15,0.29,0.31c0.27,0.28,0.52,0.54,0.75,0.77c0.89,0.94,1.36,1.53,1.25,1.64c-0.1,0.11-0.74-0.27-1.79-1.04
					c-0.26-0.2-0.55-0.41-0.86-0.65c-0.2-0.16-0.41-0.32-0.62-0.5c-0.36-0.15-0.16-0.53-0.18-0.85c0.03-0.47,0.06-0.98,0.09-1.51
					c0.04-0.5,0.04-1.04,0.06-1.6c0.15-4.46,0.1-10.49-0.06-16.72c-0.16-6.22-0.42-12.64-0.69-17.87
					c-0.23-5.22-0.69-9.21-0.92-10.66c-0.11-0.72-0.29-2.11-0.74-3.77c-0.14-0.44-0.28-0.91-0.43-1.4
					c-0.16-0.53-0.29-1.06-0.44-1.63c-0.28-1.12-0.57-2.34-0.85-3.63c-1.14-5.15-2.39-11.47-3.39-17.66
					c-0.48-3.11-0.96-6.13-1.13-9.09c-0.01-0.37-0.02-0.73-0.03-1.1c-0.02-0.32,0-0.63-0.05-0.95c-0.06-0.64-0.17-1.26-0.29-1.87
					c-0.26-1.22-0.62-2.37-0.96-3.41C578.29,274.86,576.97,272.23,577.25,272.07z"/>
			</g>
		</g>
	</g>
	<g>
		<g>
			<g>
				<path d="M433.64,464.85c-1.19,0.25-3.11-8.84-3.36-10.01c-0.25-1.17-2.18-10.26-0.99-10.51c1.19-0.25,3.11,8.84,3.36,10.01
					C432.89,455.51,434.83,464.6,433.64,464.85z"/>
			</g>
		</g>
	</g>
	<g>
		<g>
			<g>
				<path d="M566.36,463.85c-1.19-0.27,0.74-8.91,0.99-10.02c0.25-1.11,2.16-9.76,3.35-9.5c1.19,0.27-0.74,8.91-0.99,10.02
					C569.47,455.46,567.56,464.11,566.36,463.85z"/>
			</g>
		</g>
	</g>
</g>
<g id="guides" class="st0">
	<line class="st28" x1="500" y1="0" x2="500" y2="1000"/>
	<line class="st28" x1="0" y1="500" x2="1000" y2="500"/>
</g>
</svg>
