<?xml version="1.0" encoding="utf-8"?>
<!-- Generator: Adobe Illustrator 24.1.0, SVG Export Plug-In . SVG Version: 6.00 Build 0)  -->
<svg version="1.1" xmlns="http://www.w3.org/2000/svg" xmlns:xlink="http://www.w3.org/1999/xlink" x="0px" y="0px"
	 viewBox="0 0 270 350" style="enable-background:new 0 0 270 350;" xml:space="preserve">
<style type="text/css">
	.st0{display:none;}
	.st1{display:inline;}
	.st2{fill:#FFFFFF;stroke:#FFFFFF;stroke-miterlimit:10;}
	.st3{fill:#AA7752;}
	.st4{fill:#CC996E;}
	.st5{fill:#77661E;}
	.st6{fill:#191919;}
	.st7{opacity:0.57;fill:#232323;}
	.st8{opacity:0.15;fill:#BCE8E8;}
	.st9{opacity:0.13;fill:#BCE8E8;}
	.st10{fill:#D8A988;}
	.st11{fill:#DDAE8C;}
	.st12{fill:#724729;}
	.st13{fill:#A5744C;}
	.st14{fill:#FCEDF0;}
	.st15{fill:#3D1B04;}
	.st16{fill:none;}
	.st17{opacity:0.4;fill:#BCE8E8;}
	.st18{opacity:0.5;fill:#BCE8E8;}
	.st19{fill:#84573E;}
	.st20{fill:#3A241A;}
</style>
<g id="fondo" class="st0">
	<rect x="0.26" class="st1" width="269.74" height="350.32"/>
</g>
<g id="Capa_1">
	<path class="st2" d="M205.49,307.79c19-24.42,30.73-60.77,30.73-60.77c2.76-1.16,13.82,0.9,20.09-19.03
		c1.33-4.22,5.05-21.06,12.16-47.42c4.42-16.37-9.57-15.33-9.57-15.33s-0.54-18.06,0.54-23.2c1.08-5.14,1.58-29.57,0-33.04
		c-1.58-3.46,7.64-24.69,7.64-24.69c-2.51-2.3-14.63-42.44-17.01-45.01S212.6,9.89,195.86,7.16c-16.74-2.74-60.83-5.35-66.88-5.21
		c-6.05,0.13-52.3,9.87-52.3,9.87l7.98-11.78c-6.23,2.14-58.48,36.14-64.45,52c-5.97,15.86-2.4,40.23-2.4,40.23
		C11.26,126.17,11.16,165,11.16,165c-9.11-2.09-11.95,15.81-9.29,24.56c2.6,8.55,9.19,35.6,10.52,39.23
		c4.63,12.64,7.97,13.82,18.88,18.07c1.34,0.52,8.29,28.36,33.57,63.5c18.1,25.15,40.61,39.96,69.77,39.96
		C149.47,349.49,169.07,354.61,205.49,307.79z"/>
	<g id="XMLID_2_">
		<g>
			<path class="st3" d="M243.93,168.41c11.25-2.9,6.29,18.16,2.92,26.51c-3.38,8.36-5.4,26.68-5.88,31.02
				c-0.48,4.31-5.84,16.83-18.07,18.23c0.58-2.63,1.2-5.79,1.86-9.71c1.03-6.13,2.02-13.8,2.86-21.2
				c1.61-14.08,2.71-27.23,2.71-27.23s0.57-3.55,2.48-7.52C234.79,174.41,238.21,169.88,243.93,168.41z"/>
			<path d="M227.88,170.82l16.05-2.41c-5.72,1.47-9.14,6-11.12,10.1l-3.96,1.13c-0.74,0.56-2.36,0.55-3.75,1.54
				c-0.19-5.84-0.42-10.05-0.42-10.05C226.65,171,227.88,170.82,227.88,170.82z"/>
			<path d="M243.93,101.45c0.06,1.44,1.08,28.17,0,34.01c-1.1,6,0,32.95,0,32.95l-16.05,2.41c0,0-1.24,0.18-3.2,0.31
				c0,0-0.42-10.06-1.82-14.03c-1.39-3.96-6.32-35.24-6.32-40.32c0-5.14-4.67-13.39-4.67-13.39l-0.05-0.17
				c2.5-0.69,4.08-1.12,4.08-1.12S243.93,105.86,243.93,101.45z"/>
			<path d="M228.85,179.64l3.96-1.13c-1.91,3.97-2.48,7.52-2.48,7.52s-1.1,13.15-2.71,27.23l-2.94-2.59
				c0.92-7.08,0.71-20.3,0.42-29.49C226.49,180.19,228.12,180.2,228.85,179.64z"/>
			<path class="st4" d="M214.38,177.12c5.63,4.18,2.25,17.41,2.25,17.41s-1.07,11.43-9.27,18.98c-8.19,7.56-32.87,8.4-38.34,7.43
				c-5.46-0.96-22.88-0.25-22.66-30.36c4.45-15.17,33.49-17.39,33.49-17.39S208.76,172.94,214.38,177.12z"/>
			<path d="M217.27,171.14c2.84,0.19,5.48,0.12,7.41-0.01c0,0,0.23,4.21,0.42,10.05c-0.75,0.53-1.43,1.35-1.88,2.69
				c-1.29,3.86-2.89,10.66-2.89,10.66s-0.65,0.97-3.7,0c0,0,3.38-13.23-2.25-17.41c-5.62-4.18-34.53-3.93-34.53-3.93
				s-29.04,2.22-33.49,17.39c0,0-2.16,0.54-4.32-0.3c0,0,0.22-1.01,0.98-2.6c2.48-5.2,10.78-16.59,36.34-19.15
				C198.95,166.57,211.88,170.77,217.27,171.14z"/>
			<path class="st5" d="M134.62,186.64c4.07,0,8.26,1,8.26,1l0.15,0.04c-0.76,1.59-0.98,2.6-0.98,2.6s-3.36-0.95-7.43-0.95
				c-4.06,0-6.96,0.95-6.96,0.95s-0.26-1.07-1.11-2.74C127.46,187.35,131.1,186.64,134.62,186.64z"/>
			<path class="st4" d="M52.6,194.53c0,0-3.38-13.23,2.25-17.41c5.62-4.18,34.53-3.93,34.53-3.93s29.04,2.22,33.48,17.39
				c0.23,30.11-17.19,29.4-22.66,30.36c-5.46,0.97-30.14,0.13-38.34-7.43C53.67,205.96,52.6,194.53,52.6,194.53z"/>
			<path class="st4" d="M44.47,234.46c-1.03-6.12-2.01-13.75-2.85-21.13l1.03-0.07l1.99-1.55c-1.26-7.14-1.58-21.52-1.65-31.13
				c1.15,0.45,2.35,1.28,3.02,3.29c1.28,3.86,2.89,10.66,2.89,10.66s0.64,0.97,3.7,0c0,0,1.07,11.43,9.26,18.98
				c8.2,7.56,32.88,8.4,38.34,7.43c5.47-0.96,22.89-0.25,22.66-30.36c0,0,2.64,0.54,4.79-0.3c0,0,2.9-0.95,6.96-0.95
				c4.07,0,7.43,0.95,7.43,0.95c2.16,0.84,4.32,0.3,4.32,0.3c-0.22,30.11,17.2,29.4,22.66,30.36c5.47,0.97,30.15,0.13,38.34-7.43
				c8.2-7.55,9.27-18.98,9.27-18.98c3.05,0.97,3.7,0,3.7,0s1.6-6.8,2.89-10.66c0.45-1.34,1.13-2.16,1.88-2.69
				c0.29,9.19,0.5,22.41-0.42,29.49l2.94,2.59c-0.84,7.4-1.83,15.07-2.86,21.2c-0.66,3.92-1.28,7.08-1.86,9.71
				c-2.09,9.3-3.84,12.02-6.1,18.79c-2.89,8.68-19.65,36.36-45.35,62.55c-13.46,13.73-36.84,11.97-36.84,11.97s-20.18,3-37.62-12.94
				c-20.65-18.87-41.04-51.73-43.93-60.4c-2.26-6.8-4.41-10.24-6.67-19.95C45.76,241.5,45.13,238.32,44.47,234.46z"/>
			<path d="M51.96,171.14c5.41-0.37,18.34-4.57,37.91-2.61c25.34,2.54,33.99,13.75,36.68,19.01c0.85,1.67,1.11,2.74,1.11,2.74
				c-2.15,0.84-4.79,0.3-4.79,0.3c-4.44-15.17-33.48-17.39-33.48-17.39s-28.91-0.25-34.53,3.93c-5.63,4.18-2.25,17.41-2.25,17.41
				c-3.06,0.97-3.7,0-3.7,0s-1.61-6.8-2.89-10.66c-0.67-2.01-1.87-2.84-3.02-3.29c-0.03-5.43,0.02-9.34,0.02-9.57
				C44.92,171.18,48.28,171.39,51.96,171.14z"/>
			<path class="st4" d="M51.96,171.14c-3.68,0.25-7.03,0.04-8.94-0.13c0-0.01,0-0.01,0-0.01s1.57-9.18,4.46-14.81
				c2.89-5.62,7.39-37.37,8.04-44.28c0.59-6.37,3.92-8.37,4.43-8.64l31.89,4.3c6.75,6.75,39,11.71,43.02,11.87
				c4.01,0.16,28.83-5.07,28.83-5.07s13.02,1.93,17.04-0.96c3.11-2.25,22.51-7.8,31.1-10.19l0.05,0.17c0,0,4.67,8.25,4.67,13.39
				c0,5.08,4.93,36.36,6.32,40.32c1.4,3.97,1.82,14.03,1.82,14.03c-1.93,0.13-4.57,0.2-7.41,0.01c-5.4-0.37-18.33-4.57-37.91-2.61
				c-25.56,2.56-33.86,13.95-36.34,19.15l-0.15-0.04c0,0-4.19-1-8.26-1c-3.51,0-7.15,0.71-8.07,0.9
				c-2.69-5.26-11.34-16.47-36.68-19.01C70.29,166.57,57.37,170.77,51.96,171.14z"/>
			<path d="M40.38,179.64c0.54,0.41,1.56,0.51,2.61,0.94c0.07,9.61,0.39,23.99,1.65,31.13l-1.99,1.55l-1.03,0.07
				c-1.61-14.1-2.72-27.3-2.72-27.3s-0.57-3.55-2.49-7.52h0.01L40.38,179.64z"/>
			<path class="st3" d="M22.39,194.92c-3.37-8.35-8.34-29.41,2.91-26.51c5.72,1.47,9.14,6,11.12,10.1c1.92,3.97,2.49,7.52,2.49,7.52
				s1.11,13.2,2.72,27.3c0.84,7.38,1.82,15.01,2.85,21.13c0.65,3.86,1.29,7.04,1.92,9.73c-12.27-1.37-17.65-13.93-18.13-18.25
				C27.77,221.6,25.76,203.28,22.39,194.92z"/>
			<path d="M25.33,168.08c0,0,1.42-15.26,1.74-22.01s5.3-48.86,7.55-55.45c0,0-1.93-22.52,2.57-33.45
				c4.5-10.92,32.65-27,46.54-35.57l-4.11,6.43c0,0,33.43-8.14,47.79-9.43c14.36-1.28,53.83,2.15,65.59,5.15
				c11.77,3,36.36,24.42,42.92,28.71c6.56,4.29,11.08,24.14,15.46,32.29c0,0-7.69,12.14-7.44,16.64c0,0,0,0.02,0,0.06
				c0,4.41-28.03,0.65-28.03,0.65s-1.58,0.43-4.08,1.12c-8.59,2.39-27.99,7.94-31.1,10.19c-4.02,2.89-17.04,0.96-17.04,0.96
				s-24.82,5.23-28.83,5.07c-4.02-0.16-36.27-5.12-43.02-11.87l-31.89-4.3c-0.51,0.27-3.84,2.27-4.43,8.64
				c-0.65,6.91-5.15,38.66-8.04,44.28c-2.89,5.63-4.46,14.81-4.46,14.81s0,0,0,0.01c-1.05-0.1-1.66-0.19-1.66-0.19l-16-2.74H25.33z"
				/>
			<path d="M25.35,168.08l16,2.74c0,0,0.61,0.09,1.66,0.19c0,0.23-0.05,4.14-0.02,9.57c-1.05-0.43-2.07-0.53-2.61-0.94l-3.96-1.13
				h-0.01c-1.98-4.1-5.4-8.63-11.12-10.1L25.35,168.08z"/>
		</g>
		<g>
		</g>
	</g>
	<path class="st6" d="M42.28,213.45l2.23-1.48c0,0-2.11-21.02-1.14-31.42l-6.94-2.04l2.23,7.27L42.28,213.45z"/>
	<path class="st7" d="M43.05,170.2c0,0,2.44-10.31,5.25-14.81s7.31-42.68,7.31-42.68s0.29-5.63,1.96-7.2l2.14-2.6
		c0,0,26.74,4.49,31.98,4.72c0,0,9,7.79,42.63,12.06l29.07-5.08c0,0,10.37,1.94,13.7,0.49c3.33-1.45,9.03-3.91,9.03-3.91l25.45-7.55
		c0,0,3.98,7.5,4.3,11.84c0.32,4.34,3.38,31.7,6.7,41.87c0,0,0.92,4.17,1.82,12.63l13.89-1.59c0,0-2.52-20.46-2.42-28.18
		c0.1-7.71-3.6-36.55-3.6-36.55h5.06l6.81-10.95c0,0-9.04-23.25-11.38-27.43c-4.7-8.36-24.43-24.86-34.71-30.64
		c-10.29-5.79-28-5.36-62.71-5.36s-41.29,13.46-54.14,21.5L91.6,31.98c0,0-31.66,20.75-39.04,31.36s-6.85,15.32-7.29,34.21
		c0,0-8.63,16.55-12.99,70.83L43.05,170.2z"/>
	<path class="st6" d="M226.72,212.5l-2.23-1.48c0,0,2.08-20.2,1.11-30.6l6.84-1.8l-2.1,6.21L226.72,212.5z"/>
	<path class="st8" d="M42.6,169.91l-6.37-0.77c0,0,7.43-31.9,8.14-36.82c3.6-24.91,6.92-29.3,6.66-32.03
		c-0.4-4.23,0-13.46,1.13-16.19c1.13-2.73,3.22-11.44,4.98-13.54C65.87,60.15,92.17,54.7,92.17,54.7s-3.16,17.82-2.61,21.04
		s13.31-20.71,35.71-29.8c9.95-4.04,64.46-5.49,61.39-3.96c-28.84,14.34-43.14,28.39-39.23,27.71c27.21-4.76,29.24-4.12,36.27-5.07
		c0,0,31.62,6.45,37.52,9.84c5.75,3.31,17.67,16.12,17.67,16.12l-25.33,2.88l13.11,10.26l-1.14,2.81c0,0,1.32,25.86,2.39,30.57
		c0.66,2.91,2.86,32.14,2.86,32.14l-6.39,0.73l-10.23-42.47L56.6,130.95L42.6,169.91z"/>
	<path class="st9" d="M62.25,107.52c0,0-6.91-6.13-5.08-29.34l9.88,26.38c0,0-1.29-29.96,14.6-37.95c0,0-4.11,28.12,2.24,35.49
		c0,0,16.35-46.9,57.17-46.26c0,0-20.73,29.48,15.75,49.16c0,0,3.92-31.15,33.4-29.25c0,0,33.06-0.86,49.4,15.25
		c0,0-13.8,0.72-23.01,2.06c0,0,5.78,7.46,10.04,10.58c0,0-0.16,0.45-10.73-1.53l-78.34,27.07L62.25,107.52z"/>
	<g>
		<g>
			<g>
				<path d="M91.02,107.22c-0.08,0.12-1.52-0.7-3.53-2.78c-1-1.04-2.14-2.4-3.18-4.16c-1.03-1.75-1.96-3.94-2.32-6.5
					c-0.16-1.28-0.21-2.61-0.04-4.04c0.21-1.43,0.69-2.79,1.25-4.14c1.18-2.68,2.74-5.31,4.51-7.93
					c3.54-5.24,7.87-10.48,12.57-15.51c2.36-2.51,4.82-4.96,7.4-7.28c1.29-1.16,2.61-2.28,4-3.33c0.69-0.53,1.4-1.03,2.14-1.51
					c0.37-0.24,0.76-0.47,1.14-0.69l1.14-0.57c0.76-0.38,1.52-0.75,2.27-1.13c0.76-0.36,1.48-0.78,2.27-1.05
					c1.55-0.59,3.07-1.18,4.57-1.76c1.54-0.45,3.05-0.89,4.53-1.32c1.48-0.41,2.96-0.66,4.39-0.98c1.42-0.34,2.83-0.5,4.18-0.71
					c1.35-0.2,2.66-0.4,3.92-0.49c1.26-0.12,2.47-0.23,3.62-0.33c1.15-0.06,2.24-0.11,3.27-0.16c2.06-0.13,3.85-0.11,5.34-0.14
					c1.49-0.03,2.67-0.02,3.5-0.01c2.06-0.01,6.28,0.08,11.9,0.17c5.59,0.02,12.73,0.23,19.99-1.75l10.44-2.84l-9.55,5.01
					c-7.66,4.02-16.09,8.54-24.27,13.24c-4.06,2.37-8.16,4.75-11.73,7.38c-1.71,1.27-3.11,2.99-4.39,4.69
					c-1.26,1.73-2.36,3.51-3.28,5.32c-1.83,3.59-3.03,7.27-3.05,10.59c0,1.65,0.27,3.2,0.89,4.48c0.28,0.66,0.68,1.22,1.07,1.74
					c0.43,0.55,0.87,1.08,1.25,1.6c1.56,2.07,2.62,3.9,3.08,5.28c0.24,0.69,0.32,1.26,0.29,1.65c-0.02,0.39-0.16,0.59-0.2,0.56
					c-0.06-0.03,0-0.76-0.62-1.99c-0.59-1.23-1.73-2.9-3.37-4.84c-0.4-0.49-0.86-0.97-1.32-1.51c-0.48-0.57-0.96-1.2-1.32-1.94
					c-0.77-1.45-1.14-3.2-1.2-5.02c-0.09-3.67,1.1-7.58,2.93-11.39c0.92-1.91,2.04-3.79,3.33-5.63c1.32-1.81,2.75-3.65,4.69-5.15
					c3.74-2.84,7.78-5.24,11.86-7.68c8.18-4.82,16.59-9.4,24.26-13.47l0.89,2.17c-3.9,1.12-7.7,1.53-11.19,1.76
					c-1.74,0.08-3.42,0.13-5.01,0.16c-1.59,0-3.09,0-4.51,0c-5.66-0.08-9.84-0.16-11.88-0.16c-0.82-0.01-2-0.02-3.46,0.01
					c-1.47,0.03-3.24,0.02-5.26,0.14c-1.01,0.05-2.08,0.1-3.21,0.15c-1.12,0.1-2.3,0.21-3.54,0.32c-1.24,0.08-2.51,0.28-3.83,0.47
					c-1.32,0.2-2.69,0.34-4.07,0.67c-1.38,0.31-2.82,0.55-4.25,0.93c-1.43,0.41-2.89,0.83-4.38,1.26c-1.45,0.55-2.92,1.1-4.41,1.67
					c-0.76,0.25-1.46,0.66-2.19,1c-0.73,0.35-1.46,0.71-2.19,1.07l-1.11,0.54c-0.35,0.2-0.68,0.39-1.02,0.6
					c-0.68,0.43-1.34,0.9-2.01,1.4c-1.32,0.99-2.62,2.07-3.88,3.19c-2.54,2.24-4.98,4.63-7.34,7.08c-4.69,4.9-9.04,10.03-12.6,15.09
					c-3.46,5.06-6.66,10.13-5.83,14.9c0.24,2.34,1.02,4.41,1.91,6.12c0.9,1.71,1.91,3.09,2.79,4.17
					C89.87,106.07,91.12,107.09,91.02,107.22z"/>
			</g>
		</g>
	</g>
	<g>
		<g>
			<g>
				<path d="M89.39,74.42c-0.12,0.02-0.34-1.28,0.19-3.36c0.48-2.09,1.6-4.9,3.2-8.04c1.6-3.15,3.67-6.64,5.98-10.2
					c1.15-1.78,2.37-3.58,3.61-5.36l0.94-1.33l0.35-0.49l0.03-0.05l0.09-0.15l-0.2,0.13c-1.11,0.61-2.2,1.2-3.25,1.78
					c-2.27,1.23-4.39,2.39-6.28,3.41c-3.78,2.05-6.62,3.59-7.84,4.24c-0.76,0.41-2.17,1.17-4.05,2.19c-0.94,0.51-2,1.08-3.15,1.7
					c-0.56,0.32-1.11,0.66-1.7,1c-0.29,0.17-0.59,0.35-0.89,0.53c-0.28,0.21-0.57,0.43-0.86,0.64c-2.34,1.7-4.64,4.04-6.51,6.87
					c-1.88,2.82-3.34,6.09-4.34,9.45c-1.01,3.35-1.6,6.81-1.62,9.97c-0.02,1.55,0.36,3.02,0.71,4.45c0.37,1.42,0.75,2.76,1.13,3.99
					c1.51,4.9,2.62,8.08,2.39,8.18c-0.22,0.09-1.67-2.96-3.45-7.82c-0.45-1.22-0.9-2.55-1.33-3.99c-0.41-1.43-0.88-3.03-0.91-4.77
					c-0.07-3.39,0.46-6.96,1.46-10.48c0.99-3.51,2.48-6.97,4.44-9.98c1.95-3.02,4.39-5.56,6.91-7.4c0.31-0.24,0.62-0.47,0.92-0.7
					c0.32-0.2,0.64-0.39,0.96-0.58c0.63-0.37,1.24-0.75,1.82-1.08c1.15-0.62,2.21-1.2,3.14-1.7c1.87-1.01,3.28-1.77,4.04-2.19
					c2.84-1.53,13.34-7.18,24.96-13.43c-1.34,1.74-2.75,3.54-3.99,5.21c-0.83,1.13-1.66,2.26-2.49,3.39
					c-1.26,1.75-2.49,3.51-3.67,5.25c-2.36,3.48-4.5,6.88-6.2,9.91c-1.7,3.03-2.95,5.7-3.61,7.65
					C89.59,73.21,89.56,74.42,89.39,74.42z"/>
			</g>
		</g>
	</g>
	<g>
		<g>
			<g>
				<path d="M82.57,49.43c-0.04,0.02-0.18-0.55,0.06-1.48c0.25-0.92,0.75-2.19,1.49-3.69c1.49-2.99,3.83-6.92,6.58-11.07l0.73,0.66
					C81.4,42.28,69.26,52.54,66.8,54.69c-1.07,0.95-4.08,3.43-7.7,6.81c-0.23,0.21-0.45,0.43-0.63,0.63l-0.29,0.31l-0.23,0.37
					c-0.3,0.53-0.58,1.14-0.85,1.75c-0.54,1.24-1.04,2.56-1.55,3.92c-0.5,1.35-1,2.75-1.49,4.15l-0.73,2.11l-0.36,1.06l-0.18,0.53
					l-0.09,0.26c-0.04,0.14-0.02,0.02-0.03,0.13c-0.33,5.94-0.66,11.71-0.95,15.98c-0.29,4.28-0.54,7.06-0.69,7.06
					c-0.15-0.01-0.13-2.81-0.01-7.09c0.12-4.28,0.35-10.05,0.6-16c-0.02-0.08,0.05-0.38,0.08-0.41l0.09-0.27l0.17-0.53l0.35-1.07
					l0.71-2.13c0.48-1.42,0.96-2.82,1.46-4.19c0.5-1.37,1-2.71,1.55-3.99c0.28-0.64,0.55-1.26,0.9-1.88l0.28-0.46l0.36-0.4
					c0.24-0.28,0.48-0.51,0.71-0.72c3.68-3.46,6.66-5.91,7.74-6.87c2.47-2.15,14.62-12.42,24.78-20.69l2.67-2.17l-1.95,2.84
					c-2.8,4.07-5.23,7.93-6.84,10.81c-0.8,1.44-1.37,2.65-1.71,3.5C82.64,48.91,82.66,49.41,82.57,49.43z"/>
			</g>
		</g>
	</g>
	<g>
		<g>
			<g>
				<path d="M191.06,99.91c-0.06-0.12,1.25-0.94,3.72-2.07c2.49-1.09,6.18-2.36,10.73-3.5c4.56-1.12,9.96-2.09,15.83-2.85
					c2.94-0.36,5.98-0.7,9.1-0.95c2.79-0.26,7.58-0.5,6.71-0.48c0.34,0.5-2.76-2.82-4.56-4.91c-2-2.28-3.99-4.54-5.94-6.76
					c-3.92-4.37-7.82-8.4-11.6-11.65c-3.77-3.26-7.44-5.71-10.59-7.03c-0.78-0.34-1.51-0.66-2.25-0.86c-0.72-0.22-1.38-0.45-2-0.62
					c-1.24-0.29-2.21-0.56-2.92-0.68c-1.44-0.25-4.11-0.79-7.75-0.89c-3.63-0.15-8.2,0.09-13.29,0.96
					c-5.09,0.83-10.69,2.3-16.41,4.2c-1.49,0.46-2.74,0.95-4.01,1.69c-1.25,0.73-2.41,1.63-3.46,2.66
					c-2.11,2.07-3.76,4.65-5.05,7.38c-1.29,2.73-2.23,5.63-2.9,8.51c-0.17,0.72-0.32,1.44-0.45,2.16l-0.18,1.07l-0.07,0.46
					c0,0.05-0.03,0.09,0,0.12c0.81,1.12,1.61,2.23,2.39,3.31c3.32,4.63,6.39,8.91,9,12.56c5.19,7.32,8.48,12.16,8.24,12.34
					c-0.25,0.18-3.91-4.39-9.37-11.51c-2.71-3.57-5.9-7.76-9.35-12.3c-0.91-1.21-1.83-2.44-2.77-3.69l-0.15-0.2
					c-0.01-0.08,0.01-0.16,0.01-0.24l0.05-0.48l0.08-0.64l0.17-1.13c0.12-0.75,0.27-1.51,0.43-2.26c0.65-3.02,1.59-6.05,2.92-8.97
					c1.33-2.91,3.08-5.73,5.41-8.06c1.16-1.16,2.46-2.2,3.88-3.04c0.7-0.43,1.45-0.79,2.2-1.11l1.14-0.44l1.09-0.37
					c5.79-1.96,11.5-3.49,16.74-4.37c5.23-0.91,9.99-1.17,13.78-1.02c3.8,0.11,6.61,0.67,8.13,0.93c1.48,0.34,4.18,0.83,7.64,2.31
					c3.47,1.47,7.33,4.07,11.2,7.45c3.89,3.37,7.83,7.49,11.76,11.93c1.96,2.22,3.93,4.52,5.9,6.82c0.99,1.15,1.98,2.3,3,3.41
					l0.76,0.83l0.19,0.21l0.39,0.35l0.81,0.71c0.55,0.48,1.05,0.95,1.63,1.42l1.8,1.43c-7.29,0.18-8.84,0.31-12.26,0.52
					c-3.1,0.2-6.12,0.49-9.04,0.78c-5.83,0.63-11.2,1.46-15.73,2.39c-4.53,0.96-8.21,2.01-10.75,2.87
					C192.57,99.5,191.15,100.07,191.06,99.91z"/>
			</g>
		</g>
	</g>
	<g>
		<g>
			<g>
				<ellipse transform="matrix(0.6685 -0.7437 0.7437 0.6685 0.5977 196.0374)" cx="220.19" cy="97.35" rx="1.21" ry="6.42"/>
			</g>
		</g>
	</g>
	<polygon class="st10" points="44.96,161.8 94.66,161.86 118.31,170.54 126.28,180.18 142.49,180.18 152.17,170.22 172.74,161.8 
		223.66,161.86 210.24,125.75 55.74,124.44 	"/>
	<path class="st10" d="M44.4,180.86c0,0,3.83,48.9,29.53,69.07c13.63,10.7,38.87-7.31,43.78,0l16.61,6.32c0,0,13.11-2.68,16.24-6.32
		c5.42-6.32,34.79,14.16,49.26-0.29c15.02-14.99,22.43-47.64,24.68-68.84l-4.55,13.51l-3.61-0.08c0,0-1.21,7.51-9.97,14.66
		c-8.76,7.15-40.82,5.52-40.82,5.52s-19.17-6.12-19.47-24.12c0,0-3.41,0.52-4.29-0.3c0,0-5.81-1.29-14.43-0.01
		c0,0-3.88,0.94-4.88,0.31c0,0,0.88,13.62-9.32,21.01c-10.21,7.39-43.2,4.75-50.63-3.25c-7.03-7.57-9.49-9.26-10.14-13.02
		l-3.92-0.42C48.46,194.62,46.08,182.9,44.4,180.86z"/>
	<path class="st11" d="M111.65,240.41c0,0-3.19,6.18,1.64,7.68c4.83,1.5,16.18,8.39,19.98,8.11c3.8-0.28,13.42-3.59,18.07-6.76
		l3.11-0.72c0,0,6.36-2.02,2.34-8.3H111.65z"/>
	<path class="st4" d="M111.25,241.47c0,0,5.14-1.25,7.82,0.14s7.93,6.32,14.79,6.32c6.86,0,12.21-3.21,14.89-4.71
		s8.87-1.25,8.87-1.25s-0.4-4.86-4.37-5.5h-5.04l-4.46-26.26c0,0-2.82-10.34-9.18-10.41c-6.64-0.08-9.39,10.09-9.39,10.09
		l-4.5,26.16c0,0-4.88,0.27-5.84,0.7C113.87,237.16,111.46,240.08,111.25,241.47z"/>
	<path class="st3" d="M46.37,157.49c0,0,10.08-26.4,18.37-27.03c12.22-0.93,18.94,2.27,27.39,4.28c14.18,3.38,42.63,7.74,44.25,7.72
		c18.96-0.16,26.61-1.98,39.14-3.86c9.92-1.48,12.86-3.87,31.29-5.84c4.83-0.52,11.16,20.2,17.57,26.79c0,0-8.74-33.42-8.05-45.16
		l-4.76-10.46l-28.68,8.96c0,0-5.19,5.36-19.02,2.26c0,0-24.61,5.63-29.55,5.01c-4.94-0.62-33.3-4.97-42.79-11.88l-31.54-4.36
		c0,0-4.6,2.16-4.72,8.17C54.89,130.47,46.37,157.49,46.37,157.49z"/>
	<path class="st12" d="M121.85,193.9c0,0-2.77,11.92-14.79,18.35c0,0-20.04,5.46-41.57-3.21c0,0-10.73-8.06-14.12-20.99
		c0,0,1.63,15.54,11.52,22.25s37.06,8.14,45.44,4.26S122.61,202.52,121.85,193.9z"/>
	<path class="st12" d="M146.49,193.9c0,0,3.84,12.35,15.86,18.78c0,0,18.96,4.5,40.5-4.18c0,0,11.73-7.52,15.12-20.46
		c0,0-2.63,15.54-12.52,22.25c-9.89,6.71-37.06,8.14-45.44,4.26S145.74,202.52,146.49,193.9z"/>
	<path class="st3" d="M45.08,164.02c0,0,6.92,0.16,11.34-0.34s25.31-2.1,39.54,0.99c14.22,3.09,22,6.52,30.33,18.58
		c0,0,7.26-2.84,16.55,0.11c0,0,6.48-14.65,28.18-18.42c21.7-3.78,44.97-0.88,44.97-0.88h7.99l-0.56-4.2l-7.43-0.06
		c0,0-25.12-4.71-45.53,0.06s-29.25,18.55-29.25,18.55s-6.01-2.17-13.84,0c0,0-9.09-15.58-31.48-18.68c-21.64-2.68-42.59,0-42.59,0
		h-7.32L45.08,164.02z"/>
	<path class="st3" d="M110.09,276.28c0,0,0.26,6,9.06,8.73h32.34c0,0,6.34-4.51,6.34-8.87l-13.74-0.84l-8.68,1.2l-11.52-1.2
		L110.09,276.28z"/>
	<path class="st13" d="M115.72,195.2l-2.69-7.83l-4.37-3.79c0,0-21.29-1.88-28.85-0.68l-10.96,11.82l8.74-7.42l30.46-0.1
		L115.72,195.2z"/>
	<path class="st14" d="M115.72,195.2c0,0-3.77,5.93-6.98,7.71c0,0-18.34,3.26-33.06-0.3c0,0-2.91-0.65-6.83-7.9l8.74-7.42l30.46-0.1
		L115.72,195.2z"/>
	<g>
		<g>
			<g>
				<path d="M69.48,189.01c-0.16-0.2,3.78-3.64,8.82-6.15l0.48-0.22l0.25-0.11l0.31-0.13c0.19-0.03,0.25-0.03,0.34-0.04l0.26-0.02
					l0.52-0.05c0.69-0.07,1.38-0.13,2.06-0.16c1.35-0.09,2.65-0.12,3.81-0.15c2.33-0.04,4.13,0,4.8,0c1.34,0.01,7.2,0.18,12.7,0.67
					c1.38,0.12,2.73,0.25,3.98,0.39l0.47,0.05l0.23,0.03c0.12,0.02,0.26,0.01,0.37,0.06c0.25,0.23,0.5,0.46,0.75,0.68
					c0.42,0.39,0.81,0.76,1.17,1.1c1.44,1.37,2.34,2.3,2.24,2.42s-1.15-0.65-2.7-1.88c-0.39-0.31-0.81-0.65-1.25-1.01
					c-0.19-0.15-0.39-0.31-0.59-0.48c-0.25-0.02-0.51-0.03-0.77-0.05c-1.26-0.08-2.61-0.16-3.98-0.24
					c-5.49-0.34-11.32-0.51-12.64-0.52c-0.66-0.01-2.45-0.04-4.76-0.02c-1.15,0.02-2.43,0.04-3.77,0.11
					c-0.67,0.02-1.35,0.07-2.03,0.12l-0.94,0.07l-0.4,0.16l-0.46,0.2C73.81,186.12,69.67,189.3,69.48,189.01z"/>
			</g>
		</g>
	</g>
	<g>
		<g>
			<g>
				<path d="M75.68,202.61c0.04-0.15,0.96-0.06,2.35,0.17c1.39,0.19,3.26,0.45,5.2,0.61c3.87,0.37,8.01,0.35,8.95,0.35
					c0.94,0,5.08-0.08,8.97-0.39c3.9-0.26,7.54-0.74,7.59-0.44c0.06,0.31-3.57,1.09-7.49,1.5c-3.92,0.47-8.11,0.54-9.06,0.54
					c-0.95,0-5.15,0.02-9.07-0.5c-1.96-0.24-3.85-0.62-5.22-0.98C76.52,203.08,75.65,202.76,75.68,202.61z"/>
			</g>
		</g>
	</g>
	<g>
		<g>
			<path class="st15" d="M83.19,194.13c0.51,5.8,5.62,10.09,11.42,9.58c5.8-0.51,10.09-5.62,9.58-11.42
				c-0.17-1.96-0.87-3.73-1.94-5.22c-4.52-0.07-11.02-0.14-17.09-0.03C83.72,189.03,82.96,191.51,83.19,194.13z M93.13,187.34
				c3.3-0.29,6.21,2.15,6.5,5.45c0.29,3.3-2.15,6.21-5.45,6.5c-3.3,0.29-6.21-2.15-6.5-5.45C87.38,190.54,89.82,187.63,93.13,187.34
				z"/>
			<g>
				<path class="st16" d="M83.19,194.13c0.51,5.8,5.62,10.09,11.42,9.58c5.8-0.51,10.09-5.62,9.58-11.42
					c-0.17-1.96-0.87-3.73-1.94-5.22c-4.52-0.07-11.02-0.14-17.09-0.03C83.72,189.03,82.96,191.51,83.19,194.13z M93.13,187.34
					c3.3-0.29,6.21,2.15,6.5,5.45c0.29,3.3-2.15,6.21-5.45,6.5c-3.3,0.29-6.21-2.15-6.5-5.45
					C87.38,190.54,89.82,187.63,93.13,187.34z"/>
				<g>
					<path d="M93.13,187.34c0.03,0.18-1.05,0.27-2.32,1.1c-0.62,0.42-1.29,1.02-1.78,1.82c-0.49,0.8-0.82,1.78-0.84,2.79
						c-0.04,1.01,0.23,2.04,0.72,2.89c0.49,0.85,1.18,1.53,1.9,1.96c1.46,0.89,2.85,0.82,3.31,0.79c0.46-0.04,1.84-0.22,3.13-1.35
						c0.64-0.55,1.2-1.33,1.53-2.26c0.33-0.92,0.42-1.98,0.2-2.97c-0.2-1-0.69-1.91-1.31-2.61c-0.62-0.71-1.38-1.19-2.07-1.49
						C94.2,187.42,93.13,187.52,93.13,187.34c-0.03-0.11,1.07-0.47,2.72,0.02c0.8,0.25,1.72,0.73,2.49,1.51
						c0.77,0.77,1.41,1.83,1.68,3.01c0.29,1.17,0.22,2.45-0.15,3.58c-0.38,1.13-1.05,2.09-1.82,2.77c-1.55,1.4-3.26,1.61-3.81,1.67
						c-0.56,0.05-2.28,0.13-4.05-0.98c-0.88-0.53-1.71-1.37-2.27-2.41c-0.57-1.04-0.86-2.29-0.77-3.5c0.06-1.21,0.5-2.36,1.13-3.25
						c0.62-0.9,1.44-1.53,2.19-1.92C91.99,187.06,93.14,187.22,93.13,187.34z"/>
				</g>
				<g>
					<path d="M83.19,194.13c-0.1,0.04-0.6-1.8,0.22-4.49c0.21-0.66,0.5-1.36,0.9-2.06c0.11-0.18,0.2-0.34,0.33-0.53l0.29-0.43
						l0.51-0.01c0.41-0.01,0.83-0.01,1.26-0.02c1.71-0.02,3.55-0.04,5.42-0.06c1.87-0.01,3.77-0.02,5.59-0.03
						c0.91,0,1.8-0.01,2.67-0.01c0.43,0,0.85,0,1.27,0c0.31,0,0.61,0,0.91,0l0.33,0.48l0.19,0.29c0.9,1.4,1.37,2.83,1.57,3.98
						c0.11,0.58,0.15,1.09,0.16,1.52c0.02,0.43,0.03,0.77,0,1c-0.03,0.91-0.28,3.65-2.35,6.3c-1.01,1.32-2.47,2.52-4.23,3.29
						c-1.75,0.81-3.8,1.07-5.74,0.87c-1.95-0.25-3.79-1-5.21-2.08c-1.43-1.07-2.46-2.39-3.1-3.63
						C82.92,196,83.09,194.11,83.19,194.13c0.2-0.04,0.27,1.78,1.61,4.04c0.66,1.11,1.68,2.29,3.02,3.22
						c1.33,0.94,3.02,1.58,4.78,1.77c1.76,0.14,3.6-0.11,5.16-0.86c1.57-0.71,2.87-1.8,3.76-2.98c1.84-2.38,2.05-4.81,2.08-5.63
						c0.03-0.21,0.02-0.51,0-0.9c0-0.38-0.04-0.84-0.14-1.35c-0.18-1.03-0.59-2.3-1.39-3.55l-0.14-0.22l-0.31,0
						c-0.41,0-0.83,0-1.26-0.01c-0.86-0.01-1.75-0.01-2.66-0.02c-1.82-0.02-3.71-0.03-5.58-0.05c-1.86-0.03-3.7-0.06-5.41-0.08
						c-0.42-0.01-0.84-0.02-1.25-0.03l-0.1-0.01l-0.05,0.06c-0.1,0.13-0.21,0.31-0.31,0.46c-0.4,0.63-0.71,1.27-0.94,1.87
						C83.14,192.32,83.38,194.13,83.19,194.13z"/>
				</g>
			</g>
		</g>
		<circle cx="93.65" cy="193.32" r="6"/>
	</g>
	<path class="st13" d="M152.91,195.25l2.69-7.83l4.37-3.79c0,0,21.29-1.88,28.85-0.68l10.96,11.82l-8.74-7.42l-30.46-0.1
		L152.91,195.25z"/>
	<path class="st14" d="M152.91,195.25c0,0,3.77,5.93,6.98,7.71c0,0,18.34,3.26,33.06-0.3c0,0,2.91-0.65,6.83-7.9l-8.74-7.42
		l-30.46-0.1L152.91,195.25z"/>
	<g>
		<g>
			<g>
				<path d="M199.15,189.06c-0.2,0.29-4.34-2.9-9.26-5.19l-0.46-0.2l-0.4-0.16l-0.94-0.07c-0.68-0.05-1.36-0.1-2.03-0.12
					c-1.33-0.07-2.61-0.08-3.77-0.11c-2.31-0.02-4.09,0.02-4.76,0.02c-1.33,0.01-7.15,0.18-12.64,0.52
					c-1.37,0.08-2.72,0.17-3.98,0.24c-0.26,0.02-0.52,0.03-0.77,0.05c-0.2,0.16-0.4,0.32-0.59,0.48c-0.44,0.36-0.86,0.7-1.25,1.01
					c-1.55,1.24-2.6,2-2.7,1.88c-0.1-0.12,0.8-1.05,2.24-2.42c0.36-0.34,0.76-0.71,1.17-1.1c0.24-0.22,0.49-0.45,0.75-0.68
					c0.11-0.05,0.25-0.04,0.37-0.06l0.23-0.03l0.47-0.05c1.26-0.14,2.61-0.27,3.98-0.39c5.5-0.49,11.36-0.66,12.7-0.67
					c0.67-0.01,2.47-0.04,4.8,0c1.16,0.03,2.46,0.06,3.81,0.15c0.68,0.03,1.36,0.09,2.06,0.16l0.52,0.05l0.26,0.02
					c0.09,0.01,0.15,0.01,0.34,0.04l0.31,0.13l0.25,0.11l0.48,0.22C195.37,185.43,199.32,188.86,199.15,189.06z"/>
			</g>
		</g>
	</g>
	<g>
		<g>
			<g>
				<path d="M192.95,202.66c0.04,0.15-0.83,0.46-2.2,0.86c-1.38,0.36-3.26,0.74-5.22,0.98c-3.93,0.52-8.12,0.5-9.07,0.5
					c-0.95,0-5.14-0.08-9.06-0.54c-3.92-0.42-7.55-1.19-7.49-1.5c0.05-0.29,3.69,0.18,7.59,0.44c3.89,0.31,8.03,0.39,8.97,0.39
					c0.94,0,5.08,0.02,8.95-0.35c1.94-0.16,3.81-0.42,5.2-0.61C191.98,202.61,192.91,202.52,192.95,202.66z"/>
			</g>
		</g>
	</g>
	<g>
		<g>
			<path class="st15" d="M183.48,187.1c-6.07-0.11-12.57-0.05-17.09,0.03c-1.07,1.49-1.77,3.26-1.94,5.22
				c-0.51,5.8,3.78,10.91,9.58,11.42s10.91-3.78,11.42-9.58C185.67,191.55,184.91,189.08,183.48,187.1z M180.96,193.89
				c-0.29,3.3-3.2,5.74-6.5,5.45c-3.3-0.29-5.74-3.2-5.45-6.5c0.29-3.3,3.2-5.74,6.5-5.45
				C178.81,187.68,181.25,190.59,180.96,193.89z"/>
			<g>
				<path class="st16" d="M183.48,187.1c-6.07-0.11-12.57-0.05-17.09,0.03c-1.07,1.49-1.77,3.26-1.94,5.22
					c-0.51,5.8,3.78,10.91,9.58,11.42s10.91-3.78,11.42-9.58C185.67,191.55,184.91,189.08,183.48,187.1z M180.96,193.89
					c-0.29,3.3-3.2,5.74-6.5,5.45c-3.3-0.29-5.74-3.2-5.45-6.5c0.29-3.3,3.2-5.74,6.5-5.45
					C178.81,187.68,181.25,190.59,180.96,193.89z"/>
				<g>
					<path d="M180.96,193.89c-0.18-0.01-0.08-1.08-0.68-2.47c-0.3-0.69-0.78-1.45-1.49-2.07c-0.7-0.62-1.61-1.11-2.61-1.31
						c-0.99-0.21-2.05-0.12-2.97,0.2c-0.92,0.33-1.71,0.89-2.26,1.53c-1.13,1.28-1.3,2.67-1.35,3.13c-0.04,0.46-0.11,1.85,0.79,3.31
						c0.43,0.72,1.11,1.41,1.96,1.9c0.85,0.48,1.88,0.75,2.89,0.72c1.02-0.02,2-0.34,2.79-0.84c0.8-0.49,1.41-1.15,1.82-1.78
						C180.69,194.94,180.78,193.86,180.96,193.89c0.12-0.01,0.28,1.14-0.49,2.67c-0.39,0.75-1.02,1.56-1.92,2.19
						c-0.89,0.63-2.04,1.07-3.25,1.13c-1.21,0.09-2.45-0.21-3.5-0.77c-1.05-0.57-1.88-1.4-2.41-2.27c-1.11-1.77-1.02-3.49-0.98-4.05
						c0.05-0.56,0.27-2.26,1.67-3.81c0.68-0.77,1.64-1.44,2.77-1.82c1.12-0.38,2.4-0.45,3.58-0.15c1.18,0.27,2.24,0.91,3.01,1.68
						c0.78,0.77,1.26,1.69,1.51,2.49C181.43,192.82,181.07,193.92,180.96,193.89z"/>
				</g>
				<g>
					<path d="M183.48,187.1c0.07-0.09,1.44,1.23,2.13,3.96c0.34,1.35,0.41,3.02,0.02,4.77c-0.17,0.88-0.52,1.74-0.92,2.6
						c-0.46,0.83-0.98,1.66-1.66,2.37c-1.31,1.46-3.07,2.55-4.9,3.11c-1.84,0.55-3.74,0.61-5.36,0.28
						c-1.63-0.32-2.98-0.97-3.97-1.61c-0.97-0.67-1.62-1.27-1.93-1.63c-0.32-0.35-0.94-0.99-1.52-2.02
						c-0.6-1.01-1.18-2.39-1.42-4.03c-0.25-1.64-0.13-3.53,0.53-5.34c0.16-0.45,0.36-0.9,0.58-1.33c0.11-0.22,0.23-0.43,0.36-0.64
						l0.2-0.31l0.28-0.4l0.19-0.27c0.08-0.06,0.22-0.02,0.32-0.03l0.49,0l0.7,0l1.41,0.01C176.47,186.65,183.48,186.79,183.48,187.1
						c-0.01,0.31-7.02,0.47-14.48,0.56l-1.4,0.02l-0.7,0.01l-0.21,0c-0.01,0-0.02,0.01-0.03,0.02l-0.29,0.46
						c-0.11,0.19-0.22,0.38-0.32,0.58c-0.2,0.39-0.37,0.79-0.51,1.2c-0.58,1.62-0.67,3.32-0.44,4.78c0.45,2.97,2.08,4.8,2.64,5.39
						c0.28,0.32,0.86,0.85,1.72,1.45c0.88,0.57,2.08,1.16,3.53,1.45c1.45,0.3,3.14,0.26,4.8-0.21c1.65-0.48,3.24-1.44,4.46-2.73
						c2.54-2.57,3.15-6.35,2.65-8.87C184.44,188.62,183.31,187.19,183.48,187.1z"/>
				</g>
			</g>
		</g>
		<circle cx="174.98" cy="193.37" r="6"/>
	</g>
	<g>
		<g>
			<g>
				<path d="M115.72,195.2c-0.22,0.21-1.4-0.69-3.08-2.2c-0.84-0.75-1.8-1.66-2.83-2.65c-0.51-0.5-1.05-1.02-1.59-1.55
					c-0.24-0.24-0.65-0.65-0.59-0.57c-0.02-0.02-0.06,0-0.08,0l-0.55,0c-6.25-0.01-12.86-0.03-14.37-0.03
					c-0.78,0-2.92,0.01-5.67,0.01c-1.37,0.01-2.9,0.03-4.48,0.04c-1.45,0.03-2.95,0.05-4.42,0.08l-0.03,0.02
					c-0.01,0.01,0,0-0.1,0.08l-0.41,0.38c-0.28,0.25-0.55,0.5-0.83,0.74c-0.55,0.49-1.09,0.95-1.62,1.39
					c-1.06,0.88-2.06,1.65-2.95,2.26c-1.78,1.23-3.12,1.76-3.26,1.51c-0.15-0.26,0.88-1.13,2.4-2.57c0.76-0.73,1.64-1.59,2.6-2.53
					c0.48-0.48,0.97-0.97,1.48-1.48c0.59-0.61,1.2-1.23,1.81-1.86c0.94-0.06,1.89-0.12,2.84-0.19c0.81-0.04,1.63-0.08,2.42-0.12
					c1.59-0.07,3.13-0.11,4.52-0.14c2.77-0.05,4.92-0.05,5.71-0.05c1.52,0,8.16,0.02,14.42,0.33l0.62,0.03l0.54,0.02l0.27,0.01
					c0.09,0,0.13,0.11,0.2,0.16c0.33,0.37,0.67,0.73,0.99,1.09c0.5,0.57,1,1.12,1.47,1.66c0.95,1.07,1.81,2.08,2.52,2.95
					C115.09,193.77,115.94,194.99,115.72,195.2z"/>
			</g>
		</g>
	</g>
	<g>
		<g>
			<g>
				<path d="M152.91,195.25c-0.22-0.21,0.63-1.43,2.06-3.17c0.72-0.87,1.58-1.88,2.52-2.95c0.48-0.53,0.97-1.09,1.47-1.66
					c0.33-0.36,0.66-0.72,0.99-1.09c0.07-0.05,0.11-0.17,0.2-0.16l0.27-0.01l0.54-0.02l0.62-0.03c6.26-0.3,12.9-0.33,14.42-0.33
					c0.78,0,2.94,0,5.71,0.05c1.38,0.03,2.92,0.07,4.52,0.14c0.8,0.04,1.61,0.08,2.42,0.12c0.95,0.06,1.9,0.12,2.84,0.19
					c0.61,0.63,1.22,1.25,1.81,1.86c0.51,0.51,1,1,1.48,1.48c0.96,0.93,1.85,1.79,2.6,2.53c1.51,1.45,2.55,2.31,2.4,2.57
					c-0.14,0.25-1.48-0.28-3.26-1.51c-0.89-0.61-1.89-1.38-2.95-2.26c-0.53-0.44-1.07-0.9-1.62-1.39c-0.27-0.25-0.55-0.49-0.83-0.74
					l-0.41-0.38c-0.09-0.09-0.08-0.08-0.1-0.08l-0.03-0.02c-1.47-0.03-2.97-0.05-4.42-0.08c-1.58-0.01-3.11-0.03-4.48-0.04
					c-2.75-0.01-4.9-0.01-5.67-0.01c-1.51,0-8.12,0.02-14.37,0.03l-0.55,0c-0.02,0-0.06-0.02-0.08,0c0.06-0.07-0.35,0.34-0.59,0.57
					c-0.54,0.53-1.08,1.05-1.59,1.55c-1.03,0.99-1.99,1.9-2.83,2.65C154.31,194.56,153.13,195.46,152.91,195.25z"/>
			</g>
		</g>
	</g>
	<path class="st17" d="M52.38,195.04c0,0,2.68,14.47,9.19,18.19s22.18,11.53,47.93,5.04c0,0,12.5-0.02,13.07-25.97
		c0,0-1.02-14.1-25.96-18.07c-24.94-3.96-42.06,2.6-42.06,2.6S49.12,181.09,52.38,195.04z"/>
	<path class="st17" d="M216.62,194.69c0,0-2.74,15.1-9.25,18.82s-22.65,11.64-48.4,5.15c0,0-12.04-0.73-12.61-26.67
		c0,0,0.71-13.67,25.64-17.63c24.94-3.96,42.07,2.14,42.07,2.14S219.88,180.74,216.62,194.69z"/>
	<path class="st18" d="M54.15,198.75c0,0,5.24,3.59,12.15,5.68c6.91,2.09,29.22,5.97,44.32,2.41c0,0,5.52-0.81,11.3-6.12
		c0,0-4.01,14.89-11.36,17.81c-5.17,2.05-31.56,6.62-44.98-2.52C65.58,216.01,55.21,206.25,54.15,198.75z"/>
	<path class="st18" d="M215.39,198.93c0,0-5.24,3.59-12.15,5.68c-6.91,2.09-29.22,5.97-44.32,2.41c0,0-5.52-0.81-11.3-6.12
		c0,0,4.01,14.89,11.36,17.81c5.17,2.05,31.56,6.62,44.98-2.52C203.96,216.18,214.32,206.43,215.39,198.93z"/>
	<g>
		<path class="st19" d="M224.2,210.16c-1.07,10.93-3.17,19.44-5.53,29.82c-2.36,10.37-4,11.13-7.22,19.21
			c-3.21,8.09-25.1,36.75-28,39.18c-2.89,2.44-5.23,5.95-9,5.79s-2.82-5.79-2.82-5.79s0.2-29.48,0.84-31.57
			c0.64-2.09-38.16-6.32-38.16-6.32s-37.8,4.23-37.16,6.32c0.64,2.09-0.16,31.57-0.16,31.57s0.96,5.63-2.82,5.79
			s-5.96-2.58-8.85-5.01c-2.89-2.44-26.55-34.66-29.77-42.75c-3.21-8.09-3.24-6.05-5.6-16.42c-2.36-10.37-3.82-17.48-4.89-28.41
			l-3.09,2.06c0,0,1.12,23.76,8.78,45.22c7.66,21.46,37.8,57.15,37.8,57.15c21.25,25.69,45.75,21.19,45.75,21.19
			c31.43,1.77,45.58-21.4,45.58-21.4c28.15-33.67,36.5-53.17,40.08-62.25s6.92-40.94,6.92-40.94L224.2,210.16z M163.06,311.07
			c-4.07,1.5-13.61-3.54-17.36-4.82c-3.75-1.29-1.61-8.14-1.61-8.14l1.5-3.96c0,0,0.21-2.32-0.86-2.45
			c-1.07-0.12-5.54-2.27-10.43-2.27s-9.36,2.14-10.43,2.27c-1.07,0.12-0.86,2.45-0.86,2.45l1.5,3.96c0,0,2.14,6.86-1.61,8.14
			c-3.75,1.29-13.29,6.32-17.36,4.82s-3.54-3-3.54-3s1.51-32.73,1.08-35.19c-0.43-2.46,31.21-5.19,31.21-5.19s32.46,2.89,32.04,5.36
			c-0.43,2.46,0.25,35.03,0.25,35.03S167.14,309.57,163.06,311.07z"/>
	</g>
	<g>
		<g>
			<g>
				<path d="M115.79,283.36c0.19-0.24,1.13,0.23,2.62,0.64c0.74,0.2,1.63,0.38,2.57,0.43c1.03,0.04,2.14,0.09,3.26,0.14
					c4.52,0.22,9.29,0.46,10.38,0.51c0.98,0,5.84-0.27,10.35-0.49c1.13-0.05,2.23-0.11,3.27-0.16c0.98-0.03,1.8-0.21,2.56-0.43
					c1.49-0.44,2.46-0.89,2.64-0.64c0.18,0.24-0.57,1.11-2.1,1.94c-0.75,0.41-1.79,0.79-2.89,0.95c-1.05,0.17-2.16,0.32-3.3,0.45
					c-4.56,0.53-9.33,0.79-10.55,0.8c-1.2-0.04-5.96-0.32-10.52-0.81c-1.14-0.13-2.25-0.26-3.31-0.43c-1.13-0.18-2.1-0.55-2.88-0.94
					C116.34,284.51,115.59,283.59,115.79,283.36z"/>
			</g>
		</g>
	</g>
	<g>
		<g>
			<g>
				<path class="st20" d="M145.05,291.98c-0.18,0.6-2.47,0.23-4.88,0.02c-2.41-0.24-4.97-0.3-5.55-0.28
					c-0.58-0.01-3.14,0.03-5.56,0.25c-2.42,0.19-4.67,0.57-4.87,0.01c-0.21-0.6,2.03-1.6,4.55-2.12c2.52-0.54,5.26-0.58,5.88-0.57
					c0.62-0.02,3.36,0.04,5.87,0.6C143.01,290.42,145.22,291.41,145.05,291.98z"/>
			</g>
		</g>
	</g>
	<g>
		<g>
			<g>
				<path d="M106.71,273.91c0.14-0.28,1.63,0.3,3.88,1.03c0.56,0.18,1.17,0.36,1.8,0.48c0.31,0.07,0.63,0.1,0.9,0.11
					c0.16-0.01,0.17-0.01,0.37-0.04c0.19-0.04,0.38-0.08,0.57-0.12c1.53-0.31,3.2-0.56,4.9-0.73c1.7-0.17,3.44-0.26,5.12-0.26
					c1.68-0.02,3.36,0.17,4.75,0.35c2.82,0.39,4.93,0.64,5.63,0.61c0.7,0.03,2.81-0.22,5.63-0.61c1.39-0.18,3.07-0.37,4.75-0.35
					c1.68,0,3.42,0.09,5.12,0.26c1.7,0.17,3.37,0.42,4.9,0.73c0.19,0.04,0.38,0.08,0.57,0.12c0.2,0.03,0.21,0.04,0.37,0.04
					c0.27,0,0.59-0.04,0.9-0.11c0.63-0.12,1.24-0.3,1.8-0.48c2.25-0.73,3.74-1.31,3.88-1.03c0.14,0.26-1.13,1.25-3.36,2.34
					c-0.56,0.27-1.19,0.54-1.91,0.77c-0.36,0.11-0.76,0.21-1.22,0.26c-0.21,0.02-0.57,0-0.75-0.02c-0.18-0.02-0.37-0.05-0.56-0.07
					c-1.5-0.19-3.13-0.34-4.77-0.43c-1.65-0.09-3.32-0.13-4.92-0.08c-1.6,0.02-3.05,0.22-4.46,0.42c-2.77,0.42-5.01,0.69-5.95,0.66
					c-0.94,0.03-3.18-0.24-5.95-0.66c-1.41-0.2-2.86-0.39-4.46-0.42c-1.6-0.04-3.27-0.01-4.92,0.08c-1.65,0.09-3.27,0.24-4.77,0.43
					c-0.19,0.02-0.37,0.05-0.56,0.07c-0.17,0.02-0.54,0.05-0.75,0.02c-0.47-0.05-0.86-0.14-1.22-0.26c-0.73-0.22-1.35-0.5-1.91-0.77
					C107.84,275.16,106.57,274.17,106.71,273.91z"/>
			</g>
		</g>
	</g>
	<g>
		<g>
			<g>
				<path class="st5" d="M127.65,190.28c-0.1-0.3,1.45-0.91,3.18-1.21c1.72-0.33,3.6-0.35,4.02-0.33c0.42-0.01,2.29,0.05,4.01,0.38
					c1.72,0.31,3.28,0.86,3.19,1.17c-0.08,0.29-1.65,0.04-3.34-0.11c-1.68-0.17-3.46-0.23-3.87-0.22c-0.41-0.01-2.18,0.01-3.86,0.18
					C129.3,190.26,127.74,190.56,127.65,190.28z"/>
			</g>
		</g>
	</g>
	<g>
		<g>
			<g>
				<path class="st5" d="M126.33,187.59c-0.07-0.3,1.73-0.84,3.71-1.16c0.98-0.16,2.01-0.28,2.85-0.33c0.42-0.03,0.8-0.04,1.09-0.05
					c0.15,0,0.28,0,0.39-0.01c0.05,0,0.1,0,0.15,0l0.06,0l0.03,0l0.01,0c0,0.06,0.01-0.23,0.01,0.48l0,0.12h0h0h0h-0.01l0-0.01
					v-0.42l0-0.17l0,0l0.01,0c0,0,0.01,0,0.01,0l0.03,0l0.06,0c0.04,0,0.1,0,0.15,0c0.11,0,0.25,0,0.4,0.01
					c0.3,0.01,0.68,0.03,1.1,0.06c0.84,0.06,1.86,0.18,2.84,0.35c1.96,0.33,3.73,0.89,3.66,1.19c-0.07,0.29-1.87,0.04-3.8-0.14
					c-1.93-0.2-3.98-0.27-4.46-0.26c-0.45-0.01-2.51,0.05-4.45,0.24C128.22,187.65,126.39,187.88,126.33,187.59z"/>
			</g>
		</g>
	</g>
	<g>
		<g>
			<g>
				<path d="M46.55,244.21c0,0.04-0.27,0.03-0.8-0.02c-0.52-0.08-1.31-0.08-2.3-0.38c-1.99-0.44-4.89-1.58-7.83-4.12
					c-2.91-2.53-5.84-6.41-7.5-11.62c-0.09-0.33-0.17-0.67-0.26-1.01c-0.08-0.34-0.13-0.71-0.19-1.06
					c-0.08-0.68-0.17-1.37-0.25-2.07c-0.18-1.4-0.37-2.84-0.56-4.32c-0.41-2.96-0.87-6.07-1.44-9.3c-0.58-3.23-1.22-6.59-2.13-10
					c-0.45-1.7-0.98-3.41-1.64-5.08c-0.71-1.74-1.32-3.54-1.86-5.38c-1.08-3.69-1.96-7.57-2.26-11.67
					c-0.13-2.05-0.14-4.17,0.43-6.34c0.29-1.07,0.76-2.18,1.64-3.1c0.87-0.92,2.17-1.45,3.38-1.5c1.21-0.05,2.39,0.16,3.42,0.56
					c0.53,0.2,1.09,0.31,1.58,0.58l1.52,0.76c1.95,1.17,3.64,2.73,5.04,4.51c1.4,1.78,2.52,3.78,3.4,5.86
					c0.43,1.05,0.83,2.11,1.16,3.2c0.17,0.54,0.32,1.09,0.46,1.65l0.2,0.84l0.09,0.43l0.05,0.25l0.02,0.26
					c0.79,8.84,1.7,17.87,2.75,26.95c1.07,9.07,2.21,18.21,4,27.14c0.92,4.46,2.02,8.84,3.54,13.04c0.75,2.11,1.6,4.19,2.42,6.31
					c0.84,2.1,1.52,4.34,2.34,6.24c1.81,3.96,4.01,7.79,6.24,11.5c2.27,3.69,4.55,7.3,6.93,10.76c4.72,6.95,9.57,13.43,14.44,19.33
					c4.88,5.89,9.78,11.2,14.65,15.7c4.77,4.53,9.99,7.63,14.91,9.66c4.92,2.03,9.52,3.04,13.36,3.44c1.92,0.2,3.65,0.3,5.17,0.28
					c0.76,0.01,1.46-0.03,2.1-0.06c0.32-0.02,0.63-0.04,0.92-0.07c0.14-0.01,0.28-0.03,0.42-0.04l0.2-0.02l0.16-0.02
					c0.07-0.01,0.14-0.02,0.21-0.01c0.29,0.01,0.59,0.03,0.91,0.04c0.3,0.01,0.61,0.01,0.93,0.02c0.65,0.01,1.36,0,2.13-0.01
					c1.53-0.05,3.27-0.12,5.2-0.34c3.85-0.43,8.52-1.18,13.5-3.06c0.62-0.24,1.25-0.49,1.89-0.73c0.64-0.25,1.25-0.58,1.88-0.88
					c1.29-0.56,2.51-1.34,3.78-2.08c0.65-0.35,1.21-0.85,1.84-1.28c0.59-0.46,1.26-0.85,1.81-1.4c0.57-0.52,1.15-1.04,1.73-1.57
					c0.59-0.52,1.14-1.17,1.72-1.75c4.66-4.77,9.48-10.17,14.39-16.05c4.9-5.89,9.85-12.3,14.65-19.19c2.4-3.45,4.77-7,7.03-10.69
					c2.26-3.69,4.48-7.49,6.33-11.46l0.67-1.49l0.57-1.5c0.38-1.06,0.76-2.13,1.13-3.2c0.79-2.13,1.63-4.23,2.38-6.33
					c1.51-4.2,2.54-8.6,3.44-13.07c1.76-8.94,2.93-18.07,3.99-27.15c1.05-9.08,1.96-18.11,2.75-26.95c0-0.1,0.04-0.41,0.07-0.51
					l0.09-0.43l0.19-0.84c0.14-0.55,0.29-1.11,0.46-1.65c0.33-1.09,0.73-2.15,1.16-3.2c0.88-2.09,2-4.08,3.4-5.86
					c1.4-1.78,3.09-3.34,5.04-4.51l1.52-0.76c0.5-0.27,1.06-0.39,1.58-0.58c1.03-0.4,2.21-0.61,3.42-0.56
					c1.21,0.05,2.52,0.57,3.39,1.49c0.88,0.91,1.35,2.03,1.64,3.1c0.57,2.16,0.56,4.29,0.43,6.34c-0.3,4.1-1.19,7.98-2.26,11.67
					c-0.54,1.85-1.15,3.64-1.86,5.38c-0.65,1.67-1.19,3.37-1.64,5.08c-0.91,3.41-1.56,6.77-2.13,10c-0.57,3.23-1.03,6.34-1.44,9.3
					c-0.19,1.48-0.38,2.92-0.56,4.32c-0.09,0.7-0.17,1.39-0.25,2.07c-0.06,0.36-0.12,0.72-0.19,1.06c-0.09,0.34-0.18,0.68-0.26,1.01
					c-1.65,5.22-4.59,9.1-7.5,11.62c-2.94,2.54-5.84,3.68-7.83,4.12c-0.98,0.3-1.78,0.3-2.3,0.38c-0.52,0.05-0.79,0.06-0.8,0.02
					s0.26-0.12,0.76-0.24c0.5-0.15,1.27-0.21,2.21-0.57c1.91-0.56,4.66-1.78,7.41-4.31c2.72-2.51,5.47-6.35,6.95-11.34
					c0.07-0.31,0.15-0.62,0.23-0.94c0.06-0.32,0.1-0.63,0.15-0.95c0.07-0.68,0.14-1.38,0.22-2.08c0.16-1.41,0.33-2.86,0.5-4.35
					c0.36-2.98,0.79-6.11,1.32-9.37c0.54-3.26,1.15-6.66,2.04-10.15c0.44-1.75,0.97-3.51,1.65-5.28c0.66-1.68,1.24-3.44,1.76-5.25
					c1.02-3.61,1.85-7.42,2.1-11.32c0.11-1.94,0.08-3.94-0.42-5.74c-0.25-0.89-0.64-1.73-1.21-2.31c-0.57-0.58-1.32-0.89-2.19-0.93
					c-0.87-0.02-1.81,0.12-2.75,0.49c-0.46,0.18-0.96,0.27-1.39,0.52l-1.33,0.68c-1.7,1.04-3.21,2.44-4.47,4.07
					c-1.27,1.63-2.29,3.48-3.11,5.44c-0.4,0.99-0.77,1.99-1.07,3.01c-0.16,0.51-0.29,1.03-0.42,1.55l-0.18,0.78l-0.08,0.39
					c-0.03,0.17-0.03,0.13-0.04,0.31c-0.75,8.87-1.61,17.91-2.63,27.02c-1.03,9.1-2.16,18.28-3.92,27.33
					c-0.89,4.52-1.94,9.04-3.48,13.39c-0.76,2.17-1.61,4.28-2.37,6.37c-0.37,1.05-0.74,2.11-1.11,3.16l-0.62,1.64l-0.7,1.56
					c-1.91,4.13-4.15,7.97-6.43,11.71c-2.28,3.74-4.67,7.34-7.08,10.82c-4.84,6.95-9.82,13.43-14.75,19.37
					c-4.94,5.94-9.79,11.38-14.49,16.2c-0.6,0.6-1.12,1.22-1.76,1.79c-0.63,0.57-1.25,1.14-1.87,1.7c-0.59,0.59-1.3,1.01-1.94,1.51
					c-0.67,0.46-1.27,1-1.97,1.37c-1.36,0.8-2.66,1.62-4.03,2.22c-0.68,0.31-1.32,0.67-2,0.93c-0.67,0.26-1.33,0.52-1.99,0.77
					c-5.25,1.97-10.09,2.75-14.09,3.2c-2,0.23-3.81,0.3-5.4,0.36c-0.79,0.01-1.53,0.02-2.22,0.01c-0.34-0.01-0.67-0.01-0.98-0.02
					c-0.29-0.01-0.57-0.03-0.83-0.04c-4.22,0.44-13.09,0.57-23.44-3.69c-5.15-2.12-10.66-5.41-15.62-10.12
					c-4.97-4.6-9.93-9.99-14.85-15.95c-4.92-5.97-9.8-12.52-14.55-19.53c-2.4-3.49-4.7-7.14-6.98-10.88
					c-2.24-3.77-4.45-7.61-6.35-11.77c-0.94-2.2-1.54-4.27-2.37-6.35c-0.8-2.08-1.66-4.19-2.42-6.36
					c-1.55-4.34-2.67-8.84-3.59-13.36c-1.79-9.06-2.9-18.24-3.94-27.34c-1.02-9.11-1.88-18.15-2.63-27.02
					c-0.01-0.18-0.01-0.14-0.04-0.31l-0.08-0.39l-0.18-0.78c-0.13-0.52-0.27-1.04-0.42-1.55c-0.3-1.03-0.67-2.03-1.07-3.01
					c-0.82-1.96-1.84-3.81-3.11-5.44c-1.26-1.63-2.77-3.02-4.47-4.07l-1.33-0.68c-0.43-0.25-0.93-0.34-1.39-0.52
					c-0.93-0.37-1.87-0.51-2.75-0.49c-0.87,0.04-1.62,0.35-2.19,0.93c-0.57,0.58-0.96,1.41-1.21,2.31c-0.5,1.81-0.52,3.81-0.41,5.75
					c0.25,3.9,1.08,7.71,2.1,11.32c0.51,1.81,1.09,3.57,1.76,5.25c0.68,1.77,1.2,3.54,1.65,5.29c0.89,3.49,1.5,6.89,2.04,10.15
					c0.53,3.26,0.95,6.39,1.32,9.37c0.17,1.49,0.34,2.94,0.5,4.35c0.07,0.7,0.15,1.4,0.22,2.08c0.05,0.32,0.09,0.63,0.15,0.95
					c0.08,0.32,0.15,0.63,0.23,0.94c1.47,4.98,4.23,8.83,6.95,11.34c2.75,2.53,5.5,3.75,7.41,4.31c0.94,0.36,1.71,0.42,2.21,0.57
					C46.3,244.09,46.56,244.18,46.55,244.21z"/>
			</g>
		</g>
	</g>
	<g>
		<g>
			<g>
				<path d="M122.87,190.59c0.15,0,0.26,0.72,0.34,2.01c0.05,1.28,0.21,3.14-0.03,5.37c-0.11,2.24-0.51,4.87-1.26,7.66
					c-0.22,0.69-0.44,1.4-0.66,2.11l-0.17,0.54l-0.24,0.52c-0.16,0.35-0.32,0.7-0.48,1.05c-0.58,1.45-1.51,2.77-2.41,4.11
					c-1.94,2.61-4.7,4.69-7.62,5.93c-2.92,1.26-5.95,1.7-8.51,2.03c-0.63,0.09-1.25,0.18-1.84,0.26c-0.66,0.1-1.27,0.15-1.84,0.18
					c-1.17,0.09-2.21,0.09-3.14,0.11c-1.86,0.01-3.25-0.05-4-0.07c-1.5-0.07-5.55-0.24-10.74-1.03c-2.59-0.39-5.46-0.95-8.41-1.8
					c-2.94-0.85-6-1.93-8.72-3.75c-0.67-0.48-1.3-1.02-1.94-1.52c-0.55-0.57-1.11-1.12-1.63-1.7c-1.01-1.18-1.92-2.39-2.67-3.63
					c-1.53-2.47-2.55-4.95-3.23-7.1c-1.34-4.32-1.35-7.31-1.06-7.33c0.31-0.04,0.77,2.81,2.38,6.86c0.81,2.01,1.91,4.31,3.44,6.57
					c0.76,1.13,1.65,2.23,2.61,3.29c0.5,0.52,1.03,1.01,1.55,1.52c0.57,0.41,1.12,0.86,1.71,1.26c2.44,1.56,5.36,2.55,8.18,3.32
					c2.83,0.77,5.62,1.29,8.14,1.65c5.05,0.74,9.02,0.9,10.48,0.97c0.73,0.02,2.09,0.08,3.89,0.08c0.9-0.01,1.92-0.01,3-0.09
					c0.55-0.03,1.1-0.07,1.65-0.15c0.61-0.08,1.24-0.17,1.89-0.26c2.56-0.31,5.3-0.7,7.92-1.78c2.61-1.08,5.04-2.83,6.83-5.12
					c0.83-1.19,1.71-2.35,2.29-3.67c0.16-0.32,0.32-0.64,0.48-0.96l0.24-0.47l0.18-0.5c0.24-0.66,0.47-1.32,0.7-1.96
					c0.82-2.6,1.35-5.11,1.62-7.28c0.4-2.15,0.44-3.97,0.62-5.24C122.56,191.31,122.72,190.59,122.87,190.59z"/>
			</g>
		</g>
	</g>
	<g>
		<g>
			<g>
				<path d="M146.37,190.59c0.15,0,0.31,0.72,0.46,1.99c0.18,1.26,0.22,3.08,0.62,5.24c0.28,2.17,0.8,4.68,1.62,7.28
					c0.23,0.64,0.46,1.3,0.7,1.96l0.18,0.5l0.24,0.47c0.16,0.32,0.32,0.64,0.48,0.96c0.57,1.32,1.45,2.48,2.29,3.67
					c1.8,2.29,4.23,4.04,6.83,5.12c2.63,1.09,5.36,1.47,7.92,1.78c0.65,0.09,1.28,0.17,1.89,0.26c0.55,0.08,1.1,0.13,1.65,0.15
					c1.08,0.08,2.1,0.08,3,0.09c1.8,0.01,3.16-0.05,3.89-0.08c1.46-0.07,5.43-0.23,10.48-0.97c2.52-0.36,5.31-0.88,8.14-1.65
					c2.82-0.77,5.74-1.76,8.18-3.32c0.59-0.4,1.13-0.85,1.71-1.26c0.52-0.51,1.05-1,1.55-1.52c0.96-1.06,1.86-2.16,2.61-3.29
					c1.53-2.26,2.64-4.56,3.44-6.57c1.61-4.05,2.07-6.9,2.38-6.86c0.29,0.02,0.29,3.01-1.06,7.33c-0.68,2.15-1.7,4.63-3.23,7.1
					c-0.75,1.24-1.67,2.45-2.67,3.63c-0.52,0.58-1.08,1.13-1.63,1.7c-0.64,0.5-1.27,1.04-1.94,1.52c-2.73,1.82-5.79,2.9-8.72,3.75
					c-2.95,0.85-5.82,1.41-8.41,1.8c-5.18,0.79-9.23,0.96-10.74,1.03c-0.75,0.02-2.14,0.08-4,0.07c-0.94-0.02-1.98-0.02-3.14-0.11
					c-0.58-0.03-1.19-0.08-1.84-0.18c-0.59-0.08-1.21-0.17-1.84-0.26c-2.56-0.33-5.58-0.77-8.51-2.03
					c-2.92-1.24-5.68-3.32-7.62-5.93c-0.9-1.34-1.83-2.66-2.41-4.11c-0.16-0.35-0.32-0.7-0.48-1.05l-0.24-0.52l-0.17-0.54
					c-0.22-0.72-0.44-1.42-0.66-2.11c-0.75-2.79-1.15-5.42-1.26-7.66c-0.24-2.24-0.08-4.09-0.03-5.37
					C146.1,191.31,146.22,190.58,146.37,190.59z"/>
			</g>
		</g>
	</g>
	<g>
		<g>
			<g>
				<path d="M112.4,240.32c0.1,0.07,0.04,0.39-0.15,0.89c-0.1,0.25-0.23,0.54-0.32,0.9c-0.06,0.17-0.12,0.36-0.18,0.55
					c-0.06,0.19-0.08,0.41-0.12,0.62c-0.16,0.86-0.11,1.87,0.43,2.76c0.28,0.44,0.66,0.85,1.14,1.21c0.25,0.17,0.51,0.34,0.78,0.49
					c0.14,0.07,0.28,0.14,0.43,0.2c0.14,0.06,0.32,0.13,0.32,0.12c-0.03-0.01,0.17,0.01,0.32,0.03l0.44,0.06
					c0.29,0.04,0.58,0.1,0.87,0.16c0.58,0.12,1.15,0.28,1.72,0.47c1.12,0.36,2.29,0.95,3.24,1.48c0.99,0.54,1.98,1.07,2.95,1.59
					c0.48,0.26,0.96,0.52,1.42,0.77c0.24,0.13,0.47,0.26,0.66,0.35c0.23,0.1,0.45,0.21,0.67,0.31c1.8,0.8,3.49,1.36,4.83,1.68
					c1.34,0.32,2.32,0.37,2.79,0.38c0.47-0.01,1.44-0.06,2.79-0.38c1.34-0.32,3.03-0.88,4.83-1.68c0.22-0.1,0.45-0.2,0.67-0.31
					c0.19-0.09,0.42-0.22,0.66-0.35c0.47-0.25,0.94-0.51,1.42-0.77c0.96-0.52,1.95-1.05,2.95-1.59c0.95-0.53,2.12-1.12,3.24-1.48
					c0.57-0.19,1.14-0.35,1.72-0.47c0.29-0.06,0.58-0.12,0.87-0.16l0.44-0.06c0.14-0.02,0.34-0.03,0.32-0.03
					c-0.01,0.01,0.17-0.06,0.32-0.12c0.14-0.06,0.29-0.14,0.43-0.2c0.28-0.15,0.54-0.31,0.78-0.49c0.48-0.36,0.86-0.77,1.14-1.21
					c0.54-0.89,0.59-1.9,0.43-2.76c-0.05-0.21-0.07-0.43-0.12-0.62c-0.06-0.19-0.12-0.38-0.18-0.55c-0.09-0.36-0.22-0.65-0.32-0.9
					c-0.19-0.5-0.26-0.82-0.15-0.89c0.1-0.07,0.35,0.12,0.73,0.54c0.19,0.21,0.42,0.48,0.61,0.84c0.22,0.35,0.45,0.76,0.61,1.27
					c0.36,0.98,0.52,2.44-0.17,3.84c-0.35,0.68-0.84,1.31-1.45,1.83c-0.31,0.25-0.63,0.49-0.98,0.71c-0.18,0.1-0.35,0.21-0.54,0.3
					c-0.19,0.09-0.34,0.18-0.7,0.31c-2.21,0.29-4,1.06-5.94,2.24c-0.99,0.56-1.97,1.13-2.92,1.67c-0.48,0.27-0.95,0.54-1.41,0.81
					c-0.23,0.13-0.45,0.27-0.73,0.4c-0.25,0.12-0.49,0.23-0.73,0.35c-1.92,0.88-3.73,1.5-5.24,1.88c-1.51,0.37-2.73,0.45-3.35,0.45
					c-0.62-0.01-1.84-0.08-3.35-0.45c-1.51-0.37-3.32-0.99-5.24-1.88c-0.24-0.11-0.48-0.23-0.73-0.35c-0.28-0.14-0.5-0.27-0.73-0.4
					c-0.46-0.26-0.94-0.53-1.41-0.81c-0.96-0.55-1.93-1.11-2.92-1.67c-1.94-1.18-3.73-1.95-5.94-2.24c-0.36-0.13-0.51-0.21-0.7-0.31
					c-0.19-0.09-0.36-0.2-0.54-0.3c-0.35-0.21-0.67-0.45-0.98-0.71c-0.61-0.52-1.1-1.15-1.45-1.83c-0.69-1.4-0.53-2.86-0.17-3.84
					c0.16-0.51,0.39-0.92,0.61-1.27c0.2-0.36,0.42-0.63,0.61-0.84C112.05,240.44,112.3,240.25,112.4,240.32z"/>
			</g>
		</g>
	</g>
	<g>
		<g>
			<g>
				<path d="M42.65,213.26c-0.05-0.06,0.06-0.24,0.32-0.52c0.13-0.14,0.29-0.31,0.48-0.5c0.17-0.17,0.36-0.36,0.58-0.57
					c0.08-0.08,0.2-0.15,0.12-0.29c-0.04-0.15-0.06-0.2-0.1-0.41c-0.09-0.42-0.18-0.87-0.28-1.35c-0.17-0.97-0.34-2.07-0.5-3.28
					c-0.61-4.83-1.02-11.37-1.22-18.1c-0.11-3.37-0.17-6.78-0.2-10.07c-0.01-1.64-0.01-3.25-0.02-4.8c0-0.78,0-1.54,0.01-2.29
					c-0.02-0.16,0.04-0.42,0.05-0.47l0.05-0.28l0.1-0.55c0.07-0.36,0.14-0.72,0.21-1.07c1.14-5.61,2.67-9.84,3.37-11.39
					c0.16-0.39,0.42-0.94,0.75-1.62c0.26-0.62,0.57-1.29,0.84-2.25c0.58-1.83,1.15-4.26,1.73-7c1.17-5.49,2.35-12.3,3.43-18.92
					c0.52-3.31,1.03-6.58,1.51-9.61c0.22-1.52,0.44-2.97,0.64-4.35c0.09-0.69,0.19-1.36,0.27-2.01c0.05-0.34,0.1-0.67,0.16-0.99
					c0.07-0.32,0.15-0.64,0.22-0.94c0.62-2.46,1.79-4.31,2.87-5.3c1.08-1.01,1.93-1.24,1.98-1.1c0.07,0.14-0.58,0.57-1.39,1.64
					c-0.82,1.05-1.69,2.79-2.09,5.07c-0.05,0.29-0.09,0.58-0.14,0.87c-0.03,0.3-0.06,0.61-0.09,0.92c-0.05,0.65-0.11,1.33-0.16,2.03
					c-0.12,1.4-0.28,2.87-0.45,4.41c-0.35,3.06-0.77,6.35-1.23,9.69c-0.94,6.67-2.05,13.52-3.2,19.1c-0.57,2.79-1.14,5.25-1.76,7.24
					c-0.27,0.97-0.67,1.91-0.99,2.62c-0.3,0.62-0.54,1.12-0.69,1.48c-0.64,1.41-2.11,5.45-3.26,10.92
					c-0.12,0.62-0.25,1.26-0.38,1.91c-0.01,0.74-0.02,1.5-0.03,2.27c-0.01,1.55-0.02,3.15-0.03,4.78c0.01,3.27,0.02,6.68,0.03,10.03
					c0.06,6.71,0.23,13.21,0.5,18.01c0.08,1.2,0.15,2.29,0.22,3.26c0.04,0.48,0.08,0.93,0.12,1.35c-0.01,0.49,0.32,1.17-0.29,1.33
					c-0.42,0.29-0.64,0.43-0.88,0.57c-0.23,0.14-0.43,0.26-0.6,0.35C42.9,213.26,42.7,213.32,42.65,213.26z"/>
			</g>
		</g>
	</g>
	<g>
		<g>
			<g>
				<path d="M36.42,178.52c0.02-0.08,0.68,0.03,1.89,0.3c0.63,0.15,1.3,0.28,2.27,0.56c0.72,0.42,1.79,0.45,2.93,0.96
					c1.15,0.46,2.28,1.54,2.82,2.94c0.54,1.36,0.95,2.79,1.42,4.35c0.46,1.56,0.91,3.22,1.37,4.97c0.11,0.42,0.22,0.85,0.33,1.29
					c0,0.23,0.23,0.33,0.42,0.34c0.35,0.05,0.78,0.01,1.21-0.06l0.24-0.05l0.14-0.04c0.09-0.03,0.2-0.05,0.26-0.1l-0.06-0.24
					l-0.07-0.3c-0.08-0.41-0.16-0.83-0.24-1.25c-0.15-0.84-0.27-1.7-0.37-2.58c-0.19-1.75-0.28-3.58-0.12-5.48
					c0.17-1.88,0.54-3.88,1.65-5.71c0.56-0.9,1.31-1.74,2.29-2.34c0.96-0.57,1.94-0.91,2.92-1.23c3.95-1.12,8.06-1.58,12.25-1.97
					c4.2-0.37,8.48-0.57,12.82-0.69c2.17-0.06,4.34-0.09,6.53-0.09c0.27,0,0.34,0.02,0.5,0.03l0.42,0.04l0.83,0.09l1.65,0.21
					c1.1,0.15,2.19,0.32,3.28,0.52c4.35,0.78,8.66,1.9,12.77,3.52c4.09,1.63,8.06,3.78,11.18,6.97c1.55,1.59,2.82,3.48,3.62,5.54
					l0.17,0.47c0,0.01,0.01,0.02,0.02,0.01l0.3,0.03c0.23,0.02,0.45,0.02,0.68,0.03c0.45,0,0.89-0.03,1.31-0.09
					c0.11-0.02,0.05-0.01,0.09-0.02l-0.01-0.03l0-0.01l-0.08-0.19c-0.06-0.15-0.12-0.3-0.2-0.44l-0.42-0.87l-0.49-0.84
					c-0.65-1.12-1.4-2.17-2.22-3.14c-1.64-1.94-3.46-3.65-5.42-5.02c-3.88-2.82-8-4.62-11.73-5.93c-0.94-0.31-1.87-0.55-2.76-0.81
					c-0.9-0.24-1.74-0.55-2.58-0.7c-1.68-0.35-3.23-0.67-4.62-0.96c-2.83-0.36-5.02-0.7-6.48-0.84c-3.98-0.36-13.74-1.15-26.46,0.93
					c-1.59,0.25-3.22,0.54-4.91,0.84c-1.7,0.3-3.42,0.64-5.32,0.83c-3.72,0.28-7.5,0.19-11.5-0.35c-3.82-0.66-7.76-1.34-11.78-2.04
					c-1.03-0.18-2.07-0.36-3.12-0.54l-1.48-0.25l-0.37-0.06c-0.03-0.01-0.07,0-0.08-0.02l0.01-0.09l0.02-0.19l0.06-0.75l0.17-2.09
					c0.17-2.06,0.34-4.13,0.51-6.21c0.34-4.16,0.68-8.36,1.03-12.56c0.29-4.27,0.77-8.46,1.23-12.61c0.96-8.3,2.01-16.42,3.11-24.03
					c0.55-3.81,1.11-7.49,1.72-11c0.29-1.76,0.62-3.47,0.95-5.14c0.09-0.42,0.19-0.83,0.28-1.24l0.14-0.62
					c0.05-0.22,0.07-0.35,0.18-0.72c0.18-0.63,0.36-1.26,0.53-1.88l0.07-0.23l0.03-0.12c0.01-0.04,0.02-0.09,0.06-0.05l0.42,0.26
					l0.83,0.51c2.83,1.75,5.48,3.39,7.92,4.9c2.3,1.44,4.4,2.75,6.26,3.92c3.22,1.2,5.92,2.22,7.68,2.92
					c1.79,0.71,2.74,1.14,2.7,1.24c-0.03,0.1-1.04-0.16-2.89-0.71c-1.87-0.56-4.47-1.39-7.94-2.52c-3.73-2.18-8.42-4.91-13.81-8.05
					l-0.2-0.11l-0.1-0.05c-0.02,0.01-0.02,0.07-0.04,0.1l-0.12,0.47c-0.15,0.76-0.31,1.52-0.47,2.3c-0.29,1.65-0.59,3.35-0.86,5.1
					c-0.55,3.5-1.05,7.17-1.56,10.98c-1,7.6-1.97,15.72-2.86,24.01c-0.43,4.14-0.88,8.34-1.13,12.49
					c-0.32,4.22-0.64,8.44-0.96,12.62c-0.16,2.09-0.32,4.17-0.48,6.24l-0.08,1c-0.01,0.04,0.03,0.03,0.05,0.04
					c0.98,0.17,1.96,0.33,2.93,0.49c4.01,0.68,7.94,1.34,11.76,1.99c3.68,0.49,7.47,0.57,10.92,0.3c1.68-0.17,3.42-0.52,5.1-0.82
					c1.69-0.31,3.35-0.61,4.96-0.86c6.47-1.05,12.24-1.41,16.88-1.43c4.64-0.02,8.14,0.29,10.19,0.46c1.49,0.13,3.75,0.48,6.66,0.86
					c1.44,0.3,3.04,0.63,4.78,0.99c0.88,0.16,1.75,0.48,2.68,0.73c0.92,0.28,1.89,0.53,2.87,0.85c3.89,1.38,8.22,3.27,12.37,6.29
					c2.09,1.48,4.06,3.32,5.84,5.44c0.89,1.06,1.71,2.22,2.44,3.46l0.54,0.94l0.48,0.99c0.08,0.16,0.16,0.33,0.22,0.51l0.31,0.78
					c0.22,0.64,0.37,1.26,0.56,1.91l-1.33,0.46c-0.42,0.14-0.97,0.27-1.36,0.33c-0.57,0.09-1.13,0.12-1.69,0.11
					c-0.28,0-0.56-0.01-0.83-0.04l-0.47-0.04c-0.25-0.03-0.49-0.06-0.73-0.11l-0.36-0.07l-0.18-0.04c-0.07-0.01-0.12-0.02-0.13-0.09
					l-0.27-0.68l-0.34-0.97c-0.67-1.75-1.74-3.38-3.11-4.79c-2.75-2.84-6.45-4.9-10.35-6.48c-3.92-1.57-8.1-2.68-12.33-3.47
					c-1.06-0.2-2.12-0.37-3.18-0.53l-1.6-0.21l-0.8-0.09l-0.71-0.07c-2.16-0.02-4.33,0-6.47,0.04c-4.3,0.08-8.56,0.25-12.7,0.56
					c-4.13,0.34-8.21,0.76-11.9,1.76c-0.9,0.27-1.79,0.58-2.51,1c-0.7,0.41-1.28,1.03-1.73,1.73c-0.91,1.43-1.3,3.21-1.48,4.94
					c-0.17,1.74-0.12,3.48,0.03,5.17c0.08,0.84,0.18,1.67,0.31,2.49c0.07,0.41,0.14,0.81,0.21,1.21l0.19,0.9l0.23,0.97
					c-0.35,0.12-0.75,0.23-1.12,0.33l-0.56,0.14l-0.48,0.09c-0.53,0.08-1.07,0.13-1.66,0.03c-0.73-0.11-1.48-0.52-1.51-1.3
					c-0.11-0.47-0.22-0.93-0.32-1.39c-0.41-1.76-0.82-3.42-1.22-4.98c-0.41-1.54-0.79-3.04-1.23-4.28
					c-0.43-1.23-1.26-2.09-2.23-2.56c-0.94-0.5-2.04-0.6-2.86-1.14c-0.83-0.28-1.53-0.52-2.11-0.72
					C37.01,178.85,36.4,178.59,36.42,178.52z"/>
			</g>
		</g>
	</g>
	<g>
		<g>
			<g>
				<path d="M42.28,97.86c0.01-0.06,0.68-0.03,1.95,0.1c1.29,0.13,3.09,0.33,5.59,0.64c2.63,1.09,5.94,2.48,9.85,4.1
					c8.08,1.02,18.52,2.34,30.53,3.85l1.13,0.15l0.78,0.1c0.15,0.04,0.25,0.19,0.38,0.28l0.27,0.24c0.52,0.46,1.14,0.87,1.78,1.25
					c1.29,0.76,2.71,1.39,4.18,1.98c2.94,1.16,6.09,2.1,9.33,2.96c6.49,1.7,13.4,3.06,20.53,4.16c1.78,0.27,3.59,0.52,5.37,0.7
					c0.92,0.1,1.62,0.07,2.56-0.04c0.88-0.08,1.8-0.23,2.7-0.36c3.64-0.56,7.32-1.26,11.01-1.97c3.7-0.72,7.41-1.47,11.14-2.25
					l1.4-0.29l0.88-0.19l0.88,0.12c0.93,0.12,1.87,0.21,2.8,0.29c1.87,0.15,3.75,0.24,5.61,0.21c1.85-0.04,3.72-0.18,5.39-0.63
					c0.41-0.12,0.8-0.27,1.16-0.43l1.15-0.66c0.24-0.13,0.48-0.28,0.71-0.4l0.68-0.3c0.45-0.2,0.91-0.42,1.36-0.58
					c3.61-1.42,7.23-2.57,10.84-3.71c3.61-1.13,7.2-2.19,10.77-3.22c1.78-0.51,3.56-1.01,5.32-1.52c1.84-0.51,3.68-1.02,5.5-1.52
					c1.15,0.14,2.29,0.28,3.43,0.41c1.07,0.11,2.13,0.22,3.18,0.33c2.11,0.21,4.21,0.38,6.28,0.51c2.07,0.13,4.12,0.22,6.12,0.23
					c2,0.01,3.99-0.05,5.82-0.34c0.45-0.08,0.89-0.17,1.27-0.3c0.37-0.11,0.75-0.31,0.81-0.4c0,0,0.01-0.01,0.01-0.01l0.03-0.61
					c-0.01-0.55,0.16-1.08,0.24-1.61c0.51-2.03,1.3-3.8,2.09-5.53c0.81-1.71,1.67-3.35,2.55-4.93c0.44-0.79,0.88-1.56,1.33-2.33
					c0.34-0.57,0.67-1.12,1.01-1.68l0,0l0,0.01l-0.09-0.17l-0.4-0.79c-0.24-0.53-0.47-1.06-0.7-1.58c-0.45-1.05-0.86-2.08-1.25-3.09
					c-0.78-2.03-1.49-3.99-2.17-5.86c-1.36-3.74-2.61-7.14-3.89-10.07c-1.27-2.93-2.57-5.42-3.92-7.24
					c-0.67-0.9-1.35-1.65-2.01-2.12c-0.28-0.26-0.71-0.54-1.07-0.79c-0.36-0.26-0.72-0.49-1.01-0.71
					c-3.45-2.49-9.74-7.65-18.47-14.14c-4.38-3.21-9.36-6.8-15.09-10.05c-0.72-0.38-1.46-0.77-2.2-1.15
					c-0.74-0.38-1.51-0.68-2.28-1.03c-0.38-0.19-0.77-0.33-1.17-0.45c-0.39-0.13-0.79-0.26-1.18-0.39c-0.79-0.27-1.68-0.4-2.52-0.61
					c-3.47-0.71-7.14-1.24-10.9-1.75c-7.55-0.97-15.53-1.74-23.77-2.34c-8.24-0.55-16.77-1.05-25.31-0.8
					c-4.23,0.13-8.5,0.82-12.78,1.5c-4.27,0.72-8.55,1.54-12.8,2.4c-4.25,0.86-8.49,1.77-12.69,2.7c-2.1,0.47-4.19,0.94-6.27,1.41
					c-1.06,0.24-2.11,0.49-3.17,0.73c-1.83,0.44-3.65,0.87-5.47,1.31c1.84-2.87,3.67-5.71,5.48-8.52l1.34,1.36
					c-10.88,6.6-21.34,12.77-30.32,19.21c-4.47,3.22-8.62,6.48-11.97,10c-1.67,1.76-3.15,3.61-4.04,5.58
					c-0.82,2.06-1.46,4.15-1.82,6.2c-0.81,4.09-1.11,7.89-1.29,11.23c-0.17,3.34-0.2,6.23-0.2,8.59c0.03,2.36,0.05,4.2,0.07,5.45
					c0.02,1.25,0.01,1.91-0.05,1.91c-0.06,0.01-0.18-0.65-0.32-1.89c-0.13-1.25-0.29-3.09-0.39-5.46c-0.1-2.37-0.18-5.28-0.1-8.65
					c0.09-3.37,0.3-7.22,1.06-11.42c0.1-0.53,0.2-1.06,0.3-1.59c0.14-0.53,0.27-1.07,0.41-1.62l0.21-0.82l0.28-0.82
					c0.2-0.55,0.36-1.1,0.6-1.66c0.98-2.24,2.52-4.19,4.22-6.04c3.43-3.69,7.59-7.04,12.07-10.35c8.99-6.6,19.45-12.89,30.26-19.54
					l3.61-2.22l-2.27,3.59c-0.91,1.43-1.82,2.88-2.75,4.34l0.73-0.18c1.02-0.24,2.04-0.48,3.06-0.73c2.08-0.48,4.18-0.97,6.28-1.45
					c4.21-0.96,8.45-1.89,12.72-2.77c4.27-0.88,8.56-1.73,12.86-2.47c4.31-0.71,8.65-1.43,13.06-1.58
					c8.73-0.28,17.27,0.2,25.57,0.73c8.29,0.58,16.31,1.35,23.91,2.31c3.8,0.51,7.5,1.04,11.09,1.77c0.9,0.22,1.79,0.35,2.68,0.65
					c0.45,0.15,0.89,0.29,1.33,0.43c0.45,0.13,0.88,0.29,1.28,0.49c0.82,0.37,1.65,0.7,2.43,1.1c0.77,0.4,1.54,0.81,2.29,1.2
					c5.93,3.35,10.94,6.97,15.37,10.21c8.79,6.53,15.11,11.7,18.46,14.12c0.29,0.23,0.61,0.43,0.96,0.68
					c0.34,0.24,0.69,0.46,1.15,0.85c0.93,0.68,1.73,1.59,2.5,2.62c1.54,2.07,2.88,4.7,4.2,7.72c1.31,3.03,2.58,6.47,3.94,10.21
					c0.68,1.87,1.38,3.82,2.15,5.82c0.39,0.99,0.78,2.01,1.21,3.01c0.22,0.5,0.44,1,0.67,1.51c0.35,0.7,0.7,1.4,1.05,2.11
					c-0.34,0.55-0.68,1.1-1.03,1.65c-0.22,0.37-0.44,0.74-0.66,1.11c-0.43,0.75-0.87,1.51-1.31,2.28c-0.86,1.54-1.7,3.14-2.48,4.78
					c-0.76,1.64-1.5,3.36-1.94,5.07c-0.06,0.42-0.2,0.83-0.19,1.25l-0.01,0.32l-0.04,0.53c-0.07,0.48-0.32,0.91-0.66,1.26
					c-0.64,0.6-1.21,0.78-1.76,0.98c-0.55,0.18-1.08,0.29-1.61,0.38c-2.1,0.34-4.15,0.37-6.23,0.37c-2.07-0.01-4.16-0.11-6.26-0.25
					c-2.1-0.14-4.22-0.32-6.36-0.53c-1.07-0.11-2.14-0.23-3.22-0.34c-1-0.12-2-0.24-3.01-0.37c-1.67,0.46-3.34,0.92-5.03,1.38
					c-1.76,0.5-3.53,1-5.31,1.5c-3.56,1.02-7.14,2.07-10.73,3.18c-3.58,1.12-7.2,2.26-10.68,3.61c-0.45,0.16-0.85,0.36-1.27,0.54
					l-0.63,0.28c-0.19,0.1-0.35,0.2-0.54,0.3l-1.33,0.76c-0.51,0.23-1.02,0.42-1.52,0.56c-2.02,0.54-4,0.66-5.96,0.69
					c-1.96,0.02-3.9-0.08-5.83-0.24c-0.97-0.08-1.93-0.19-2.89-0.31c-0.69-0.09-0.38-0.1-1.05,0.03l-1.4,0.29
					c-3.74,0.76-7.46,1.5-11.18,2.2c-3.72,0.7-7.41,1.37-11.11,1.92c-0.93,0.13-1.85,0.27-2.8,0.35c-0.9,0.11-2.04,0.14-2.95,0.02
					c-1.87-0.2-3.67-0.47-5.47-0.76c-7.19-1.16-14.13-2.58-20.7-4.36c-3.28-0.9-6.47-1.89-9.5-3.12c-1.51-0.62-2.99-1.3-4.39-2.14
					c-0.7-0.43-1.38-0.88-2-1.45c-0.33-0.28-0.09-0.17-0.59-0.25l-1.13-0.16c-12.03-1.73-22.5-3.23-30.6-4.39
					c-3.87-1.76-7.16-3.25-9.76-4.44c-2.3-0.39-4.22-0.72-5.45-0.96C42.92,98.09,42.27,97.93,42.28,97.86z"/>
			</g>
		</g>
	</g>
	<g>
		<g>
			<g>
				<path d="M232.82,178.52c0.02,0.08-0.6,0.34-1.78,0.76c-0.3,0.1-0.63,0.21-0.99,0.34c-0.18,0.06-0.37,0.12-0.57,0.19
					c-0.19,0.07-0.43,0.12-0.54,0.2c-0.86,0.54-1.94,0.63-2.88,1.15c-0.95,0.48-1.78,1.34-2.19,2.58c-0.43,1.26-0.81,2.75-1.22,4.29
					c-0.4,1.55-0.8,3.21-1.21,4.96c-0.11,0.46-0.21,0.93-0.32,1.4c-0.04,0.79-0.84,1.17-1.55,1.28c-0.59,0.09-1.13,0.04-1.66-0.04
					l-0.2-0.03l-0.29-0.06l-0.57-0.15c-0.37-0.1-0.78-0.2-1.13-0.33l0.24-1.03l0.19-0.93c0.07-0.42,0.14-0.84,0.21-1.26
					c0.13-0.85,0.23-1.72,0.31-2.6c0.15-1.76,0.18-3.58-0.04-5.39c-0.23-1.79-0.72-3.62-1.79-4.98c-0.55-0.69-1.17-1.18-2.02-1.54
					c-0.84-0.37-1.78-0.65-2.74-0.89c-3.89-0.91-8.1-1.31-12.35-1.62c-4.26-0.29-8.6-0.44-12.95-0.49l-3.26-0.02l-1.61,0.01
					l-0.72,0.07l-0.8,0.09c-2.13,0.26-4.25,0.62-6.33,1.04c-4.17,0.87-8.23,2.04-11.95,3.66c-3.7,1.62-7.11,3.7-9.54,6.43
					c-1.21,1.36-2.15,2.86-2.74,4.45l-0.12,0.35c-0.08,0.21-0.15,0.44-0.24,0.64c-0.1,0.19-0.15,0.43-0.28,0.58l-0.64,0.15
					c-1.03,0.18-1.33,0.17-1.89,0.18c-0.54-0.01-0.97-0.04-1.59-0.15c-0.87-0.18-1.63-0.48-2.43-0.76c0.2-0.76,0.35-1.49,0.64-2.24
					l0.26-0.69l0.26-0.58c0.33-0.78,0.76-1.48,1.14-2.19c0.44-0.67,0.85-1.34,1.31-1.96c0.48-0.6,0.93-1.21,1.41-1.77
					c0.5-0.54,1-1.06,1.48-1.58c0.49-0.51,1.03-0.93,1.52-1.39c0.97-0.93,2.03-1.61,2.98-2.33c0.47-0.37,0.96-0.66,1.44-0.95
					c0.48-0.29,0.93-0.56,1.38-0.83c0.87-0.57,1.74-0.94,2.52-1.33c0.78-0.37,1.48-0.71,2.1-1.01c0.64-0.25,1.2-0.46,1.66-0.64
					c1.04-0.4,2.53-1.02,4.47-1.52c0.97-0.26,2.02-0.63,3.2-0.89c1.18-0.24,2.44-0.51,3.8-0.79c0.34-0.07,0.68-0.14,1.03-0.21
					c0.35-0.05,0.71-0.1,1.07-0.15c0.73-0.1,1.47-0.2,2.24-0.3c0.77-0.1,1.55-0.21,2.35-0.31c0.8-0.1,1.63-0.14,2.47-0.22
					c3.37-0.27,7.03-0.41,10.91-0.3c3.87,0.11,7.96,0.42,12.16,1.03c2.1,0.29,4.22,0.66,6.36,1.04c2.13,0.37,4.31,0.84,6.37,1.04
					c2.14,0.17,4.35,0.18,6.55,0.08c1.1-0.05,2.21-0.13,3.3-0.25c1.05-0.12,2.22-0.32,3.32-0.47c4.17-0.61,8.37-1.22,12.52-1.83
					c-0.05-1.86-0.11-3.72-0.16-5.56c-0.04-2.15-0.09-4.29-0.13-6.4c-0.06-4.22-0.08-8.35,0-12.33c0.06-1.99,0.11-3.94,0.29-5.87
					c0.06-0.94,0.27-2.01,0.37-2.82c0.13-0.86,0.18-1.78,0.24-2.65c0.2-3.55,0.24-6.92,0.27-10.02c0-6.2,0-11.31,0-14.88
					c0.01-3.57,0.06-5.58,0.21-5.59c0.15-0.01,0.36,2,0.58,5.56c0.22,3.56,0.46,8.68,0.59,14.89c0.05,3.11,0.1,6.49-0.04,10.11
					c-0.05,0.91-0.08,1.82-0.2,2.79c-0.11,1.02-0.26,1.79-0.31,2.75c-0.14,1.85-0.16,3.78-0.19,5.75
					c-0.02,3.94,0.05,8.05,0.16,12.26c0.06,2.1,0.13,4.23,0.2,6.38c0.1,2.46,0.19,4.94,0.29,7.43c-4.77,0.73-9.59,1.47-14.38,2.21
					c-1.14,0.17-2.2,0.36-3.4,0.5c-1.15,0.13-2.3,0.22-3.44,0.28c-2.29,0.12-4.56,0.12-6.84-0.05c-2.34-0.23-4.47-0.68-6.6-1.04
					c-2.12-0.37-4.21-0.73-6.27-1c-4.11-0.58-8.11-0.88-11.89-0.97c-3.79-0.1-7.37,0.04-10.66,0.31c-0.82,0.08-1.63,0.12-2.41,0.22
					c-0.78,0.11-1.54,0.21-2.29,0.31c-0.74,0.1-1.47,0.2-2.17,0.29c-0.35,0.05-0.7,0.1-1.04,0.14c-0.34,0.07-0.67,0.14-1,0.21
					c-1.31,0.27-2.54,0.53-3.67,0.77c-1.13,0.25-2.14,0.6-3.07,0.85c-1.87,0.49-3.28,1.08-4.28,1.46c-0.45,0.17-0.98,0.37-1.59,0.61
					c-0.59,0.28-1.25,0.6-1.99,0.96c-0.73,0.36-1.56,0.72-2.38,1.25c-0.42,0.25-0.85,0.51-1.29,0.78c-0.45,0.26-0.91,0.54-1.35,0.89
					c-0.88,0.67-1.88,1.31-2.78,2.17c-0.45,0.42-0.96,0.81-1.4,1.28c-0.44,0.47-0.9,0.95-1.36,1.45c-0.44,0.51-0.85,1.07-1.29,1.61
					c-0.42,0.56-0.79,1.17-1.19,1.77c-0.34,0.63-0.73,1.26-1.01,1.94l-0.23,0.51l-0.16,0.43l-0.01,0.01l0.01,0.01
					c0.26,0.05,0.72,0.1,1.08,0.1c0.33,0.01,0.96-0.05,0.81-0.04l0.01,0l0,0l0.11-0.31c0.71-1.89,1.82-3.65,3.2-5.19
					c2.78-3.09,6.48-5.29,10.38-6.98c3.93-1.68,8.12-2.87,12.42-3.74c2.15-0.43,4.32-0.78,6.52-1.03l0.83-0.09l0.42-0.04l0.49-0.04
					l1.67,0l3.29,0.05c4.38,0.09,8.76,0.27,13.07,0.61c4.31,0.35,8.56,0.79,12.67,1.81c1.03,0.27,2.05,0.59,3.06,1.05
					c0.5,0.23,1.02,0.52,1.48,0.89c0.45,0.37,0.87,0.77,1.2,1.23c1.38,1.82,1.85,3.94,2.08,5.91c0.21,1.99,0.13,3.91-0.05,5.75
					c-0.1,0.92-0.22,1.82-0.38,2.71c-0.08,0.44-0.17,0.88-0.25,1.31l-0.08,0.34l-0.06,0.23c0.05,0.04,0.16,0.06,0.24,0.09l0.13,0.04
					l0.23,0.05c0.42,0.08,0.85,0.11,1.19,0.07c0.19-0.02,0.41-0.09,0.41-0.31c0.11-0.42,0.22-0.84,0.33-1.26
					c0.46-1.75,0.91-3.4,1.37-4.95c0.47-1.56,0.88-2.99,1.42-4.35c0.52-1.41,1.65-2.51,2.81-2.99c1.15-0.52,2.24-0.56,2.94-0.96
					c0.28-0.14,0.49-0.14,0.69-0.21c0.2-0.05,0.4-0.09,0.59-0.14c0.37-0.09,0.71-0.16,1.02-0.23
					C232.13,178.54,232.79,178.43,232.82,178.52z"/>
			</g>
		</g>
	</g>
	<g>
		<g>
			<g>
				<path d="M40.4,228.35c-0.08,0.13-0.5-0.01-1.22-0.4c-0.65-0.46-1.59-1.22-2.3-2.46c-0.74-1.21-1.31-2.79-1.6-4.53
					c-0.29-1.72-0.32-3.7-0.11-5.52c0.25-3.6,0.34-7.36,0.29-10.4c-0.04-3.04-0.19-5.39-0.27-6.26c-0.07-0.87-0.25-3.21-0.78-6.17
					c-0.13-0.74-0.28-1.52-0.5-2.28c-0.17-0.79-0.47-1.56-0.74-2.37c-0.62-1.58-1.42-3.16-2.41-4.59c-0.98-1.44-2.14-2.73-3.34-3.81
					c-0.6-0.53-1.19-1.03-1.78-1.46c-0.11-0.1-0.2-0.17-0.33-0.27l-0.19-0.14c-0.03-0.01-0.08-0.07-0.09-0.04l-0.03,0.08
					c-0.04,0.12-0.09,0.24-0.12,0.35c-0.02,0.07-0.05,0.13-0.07,0.2c-0.02,0.06-0.07,0.25-0.1,0.36c-0.14,0.52-0.26,0.97-0.38,1.33
					c-0.24,0.73-0.44,1.13-0.59,1.11c-0.15-0.02-0.21-0.47-0.21-1.24c0-0.38,0.02-0.85,0.06-1.38c0.01-0.15,0.02-0.3,0.04-0.45
					c0.02-0.22,0.05-0.44,0.07-0.67c0.05-0.48,0.13-0.94,0.21-1.44l0.07-0.38c-0.01-0.1,0.07-0.04,0.12-0.02l0.17,0.07
					c0.23,0.1,0.47,0.21,0.71,0.32c0.48,0.23,1.03,0.51,1.55,0.84c0.69,0.4,1.37,0.89,2.07,1.42c1.38,1.08,2.72,2.42,3.87,3.97
					c1.16,1.54,2.1,3.26,2.83,5c0.32,0.88,0.67,1.74,0.87,2.6c0.26,0.86,0.42,1.68,0.57,2.45c0.59,3.1,0.77,5.53,0.84,6.42
					c0.08,0.9,0.24,3.32,0.25,6.43c0.01,3.12-0.16,6.92-0.56,10.62c-0.57,3.53-0.19,6.95,0.84,9.19c0.47,1.15,1.14,1.92,1.58,2.51
					C40.21,227.86,40.48,228.22,40.4,228.35z"/>
			</g>
		</g>
	</g>
	<path d="M35.19,190.47c0,0-4,13.13-3.57,16.99s1.79,10.58,4.43,11.45C36.05,218.91,37.86,196.87,35.19,190.47z"/>
	<g>
		<g>
			<g>
				<path d="M228.8,228.35c-0.08-0.13,0.19-0.5,0.7-1.01c0.44-0.59,1.11-1.36,1.58-2.51c1.02-2.24,1.41-5.66,0.84-9.19
					c-0.41-3.7-0.57-7.5-0.56-10.62c0.01-3.12,0.16-5.53,0.25-6.43c0.07-0.9,0.25-3.32,0.84-6.42c0.15-0.77,0.32-1.59,0.57-2.45
					c0.2-0.86,0.55-1.72,0.87-2.6c0.72-1.73,1.67-3.46,2.83-5c1.15-1.54,2.5-2.89,3.87-3.97c0.69-0.53,1.38-1.02,2.07-1.42
					c0.52-0.32,1.07-0.61,1.55-0.84c0.24-0.11,0.47-0.21,0.71-0.32l0.17-0.07c0.05-0.02,0.13-0.08,0.12,0.02l0.07,0.38
					c0.09,0.5,0.17,0.96,0.21,1.44c0.02,0.23,0.05,0.45,0.07,0.67c0.01,0.15,0.02,0.3,0.04,0.45c0.04,0.53,0.06,1,0.06,1.38
					c0.01,0.77-0.05,1.22-0.21,1.24c-0.15,0.02-0.35-0.38-0.59-1.11c-0.12-0.37-0.25-0.81-0.38-1.33c-0.03-0.11-0.07-0.3-0.1-0.36
					c-0.02-0.06-0.04-0.13-0.07-0.2c-0.04-0.11-0.08-0.23-0.12-0.35l-0.03-0.08c-0.01-0.03-0.06,0.03-0.09,0.04l-0.19,0.14
					c-0.12,0.09-0.21,0.17-0.33,0.27c-0.59,0.42-1.18,0.92-1.78,1.46c-1.19,1.08-2.35,2.37-3.34,3.81c-0.99,1.44-1.8,3.02-2.41,4.59
					c-0.27,0.8-0.57,1.58-0.74,2.37c-0.22,0.77-0.37,1.54-0.5,2.28c-0.53,2.96-0.71,5.3-0.78,6.17c-0.08,0.87-0.23,3.21-0.27,6.26
					c-0.05,3.04,0.04,6.79,0.29,10.4c0.21,1.82,0.18,3.8-0.11,5.52c-0.29,1.74-0.86,3.32-1.6,4.53c-0.71,1.24-1.65,2-2.3,2.46
					C229.31,228.34,228.88,228.48,228.8,228.35z"/>
			</g>
		</g>
	</g>
	<path d="M234.02,190.47c0,0,4,13.13,3.57,16.99s-1.79,10.58-4.43,11.45C233.16,218.91,231.35,196.87,234.02,190.47z"/>
	<g>
		<g>
			<g>
				<path d="M211.87,103.39c0.24-0.14,2.09,2.44,3.96,6.94c0.46,1.13,0.9,2.39,1.23,3.8c0.16,0.7,0.3,1.44,0.34,2.24
					c0.07,0.8,0.07,1.41,0.17,2.19c0.32,2.98,0.81,6.22,1.3,9.5c2.03,13.12,4.37,27.01,5.52,29.97c0.46,1.67,1.11,6.02,1.42,11.65
					c0.29,5.61,0.51,12.46,0.55,19.13c0.03,6.67-0.1,13.14-0.61,17.94c-0.11,1.2-0.26,2.3-0.42,3.26l-0.04,0.24l-0.04,0.19
					c0.04,0.11,0.15,0.18,0.23,0.28c0.29,0.3,0.56,0.57,0.8,0.82c0.96,1,1.45,1.62,1.35,1.73s-0.77-0.3-1.89-1.13
					c-0.28-0.21-0.58-0.44-0.92-0.7c-0.21-0.19-0.52-0.36-0.68-0.61c0.02-0.31,0.04-0.63,0.06-0.96c0.06-0.95,0.12-2.03,0.14-3.22
					c0.16-4.75,0.07-11.18-0.11-17.81c-0.19-6.63-0.49-13.47-0.81-19.02c-0.34-5.53-0.98-9.77-1.38-11.2
					c-0.04-0.18-0.1-0.41-0.18-0.65c-0.08-0.27-0.17-0.57-0.27-0.92c-0.24-0.78-0.41-1.62-0.63-2.61c-0.41-1.96-0.86-4.41-1.35-7.17
					c-0.95-5.53-2-12.3-2.85-18.91c-0.42-3.31-0.81-6.56-1.03-9.64c-0.07-0.73-0.06-1.62-0.09-2.27c0-0.66-0.09-1.33-0.21-1.98
					c-0.23-1.3-0.57-2.53-0.94-3.64C213.01,106.34,211.58,103.54,211.87,103.39z"/>
			</g>
		</g>
	</g>
</g>
</svg>
