<?xml version="1.0" encoding="utf-8"?>
<!-- Generator: Adobe Illustrator 24.1.0, SVG Export Plug-In . SVG Version: 6.00 Build 0)  -->
<svg version="1.1" xmlns="http://www.w3.org/2000/svg" xmlns:xlink="http://www.w3.org/1999/xlink" x="0px" y="0px"
	 viewBox="0 0 300 300" style="enable-background:new 0 0 300 300;" xml:space="preserve">
<style type="text/css">
	.st0{fill:#8892BF;}
	.st1{fill:none;stroke:#4F5B93;stroke-width:10;stroke-miterlimit:10;}
	.st2{fill:#232531;}
	.st3{fill:#41455B;}
	.st4{fill:#40445A;}
	.st5{fill:#565C78;}
</style>
<g id="Capa_1">
</g>
<g id="color_circle">
	<circle class="st0" cx="150" cy="150" r="137.5"/>
</g>
<g id="circle">
	<circle class="st1" cx="150" cy="150" r="140"/>
</g>
<g id="PHP">
	<g>
		<path class="st2" d="M166.7,182.17c0.77-7.61,2.9-14.97,4.04-22.51c1.08-7.14,3.32-14.09,3.45-21.41c0.04-2.5-1.11-3.73-3.31-4.04
			c-6.08-0.86-12.19-0.27-18.29-0.35c-1.85-0.02-1.57,1.71-1.79,2.78c-2.79,13.69-5.5,27.39-8.25,41.09c-0.3,1.51-0.72,3-1.09,4.5
			c-6.22,0.52-12.46,0.09-18.68,0.23c-1.32,0.03-1.96-0.46-1.52-1.85c2.59-13.4,5.16-26.8,7.79-40.2
			c2.79-14.21,5.69-28.39,8.39-42.61c0.47-2.49,1.33-3.47,3.99-3.34c4.85,0.24,9.73,0.18,14.59,0.02c2.56-0.08,2.93,0.85,2.44,3.12
			c-1.2,5.56-2.12,11.18-3.29,16.74c-0.48,2.27-0.01,3.09,2.51,3.1c7.22,0.05,14.46-0.56,21.66,0.59c4.05,0.65,7.81,1.93,11.16,4.34
			c5.93,4.26,6.33,10.37,5.29,16.73c-2.28,13.93-4.78,27.82-7.17,41.73c-0.15,0.89-0.43,1.59-1.38,1.83
			c-5.73-0.47-11.47-0.06-17.21-0.22C168.91,182.44,167.76,182.76,166.7,182.17z"/>
		<path class="st3" d="M121.25,180.63c0.65,1.8,2.2,1.55,3.61,1.56c5.53,0.03,11.06,0.04,16.59,0.06c-2.76,1.15-5.65,0.39-8.47,0.51
			c-3.37,0.14-6.76,0.01-10.14,0.04C121.25,182.8,120.41,182.36,121.25,180.63z"/>
		<path class="st4" d="M166.7,182.17c5.64,0.01,11.28,0.01,16.91,0.02c1.22,0,2.47-0.12,3.62,0.48c-6.19,0.03-12.37,0.07-18.56,0.09
			C167.96,182.77,167.19,182.89,166.7,182.17z"/>
		<g>
			<path class="st2" d="M103.92,118.1c-7.72-1.29-15.51-0.24-21.87-0.61c-7.9,0-14.43,0.05-20.95-0.03c-1.83-0.02-2.75,0.4-3.14,2.4
				c-5.41,27.73-10.9,55.44-16.43,83.14c-0.35,1.76-0.09,2.45,1.84,2.42c5.38-0.08,10.77-0.11,16.15,0.02
				c1.96,0.04,2.46-0.92,2.75-2.53c0.76-4.28,1.61-8.54,2.43-12.81c1.42-7.43,1.43-7.34,9.12-7.46c6.92-0.11,13.89,0.75,20.75-0.71
				c17.6-3.76,29.63-19.07,30.25-38.37C125.28,129.26,118.06,120.46,103.92,118.1z M102.94,144.98c-0.06,0.82-0.13,1.65-0.23,2.47
				c-1.5,12.55-8.41,18.76-21.04,18.9c-3,0.03-5.99-0.03-8.99,0.02c-1.53,0.03-2.22-0.27-1.9-2.11c1.66-9.46,3.21-18.94,4.72-28.43
				c0.27-1.7,1.1-2.19,2.71-2.11c2.27,0.11,4.55,0.03,6.82,0.02c3.4,0.08,6.82-0.24,10.18,0.62
				C100.79,135.79,103.36,139.29,102.94,144.98z"/>
		</g>
		<g>
			<path class="st2" d="M245.2,117.56c-6.2-0.25-12.42-0.04-18.63-0.04c0-0.01,0-0.03,0-0.04c-6.21,0-12.44,0.21-18.63-0.09
				c-3.14-0.15-4.05,1.03-4.51,3.85c-0.96,5.92-2.24,11.79-3.41,17.68c-4.18,21.11-8.34,42.23-12.59,63.33
				c-0.49,2.43-0.01,3.33,2.62,3.23c4.55-0.18,9.13-0.29,13.66,0.03c3.26,0.23,4.23-1.12,4.68-4.03c0.79-5.21,2.09-10.35,2.84-15.57
				c0.38-2.64,1.42-3.34,4-3.29c7.14,0.14,14.34,0.54,21.41-0.18c18.94-1.95,33.08-17.77,33.92-37.26
				C271.29,127.97,262.46,118.26,245.2,117.56z M247.83,151.16c-2.12,9.27-7.25,13.73-16.97,14.98c-4.81,0.25-9.62,0.41-14.42-0.09
				c0.95-6.32,1.9-12.64,2.86-18.95c0.49-3.25,1.07-6.48,1.5-9.73c0.32-2.4,1.01-3.94,4-3.73c3.91,0.28,7.85,0.06,11.78,0.09
				c2.51,0.02,4.94,0.49,7.2,1.63c3.34,1.69,5.25,4.38,5.06,8.19C248.69,146.09,248.4,148.67,247.83,151.16z"/>
		</g>
		<path class="st5" d="M216.43,166.05c4.81,0.03,9.61,0.06,14.42,0.09C226.04,166.83,221.23,167.02,216.43,166.05z"/>
	</g>
</g>
</svg>
