<?xml version="1.0" encoding="utf-8"?>
<!-- Generator: Adobe Illustrator 24.1.0, SVG Export Plug-In . SVG Version: 6.00 Build 0)  -->
<svg version="1.1" xmlns="http://www.w3.org/2000/svg" xmlns:xlink="http://www.w3.org/1999/xlink" x="0px" y="0px"
	 viewBox="0 0 300 300" style="enable-background:new 0 0 300 300;" xml:space="preserve">
<style type="text/css">
	.st0{fill:#2D79C6;}
	.st1{fill:none;stroke:#1071C1;stroke-width:10;stroke-miterlimit:10;}
	.st2{fill:#FEFEFE;}
	.st3{fill:#629BD5;}
</style>
<g id="Capa_1">
</g>
<g id="color_circle">
	<circle class="st0" cx="150" cy="150" r="137.5"/>
</g>
<g id="circle">
	<circle class="st1" cx="150" cy="150" r="140"/>
</g>
<g id="TS">
	<g>
		<path class="st2" d="M235.26,119.59c5.32,0.38,10.52,1.42,15.64,3.02c1.89,0.59,2.67,1.59,2.61,3.81
			c-0.15,5.79-0.04,11.58-0.06,17.38c-0.01,3.09-0.02,3.05-2.7,1.54c-9.37-5.26-19.23-7.36-29.73-5.17c-0.46,0.1-0.92,0.2-1.36,0.36
			c-4.12,1.49-7.84,3.55-8.67,8.71c-0.82,5.08,1.99,8.26,5.48,10.92c4.98,3.8,10.71,6,16.23,8.65c5.54,2.66,10.78,5.8,15.61,9.82
			c14.27,11.87,14.66,44.42-9.46,53.45c-11.18,4.18-22.66,4.39-34.25,2.97c-5.57-0.68-11.01-2.02-16.19-4.43
			c-1.17-0.54-2.13-1.04-2.11-2.71c0.07-7.29,0.04-14.58,0.07-21.87c0-0.26,0.19-0.51,0.42-1.08c4.56,3.68,9.31,6.75,14.68,8.52
			c7.9,2.61,15.9,3.57,23.91,0.75c8.8-3.1,10.43-12.01,3.42-18.51c-5.24-4.86-11.77-7.21-18-10.08c-4.55-2.1-8.86-4.59-12.95-7.62
			c-17.24-12.77-16.76-44.03,6.02-54.14c5.22-2.32,10.67-3.49,16.22-4.27C225.18,119.18,230.22,119.21,235.26,119.59z"/>
		<path class="st2" d="M146.84,188.27c0,14.28-0.05,28.56,0.05,42.84c0.02,2.44-0.56,3.3-2.94,3.23c-5.96-0.17-11.93-0.18-17.89,0
			c-2.48,0.08-3.14-0.74-3.13-3.36c0.08-28.16,0.05-56.32,0.05-84.48c0-4.08,0-4.08-3.72-4.09c-7.83,0-15.66-0.06-23.49,0.04
			c-2,0.03-2.82-0.44-2.75-2.79c0.16-5.09,0.12-10.19,0.01-15.28c-0.04-1.98,0.61-2.56,2.41-2.56c26.37,0.05,52.75,0.05,79.12-0.01
			c2,0,2.53,0.73,2.48,2.77c-0.12,4.89-0.16,9.79,0.01,14.68c0.08,2.43-0.51,3.26-2.9,3.21c-8.11-0.16-16.22,0.06-24.32-0.13
			c-2.55-0.06-3.08,0.82-3.06,3.39C146.9,159.91,146.84,174.09,146.84,188.27z"/>
		<path class="st3" d="M235.26,119.59c-5.04,0-10.09,0.01-15.13,0.01C225.18,118.47,230.22,118.49,235.26,119.59z"/>
	</g>
</g>
</svg>
